<?xml version="1.0" encoding="UTF-8"?>
<svg version="1.1" xmlns="http://www.w3.org/2000/svg" width="1024" height="1024">
<path d="M0 0 C40.68042686 -1.16674264 78.90389225 15.54584734 108.296875 43.15625 C110.7797101 45.71874826 113.04743658 48.38996933 115.296875 51.15625 C116.4207718 52.38642546 117.54581565 53.61555375 118.671875 54.84375 C134.6848565 73.29271079 145.28289161 97.36304177 150.296875 121.15625 C150.44640625 121.85814453 150.5959375 122.56003906 150.75 123.28320312 C159.08701522 164.35737726 150.17741623 206.83750289 132.296875 244.15625 C131.89662109 244.99784668 131.49636719 245.83944336 131.08398438 246.70654297 C121.77161925 266.00953602 110.18580369 284.55340963 95.75 300.44921875 C94.20547747 302.15360428 92.70730282 303.90235587 91.28125 305.70703125 C89.10982793 308.38711321 86.77101724 310.75398651 84.296875 313.15625 C83.51570313 313.92324219 82.73453125 314.69023437 81.9296875 315.48046875 C61.34530035 334.87852829 35.24597235 347.74587528 6.57006836 347.13452148 C-8.19011524 346.57219079 -21.23187465 343.38160054 -34.703125 337.15625 C-37.08049577 353.50067405 -34.6023832 367.53757505 -24.55859375 381.0390625 C-18.87538587 388.14549279 -12.92919769 394.41503072 -5.828125 400.09375 C0.87523765 405.48417817 7.03423779 411.42103399 13.265625 417.34375 C16.4174624 420.33740969 19.61053175 423.26838934 22.859375 426.15625 C26.49853374 429.39516285 29.94259171 432.77507065 33.35546875 436.25 C35.32957881 438.18836159 37.37915624 439.98689532 39.484375 441.78125 C42.81798784 444.64141199 45.48966962 447.77320762 48.296875 451.15625 C49.36496184 452.07020786 50.44966003 452.96497371 51.546875 453.84375 C63.48201983 463.81553767 73.09062146 478.63629665 78.296875 493.15625 C78.91691406 492.79273438 79.53695313 492.42921875 80.17578125 492.0546875 C91.94947516 485.37093113 104.32145131 480.87601733 117.296875 477.15625 C116.80058594 476.31964844 116.30429687 475.48304688 115.79296875 474.62109375 C113.56746293 470.83249413 111.42725368 466.99891342 109.296875 463.15625 C108.34941406 461.47789062 108.34941406 461.47789062 107.3828125 459.765625 C95.02624386 435.92343529 94.8784174 408.21056587 102.484375 382.90625 C106.45964951 370.55395434 112.85839346 359.98253474 121.296875 350.15625 C122.39708984 348.74859375 122.39708984 348.74859375 123.51953125 347.3125 C127.98991062 341.60759048 132.23346365 337.10357149 138.296875 333.15625 C139.29203125 332.47046875 140.2871875 331.7846875 141.3125 331.078125 C156.07876663 321.05476594 170.64976482 314.96721995 188.296875 312.15625 C190.08158203 311.86814453 190.08158203 311.86814453 191.90234375 311.57421875 C218.85518655 308.25551429 245.87999076 315.60376849 267.296875 332.15625 C272.94234005 336.85232753 278.10834881 341.79845214 282.82421875 347.4296875 C284.22962769 349.14419624 284.22962769 349.14419624 285.71484375 350.4765625 C302.56200556 368.36367257 307.90821543 394.78672345 307.56640625 418.453125 C306.76987516 442.07439174 295.65762307 464.9018277 279.5546875 481.72265625 C277.29083594 483.93459067 277.29083594 483.93459067 276.296875 486.15625 C275.636875 486.15625 274.976875 486.15625 274.296875 486.15625 C274.296875 486.81625 274.296875 487.47625 274.296875 488.15625 C272.546875 489.8828125 272.546875 489.8828125 270.296875 491.78125 C269.554375 492.41289063 268.811875 493.04453125 268.046875 493.6953125 C267.469375 494.17742187 266.891875 494.65953125 266.296875 495.15625 C271.3132452 500.39263603 271.3132452 500.39263603 276.859375 505.03125 C289.62521045 516.16043988 295.3579196 535.95332703 297.296875 552.15625 C299.9286333 591.92554278 285.02649488 635.05540665 259.17651367 665.4140625 C257.03181512 667.85984195 254.85494732 670.27341014 252.65380859 672.66845703 C250.98494418 674.49826267 249.3918523 676.38696832 247.796875 678.28125 C244.49799413 682.03946871 240.99587133 685.59799734 237.484375 689.15625 C236.90816406 689.7455127 236.33195313 690.33477539 235.73828125 690.94189453 C234.29665342 692.38651152 232.80071009 693.7765076 231.296875 695.15625 C230.636875 695.15625 229.976875 695.15625 229.296875 695.15625 C229.296875 695.81625 229.296875 696.47625 229.296875 697.15625 C225.85284655 700.41056502 222.03016806 703.2418998 218.296875 706.15625 C217.7184082 706.61354492 217.13994141 707.07083984 216.54394531 707.54199219 C161.53447442 750.86381398 89.23970858 775.19880771 20.06787109 782.84350586 C17.88161763 783.09025394 15.69743841 783.35537955 13.51416016 783.62719727 C3.49742799 784.87022043 -6.50089548 785.77326355 -16.578125 786.34375 C-17.32947723 786.38638977 -18.08082947 786.42902954 -18.85494995 786.47296143 C-46.80461222 788.00550803 -75.9242167 787.16982109 -102.703125 778.15625 C-103.56550781 777.8665332 -104.42789063 777.57681641 -105.31640625 777.27832031 C-124.25562623 770.78798545 -143.05855694 762.90272595 -158.703125 750.15625 C-159.55132812 749.48464844 -160.39953125 748.81304688 -161.2734375 748.12109375 C-198.29295579 718.38675763 -198.29295579 718.38675763 -201.703125 708.15625 C-202.363125 708.15625 -203.023125 708.15625 -203.703125 708.15625 C-205.45724135 706.1524157 -207.08872411 704.14398775 -208.703125 702.03125 C-209.44224121 701.07182495 -209.44224121 701.07182495 -210.19628906 700.09301758 C-211.70722173 698.12051872 -213.20597436 696.13922099 -214.703125 694.15625 C-215.50234375 693.11082031 -216.3015625 692.06539062 -217.125 690.98828125 C-225.54245135 679.61907263 -232.57374848 667.35718703 -239.703125 655.15625 C-240.16138672 654.3739502 -240.61964844 653.59165039 -241.09179688 652.78564453 C-247.04675095 642.56932532 -252.39988694 632.07042157 -257.58349609 621.44433594 C-258.54477936 619.47984689 -259.52136174 617.52420443 -260.50390625 615.5703125 C-273.48819367 588.98196261 -282.21803515 560.22689344 -289.078125 531.53125 C-289.2477475 530.82980865 -289.41737 530.12836731 -289.59213257 529.40567017 C-301.36683793 480.35677352 -295.89017252 435.11917971 -269.76318359 391.87939453 C-268.88743821 390.45585448 -267.98087267 389.0513246 -267.06640625 387.65234375 C-263.1397879 381.06081325 -262.6880017 373.9471 -261.78637695 366.4675293 C-257.93792505 334.86228446 -239.41411639 309.02829866 -220.01953125 284.80078125 C-213.14727746 276.19333233 -206.76651182 267.35177465 -200.703125 258.15625 C-200.25469238 257.48706543 -199.80625977 256.81788086 -199.34423828 256.12841797 C-179.50749514 226.3054426 -168.47531775 190.41758034 -158.74902344 156.20776367 C-155.97116029 146.64290912 -152.64613588 137.30981302 -149.203125 127.96875 C-148.80732742 126.88187393 -148.80732742 126.88187393 -148.40353394 125.77304077 C-144.53016385 115.17537819 -139.92407234 105.15531864 -134.703125 95.15625 C-133.93512573 93.66544922 -133.93512573 93.66544922 -133.15161133 92.14453125 C-113.39764812 54.14348993 -82.06398367 21.64789679 -41.078125 7.21875 C-27.63189687 3.15532941 -14.0225869 0.59167033 0 0 Z " fill="#DE6D23" transform="translate(498.703125,111.84375)"/>
<path d="M0 0 C2.54747395 1.73307682 3.5370286 3.50425968 5.06640625 6.17578125 C7.93097929 10.8717012 11.06786429 15.06626153 14.62890625 19.23828125 C15.08402588 19.77300049 15.53914551 20.30771973 16.00805664 20.85864258 C19.52580508 24.92964444 23.09314224 28.90506661 27.37890625 32.17578125 C29.00390625 34.36328125 29.00390625 34.36328125 28.94140625 37.86328125 C28.51513129 40.28327972 27.93765038 42.59207106 27.25390625 44.953125 C23.60773084 57.73226864 23.68166773 70.74513331 28.00390625 83.36328125 C28.34421875 84.3584375 28.68453125 85.35359375 29.03515625 86.37890625 C33.6504978 98.54095492 41.83077674 107.6620051 50.99462891 116.63525391 C52.50956233 118.11882022 54.01337146 119.6129801 55.515625 121.109375 C60.26296582 125.81852784 65.08135349 130.40565735 70.15771484 134.76220703 C73.38028322 137.55691788 76.46594507 140.49713306 79.56640625 143.42578125 C80.97631045 144.75417382 82.38647253 146.08229273 83.796875 147.41015625 C84.50118652 148.07337891 85.20549805 148.73660156 85.93115234 149.41992188 C87.85975208 151.22812611 89.79801631 153.02497288 91.7421875 154.81640625 C121.05231768 181.84742724 121.05231768 181.84742724 132.00390625 197.36328125 C132.65190186 198.2766626 132.65190186 198.2766626 133.31298828 199.20849609 C141.84018737 211.38885706 141.84018737 211.38885706 142.00390625 218.36328125 C140.88671875 220.4453125 140.88671875 220.4453125 139.12890625 222.17578125 C138.47792969 222.85125 137.82695313 223.52671875 137.15625 224.22265625 C136.44597656 224.9290625 135.73570312 225.63546875 135.00390625 226.36328125 C124.83141375 236.92918506 117.06733766 248.63715347 110.57421875 261.75390625 C108.87381274 264.57945653 107.92995443 265.85845647 105.00390625 267.36328125 C102.19665555 267.77982211 99.51340359 268.0539603 96.69140625 268.23828125 C59.07942625 271.4834814 28.57273581 287.24224393 3.46484375 315.3203125 C-2.0799717 322.17652081 -6.48220073 329.80710924 -10.99609375 337.36328125 C-40.31200783 309.52590892 -55.50995033 255.50247442 -65.99145508 217.64038086 C-66.51582153 215.76491577 -66.51582153 215.76491577 -67.05078125 213.8515625 C-67.35483887 212.74337158 -67.65889648 211.63518066 -67.97216797 210.4934082 C-69.54303075 205.69130239 -70.72081485 202.21346718 -74.99609375 199.36328125 C-79.94644876 198.79658045 -79.94644876 198.79658045 -84.19238281 201.03808594 C-87.49388268 205.29410715 -86.48978953 210.22192712 -85.99609375 215.36328125 C-85.34591484 219.04409001 -84.36078124 222.54802835 -83.24609375 226.11328125 C-82.93953857 227.12422852 -82.6329834 228.13517578 -82.31713867 229.17675781 C-70.38525372 267.46697362 -54.47557487 305.88833685 -33.99609375 340.36328125 C-33.58037109 341.07500488 -33.16464844 341.78672852 -32.73632812 342.52001953 C-27.7861625 350.98113596 -22.60392257 359.18484469 -16.74609375 367.05078125 C-16.27518311 367.68564453 -15.80427246 368.32050781 -15.3190918 368.97460938 C0.21215868 389.34736658 24.75642805 399.03137357 49.56640625 402.61328125 C71.53572869 405.08541307 93.20133254 404.89263908 115.12890625 402.17578125 C116.53222702 402.00630478 116.53222702 402.00630478 117.96389771 401.83340454 C181.08969961 395.18854861 181.08969961 395.18854861 233.00390625 363.36328125 C235.05795278 360.44197063 236.99566652 357.44675165 238.92504883 354.44213867 C247.20939558 341.68982963 257.65602358 330.452601 268.00390625 319.36328125 C269.48705746 317.7210377 270.96635349 316.07530262 272.44140625 314.42578125 C276.01262118 310.45633732 279.59108127 306.49383536 283.19140625 302.55078125 C283.67859131 302.01138916 284.16577637 301.47199707 284.66772461 300.91625977 C287.89184171 297.39948784 291.21023343 294.26621901 295.00390625 291.36328125 C295.66390625 291.36328125 296.32390625 291.36328125 297.00390625 291.36328125 C296.49064955 296.63766914 295.18742961 300.82180246 292.75390625 305.55078125 C292.41544678 306.22423584 292.0769873 306.89769043 291.72827148 307.59155273 C288.11810402 314.54327167 283.78292578 321.02578636 279.30957031 327.44799805 C276.10099526 332.16517464 274.115558 335.59460767 274.00390625 341.36328125 C275.52094994 344.20773816 277.12498892 344.40364214 280.19140625 345.42578125 C286.6476999 345.31994037 289.79032352 341.52277993 294.2421875 337.1796875 C314.46565228 315.9632539 330.91046669 288.95671008 345.00390625 263.36328125 C345.50615723 262.45811768 345.50615723 262.45811768 346.01855469 261.53466797 C348.06786567 257.83892912 350.11383837 254.14341702 352.00390625 250.36328125 C352.66390625 250.36328125 353.32390625 250.36328125 354.00390625 250.36328125 C362.65616929 271.42966082 358.14427543 299.58640875 350.00390625 320.36328125 C342.75685293 337.53684226 334.03392464 353.08445725 322.00390625 367.36328125 C321.15035228 368.40177751 320.29752773 369.4408736 319.4453125 370.48046875 C310.29210833 381.56784192 300.44393006 391.59443331 289.00390625 400.36328125 C288.32827637 400.88293457 287.65264648 401.40258789 286.95654297 401.93798828 C248.88611209 431.0369888 205.24684532 450.3620022 159.00390625 462.36328125 C157.96298828 462.63414551 156.92207031 462.90500977 155.84960938 463.18408203 C130.56785857 469.6852159 104.91030546 473.38996051 79.00390625 476.36328125 C77.64446899 476.52449463 77.64446899 476.52449463 76.25756836 476.68896484 C66.31495592 477.69817398 56.30030905 477.58545879 46.31713867 477.60351562 C43.1050368 477.6131652 39.89359161 477.6442408 36.68164062 477.67578125 C-7.72211384 477.90187353 -45.93078168 464.62035467 -78.765625 434.41015625 C-80.82905649 432.51656938 -82.93183956 430.68501961 -85.05859375 428.86328125 C-92.27245002 422.5475356 -98.66629178 415.76181935 -104.640625 408.265625 C-106.19827812 406.34632771 -107.80002012 404.46190925 -109.4453125 402.6171875 C-127.11261602 382.73156785 -141.54617764 358.51090957 -152.96582031 334.51806641 C-154.10312478 332.13942916 -155.26394793 329.77299789 -156.42578125 327.40625 C-164.8942471 310.05148235 -171.77183967 292.46115243 -177.74609375 274.11328125 C-177.97884003 273.40193024 -178.2115863 272.69057922 -178.4513855 271.95767212 C-181.74369697 261.85295762 -184.53485229 251.70049539 -186.99609375 241.36328125 C-187.31900391 240.05037109 -187.31900391 240.05037109 -187.6484375 238.7109375 C-198.13467976 195.93612197 -194.85376713 152.52935319 -171.875 114.50830078 C-146.39429453 73.80217378 -103.32078977 48.29156185 -61.99609375 26.36328125 C-61.15046875 25.9137207 -60.30484375 25.46416016 -59.43359375 25.00097656 C-44.06984711 16.90500226 -28.15460392 10.11535225 -12.171875 3.35546875 C-11.49161255 3.06745895 -10.8113501 2.77944916 -10.11047363 2.48271179 C-2.3937405 -0.76356106 -2.3937405 -0.76356106 0 0 Z " fill="#FED7A5" transform="translate(416.99609375,399.63671875)"/>
<path d="M0 0 C1.15290527 0.29753174 1.15290527 0.29753174 2.32910156 0.60107422 C31.08238434 8.36705541 59.82088768 27.87258502 75.1640625 53.6796875 C75.76992188 54.77539062 76.37578125 55.87109375 77 57 C77.60585938 58.07507813 78.21171875 59.15015625 78.8359375 60.2578125 C84.61639899 71.08600093 84.61639899 71.08600093 84 77 C82.36139487 81.38745508 80.12495488 85.37279058 77.8125 89.4375 C76.85706299 91.16033203 76.85706299 91.16033203 75.88232422 92.91796875 C70.52648702 102.41815623 64.62729346 111.34883308 58 120 C57.3296875 120.89976562 56.659375 121.79953125 55.96875 122.7265625 C45.55769611 136.26975548 33.07930016 149.02894384 20 160 C19.18813232 160.68255859 19.18813232 160.68255859 18.35986328 161.37890625 C-1.60733188 178.09214855 -23.16118964 192.37244845 -45.984375 204.88476562 C-48.06307738 206.03490037 -50.12614025 207.20971688 -52.1875 208.390625 C-79.52685713 223.97652713 -108.80707876 236.20268652 -137.78515625 248.3828125 C-161.61356553 258.40136451 -184.90437458 268.99539076 -207.48730469 281.60107422 C-209.78980335 282.88297446 -212.09994096 284.14939913 -214.4140625 285.41015625 C-231.27922448 294.65373627 -246.71546984 305.69199539 -261.52734375 317.95703125 C-263.99762414 319.99803701 -266.49304096 322.00429916 -269 324 C-269.66 323.67 -270.32 323.34 -271 323 C-262.42339239 304.98433262 -252.10717145 289.01618781 -239.55419922 273.48803711 C-228.48322064 259.77191898 -219.49272346 245.4212774 -211 230 C-210.48469727 229.0733252 -209.96939453 228.14665039 -209.43847656 227.19189453 C-193.54112396 198.44592832 -184.57551067 166.99580079 -174.67041016 135.82177734 C-165.65812899 107.48948822 -154.24575737 80.33960931 -137 56 C-136.25878906 54.95070312 -135.51757812 53.90140625 -134.75390625 52.8203125 C-115.5490394 26.46069133 -88.564918 3.98906748 -56 -3 C-37.34950233 -5.78255799 -18.20515094 -4.72189223 0 0 Z " fill="#FED7A5" transform="translate(534,137)"/>
<path d="M0 0 C1.44826172 0.94359375 1.44826172 0.94359375 2.92578125 1.90625 C3.91964844 2.5559375 4.91351562 3.205625 5.9375 3.875 C21.24968619 13.76193828 37.37299033 18.28856109 55.5625 18.1875 C56.60720459 18.18331055 57.65190918 18.17912109 58.72827148 18.17480469 C71.88159116 17.98506909 84.06909495 15.32599063 96.66796875 11.7421875 C97.74691406 11.45601562 98.82585937 11.16984375 99.9375 10.875 C100.95714844 10.57980469 101.97679687 10.28460937 103.02734375 9.98046875 C105.9375 9.875 105.9375 9.875 108.7109375 11.74609375 C109.56945312 12.59300781 110.42796875 13.43992187 111.3125 14.3125 C112.18648437 15.15683594 113.06046875 16.00117187 113.9609375 16.87109375 C114.61320312 17.53238281 115.26546875 18.19367187 115.9375 18.875 C113.98115473 25.14357113 111.06122726 30.62085957 107.9375 36.375 C107.07161255 37.97226929 107.07161255 37.97226929 106.18823242 39.60180664 C94.29676938 61.19536531 94.29676938 61.19536531 88.9375 63.875 C82.81210575 63.83093242 78.38112136 62.65729536 72.9375 59.875 C66.43112077 58.89290502 62.07227274 61.12170583 56.9375 64.875 C52.7190362 68.66488257 48.59743882 72.57212713 45.2734375 77.18359375 C44.61214844 78.02083984 44.61214844 78.02083984 43.9375 78.875 C43.2775 78.875 42.6175 78.875 41.9375 78.875 C41.57869751 79.72602295 41.57869751 79.72602295 41.21264648 80.59423828 C39.66812341 83.35681431 37.81534307 85.1713499 35.53515625 87.3671875 C34.64981201 88.23029541 33.76446777 89.09340332 32.85229492 89.98266602 C31.44040894 91.35249634 31.44040894 91.35249634 30 92.75 C19.17284487 103.38428237 10.15750036 114.28812572 1.83203125 126.98828125 C-0.10073409 129.93325771 -2.05210011 132.85736637 -4.0625 135.75 C-4.64 136.59304688 -5.2175 137.43609375 -5.8125 138.3046875 C-11.89561788 145.2538048 -19.04302139 148.4119981 -27.625 151.4375 C-28.69129639 151.82389648 -29.75759277 152.21029297 -30.85620117 152.60839844 C-33.91981601 153.71247907 -36.98976882 154.79659965 -40.0625 155.875 C-40.81080078 156.14231934 -41.55910156 156.40963867 -42.33007812 156.68505859 C-66.13468088 165.17741563 -91.02268187 169.84580968 -116.0625 172.875 C-116.85309814 172.97143799 -117.64369629 173.06787598 -118.45825195 173.16723633 C-140.22517777 175.48527258 -165.0163407 176.36785136 -186.0625 169.875 C-187.32835937 169.50117187 -188.59421875 169.12734375 -189.8984375 168.7421875 C-202.97173635 164.46004406 -215.90449213 158.45590056 -223.56640625 146.53515625 C-224.0625 143.875 -224.0625 143.875 -222.421875 140.59765625 C-221.57121007 139.3641921 -220.69990661 138.14480035 -219.8125 136.9375 C-219.35230469 136.28362305 -218.89210938 135.62974609 -218.41796875 134.95605469 C-217.45501803 133.59231181 -216.48416846 132.23411521 -215.50585938 130.88134766 C-214.14828404 128.99424445 -212.82660815 127.08762265 -211.515625 125.16796875 C-198.95141038 106.90091904 -184.37958813 93.76442185 -164.0625 84.875 C-162.68191406 84.26205078 -162.68191406 84.26205078 -161.2734375 83.63671875 C-131.83128526 71.8325122 -99.94067846 75.87069179 -71.27197266 87.90283203 C-63.95446251 91.12253649 -56.87032368 94.80683817 -49.84765625 98.62109375 C-46.18353816 100.27071774 -43.90867449 99.83654362 -40.0625 98.875 C-37.70246087 96.9085066 -37.70246087 96.9085066 -37.5 93.25 C-37.66795269 88.59771057 -39.50822197 86.14664042 -42.69921875 82.87890625 C-57.91767932 69.97465787 -77.25464535 64.21120482 -96.0625 58.875 C-90.03482929 38.51286859 -69.69363736 20.79346559 -51.87988281 10.85595703 C-14.14221112 -9.51346329 -14.14221112 -9.51346329 0 0 Z " fill="#FED8A6" transform="translate(642.0625,610.125)"/>
<path d="M0 0 C16.0036509 13.24871882 27.06918568 31.256756 29.875 52.125 C31.25771156 76.8819752 25.07429725 99.47010737 8.50976562 118.26147461 C-7.28034262 135.49670383 -28.32966357 145.75092025 -51.7265625 147.375 C-72.23482406 147.73878291 -93.93825951 141.76551404 -109.9375 128.4375 C-122.72515824 116.05846994 -136.06993185 95.96540955 -137.28613281 77.70581055 C-137.66178768 53.60492992 -134.67210597 28.57060236 -117.125 10.125 C-116.465 10.125 -115.805 10.125 -115.125 10.125 C-115.125 9.465 -115.125 8.805 -115.125 8.125 C-85.0612035 -23.70231529 -34.00160551 -26.40550215 0 0 Z " fill="#FEFEFE" transform="translate(755.125,461.875)"/>
<path d="M0 0 C0.66 0 1.32 0 2 0 C3.7863358 10.35093151 4.36819985 20.33598282 4.3125 30.8125 C4.31001251 31.56311707 4.30752502 32.31373413 4.30496216 33.08709717 C4.24893878 44.02198769 3.85412783 54.3893033 1 65 C0.67733154 66.29115723 0.67733154 66.29115723 0.34814453 67.60839844 C-8.45677934 102.52921667 -25.47408612 133.00902904 -49 160 C-49.61488281 160.72703125 -50.22976563 161.4540625 -50.86328125 162.203125 C-52.53968201 164.17159558 -54.25469069 166.09233633 -56 168 C-56.78503906 168.86238281 -57.57007813 169.72476563 -58.37890625 170.61328125 C-74.14602672 187.20662638 -96.59608713 198.76658076 -119.64111328 199.47070312 C-129.03100102 199.56100498 -137.43638254 199.21324993 -146 195 C-147.06089844 194.50242187 -148.12179687 194.00484375 -149.21484375 193.4921875 C-165.65245284 185.24461234 -181.7404846 170.42113495 -192 155 C-192 154.34 -192 153.68 -192 153 C-181.92035915 147.19532878 -171.6796367 141.79068669 -161.25073242 136.64422607 C-147.55748532 129.8851365 -134.17237068 122.73711068 -121 115 C-120.10007324 114.47245117 -119.20014648 113.94490234 -118.27294922 113.40136719 C-83.57713215 92.99206303 -48.49071104 67.47139081 -24 35 C-23.21238281 34.00613281 -22.42476562 33.01226562 -21.61328125 31.98828125 C-14.89650797 23.49548171 -8.98278695 14.61531198 -3.3984375 5.33984375 C-2.30871295 3.53319515 -1.16219596 1.76090298 0 0 Z " fill="#FEFEFD" transform="translate(627,239)"/>
<path d="M0 0 C0.66 0 1.32 0 2 0 C10.65226304 21.06637957 6.14036918 49.2231275 -2 70 C-9.24705332 87.17356101 -17.96998161 102.721176 -30 117 C-30.85355397 118.03849626 -31.70637852 119.07759235 -32.55859375 120.1171875 C-41.71179792 131.20456067 -51.55997619 141.23115206 -63 150 C-64.01344482 150.77947998 -64.01344482 150.77947998 -65.04736328 151.57470703 C-86.96200582 168.32508731 -110.48046793 181.68822094 -135.75 192.75 C-136.73250732 193.18062744 -137.71501465 193.61125488 -138.72729492 194.05493164 C-145.61171988 197 -145.61171988 197 -149 197 C-156.93321496 186.65163291 -160.94270937 175.70308885 -161.31640625 162.73046875 C-161.33718735 162.04946609 -161.35796844 161.36846344 -161.37937927 160.66682434 C-161.44437878 158.50714492 -161.50352712 156.34735154 -161.5625 154.1875 C-161.6057325 152.71678544 -161.64934825 151.24608209 -161.69335938 149.77539062 C-161.80000859 146.18371283 -161.90141349 142.59190918 -162 139 C-164.31 139.33 -166.62 139.66 -169 140 C-166.6593038 137.6593038 -164.95072835 137.14298378 -161.828125 136.08203125 C-160.77753906 135.71851563 -159.72695313 135.355 -158.64453125 134.98046875 C-156.96423828 134.40232422 -156.96423828 134.40232422 -155.25 133.8125 C-136.66674636 127.23137045 -123.91985434 120.96146276 -113.07885742 104.07885742 C-104.79451067 91.32654838 -94.34788267 80.08931975 -84 69 C-82.51684879 67.35775645 -81.03755276 65.71202137 -79.5625 64.0625 C-75.99128507 60.09305607 -72.41282498 56.13055411 -68.8125 52.1875 C-68.08172241 51.37841187 -68.08172241 51.37841187 -67.33618164 50.55297852 C-64.11206454 47.03620659 -60.79367282 43.90293776 -57 41 C-56.34 41 -55.68 41 -55 41 C-55.5132567 46.27438789 -56.81647664 50.45852121 -59.25 55.1875 C-59.58845947 55.86095459 -59.92691895 56.53440918 -60.27563477 57.22827148 C-63.88580223 64.17999042 -68.22098047 70.66250511 -72.69433594 77.0847168 C-75.90291099 81.80189339 -77.88834825 85.23132642 -78 91 C-76.48295631 93.84445691 -74.87891733 94.04036089 -71.8125 95.0625 C-65.35620635 94.95665912 -62.21358273 91.15949868 -57.76171875 86.81640625 C-37.53825397 65.59997265 -21.09343956 38.59342883 -7 13 C-6.49774902 12.09483643 -6.49774902 12.09483643 -5.98535156 11.17138672 C-3.93604058 7.47564787 -1.89006788 3.78013577 0 0 Z " fill="#FEFEFD" transform="translate(769,650)"/>
<path d="M0 0 C2.54747395 1.73307682 3.5370286 3.50425968 5.06640625 6.17578125 C7.93097929 10.8717012 11.06786429 15.06626153 14.62890625 19.23828125 C15.08402588 19.77300049 15.53914551 20.30771973 16.00805664 20.85864258 C19.52580508 24.92964444 23.09314224 28.90506661 27.37890625 32.17578125 C29.00390625 34.36328125 29.00390625 34.36328125 28.94140625 37.86328125 C28.51513129 40.28327972 27.93765038 42.59207106 27.25390625 44.953125 C23.60773084 57.73226864 23.68166773 70.74513331 28.00390625 83.36328125 C28.34421875 84.3584375 28.68453125 85.35359375 29.03515625 86.37890625 C33.83944399 99.03885368 42.42656395 108.23103644 52.00390625 117.55078125 C52.9798766 118.51164923 53.95514079 119.47323502 54.9296875 120.43554688 C57.28096064 122.75190012 59.63898333 125.06088002 62.00390625 127.36328125 C61.01390625 127.36328125 60.02390625 127.36328125 59.00390625 127.36328125 C58.30910156 126.58855469 57.61429688 125.81382812 56.8984375 125.015625 C53.06587587 121.50373655 49.68161491 120.94530151 44.69140625 119.92578125 C18.86563114 114.02750442 -3.96504621 100.76229381 -26.55859375 87.30078125 C-40.18081239 79.22579615 -53.6149784 71.51668891 -68.99609375 67.36328125 C-70.07761719 67.04617188 -71.15914063 66.7290625 -72.2734375 66.40234375 C-80.87850981 64.2535399 -89.34683734 64.05582554 -98.18359375 63.98828125 C-99.35946045 63.97434326 -100.53532715 63.96040527 -101.74682617 63.94604492 C-110.56943671 63.99370794 -119.75124845 64.50617383 -127.24609375 69.55078125 C-127.82359375 70.14890625 -128.40109375 70.74703125 -128.99609375 71.36328125 C-129.65609375 71.03328125 -130.31609375 70.70328125 -130.99609375 70.36328125 C-109.68986607 52.14024419 -29.00241557 -9.25125976 0 0 Z " fill="#FEFEFD" transform="translate(416.99609375,399.63671875)"/>
<path d="M0 0 C2.36568222 2.36568222 2.25571704 2.85232226 2.265625 6.0625 C2.26949219 7.25746094 2.26949219 7.25746094 2.2734375 8.4765625 C2.26570312 9.30929687 2.25796875 10.14203125 2.25 11 C2.25773438 11.83273437 2.26546875 12.66546875 2.2734375 13.5234375 C2.27085937 14.32007813 2.26828125 15.11671875 2.265625 15.9375 C2.26336914 16.66839844 2.26111328 17.39929688 2.25878906 18.15234375 C2 20 2 20 0 22 C-1.93043686 20.06956314 -1.13256219 17.22475198 -1.13671875 14.66015625 C-1.13285156 13.82355469 -1.12898437 12.98695313 -1.125 12.125 C-1.12886719 11.29613281 -1.13273438 10.46726562 -1.13671875 9.61328125 C-1.13542969 8.81535156 -1.13414062 8.01742187 -1.1328125 7.1953125 C-1.13168457 6.46328613 -1.13055664 5.73125977 -1.12939453 4.97705078 C-1 3 -1 3 0 0 Z " fill="#DF7538" transform="translate(794,662)"/>
<path d="M0 0 C6.88377963 5.76316434 13.42546859 11.89013472 20 18 C19.67 18.66 19.34 19.32 19 20 C16.58221947 17.75119447 14.16597654 15.50074339 11.75 13.25 C11.06808594 12.61578125 10.38617188 11.9815625 9.68359375 11.328125 C7.78387844 9.55751656 5.89075872 7.78016316 4 6 C3.18015625 5.23171875 2.3603125 4.4634375 1.515625 3.671875 C0 2 0 2 0 0 Z " fill="#DA5918" transform="translate(476,497)"/>
<path d="M0 0 C0.68359375 1.765625 0.68359375 1.765625 1 4 C-0.21484375 5.921875 -0.21484375 5.921875 -1.9375 7.75 C-2.50339844 8.36359375 -3.06929688 8.9771875 -3.65234375 9.609375 C-4.09707031 10.06828125 -4.54179687 10.5271875 -5 11 C-6.32 10.01 -7.64 9.02 -9 8 C-7.87811441 6.85111717 -6.75238316 5.70598863 -5.625 4.5625 C-4.99851562 3.92441406 -4.37203125 3.28632813 -3.7265625 2.62890625 C-2 1 -2 1 0 0 Z " fill="#DF7132" transform="translate(408,149)"/>
<path d="M0 0 C0.66 0 1.32 0 2 0 C1.67 1.32 1.34 2.64 1 4 C2.65 3.34 4.3 2.68 6 2 C3.58443874 5.19199167 1.31996462 7.74716687 -2 10 C-2.66 9.67 -3.32 9.34 -4 9 C-2.68 6.03 -1.36 3.06 0 0 Z " fill="#FCE7CB" transform="translate(267,451)"/>
<path d="M0 0 C0.99 0.33 1.98 0.66 3 1 C3.69658363 2.65438613 4.36096883 4.32254318 5 6 C5.515625 6.495 6.03125 6.99 6.5625 7.5 C8.48593335 9.50706089 8.63468585 11.29667526 9 14 C8.01 14.495 8.01 14.495 7 15 C4.69 10.05 2.38 5.1 0 0 Z " fill="#DE7238" transform="translate(247,744)"/>
<path d="M0 0 C0.99 0.33 1.98 0.66 3 1 C-0.9419417 5.88049925 -5.11950075 10.0580583 -10 14 C-8.60669258 10.8142971 -6.97103262 8.80177783 -4.4375 6.4375 C-2.00373705 4.1656506 -1.07740206 3.23220618 0 0 Z " fill="#DA520A" transform="translate(419,163)"/>
<path d="M0 0 C3.21043882 1.38188453 5.04936365 2.92421903 7.25 5.625 C8.03117188 6.57246094 8.03117188 6.57246094 8.828125 7.5390625 C9.40820312 8.26222656 9.40820312 8.26222656 10 9 C7 9 7 9 5.17578125 7.5390625 C4.56089844 6.90742187 3.94601562 6.27578125 3.3125 5.625 C2.68988281 4.99851562 2.06726563 4.37203125 1.42578125 3.7265625 C0 2 0 2 0 0 Z " fill="#E17C4D" transform="translate(535,552)"/>
<path d="M0 0 C0.89332031 0.03480469 1.78664063 0.06960938 2.70703125 0.10546875 C3.60808594 0.13253906 4.50914062 0.15960938 5.4375 0.1875 C6.46810547 0.23970703 6.46810547 0.23970703 7.51953125 0.29296875 C7.84953125 1.28296875 8.17953125 2.27296875 8.51953125 3.29296875 C3.89953125 3.29296875 -0.72046875 3.29296875 -5.48046875 3.29296875 C-2.48046875 0.29296875 -2.48046875 0.29296875 0 0 Z " fill="#E37B36" transform="translate(504.48046875,437.70703125)"/>
<path d="M0 0 C0.66 0.33 1.32 0.66 2 1 C0.2421875 1.94401042 -1.515625 2.88802083 -3.2734375 3.83203125 C-5.30502365 5.04763493 -5.30502365 5.04763493 -7 8 C-9.625 8.1875 -9.625 8.1875 -12 8 C-8.71268307 4.16479692 -4.74852829 1.67534656 0 0 Z " fill="#FDEBD2" transform="translate(453,143)"/>
<path d="M0 0 C0.66 0.99 1.32 1.98 2 3 C-1 6 -4 9 -7 12 C-5.44298069 7.32894208 -2.91552627 3.91294315 0 0 Z " fill="#FDEACC" transform="translate(557,650)"/>
<path d="M0 0 C1.04449911 3.13349732 0.93423645 3.98968256 0 7 C-0.66 7 -1.32 7 -2 7 C-2.33 8.65 -2.66 10.3 -3 12 C-4.60156595 7.99608513 -3.4087561 4.92968808 -2 1 C-1.34 0.67 -0.68 0.34 0 0 Z " fill="#DA5D1B" transform="translate(785,539)"/>
<path d="M0 0 C0.99 0.33 1.98 0.66 3 1 C4.1875 4.0625 4.1875 4.0625 5 7 C4.34 7.66 3.68 8.32 3 9 C0.70620251 5.55930376 0 4.27709699 0 0 Z " fill="#DE7136" transform="translate(568,590)"/>
<path d="M0 0 C2.38672669 2.96283313 4.7353371 5.94270509 7 9 C6.01 9.495 6.01 9.495 5 10 C4.67 9.34 4.34 8.68 4 8 C3.01 7.67 2.02 7.34 1 7 C0.67 4.69 0.34 2.38 0 0 Z " fill="#E17941" transform="translate(470,488)"/>
<path d="M0 0 C0.99 0.33 1.98 0.66 3 1 C3.625 3.875 3.625 3.875 4 7 C3.34 7.66 2.68 8.32 2 9 C1.34 6.03 0.68 3.06 0 0 Z " fill="#DF7537" transform="translate(222,684)"/>
<path d="M0 0 C0.33 0 0.66 0 1 0 C1 1.98 1 3.96 1 6 C1.66 6 2.32 6 3 6 C3 7.98 3 9.96 3 12 C2.01 11.67 1.02 11.34 0 11 C0 7.37 0 3.74 0 0 Z " fill="#E07937" transform="translate(803,524)"/>
<path d="M0 0 C0.33 0.66 0.66 1.32 1 2 C0.0625 4.125 0.0625 4.125 -1 6 C-1.66 6 -2.32 6 -3 6 C-3.66 7.32 -4.32 8.64 -5 10 C-5.33 9.34 -5.66 8.68 -6 8 C-4.02 5.36 -2.04 2.72 0 0 Z " fill="#FDE7C8" transform="translate(252,505)"/>
<path d="M0 0 C0.99 0 1.98 0 3 0 C2.67 1.32 2.34 2.64 2 4 C1.34 4 0.68 4 0 4 C0 5.32 0 6.64 0 8 C-0.99 8 -1.98 8 -3 8 C-1.125 2.25 -1.125 2.25 0 0 Z " fill="#DE6F32" transform="translate(315,339)"/>
<path d="M0 0 C0 3 0 3 -1.25 4.75 C-1.8275 5.1625 -2.405 5.575 -3 6 C-4.32 5.67 -5.64 5.34 -7 5 C-4.69 3.35 -2.38 1.7 0 0 Z " fill="#D95B18" transform="translate(684,815)"/>
<path d="M0 0 C2.97 0.33 5.94 0.66 9 1 C8.67 1.99 8.34 2.98 8 4 C5.36 3.34 2.72 2.68 0 2 C0 1.34 0 0.68 0 0 Z " fill="#E07238" transform="translate(379,882)"/>
<path d="M0 0 C0 0.66 0 1.32 0 2 C-0.99 2 -1.98 2 -3 2 C-3 2.66 -3 3.32 -3 4 C-5.31 4 -7.62 4 -10 4 C-7.02096266 1.02096266 -4.19714671 0 0 0 Z " fill="#E07A45" transform="translate(600,595)"/>
<path d="M0 0 C1 2 1 2 0.44140625 4.1640625 C0.15136719 4.97617187 -0.13867188 5.78828125 -0.4375 6.625 C-0.72496094 7.44226563 -1.01242187 8.25953125 -1.30859375 9.1015625 C-1.53675781 9.72804688 -1.76492188 10.35453125 -2 11 C-2.33 11 -2.66 11 -3 11 C-3.36923077 3.49230769 -3.36923077 3.49230769 -1.5 1 C-1.005 0.67 -0.51 0.34 0 0 Z " fill="#E17640" transform="translate(642,324)"/>
<path d="M0 0 C1.22589844 0.01353516 1.22589844 0.01353516 2.4765625 0.02734375 C3.41628906 0.04474609 3.41628906 0.04474609 4.375 0.0625 C1.42429881 2.02963413 -0.16081611 2.71608161 -3.625 3.0625 C-4.615 2.4025 -5.605 1.7425 -6.625 1.0625 C-4.21954362 -0.14022819 -2.67503047 -0.03821472 0 0 Z " fill="#DF7234" transform="translate(614.625,869.9375)"/>
<path d="M0 0 C2.64 0.33 5.28 0.66 8 1 C8 1.66 8 2.32 8 3 C8.66 3.33 9.32 3.66 10 4 C3.47692308 3.38461538 3.47692308 3.38461538 1.0625 1.4375 C0.711875 0.963125 0.36125 0.48875 0 0 Z " fill="#FDE7C9" transform="translate(386,864)"/>
<path d="M0 0 C0.99 0.66 1.98 1.32 3 2 C0.36 3.98 -2.28 5.96 -5 8 C-3.47524303 4.95048605 -2.07114674 2.63600494 0 0 Z " fill="#D85815" transform="translate(595,377)"/>
<path d="M0 0 C0.66 0.33 1.32 0.66 2 1 C-4.28571429 5.42857143 -4.28571429 5.42857143 -8 6 C-7 3 -7 3 -3.5625 1.25 C-2.386875 0.8375 -1.21125 0.425 0 0 Z " fill="#D95712" transform="translate(447,362)"/>
<path d="M0 0 C0.66 1.32 1.32 2.64 2 4 C1.01 4.99 0.02 5.98 -1 7 C-1.99 6.01 -2.98 5.02 -4 4 C-2.68 2.68 -1.36 1.36 0 0 Z " fill="#E48652" transform="translate(403,153)"/>
</svg>
