<?xml version="1.0" encoding="UTF-8"?>
<svg version="1.1" xmlns="http://www.w3.org/2000/svg" width="1024" height="1024">
<path d="M0 0 C1.66036789 -0.0076664 1.66036789 -0.0076664 3.35427856 -0.01548767 C6.99088032 -0.02931775 10.62729118 -0.02843197 14.26391602 -0.02612305 C16.80542572 -0.03001329 19.34693477 -0.03434864 21.88844299 -0.03910828 C27.2067401 -0.04655612 32.52496792 -0.04642884 37.84326172 -0.04101562 C43.96848565 -0.03497646 50.09347983 -0.04729386 56.21866459 -0.06858569 C62.13947678 -0.08840112 68.0602185 -0.09136666 73.98106575 -0.08785057 C76.4875753 -0.08836241 78.99408863 -0.09357429 81.50057793 -0.10366249 C85.01097988 -0.11605936 88.52085587 -0.10921545 92.03125 -0.09765625 C93.56911415 -0.10912186 93.56911415 -0.10912186 95.13804626 -0.12081909 C105.26247044 -0.04748346 113.3372197 2.40260537 121.58032227 8.2746582 C122.44657227 8.8521582 123.31282227 9.4296582 124.20532227 10.0246582 C130.52857611 16.01510921 133.57495722 22.92137502 135.58032227 31.2746582 C135.75319763 31.83954956 135.926073 32.40444092 136.10418701 32.9864502 C136.74496594 36.06590179 136.72404902 39.00198322 136.74145508 42.14770508 C136.74641998 42.83127075 136.75138489 43.51483643 136.75650024 44.21911621 C136.77108317 46.47722391 136.77792032 48.73526117 136.78344727 50.9934082 C136.78627464 51.7691066 136.78910202 52.54480499 136.79201508 53.3440094 C136.80699868 57.45566141 136.81623106 61.56727847 136.82055664 65.67895508 C136.82601448 69.89725557 136.84998743 74.11522889 136.87852859 78.33342743 C136.89729759 81.60055421 136.90236827 84.86760478 136.90389252 88.13478088 C136.90689173 89.68788932 136.91482613 91.24099732 136.9280777 92.79405212 C137.04084063 107.03585039 135.90596684 119.60003451 125.62329102 130.3137207 C121.50055954 134.14478667 119.21434706 135.39664994 113.58032227 137.2746582 C113.25032227 148.8246582 112.92032227 160.3746582 112.58032227 172.2746582 C116.21032227 172.2746582 119.84032227 172.2746582 123.58032227 172.2746582 C129.08102138 173.62990291 132.74366284 175.36685351 136.27172852 179.8605957 C138.60476837 184.16453192 139.60134479 188.88218832 140.71704102 193.61450195 C145.46664205 213.75195069 155.92446541 223.01188753 172.58032227 234.2746582 C191.72426041 247.28414569 191.72426041 247.28414569 198.58032227 253.2746582 C199.45946289 254.03520508 200.33860352 254.79575195 201.24438477 255.5793457 C213.58320943 267.0144818 221.06465125 282.18737284 227.75317383 297.41577148 C228.48432415 299.05891746 229.25960858 300.68227021 230.04125977 302.30200195 C254.79193434 355.77845945 234.67495132 430.54138252 223.58032227 485.2746582 C223.36079895 486.35789368 223.14127563 487.44112915 222.9151001 488.55718994 C211.90195448 542.82875092 211.90195448 542.82875092 205.64135742 568.83666992 C203.15587037 579.20029302 200.74743204 589.58242604 198.33032227 599.9621582 C198.05208618 601.1568573 197.7738501 602.3515564 197.48718262 603.5824585 C193.31349985 621.53279813 189.28089908 639.51031013 185.39282227 657.5246582 C185.16067017 658.59670502 184.92851807 659.66875183 184.68933105 660.77328491 C176.85096788 697.03710962 178.3523052 720.79305577 197.81103516 752.59228516 C203.7447488 762.44964684 206.17309988 771.68662398 204.58032227 783.2746582 C201.16912214 794.71529864 193.61526651 803.19888125 183.53735352 809.2668457 C169.81344412 816.33424815 152.04562426 814.57293592 137.04663086 814.56518555 C134.71233406 814.57118156 132.37803923 814.57798955 130.04374695 814.58554077 C123.74848987 814.60309088 117.45328728 814.60789126 111.1580081 814.60917234 C107.21730842 814.61059985 103.27662234 814.61488057 99.33592606 814.62016678 C86.27569904 814.63767557 73.21550596 814.64701159 60.15526716 814.64550583 C59.4540998 814.64542592 58.75293244 814.64534601 58.03051758 814.64526367 C56.97746274 814.64514103 56.97746274 814.64514103 55.90313406 814.64501591 C44.51629955 814.64420233 33.12959707 814.6633698 21.74280076 814.69154041 C10.0104285 814.72033408 -1.72187944 814.73407742 -13.45428789 814.73235285 C-20.02514416 814.73184441 -26.59585049 814.73746374 -33.16667557 814.75870895 C-39.34418407 814.77814139 -45.52140019 814.77818141 -51.6989193 814.76367569 C-53.95708712 814.76159329 -56.21527351 814.76625427 -58.47340965 814.77839661 C-75.10465784 814.8619911 -90.58502528 814.48340444 -103.38061523 802.42700195 C-110.79019066 794.56409807 -113.79145535 785.78959217 -113.62280273 775.12231445 C-112.87570164 764.64853179 -106.36062928 755.33493043 -101.34936523 746.35717773 C-86.72104277 720.12778286 -85.08633173 697.07780418 -91.54663086 668.19995117 C-92.34819733 664.61687564 -93.11832482 661.02753642 -93.88388062 657.43661499 C-98.13094774 637.52037431 -102.65797504 617.6862313 -107.61767578 597.93481445 C-114.85454024 568.97221106 -120.88265564 539.70260569 -127.01171875 510.48999023 C-127.7444805 506.99815783 -128.48025078 503.50698086 -129.21875 500.01635742 C-132.76376276 483.25778453 -136.30096543 466.5020663 -139.33374023 449.6418457 C-139.52622849 448.57627441 -139.71871674 447.51070312 -139.91703796 446.4128418 C-142.01268122 434.43889584 -143.25759371 422.36928552 -144.41967773 410.2746582 C-144.51877441 409.27112305 -144.61787109 408.26758789 -144.7199707 407.23364258 C-145.34125293 400.91814635 -145.90812787 394.59997229 -146.41967773 388.2746582 C-146.47897461 387.55761719 -146.53827148 386.84057617 -146.59936523 386.10180664 C-146.99396087 381.16231483 -147.25021207 376.22682152 -147.41967773 371.2746582 C-147.45367676 370.3263916 -147.48767578 369.378125 -147.52270508 368.40112305 C-148.61879703 332.90888671 -141.64145379 292.77214111 -117.41967773 265.2746582 C-116.73260742 264.44450195 -116.04553711 263.6143457 -115.33764648 262.7590332 C-109.73285549 256.17466612 -103.46566688 251.24178236 -96.41967773 246.2746582 C-95.28994803 245.46460747 -94.16105734 244.65338549 -93.03295898 243.84106445 C-88.26164119 240.41226714 -83.46951922 237.01331115 -78.66577148 233.63012695 C-62.83513138 222.45984088 -53.75014906 212.83796002 -48.97802734 193.51098633 C-45.61198381 180.02692418 -45.61198381 180.02692418 -39.49780273 176.01293945 C-33.41275648 172.75309324 -28.28308003 172.24262365 -21.41967773 172.2746582 C-21.49186523 171.41227539 -21.56405273 170.54989258 -21.63842773 169.66137695 C-22.43496285 159.18472763 -22.52143422 148.77818854 -22.41967773 138.2746582 C-23.1531543 138.15993164 -23.88663086 138.04520508 -24.64233398 137.92700195 C-30.23879978 136.61250155 -34.78117384 133.41651604 -38.26342773 128.86450195 C-42.68958332 121.67199912 -44.72037978 115.45154377 -44.71020508 106.96533203 C-44.7169223 106.15307159 -44.72363953 105.34081116 -44.7305603 104.50393677 C-44.7494913 101.82979132 -44.75346245 99.15589767 -44.75561523 96.48168945 C-44.7620481 94.61089477 -44.76877683 92.74010108 -44.77578735 90.86930847 C-44.787749 86.94963247 -44.79146948 83.03004452 -44.7902832 79.11035156 C-44.79008043 74.11169956 -44.81734401 69.11361877 -44.85182762 64.11510181 C-44.87417736 60.25009114 -44.87811823 56.38521598 -44.87706375 52.52014732 C-44.87940905 50.67872849 -44.88817156 48.83730531 -44.90372849 46.9959507 C-44.99840669 34.62874484 -44.64784921 23.33131223 -36.41967773 13.2746582 C-25.80068097 2.51344273 -14.76163072 -0.03560001 0 0 Z " fill="#F8C7D4" transform="translate(383.419677734375,103.725341796875)"/>
<path d="M0 0 C1.66036789 -0.0076664 1.66036789 -0.0076664 3.35427856 -0.01548767 C6.99088032 -0.02931775 10.62729118 -0.02843197 14.26391602 -0.02612305 C16.80542572 -0.03001329 19.34693477 -0.03434864 21.88844299 -0.03910828 C27.2067401 -0.04655612 32.52496792 -0.04642884 37.84326172 -0.04101562 C43.96848565 -0.03497646 50.09347983 -0.04729386 56.21866459 -0.06858569 C62.13947678 -0.08840112 68.0602185 -0.09136666 73.98106575 -0.08785057 C76.4875753 -0.08836241 78.99408863 -0.09357429 81.50057793 -0.10366249 C85.01097988 -0.11605936 88.52085587 -0.10921545 92.03125 -0.09765625 C93.56911415 -0.10912186 93.56911415 -0.10912186 95.13804626 -0.12081909 C105.26247044 -0.04748346 113.3372197 2.40260537 121.58032227 8.2746582 C122.44657227 8.8521582 123.31282227 9.4296582 124.20532227 10.0246582 C130.52857611 16.01510921 133.57495722 22.92137502 135.58032227 31.2746582 C135.75319763 31.83954956 135.926073 32.40444092 136.10418701 32.9864502 C136.74496594 36.06590179 136.72404902 39.00198322 136.74145508 42.14770508 C136.74641998 42.83127075 136.75138489 43.51483643 136.75650024 44.21911621 C136.77108317 46.47722391 136.77792032 48.73526117 136.78344727 50.9934082 C136.78627464 51.7691066 136.78910202 52.54480499 136.79201508 53.3440094 C136.80699868 57.45566141 136.81623106 61.56727847 136.82055664 65.67895508 C136.82601448 69.89725557 136.84998743 74.11522889 136.87852859 78.33342743 C136.89729759 81.60055421 136.90236827 84.86760478 136.90389252 88.13478088 C136.90689173 89.68788932 136.91482613 91.24099732 136.9280777 92.79405212 C137.04084063 107.03585039 135.90596684 119.60003451 125.62329102 130.3137207 C121.50055954 134.14478667 119.21434706 135.39664994 113.58032227 137.2746582 C113.25032227 148.8246582 112.92032227 160.3746582 112.58032227 172.2746582 C116.21032227 172.2746582 119.84032227 172.2746582 123.58032227 172.2746582 C129.08102138 173.62990291 132.74366284 175.36685351 136.27172852 179.8605957 C138.60476837 184.16453192 139.60134479 188.88218832 140.71704102 193.61450195 C145.46664205 213.75195069 155.92446541 223.01188753 172.58032227 234.2746582 C191.72426041 247.28414569 191.72426041 247.28414569 198.58032227 253.2746582 C199.45946289 254.03520508 200.33860352 254.79575195 201.24438477 255.5793457 C213.58320943 267.0144818 221.06465125 282.18737284 227.75317383 297.41577148 C228.48432415 299.05891746 229.25960858 300.68227021 230.04125977 302.30200195 C254.79193434 355.77845945 234.67495132 430.54138252 223.58032227 485.2746582 C223.36079895 486.35789368 223.14127563 487.44112915 222.9151001 488.55718994 C211.90195448 542.82875092 211.90195448 542.82875092 205.64135742 568.83666992 C203.15587037 579.20029302 200.74743204 589.58242604 198.33032227 599.9621582 C198.05208618 601.1568573 197.7738501 602.3515564 197.48718262 603.5824585 C193.31349985 621.53279813 189.28089908 639.51031013 185.39282227 657.5246582 C185.16067017 658.59670502 184.92851807 659.66875183 184.68933105 660.77328491 C176.85096788 697.03710962 178.3523052 720.79305577 197.81103516 752.59228516 C203.7447488 762.44964684 206.17309988 771.68662398 204.58032227 783.2746582 C201.16912214 794.71529864 193.61526651 803.19888125 183.53735352 809.2668457 C169.81344412 816.33424815 152.04562426 814.57293592 137.04663086 814.56518555 C134.71233406 814.57118156 132.37803923 814.57798955 130.04374695 814.58554077 C123.74848987 814.60309088 117.45328728 814.60789126 111.1580081 814.60917234 C107.21730842 814.61059985 103.27662234 814.61488057 99.33592606 814.62016678 C86.27569904 814.63767557 73.21550596 814.64701159 60.15526716 814.64550583 C59.4540998 814.64542592 58.75293244 814.64534601 58.03051758 814.64526367 C56.97746274 814.64514103 56.97746274 814.64514103 55.90313406 814.64501591 C44.51629955 814.64420233 33.12959707 814.6633698 21.74280076 814.69154041 C10.0104285 814.72033408 -1.72187944 814.73407742 -13.45428789 814.73235285 C-20.02514416 814.73184441 -26.59585049 814.73746374 -33.16667557 814.75870895 C-39.34418407 814.77814139 -45.52140019 814.77818141 -51.6989193 814.76367569 C-53.95708712 814.76159329 -56.21527351 814.76625427 -58.47340965 814.77839661 C-75.10465784 814.8619911 -90.58502528 814.48340444 -103.38061523 802.42700195 C-110.79019066 794.56409807 -113.79145535 785.78959217 -113.62280273 775.12231445 C-112.87570164 764.64853179 -106.36062928 755.33493043 -101.34936523 746.35717773 C-86.72104277 720.12778286 -85.08633173 697.07780418 -91.54663086 668.19995117 C-92.34819733 664.61687564 -93.11832482 661.02753642 -93.88388062 657.43661499 C-98.13094774 637.52037431 -102.65797504 617.6862313 -107.61767578 597.93481445 C-114.85454024 568.97221106 -120.88265564 539.70260569 -127.01171875 510.48999023 C-127.7444805 506.99815783 -128.48025078 503.50698086 -129.21875 500.01635742 C-132.76376276 483.25778453 -136.30096543 466.5020663 -139.33374023 449.6418457 C-139.52622849 448.57627441 -139.71871674 447.51070312 -139.91703796 446.4128418 C-142.01268122 434.43889584 -143.25759371 422.36928552 -144.41967773 410.2746582 C-144.51877441 409.27112305 -144.61787109 408.26758789 -144.7199707 407.23364258 C-145.34125293 400.91814635 -145.90812787 394.59997229 -146.41967773 388.2746582 C-146.47897461 387.55761719 -146.53827148 386.84057617 -146.59936523 386.10180664 C-146.99396087 381.16231483 -147.25021207 376.22682152 -147.41967773 371.2746582 C-147.45367676 370.3263916 -147.48767578 369.378125 -147.52270508 368.40112305 C-148.61879703 332.90888671 -141.64145379 292.77214111 -117.41967773 265.2746582 C-116.73260742 264.44450195 -116.04553711 263.6143457 -115.33764648 262.7590332 C-109.73285549 256.17466612 -103.46566688 251.24178236 -96.41967773 246.2746582 C-95.28994803 245.46460747 -94.16105734 244.65338549 -93.03295898 243.84106445 C-88.26164119 240.41226714 -83.46951922 237.01331115 -78.66577148 233.63012695 C-62.83513138 222.45984088 -53.75014906 212.83796002 -48.97802734 193.51098633 C-45.61198381 180.02692418 -45.61198381 180.02692418 -39.49780273 176.01293945 C-33.41275648 172.75309324 -28.28308003 172.24262365 -21.41967773 172.2746582 C-21.49186523 171.41227539 -21.56405273 170.54989258 -21.63842773 169.66137695 C-22.43496285 159.18472763 -22.52143422 148.77818854 -22.41967773 138.2746582 C-23.1531543 138.15993164 -23.88663086 138.04520508 -24.64233398 137.92700195 C-30.23879978 136.61250155 -34.78117384 133.41651604 -38.26342773 128.86450195 C-42.68958332 121.67199912 -44.72037978 115.45154377 -44.71020508 106.96533203 C-44.7169223 106.15307159 -44.72363953 105.34081116 -44.7305603 104.50393677 C-44.7494913 101.82979132 -44.75346245 99.15589767 -44.75561523 96.48168945 C-44.7620481 94.61089477 -44.76877683 92.74010108 -44.77578735 90.86930847 C-44.787749 86.94963247 -44.79146948 83.03004452 -44.7902832 79.11035156 C-44.79008043 74.11169956 -44.81734401 69.11361877 -44.85182762 64.11510181 C-44.87417736 60.25009114 -44.87811823 56.38521598 -44.87706375 52.52014732 C-44.87940905 50.67872849 -44.88817156 48.83730531 -44.90372849 46.9959507 C-44.99840669 34.62874484 -44.64784921 23.33131223 -36.41967773 13.2746582 C-25.80068097 2.51344273 -14.76163072 -0.03560001 0 0 Z M-25.41967773 193.2746582 C-26.73967773 198.5546582 -28.05967773 203.8346582 -29.41967773 209.2746582 C-30.59792736 212.25988729 -31.67552827 214.87128423 -33.16967773 217.6496582 C-33.51256836 218.30828857 -33.85545898 218.96691895 -34.20874023 219.64550781 C-42.28016344 234.67080088 -54.50528615 243.22489477 -68.41967773 252.2746582 C-77.05957663 257.90928253 -85.61362243 263.49644648 -93.41967773 270.2746582 C-94.44448242 271.15637695 -94.44448242 271.15637695 -95.48999023 272.0559082 C-115.61679362 290.68306742 -124.30257279 323.19618806 -125.53211975 349.69827271 C-125.59880812 352.17196839 -125.63580867 354.64391608 -125.65795898 357.1184082 C-125.66775284 358.0327211 -125.67754669 358.947034 -125.68763733 359.88905334 C-125.87457014 381.93374754 -125.11124386 403.36492689 -121.74578857 425.15594482 C-121.4084355 427.34769802 -121.08052329 429.54071737 -120.75415039 431.73413086 C-115.12454351 469.35027751 -107.21516422 506.48357036 -99.0088501 543.60803223 C-98.45571052 546.11157185 -97.90393239 548.61540631 -97.3527832 551.11938477 C-93.48055397 568.70634844 -89.52802375 586.27505297 -85.54467773 603.8371582 C-85.33720917 604.75298676 -85.1297406 605.66881531 -84.91598511 606.61239624 C-82.54959106 617.05112803 -80.14416349 627.47910533 -77.66577148 637.8918457 C-77.21169556 639.80904956 -76.7577553 641.72628555 -76.30395508 643.64355469 C-75.45645679 647.22375274 -74.59728365 650.80084249 -73.73071289 654.37646484 C-71.66292756 663.02860944 -69.92751906 671.65903019 -68.65405273 680.46606445 C-68.53103287 681.31482651 -68.408013 682.16358856 -68.28126526 683.03807068 C-64.90833615 707.88327318 -70.28581652 729.94838117 -81.91967773 751.8371582 C-90.66839177 766.18431443 -90.66839177 766.18431443 -92.41967773 782.2746582 C-89.41569773 787.68182222 -85.28702859 790.42181056 -79.41967773 792.2746582 C-73.89161661 793.26748412 -68.55087491 793.41609583 -62.95819092 793.40164185 C-62.02483768 793.40320184 -61.09148444 793.40476183 -60.12984776 793.40636909 C-57.01257435 793.4103472 -53.89534992 793.40720176 -50.77807617 793.40405273 C-48.53876212 793.40540822 -46.29944829 793.40718899 -44.06013489 793.40936279 C-37.98355277 793.41392057 -31.90698765 793.41215407 -25.83040524 793.40898371 C-19.46540723 793.40645033 -13.10041066 793.40880049 -6.7354126 793.41036987 C4.64241908 793.41230576 16.02024214 793.40919847 27.39807209 793.40411054 C37.69726999 793.3996473 47.99645661 793.40041545 58.2956543 793.4050293 C70.27093609 793.41039153 82.24621103 793.4123668 94.22149444 793.40941703 C100.55479309 793.40786086 106.88808399 793.40764231 113.22138214 793.41095352 C119.18034955 793.41385131 125.13929575 793.41182152 131.09826088 793.40605927 C133.28027372 793.40474165 135.46228835 793.40510875 137.64430046 793.40732193 C140.63319101 793.41007298 143.62201454 793.40660424 146.61090088 793.40164185 C147.46511194 793.40387257 148.31932301 793.40610329 149.19941926 793.40840161 C165.23204808 793.59542949 165.23204808 793.59542949 179.24438477 786.81762695 C180.78498156 785.10338489 180.78498156 785.10338489 182.58032227 782.2746582 C183.01344727 781.6352832 183.44657227 780.9959082 183.89282227 780.3371582 C186.41212758 772.77924226 182.8897984 766.93056691 179.58032227 760.2746582 C176.9299309 755.3852215 174.11788901 750.59170081 171.30883789 745.79223633 C155.95621304 719.16306364 156.58988242 692.62581513 163.11437988 663.36846924 C163.62606007 661.06912566 164.13133371 658.76842521 164.63598633 656.4675293 C171.18553498 626.65290274 171.18553498 626.65290274 174.67016602 613.0012207 C175.89066072 608.2060222 176.98736385 603.40689066 177.92797852 598.5480957 C180.06411588 587.548647 182.63757169 576.64434082 185.14111328 565.72387695 C186.0141355 561.91573993 186.88441016 558.1069835 187.75415039 554.2980957 C190.08848498 544.08586627 192.42776055 533.87569282 194.85375977 523.68481445 C196.31816607 517.51225569 197.61476623 511.32523503 198.76782227 505.0871582 C200.36060277 496.59102754 202.00935742 488.11002045 203.72485352 479.63793945 C208.50629105 455.93160799 212.68914708 432.28792403 215.58032227 408.2746582 C215.70487793 407.24840332 215.82943359 406.22214844 215.95776367 405.16479492 C216.58754867 399.87366793 217.12735613 394.58384266 217.58032227 389.2746582 C217.69118164 387.9959082 217.80204102 386.7171582 217.91625977 385.3996582 C220.69695365 348.12332935 217.36537971 311.26830621 194.58032227 280.2746582 C194.07243164 279.52313477 193.56454102 278.77161133 193.04125977 277.99731445 C191.9468747 276.38133651 190.77367347 274.81899505 189.58032227 273.2746582 C188.92032227 273.2746582 188.26032227 273.2746582 187.58032227 273.2746582 C187.33411133 272.68813477 187.08790039 272.10161133 186.83422852 271.49731445 C182.52557197 263.8598516 172.35995134 259.11258548 165.11669922 254.4855957 C146.80444408 242.76833473 126.68623951 229.49341263 120.58032227 207.2746582 C119.94850451 204.10401177 119.41644094 200.9459488 118.97485352 197.7434082 C118.7078555 195.27933928 118.7078555 195.27933928 117.58032227 193.2746582 C70.39032227 193.2746582 23.20032227 193.2746582 -25.41967773 193.2746582 Z " fill="#1E1D47" transform="translate(383.419677734375,103.725341796875)"/>
<path d="M0 0 C16.04475876 8.30889293 26.80938688 31.3558741 35.67675781 46.41064453 C38.60413696 51.37860282 41.6593365 56.25715524 44.75 61.125 C46.83394557 64.41627923 48.91695625 67.70814995 51 71 C51.52110352 71.82242188 52.04220703 72.64484375 52.57910156 73.4921875 C101.47108261 150.85177305 101.47108261 150.85177305 98 194 C97.95601074 194.64066406 97.91202148 195.28132812 97.86669922 195.94140625 C96.38134923 216.3828788 88.84960793 235.67310055 75 251 C74.33556885 251.73597412 74.33556885 251.73597412 73.65771484 252.48681641 C52.50253729 275.58347207 25.22988082 284.74101886 -5.484375 287.2890625 C-32.92704805 288.12295588 -58.94183144 275.55492882 -78.66015625 257.26953125 C-95.24034496 241.18757859 -105.65315217 220.44554701 -106.43359375 197.1953125 C-106.45698072 194.50251684 -106.46233976 191.81703894 -106.4375 189.125 C-106.43445862 188.42211853 -106.43141724 187.71923706 -106.42828369 186.99505615 C-106.36090306 176.45642528 -105.54786347 167.03946505 -102 157 C-101.54314981 155.54062677 -101.09160366 154.07958573 -100.64453125 152.6171875 C-92.23273557 125.59486844 -77.74795379 101.83983913 -62.84082031 77.953125 C-60.31242158 73.89695642 -57.80674578 69.82723943 -55.3125 65.75 C-54.88388672 65.05060303 -54.45527344 64.35120605 -54.01367188 63.63061523 C-50.99248066 58.68041381 -48.04898058 53.6873321 -45.11914062 48.68261719 C-39.74890307 39.51703753 -34.27293934 30.49061372 -28.21923828 21.75878906 C-27.37436418 20.54003195 -26.53452771 19.31777307 -25.69873047 18.09277344 C-24.39246479 16.17973558 -23.07353181 14.27612299 -21.75 12.375 C-21.36175049 11.80652344 -20.97350098 11.23804688 -20.57348633 10.65234375 C-15.13437668 2.95894973 -9.59862314 -1.3168359 0 0 Z " fill="#97D2F4" transform="translate(418,444)"/>
<path d="M0 0 C0.680625 0.433125 1.36125 0.86625 2.0625 1.3125 C4.92688059 3.05970853 4.92688059 3.05970853 7.9375 4.12109375 C13.70247813 6.5609081 18.76460833 10.26965054 23.9375 13.75 C25.50661133 14.78640625 25.50661133 14.78640625 27.10742188 15.84375 C39.51634616 24.14236436 39.51634616 24.14236436 44 29 C44 29.66 44 30.32 44 31 C44.66 31 45.32 31 46 31 C47.81360779 33.29601525 49.48323823 35.58427275 51.125 38 C51.86097412 39.08063721 51.86097412 39.08063721 52.61181641 40.18310547 C65.95170307 60.19511022 74.36689371 83.83185567 75 108 C75.02046387 108.76666992 75.04092773 109.53333984 75.06201172 110.32324219 C75.90420844 147.47734222 70.36610124 184.58049545 63.5 221 C63.31476776 221.98309143 63.12953552 222.96618286 62.93869019 223.97906494 C60.36629635 237.54430201 57.51863202 251.04075111 54.5440979 264.52297974 C53.82137267 267.8132057 53.11853197 271.10732777 52.41796875 274.40234375 C50.92527693 281.38738937 49.36959788 288.3580426 47.81164551 295.32873535 C45.45337988 305.88239215 43.11056145 316.43883305 40.83984375 327.01171875 C40.57564384 328.24076683 40.57564384 328.24076683 40.30610657 329.49464417 C39.46360086 333.41691542 38.62446161 337.33986555 37.7902832 341.26391602 C36.31334883 348.17649895 34.76695177 355.05664638 33.01953125 361.90625 C30.75053421 370.80277492 28.84148729 379.76948085 26.9375 388.75 C24.98692577 397.93561706 23.02074494 407.09631585 20.69897461 416.19677734 C14.04931417 442.86509769 10.41837442 470.82096617 24 496 C24.71622707 497.37427994 25.43094286 498.74934808 26.14453125 500.125 C29.30060257 506.17386107 32.51837492 512.18479077 35.875 518.125 C41.96966025 529.0911707 41.96966025 529.0911707 41 536 C38.07549831 542.64886709 33.95247078 546.25355942 27.3125 549.1875 C19.40341888 551.12746329 11.13879184 551.14815776 3.03057861 551.12698364 C2.09098541 551.12854363 1.15139221 551.13010362 0.18332648 551.13171089 C-2.93085872 551.13566487 -6.04499422 551.1325532 -9.15917969 551.12939453 C-11.40557381 551.13075102 -13.65196772 551.13253235 -15.89836121 551.13470459 C-21.9744379 551.13924836 -28.05049754 551.13750223 -34.12657452 551.1343255 C-40.49342074 551.13178735 -46.86026554 551.13414338 -53.22711182 551.13571167 C-64.59659772 551.13764482 -75.96607499 551.13454565 -87.33555916 551.12945233 C-97.63598206 551.12498082 -107.9363937 551.12576495 -118.23681641 551.13037109 C-130.21794851 551.13572636 -142.19907378 551.13771295 -154.18020749 551.13475883 C-160.5155548 551.13320062 -166.85089434 551.13298995 -173.18624115 551.13629532 C-179.13868292 551.13918432 -185.09110339 551.13717936 -191.04354286 551.13140106 C-193.22723925 551.13007924 -195.41093743 551.13045779 -197.5946331 551.13266373 C-200.57595063 551.13539774 -203.5572 551.13196656 -206.53851318 551.12698364 C-207.40164714 551.12921436 -208.26478109 551.13144509 -209.15407062 551.13374341 C-213.86410946 551.11848271 -218.37852792 550.95980851 -223 550 C-223.33 549.34 -223.66 548.68 -224 548 C-107.675 548.495 -107.675 548.495 11 549 C9.35 545.04 7.7 541.08 6 537 C4.95268068 534.00847003 3.94244415 531.03571219 2.9921875 528.015625 C2.74002472 527.2303241 2.48786194 526.44502319 2.22805786 525.63592529 C1.438805 523.17548454 0.65647142 520.71292203 -0.125 518.25 C-0.91477173 515.77318675 -1.70607875 513.29688066 -2.4994812 510.82122803 C-2.98827181 509.2948417 -3.47487063 507.7677509 -3.95877075 506.23980713 C-5.05406074 502.80824994 -6.2104627 499.44229993 -7.54638672 496.09667969 C-10.58953562 488.02863541 -11.31348019 479.98250658 -11.3359375 471.421875 C-11.34431641 470.43003204 -11.35269531 469.43818909 -11.36132812 468.41629028 C-11.38087348 465.1940314 -11.3808937 461.97230855 -11.375 458.75 C-11.37445618 457.63643127 -11.37391235 456.52286255 -11.37335205 455.37554932 C-11.33093937 436.39604295 -10.12049109 417.85757366 -7.65478516 399.05224609 C-6.91744129 393.42153132 -6.24729612 387.78322562 -5.57421875 382.14453125 C-3.09133 361.49689523 -0.34278592 340.91055829 2.86328125 320.36328125 C4.0950412 312.46059562 5.19484376 304.54336517 6.2722168 296.6184082 C7.94511947 284.33280005 9.67631308 272.05557266 11.40570068 259.77780151 C14.67848862 236.52853653 17.94658485 213.27923713 21 190 C21.15695343 188.80748627 21.15695343 188.80748627 21.31707764 187.59088135 C22.96320799 175.07051897 24.53526988 162.54292507 26 150 C26.08570251 149.27165955 26.17140503 148.54331909 26.25970459 147.79290771 C30.06597207 115.22879541 32.00901391 82.07328212 24 50 C23.77538086 49.0939502 23.55076172 48.18790039 23.31933594 47.25439453 C19.18387944 31.26336078 11.99719219 17.07856192 1.65234375 4.22265625 C0 2 0 2 0 0 Z " fill="#E1ADC8" transform="translate(527,346)"/>
<path d="M0 0 C7.41390479 1.94082153 13.00296015 12.08680223 17.10302734 18.06689453 C17.70711426 18.94055664 18.31120117 19.81421875 18.93359375 20.71435547 C24.18735353 28.41201791 28.85456868 36.31070456 33.16552734 44.56689453 C33.50245605 45.19982422 33.83938477 45.83275391 34.18652344 46.48486328 C42.74522077 62.61267134 49.9969557 79.75369463 54.16552734 97.56689453 C54.35630859 98.37932617 54.54708984 99.19175781 54.74365234 100.02880859 C58.43949207 116.70378816 58.67399509 133.3381518 58.57470703 150.34350586 C58.59746065 181.57565311 70.12953908 211.6200634 90.57373047 235.19042969 C94.16552734 239.36696705 94.16552734 239.36696705 94.16552734 241.56689453 C94.82552734 241.56689453 95.48552734 241.56689453 96.16552734 241.56689453 C97.45296849 243.01718622 98.6678951 244.53186611 99.85302734 246.06689453 C103.91655436 251.16274152 108.23517127 255.90967147 112.72802734 260.62939453 C133.05978279 282.10858568 133.05978279 282.10858568 134.16552734 297.56689453 C133.8118167 304.77080136 130.44645414 309.95457902 126.16552734 315.56689453 C125.63958984 316.35580078 125.11365234 317.14470703 124.57177734 317.95751953 C120.46401182 322.41204448 115.10046916 325.07485744 109.89990234 328.10595703 C108.65080078 328.86005859 108.65080078 328.86005859 107.37646484 329.62939453 C106.61640137 330.07412109 105.85633789 330.51884766 105.07324219 330.97705078 C102.70513261 332.95057645 102.02881876 334.63655499 101.16552734 337.56689453 C101.90116307 343.7623267 105.57426451 349.25222889 108.86083984 354.40283203 C111.91480904 359.4683977 111.8365188 364.82794411 111.16552734 370.56689453 C108.60720982 377.54298963 102.42877725 382.5828347 97.16552734 387.56689453 C96.50552734 388.22689453 95.84552734 388.88689453 95.16552734 389.56689453 C95.58705078 390.18177734 96.00857422 390.79666016 96.44287109 391.43017578 C97.26464844 392.64253906 97.26464844 392.64253906 98.10302734 393.87939453 C98.64830078 394.67990234 99.19357422 395.48041016 99.75537109 396.30517578 C102.9374873 401.40890233 102.71456305 406.73927266 102.16552734 412.56689453 C100.48312287 418.71881931 96.86229798 423.69666495 93.04443359 428.71923828 C92.42439453 429.65896484 91.80435547 430.59869141 91.16552734 431.56689453 C90.72523193 432.18072998 90.28493652 432.79456543 89.83129883 433.42700195 C84.53984567 441.99353898 85.75291167 451.32806146 86.10302734 461.00439453 C86.60844561 475.77996002 86.56956212 488.8301115 76.16552734 500.56689453 C63.71747143 511.42994954 48.8913642 516.36087357 32.36083984 515.90673828 C10.81933478 514.4223923 -10.61764686 509.15284669 -31.72018433 504.79768372 C-43.161064 502.44849125 -56.08617089 499.7946584 -66.83447266 505.56689453 C-78.05825051 514.70252767 -82.04160219 530.49647865 -85.83447266 543.81689453 C-86.52519335 546.18949005 -87.21659732 548.56188677 -87.90869141 550.93408203 C-88.23788574 552.06942383 -88.56708008 553.20476563 -88.90625 554.37451172 C-90.12670628 558.57195682 -91.36853338 562.76176106 -92.64697266 566.94189453 C-93.00404297 568.12525391 -93.36111328 569.30861328 -93.72900391 570.52783203 C-96.39063919 577.8449778 -96.39063919 577.8449778 -99.83447266 579.56689453 C-103.27635485 579.94101216 -105.17450004 579.97714778 -108.14697266 578.12939453 C-113.24593902 570.38651969 -110.04704333 560.17648866 -108.33447266 551.75439453 C-108.19886932 551.07047638 -108.06326599 550.38655823 -107.92355347 549.68191528 C-105.57411044 537.91168489 -102.48852098 526.64771296 -97.83447266 515.56689453 C-97.57085938 514.91495117 -97.30724609 514.26300781 -97.03564453 513.59130859 C-92.03224472 501.44646468 -83.6119313 489.79925425 -71.28369141 484.39892578 C-51.9773104 477.84029874 -32.53545437 482.90286348 -13.14697266 487.00439453 C-9.38045125 487.78349988 -5.61284948 488.55705754 -1.8445282 489.32740784 C0.47853514 489.80415705 2.80039711 490.28681356 5.12077332 490.776474 C14.66989199 492.76738972 23.855247 493.75984827 33.60302734 493.81689453 C34.48023438 493.83751953 35.35744141 493.85814453 36.26123047 493.87939453 C44.87302354 493.93016413 53.47974051 492.31978088 60.16552734 486.56689453 C64.0344039 481.46796755 66.46101998 476.95211089 66.07958984 470.44970703 C66.03576172 469.67755859 65.99193359 468.90541016 65.94677734 468.10986328 C65.89521484 467.31193359 65.84365234 466.51400391 65.79052734 465.69189453 C65.74669922 464.90169922 65.70287109 464.11150391 65.65771484 463.29736328 C65.39951034 458.98678246 64.91051074 454.82480778 64.16552734 450.56689453 C62.98122326 437.96667568 66.57193884 427.96414181 74.24755859 418.07080078 C76.87918829 414.63521089 78.68805226 411.64753999 80.16552734 407.56689453 C79.29906652 404.56533702 79.29906652 404.56533702 77.16552734 402.56689453 C73.56125228 401.36546951 71.08890817 401.66752038 67.30224609 401.97705078 C65.92662028 402.08090107 64.55096833 402.18440574 63.17529297 402.28759766 C61.01576801 402.45646756 58.85668638 402.62909068 56.69799805 402.80834961 C54.60842414 402.97943003 52.51812432 403.13535225 50.42724609 403.28955078 C49.17903076 403.39017822 47.93081543 403.49080566 46.64477539 403.59448242 C41.9968008 403.55762739 38.5029735 402.90434069 35.16552734 399.56689453 C34.43190289 393.88130501 34.43190289 393.88130501 35.16552734 391.56689453 C40.14194366 387.24066326 46.14512096 385.78514132 52.35302734 383.87939453 C60.43504924 381.2924557 68.24271861 378.45162186 75.91552734 374.81689453 C76.69436279 374.45249268 77.47319824 374.08809082 78.27563477 373.71264648 C83.9147886 371.01034558 83.9147886 371.01034558 88.16552734 366.56689453 C88.11160938 361.66709951 86.03665433 358.19759655 83.66552734 354.00439453 C79.44358901 346.06715046 78.40794998 338.70158554 79.72802734 329.75439453 C84.94648925 318.18302247 94.67593781 312.10789157 105.56396484 306.34033203 C108.49528963 304.34210162 109.70032825 302.77754891 111.16552734 299.56689453 C111.77010183 296.30823805 111.28398414 293.67371896 110.16552734 290.56689453 C107.54391605 286.85962773 104.36761186 283.77355999 101.16552734 280.56689453 C99.14679102 278.41737065 97.15734608 276.24134421 95.16552734 274.06689453 C94.13860301 272.95452802 93.111264 271.84254417 92.08349609 270.73095703 C72.23953084 249.22524558 54.37220623 227.23546068 44.16552734 199.56689453 C43.78074219 198.53773926 43.78074219 198.53773926 43.38818359 197.48779297 C36.47717408 178.44516 35.95433534 158.15697662 36.18988037 138.12030029 C36.44023394 114.76113321 31.46520642 93.91425616 22.16552734 72.56689453 C21.88370605 71.91285645 21.60188477 71.25881836 21.31152344 70.58496094 C13.22689206 52.02736147 2.41465439 35.27906121 -9.71801758 19.12890625 C-12.31776229 15.49165134 -12.30857722 11.90037663 -11.83447266 7.56689453 C-9.33464374 2.09107881 -6.18348533 -0.16734927 0 0 Z " fill="#1F1E48" transform="translate(697.83447265625,229.43310546875)"/>
<path d="M0 0 C16.04475876 8.30889293 26.80938688 31.3558741 35.67675781 46.41064453 C38.60413696 51.37860282 41.6593365 56.25715524 44.75 61.125 C46.83394557 64.41627923 48.91695625 67.70814995 51 71 C51.52110352 71.82242188 52.04220703 72.64484375 52.57910156 73.4921875 C101.47108261 150.85177305 101.47108261 150.85177305 98 194 C97.95601074 194.64066406 97.91202148 195.28132812 97.86669922 195.94140625 C96.38134923 216.3828788 88.84960793 235.67310055 75 251 C74.33556885 251.73597412 74.33556885 251.73597412 73.65771484 252.48681641 C52.50253729 275.58347207 25.22988082 284.74101886 -5.484375 287.2890625 C-32.92704805 288.12295588 -58.94183144 275.55492882 -78.66015625 257.26953125 C-95.24034496 241.18757859 -105.65315217 220.44554701 -106.43359375 197.1953125 C-106.45698072 194.50251684 -106.46233976 191.81703894 -106.4375 189.125 C-106.43445862 188.42211853 -106.43141724 187.71923706 -106.42828369 186.99505615 C-106.36090306 176.45642528 -105.54786347 167.03946505 -102 157 C-101.54314981 155.54062677 -101.09160366 154.07958573 -100.64453125 152.6171875 C-92.23273557 125.59486844 -77.74795379 101.83983913 -62.84082031 77.953125 C-60.31242158 73.89695642 -57.80674578 69.82723943 -55.3125 65.75 C-54.88388672 65.05060303 -54.45527344 64.35120605 -54.01367188 63.63061523 C-50.99248066 58.68041381 -48.04898058 53.6873321 -45.11914062 48.68261719 C-39.74890307 39.51703753 -34.27293934 30.49061372 -28.21923828 21.75878906 C-27.37436418 20.54003195 -26.53452771 19.31777307 -25.69873047 18.09277344 C-24.39246479 16.17973558 -23.07353181 14.27612299 -21.75 12.375 C-21.36175049 11.80652344 -20.97350098 11.23804688 -20.57348633 10.65234375 C-15.13437668 2.95894973 -9.59862314 -1.3168359 0 0 Z M-6 27 C-11.88119455 33.80373487 -16.46328034 41.80752535 -21.17578125 49.44140625 C-24.344364 54.572086 -27.57481833 59.66272216 -30.8125 64.75 C-31.70400757 66.15245972 -31.70400757 66.15245972 -32.61352539 67.58325195 C-36.02072654 72.93164236 -39.46846936 78.25064376 -42.953125 83.54882812 C-59.37873909 108.56599522 -75.30373951 134.80061976 -83 164 C-83.22558594 164.83917969 -83.45117188 165.67835938 -83.68359375 166.54296875 C-87.72942456 184.53994026 -85.17054372 204.18275358 -78 221 C-77.64164062 221.84046875 -77.28328125 222.6809375 -76.9140625 223.546875 C-73.85789787 230.1514724 -69.7879752 235.54727778 -65 241 C-64.40574219 241.68964844 -63.81148438 242.37929688 -63.19921875 243.08984375 C-50.58949825 256.72562288 -30.47711159 265.96968134 -11.98535156 267.12597656 C11.67594302 267.95564468 33.05260488 262.47236276 51.1875 246.625 C65.85024021 232.89175204 76.45332063 215.85590262 77.37109375 195.234375 C77.64191045 181.0754665 76.58014996 168.42391308 72 155 C71.5978125 153.81543213 71.5978125 153.81543213 71.1875 152.60693359 C63.25901476 129.98230354 50.97255125 109.05309503 38 89 C37.3296875 87.95714844 36.659375 86.91429687 35.96875 85.83984375 C32.83955912 81.07057256 29.58165163 76.39770114 26.30859375 71.7265625 C24.91375177 69.73459255 23.51923012 67.74239826 22.125 65.75 C21.42463623 64.74952637 20.72427246 63.74905273 20.00268555 62.71826172 C16.01060516 56.98515832 12.15013553 51.20648367 8.5 45.25 C2.73831894 35.77801679 2.73831894 35.77801679 -4 27 C-4.66 27 -5.32 27 -6 27 Z " fill="#1C1B46" transform="translate(418,444)"/>
<path d="M0 0 C0.96163559 -0.0071553 1.92327118 -0.01431061 2.91404724 -0.02168274 C3.96759903 -0.02437164 5.02115082 -0.02706055 6.10662842 -0.02983093 C7.21748306 -0.03640213 8.32833771 -0.04297333 9.47285461 -0.04974365 C13.15644394 -0.06948689 16.83999247 -0.0811414 20.52362061 -0.09111023 C21.780877 -0.09518576 23.03813339 -0.09926128 24.33348846 -0.10346031 C30.30129196 -0.12217332 36.26908248 -0.13673822 42.2369082 -0.14507228 C49.11651504 -0.15483925 55.99579967 -0.18114647 62.87529302 -0.22157317 C68.84093524 -0.25542167 74.80649892 -0.26722138 80.77223969 -0.27127647 C83.30636531 -0.27614937 85.84048732 -0.28778323 88.37454987 -0.30631447 C91.92222266 -0.33064602 95.46905408 -0.32975129 99.01678467 -0.32279968 C100.58496696 -0.34201477 100.58496696 -0.34201477 102.18482971 -0.36161804 C109.30926278 -0.31077006 113.60646957 0.89115268 119.06268311 5.67451477 C123.3023377 10.95215377 123.4428828 15.31679585 123.49749756 21.92182922 C123.50406876 22.58270538 123.51063995 23.24358154 123.51741028 23.92448425 C123.53702714 26.09897498 123.54877902 28.27339707 123.55877686 30.44795227 C123.56285238 31.19462851 123.56692791 31.94130474 123.57112694 32.71060753 C123.59193705 36.66203403 123.60626118 40.6134263 123.61566162 44.56489563 C123.62672268 48.63008827 123.66113306 52.69473308 123.70083332 56.75973225 C123.72706427 59.90059376 123.73535909 63.04132582 123.7389431 66.18228722 C123.74379141 67.68010857 123.75535504 69.17792482 123.77398109 70.6756382 C123.9466224 85.47593756 123.9466224 85.47593756 119.32049561 92.14717102 C116.24063074 95.00049683 114.20593254 95.52395195 110.04498291 95.53485107 C108.97666733 95.54475571 107.90835175 95.55466034 106.80766296 95.56486511 C105.64078445 95.56036346 104.47390594 95.55586182 103.27166748 95.55122375 C101.42237389 95.56151863 101.42237389 95.56151863 99.53572083 95.57202148 C96.15751153 95.587188 92.77985393 95.58878344 89.40165138 95.5830791 C86.58096111 95.57998878 83.76032082 95.58607783 80.93963766 95.59211785 C74.28578629 95.60616361 67.63206332 95.60460102 60.97821045 95.59321594 C54.11389735 95.58173031 47.24997475 95.59581738 40.3857131 95.62261242 C34.49089859 95.64476152 28.59620673 95.65140874 22.70135355 95.64553601 C19.18115289 95.64216379 15.66120265 95.64459882 12.14103699 95.66178703 C8.21697646 95.68011143 4.29339725 95.66607715 0.36932373 95.64888 C-0.79755478 95.65854797 -1.96443329 95.66821594 -3.16667175 95.67817688 C-4.23498734 95.66834274 -5.30330292 95.65850861 -6.4039917 95.64837646 C-7.79548054 95.64806254 -7.79548054 95.64806254 -9.21508026 95.64774227 C-12.46027991 94.98858072 -13.65867294 93.72211148 -15.67950439 91.14717102 C-16.1494751 87.99482727 -16.1494751 87.99482727 -16.10528564 84.20967102 C-16.10249603 83.51293274 -16.09970642 82.81619446 -16.09683228 82.0983429 C-16.08200999 79.78060764 -16.03768343 77.46448871 -15.99200439 75.14717102 C-15.97286798 73.52088387 -15.95507224 71.89458045 -15.9385376 70.26826477 C-15.89822114 66.77054278 -15.84316258 63.27342506 -15.77813721 59.77607727 C-15.6882338 54.89511609 -15.63116116 50.01427531 -15.5806427 45.13276672 C-15.53592658 41.11816363 -15.4762053 37.10388875 -15.41201782 33.08955383 C-15.38208944 31.13323165 -15.35620881 29.17684322 -15.33444214 27.22041321 C-15.30117339 24.4663597 -15.24874467 21.71331113 -15.19122314 18.95967102 C-15.18480804 18.14039124 -15.17839294 17.32111145 -15.17178345 16.477005 C-15.01936104 10.59876449 -13.63760495 7.35003415 -9.67950439 2.89717102 C-6.58906537 0.19303688 -3.94729161 0.0201732 0 0 Z " fill="#BBA3E1" transform="translate(375.67950439453125,125.85282897949219)"/>
<path d="M0 0 C29.7 0 59.4 0 90 0 C90.64741432 11.65345772 91 23.3285724 91 35 C60.97 35 30.94 35 0 35 C0 23.45 0 11.9 0 0 Z " fill="#F7C7D3" transform="translate(384,242)"/>
<path d="M0 0 C1.9375 1.0625 1.9375 1.0625 3 3 C3.41832141 6.76489272 3.31945729 9.26020418 1.8125 12.75 C-0.20736851 15.25742298 -2.15153953 16.53727706 -5 18 C-3.79050937 20.85879604 -2.53779389 22.49522083 -0.375 24.8125 C2 28 2 28 2.5 31.625 C1.73405699 36.79511533 1.73405699 36.79511533 -1 39 C-4.1875 39.6875 -4.1875 39.6875 -8 39 C-11.88924165 36.33703044 -15.08150116 33.08058687 -18.125 29.5 C-20.02520367 27.6299303 -20.02520367 27.6299303 -23.25 28.25 C-24.1575 28.4975 -25.065 28.745 -26 29 C-25.62875 30.175625 -25.2575 31.35125 -24.875 32.5625 C-23.79075805 36.89177814 -24.24980316 39.83286467 -26 44 C-29.32627312 46.21751541 -31.14277787 46.40161772 -35.06640625 45.796875 C-37.56135069 44.76865547 -38.15257594 43.75526723 -39.375 41.375 C-40.8879055 37.66637324 -42.0292348 33.8830608 -43 30 C-45.64 29.67 -48.28 29.34 -51 29 C-51.0825 30.051875 -51.165 31.10375 -51.25 32.1875 C-52.06523816 36.3316273 -52.99899055 38.08473367 -56 41 C-58.6093772 42.26260187 -59.73769344 42.06397721 -62.5625 41.375 C-65.75565763 39.5737316 -66.74534583 38.46874976 -68 35 C-67.60621711 31.14226249 -66.73710511 27.47421022 -65 24 C-65.73089844 23.88140625 -66.46179688 23.7628125 -67.21484375 23.640625 C-72.74638094 22.36829386 -77.47468385 19.45091049 -81.5625 15.5625 C-83.37762273 12.32684644 -83.68510756 10.65390699 -83 7 C-80.8125 4.0625 -80.8125 4.0625 -78 2 C-73.93369425 2.33600166 -70.81590254 3.97884548 -67.25 5.875 C-54.45522409 12.43763414 -41.49864566 15.42098947 -27.3125 11.375 C-20.55951547 9.07767718 -14.49868157 5.8268815 -8.9453125 1.33984375 C-5.94949023 -0.72354388 -3.52990827 -0.3850809 0 0 Z " fill="#211F47" transform="translate(727,443)"/>
<path d="M0 0 C2.72260136 2.81821111 3.89084299 4.22030704 4.4375 8.125 C4 11 4 11 2.625 12.8125 C-0.93514949 15.41414771 -3.62871851 15.21498106 -8 15 C-9.05445313 14.67257812 -10.10890625 14.34515625 -11.1953125 14.0078125 C-27.42791265 9.70800671 -42.8629833 14.56220148 -57.32788086 21.86303711 C-67.33730668 26.86826956 -67.33730668 26.86826956 -72.875 25.0625 C-73.926875 24.5365625 -73.926875 24.5365625 -75 24 C-74.63100962 16.7431891 -74.63100962 16.7431891 -71.890625 13.515625 C-68.73008847 10.76510402 -65.53252194 8.56843145 -61.9375 6.4375 C-61.28281738 6.04691406 -60.62813477 5.65632813 -59.95361328 5.25390625 C-43.60694417 -4.20264778 -17.80976586 -7.70791934 0 0 Z " fill="#232249" transform="translate(716,391)"/>
<path d="M0 0 C2.11653893 2.11653893 2.94340681 3.37438804 3.21484375 6.375 C1.40818098 23.47468141 -5.99907272 38.64861912 -19 50 C-26.03069336 55.3910942 -34.00376297 61.23553154 -43.125 61.375 C-43.97320312 61.40335938 -44.82140625 61.43171875 -45.6953125 61.4609375 C-48 61 -48 61 -49.7734375 59.1328125 C-51.32932737 56.42734796 -51.61397868 55.06989342 -51 52 C-47.68980029 48.47623902 -43.70216257 46.91730691 -39.33984375 45.06640625 C-35.65976852 43.38917664 -32.34084812 41.26647846 -29 39 C-28.13375 38.4225 -27.2675 37.845 -26.375 37.25 C-18.53412852 29.82180597 -13.72314395 19.04306298 -11.9375 8.5 C-11.4023087 5.47373647 -11.00866961 4.01348606 -9.3125 1.375 C-6.00737194 -0.59021128 -3.7681338 -0.54809219 0 0 Z " fill="#7BB9E1" transform="translate(478,631)"/>
<path d="M0 0 C0.53367187 0.40992188 1.06734375 0.81984375 1.6171875 1.2421875 C2.73480469 2.05042969 2.73480469 2.05042969 3.875 2.875 C4.59429687 3.40867187 5.31359375 3.94234375 6.0546875 4.4921875 C13.24470165 8.17301702 21.38644278 8.29155661 29.31387329 8.24050903 C30.30247011 8.24221788 31.29106692 8.24392673 32.30962121 8.24568737 C35.59532445 8.24896027 38.88081975 8.23801497 42.16650391 8.22705078 C44.53248083 8.22648619 46.8984581 8.22680416 49.26443481 8.22793579 C55.66862797 8.22850844 62.07274586 8.21676828 68.47692156 8.20278788 C74.49734146 8.19153564 80.51775864 8.18953958 86.53818683 8.18748413 C98.45662437 8.18311535 110.37503441 8.16982851 122.29345703 8.15087891 C133.86572126 8.1324989 145.43797801 8.11835279 157.01025391 8.10986328 C157.72450561 8.10933783 158.43875731 8.10881239 159.17465301 8.10827102 C162.75812372 8.10566079 166.34159448 8.10313341 169.92506528 8.10064721 C199.61672841 8.07994018 229.30836289 8.0445875 259 8 C255.99212917 9.58268787 253.86432033 10.2757708 250.453125 10.4140625 C249.60878906 10.45273437 248.76445313 10.49140625 247.89453125 10.53125 C246.58548828 10.57765625 246.58548828 10.57765625 245.25 10.625 C244.36183594 10.66367187 243.47367188 10.70234375 242.55859375 10.7421875 C240.3726002 10.83620873 238.18660938 10.92186143 236 11 C237.65 11.33 239.3 11.66 241 12 C241 12.33 241 12.66 241 13 C211.96296119 13.09128733 182.92593641 13.16205775 153.88878274 13.20426132 C150.45922081 13.20926403 147.02965916 13.21444133 143.60009766 13.21972656 C142.57596921 13.22130043 142.57596921 13.22130043 141.53115129 13.22290608 C130.48198456 13.24030241 119.43290123 13.27183581 108.38378394 13.30861118 C97.04294216 13.34604219 85.70216215 13.36794107 74.36125469 13.37635398 C67.99265551 13.38156945 61.62424539 13.3938307 55.25570679 13.42292023 C49.26066481 13.45008173 43.26588967 13.45844336 37.27079201 13.45243073 C35.0713843 13.45353062 32.87196762 13.46147989 30.67261314 13.4768219 C27.66666933 13.49676085 24.66172938 13.49192447 21.65576172 13.48101807 C20.35417508 13.49849512 20.35417508 13.49849512 19.02629375 13.51632524 C13.01472875 13.45748091 9.20461034 12.01860923 4 9 C4 8.34 4 7.68 4 7 C3.34 7 2.68 7 2 7 C1.855625 6.401875 1.71125 5.80375 1.5625 5.1875 C1.1127561 3.43849596 0.57107659 1.71322977 0 0 Z " fill="#14102C" transform="translate(292,888)"/>
<path d="M0 0 C3.53045093 1.17681698 4.10920827 2.1739086 6.25 5.125 C18.83327415 21.6421756 36.61118251 30.45828894 56.76171875 34.5625 C73.85000639 36.87117095 89.90131892 34.12679877 105.66015625 27.40234375 C108.7395484 26.10935921 111.81884553 25.01196543 115 24 C113.625 25.5 113.625 25.5 112 27 C111.34 27 110.68 27 110 27 C110 27.66 110 28.32 110 29 C110.66 29.33 111.32 29.66 112 30 C93.59950775 40.13480837 70.80673393 44.56838316 50.1875 39.3125 C41.15325513 36.57896239 32.40228731 33.30726467 24 29 C24 28.34 24 27.68 24 27 C23.443125 26.731875 22.88625 26.46375 22.3125 26.1875 C17.41435257 23.6722351 13.81241049 21.01306367 10 17 C9.4225 16.505 8.845 16.01 8.25 15.5 C6.55604291 13.4672515 6.34892641 11.58205543 6 9 C5.01 8.67 4.02 8.34 3 8 C0.2332241 5.02827774 0 4.25809375 0 0 Z " fill="#161536" transform="translate(344,675)"/>
<path d="M0 0 C1.11012451 -0.00350464 2.22024902 -0.00700928 3.36401367 -0.01062012 C7.01023733 -0.01937686 10.65626482 -0.01361003 14.30249023 -0.00683594 C16.84879086 -0.00818423 19.39509124 -0.01012613 21.94139099 -0.01263428 C27.26808368 -0.01557726 32.5947069 -0.01150675 37.92138672 -0.00195312 C44.06251118 0.00893468 50.20350284 0.00539856 56.3446241 -0.00560594 C62.2761212 -0.01580558 68.20757735 -0.01468798 74.13908195 -0.00884247 C76.65282141 -0.00751107 79.16656428 -0.0091358 81.68029976 -0.01380157 C85.19581128 -0.0188958 88.71106976 -0.01111588 92.2265625 0 C93.77521248 -0.00607269 93.77521248 -0.00607269 95.35514832 -0.01226807 C101.10024635 0.0212859 106.03778445 0.61205431 111.54858398 2.25878906 C111.54858398 3.57878906 111.54858398 4.89878906 111.54858398 6.25878906 C110.55686754 6.25740637 110.55686754 6.25740637 109.54511642 6.25599575 C93.46251247 6.23391722 77.37991378 6.21736612 61.29729843 6.20697689 C53.51988938 6.20181928 45.74249045 6.19478674 37.96508789 6.18334961 C31.18678825 6.17338647 24.40849594 6.16693174 17.63018918 6.16470057 C14.04070965 6.16339624 10.45125108 6.16032789 6.86177826 6.15305901 C2.8560035 6.14501279 -1.14973477 6.14479898 -5.15551758 6.14526367 C-6.34738174 6.1416684 -7.53924591 6.13807312 -8.76722717 6.1343689 C-9.8581517 6.13574356 -10.94907623 6.13711823 -12.07305908 6.13853455 C-13.02066227 6.13761275 -13.96826546 6.13669096 -14.94458389 6.13574123 C-17.26178773 6.24948116 -19.2336927 6.60236469 -21.45141602 7.25878906 C-21.12141602 5.60878906 -20.79141602 3.95878906 -20.45141602 2.25878906 C-13.5061071 0.45317173 -7.15878341 -0.02812675 0 0 Z " fill="#1A173E" transform="translate(383.451416015625,103.7412109375)"/>
<path d="M0 0 C0.99 0.33 1.98 0.66 3 1 C4.75082814 1.09037546 6.50494412 1.12195827 8.25810242 1.12025452 C9.89242722 1.12231651 9.89242722 1.12231651 11.55976868 1.12442017 C12.75522812 1.12082489 13.95068756 1.11722961 15.18237305 1.11352539 C16.44102173 1.11367142 17.69967041 1.11381744 18.99645996 1.1139679 C22.44866579 1.1142551 25.90083696 1.1083707 29.35303473 1.10139394 C32.96051849 1.0951477 36.56800301 1.09455559 40.17549133 1.09336853 C47.00713919 1.09025897 53.83877107 1.08205062 60.67041188 1.07201904 C68.44784034 1.06084628 76.22526955 1.05534452 84.00270402 1.05032361 C100.00181194 1.03986771 116.00090391 1.0222755 132 1 C131.625 2.9375 131.625 2.9375 131 5 C128.48824836 6.25587582 126.787631 6.12304933 123.9760437 6.12025452 C122.91311096 6.12162918 121.85017822 6.12300385 120.7550354 6.12442017 C119.5840329 6.12082489 118.4130304 6.11722961 117.20654297 6.11352539 C115.97730103 6.11367142 114.74805908 6.11381744 113.48156738 6.1139679 C110.10573658 6.11338954 106.72996652 6.10836537 103.35414648 6.10139394 C99.82806927 6.09515358 96.3019913 6.09455606 92.77590942 6.09336853 C86.09651676 6.09025723 79.41714041 6.08204655 72.73775494 6.07201904 C65.13446975 6.06085166 57.53118379 6.05534588 49.92789245 6.05032361 C34.28525217 6.03986378 18.64262819 6.02226822 3 6 C3.33 5.34 3.66 4.68 4 4 C2.68 3.67 1.36 3.34 0 3 C0 2.01 0 1.02 0 0 Z " fill="#0F0D25" transform="translate(361,219)"/>
<path d="M0 0 C29.7 0 59.4 0 90 0 C90.64741432 11.65345772 91 23.3285724 91 35 C60.97 35 30.94 35 0 35 C0 23.45 0 11.9 0 0 Z M1 1 C1 11.56 1 22.12 1 33 C30.04 33 59.08 33 89 33 C89 22.44 89 11.88 89 1 C59.96 1 30.92 1 1 1 Z " fill="#E3D2D9" transform="translate(384,242)"/>
<path d="M0 0 C0.99902344 -0.01224609 1.99804688 -0.02449219 3.02734375 -0.03710938 C9.25302773 -0.0493166 14.72568684 0.60643026 20.75 2.1875 C20.75 2.8475 20.75 3.5075 20.75 4.1875 C23.225 4.6825 23.225 4.6825 25.75 5.1875 C26.245 7.1675 26.245 7.1675 26.75 9.1875 C26.12488525 8.97528809 25.49977051 8.76307617 24.85571289 8.54443359 C16.89120082 6.08171788 9.48486851 5.73523532 1.1875 5.8125 C-0.06224609 5.80089844 -1.31199219 5.78929687 -2.59960938 5.77734375 C-9.25541043 5.79832893 -14.9340546 6.25964177 -21.17944336 8.64208984 C-23.63208227 9.28814518 -24.92693301 9.19400401 -27.25 8.1875 C-27.58 7.1975 -27.91 6.2075 -28.25 5.1875 C-26.35546779 4.53785977 -24.45931351 3.89294885 -22.5625 3.25 C-21.50675781 2.89035156 -20.45101562 2.53070313 -19.36328125 2.16015625 C-12.83868568 0.12173179 -6.78774211 0.00431242 0 0 Z " fill="#1F1C3A" transform="translate(690.25,387.8125)"/>
<path d="M0 0 C1.56904335 0.01214539 1.56904335 0.01214539 3.16978455 0.02453613 C6.3115794 0.05155915 9.45310303 0.08889256 12.59474945 0.12927246 C16.79241054 0.18024458 20.99021319 0.21757421 25.18798828 0.2578125 C36.05550423 0.36480312 46.92276378 0.49095532 57.79003906 0.61981201 C62.99347735 0.68119465 68.19693478 0.74090901 73.40039062 0.80078125 C83.53908145 0.91767663 93.67775039 1.03636342 103.81640625 1.15625 C103.81640625 1.48625 103.81640625 1.81625 103.81640625 2.15625 C53.82140625 2.65125 53.82140625 2.65125 2.81640625 3.15625 C2.81640625 3.81625 2.81640625 4.47625 2.81640625 5.15625 C2.26178711 5.18130615 1.70716797 5.2063623 1.13574219 5.23217773 C-1.38758218 5.34852927 -3.91056911 5.47107754 -6.43359375 5.59375 C-7.74263672 5.65272461 -7.74263672 5.65272461 -9.078125 5.71289062 C-9.92246094 5.75478516 -10.76679688 5.79667969 -11.63671875 5.83984375 C-12.41176758 5.87650146 -13.18681641 5.91315918 -13.98535156 5.95092773 C-16.14109135 6.15228015 -18.1016085 6.57354297 -20.18359375 7.15625 C-19.85359375 5.50625 -19.52359375 3.85625 -19.18359375 2.15625 C-12.61904271 0.47373379 -6.75724718 -0.10682193 0 0 Z " fill="#100E1F" transform="translate(382.18359375,103.84375)"/>
<path d="M0 0 C0.66 0.33 1.32 0.66 2 1 C0.35 1.66 -1.3 2.32 -3 3 C-3 3.66 -3 4.32 -3 5 C-2.34 5.33 -1.68 5.66 -1 6 C-9.94919594 10.92912824 -19.60150725 15.42029836 -30 15 C-30 14.34 -30 13.68 -30 13 C-31.19625 13.165 -32.3925 13.33 -33.625 13.5 C-43.27822052 14.55058709 -52.60958107 14.59046039 -62 12 C-62 11.67 -62 11.34 -62 11 C-61.23034912 11.01571045 -60.46069824 11.0314209 -59.66772461 11.04760742 C-38.85252396 11.416445 -20.39851326 10.88136796 -1.69921875 0.75390625 C-1.13847656 0.50511719 -0.57773437 0.25632812 0 0 Z " fill="#11102C" transform="translate(457,699)"/>
<path d="M0 0 C1.11696762 0.0199855 2.23393524 0.03997101 3.38475037 0.06056213 C4.64598221 0.08065842 5.90721405 0.1007547 7.20666504 0.12145996 C8.59342151 0.14866045 9.98017582 0.17597123 11.3669281 0.2033844 C12.77796691 0.22767566 14.18901349 0.25151971 15.60006714 0.27493286 C19.32049886 0.33787286 23.04079374 0.40691114 26.76109314 0.47718811 C30.55477141 0.54778228 34.34854699 0.61265252 38.14231873 0.67799377 C45.59099402 0.80713381 53.03953409 0.94271162 60.48802185 1.08229065 C58.48802185 3.08229065 58.48802185 3.08229065 56.2741375 3.32838631 C55.34681376 3.32654272 54.41949001 3.32469913 53.46406555 3.32279968 C52.40113281 3.32554901 51.33820007 3.32829834 50.24305725 3.33113098 C48.4865535 3.32034515 48.4865535 3.32034515 46.69456482 3.30934143 C45.46532288 3.30963348 44.23608093 3.30992554 42.96958923 3.31022644 C39.59368695 3.30906971 36.2180276 3.29902154 32.84216833 3.28507853 C29.31609655 3.27259783 25.79002173 3.27140277 22.26393127 3.26902771 C15.5845151 3.26280509 8.90516419 3.24638375 2.22577679 3.22632873 C-5.37750147 3.203994 -12.98078281 3.19298242 -20.5840857 3.18293786 C-36.22675435 3.16201816 -51.86935784 3.12682706 -67.51197815 3.08229065 C-67.51197815 2.75229065 -67.51197815 2.42229065 -67.51197815 2.08229065 C-66.31261375 2.06682945 -66.31261375 2.06682945 -65.08901978 2.05105591 C-57.56930519 1.95324983 -50.04967622 1.85076 -42.53009892 1.74295139 C-38.66381805 1.68768709 -34.79752967 1.63426165 -30.9311676 1.5849762 C-27.20287728 1.53738415 -23.47468162 1.4850435 -19.74650383 1.4293499 C-18.32110882 1.40890287 -16.89568783 1.39019374 -15.47024727 1.37321663 C-13.48027274 1.34922469 -11.4903816 1.31858929 -9.50050354 1.28761292 C-7.79840477 1.26429649 -7.79840477 1.26429649 -6.06192017 1.24050903 C-3.10084038 1.05678044 -2.95412756 0.09677516 0 0 Z " fill="#161238" transform="translate(431.51197814941406,221.91770935058594)"/>
<path d="M0 0 C1.47905232 -0.02779013 2.95827058 -0.04673956 4.4375 -0.0625 C5.26121094 -0.07410156 6.08492187 -0.08570313 6.93359375 -0.09765625 C9.36234574 -0.02030746 11.65708599 0.17596691 14.0625 0.46875 C19.88189782 1.15313499 25.71004757 1.34731037 31.5625 1.5625 C32.66658203 1.60568359 33.77066406 1.64886719 34.90820312 1.69335938 C37.60537185 1.79844387 40.30261703 1.90059413 43 2 C40.67807281 3.54795146 38.47761092 4.76119454 36 6 C35.67 6.33 35.34 6.66 35 7 C22.96641395 7.66216558 11.72237127 6.71635638 0 4 C0 2.66666667 0 1.33333333 0 0 Z " fill="#151231" transform="translate(702,722)"/>
<path d="M0 0 C0 0.99 0 1.98 0 3 C-0.99 3.495 -0.99 3.495 -2 4 C-1.34 2.68 -0.68 1.36 0 0 Z M-5 2 C-4.34 2 -3.68 2 -3 2 C-1.85976902 5.42069294 -1.87229087 6.61687262 -3 10 C-4.63940847 11.69348618 -6.31069319 13.35628528 -8 15 C-9.63381837 16.80455501 -11.25870569 18.61723245 -12.875 20.4375 C-20.533806 28.84739247 -20.533806 28.84739247 -25 32 C-27.9375 31.875 -27.9375 31.875 -30 31 C-28.82318302 27.46954907 -27.8260914 26.89079173 -24.875 24.75 C-16.68824737 18.54516691 -9.64913611 11.29827223 -5 2 Z " fill="#19173E" transform="translate(490,668)"/>
<path d="M0 0 C-0.24243164 1.87280273 -0.24243164 1.87280273 -1 4 C-2.79077148 5.14086914 -2.79077148 5.14086914 -5.12109375 6.03515625 C-5.97509766 6.36966797 -6.82910156 6.70417969 -7.70898438 7.04882812 C-9.05959961 7.5505957 -9.05959961 7.5505957 -10.4375 8.0625 C-11.30310547 8.40087891 -12.16871094 8.73925781 -13.06054688 9.08789062 C-17.4684533 10.78475408 -21.91592969 12.35562276 -26.41015625 13.80859375 C-27.58976929 14.19035767 -27.58976929 14.19035767 -28.79321289 14.57983398 C-31.21528365 15.0409894 -32.68359169 14.7767577 -35 14 C-34.02692445 11.48445808 -33.46426619 10.24952493 -31.0480957 8.95092773 C-30.26523193 8.69770752 -29.48236816 8.4444873 -28.67578125 8.18359375 C-27.37930664 7.74950195 -27.37930664 7.74950195 -26.05664062 7.30664062 C-25.15107422 7.01982422 -24.24550781 6.73300781 -23.3125 6.4375 C-21.53701244 5.85514008 -19.76225722 5.27054213 -17.98828125 4.68359375 C-17.13645264 4.40475342 -16.28462402 4.12591309 -15.40698242 3.83862305 C-13.23788486 3.08288209 -11.16487739 2.23620018 -9.0703125 1.296875 C-5.79282294 -0.0875099 -3.51929111 -0.25750911 0 0 Z " fill="#1E1C39" transform="translate(778,605)"/>
<path d="M0 0 C0.66 0 1.32 0 2 0 C1.7106097 4.82317163 0.92509066 8.08329507 -2.40625 11.71484375 C-5.26121973 14.01701297 -8.50296625 15.03362288 -12 16 C-12.62028076 16.17418457 -13.24056152 16.34836914 -13.87963867 16.52783203 C-17.30207388 17.28994944 -20.76219399 17.10255431 -24.25 17.0625 C-24.99507812 17.05798828 -25.74015625 17.05347656 -26.5078125 17.04882812 C-28.3385764 17.03709246 -30.16929873 17.0191585 -32 17 C-28.56464151 13.82824575 -25.84669909 13.54233495 -21.25 13.3125 C-19.49429688 13.21388672 -19.49429688 13.21388672 -17.703125 13.11328125 C-16.36507812 13.05720703 -16.36507812 13.05720703 -15 13 C-15 12.34 -15 11.68 -15 11 C-14.32453125 10.76925781 -13.6490625 10.53851562 -12.953125 10.30078125 C-6.73418409 8.02709332 -3.05739838 6.11479677 0 0 Z " fill="#181434" transform="translate(566,884)"/>
<path d="M0 0 C0 0.33 0 0.66 0 1 C-2.31 1.33 -4.62 1.66 -7 2 C-6.67 3.32 -6.34 4.64 -6 6 C-6.78375 6.433125 -7.5675 6.86625 -8.375 7.3125 C-11.21698375 8.89220247 -11.21698375 8.89220247 -13 12 C-14.32 12 -15.64 12 -17 12 C-18.50930183 15.3863251 -18.50930183 15.3863251 -19 19 C-20.32324838 23.45092638 -22.49151723 25.99272905 -26 29 C-28.1640625 29.640625 -28.1640625 29.640625 -30 30 C-26.36617722 23.32194821 -22.48715581 17.03667633 -17.875 11 C-17.26422607 10.19139526 -17.26422607 10.19139526 -16.64111328 9.36645508 C-11.74738846 3.08903499 -7.97598131 -0.1733909 0 0 Z " fill="#100C24" transform="translate(415,444)"/>
<path d="M0 0 C0.33 0 0.66 0 1 0 C3.49476119 7.54141551 3.0245589 14.63668086 2.625 22.5 C2.56828125 23.799375 2.5115625 25.09875 2.453125 26.4375 C2.31247254 29.62562249 2.16114045 32.81285838 2 36 C1.01 35.34 0.02 34.68 -1 34 C-1.35644531 31.51318359 -1.35644531 31.51318359 -1.328125 28.3984375 C-1.32296875 27.26792969 -1.3178125 26.13742187 -1.3125 24.97265625 C-1.2815625 23.19181641 -1.2815625 23.19181641 -1.25 21.375 C-1.24484375 20.21097656 -1.2396875 19.04695313 -1.234375 17.84765625 C-1.17972789 11.81598122 -0.91292199 5.963442 0 0 Z " fill="#282645" transform="translate(237,441)"/>
<path d="M0 0 C0.80824219 0.10183594 1.61648438 0.20367187 2.44921875 0.30859375 C3.06410156 0.39238281 3.67898438 0.47617187 4.3125 0.5625 C4.3125 1.8825 4.3125 3.2025 4.3125 4.5625 C3.43207031 4.68367188 2.55164063 4.80484375 1.64453125 4.9296875 C0.48308594 5.09726562 -0.67835938 5.26484375 -1.875 5.4375 C-3.59783203 5.68113281 -3.59783203 5.68113281 -5.35546875 5.9296875 C-8.65816557 6.44450185 -8.65816557 6.44450185 -11.48828125 7.6953125 C-12.21402344 7.98148437 -12.93976563 8.26765625 -13.6875 8.5625 C-14.3475 8.2325 -15.0075 7.9025 -15.6875 7.5625 C-15.6875 6.5725 -15.6875 5.5825 -15.6875 4.5625 C-14.417947 3.91415346 -13.14680294 3.26892185 -11.875 2.625 C-11.16730469 2.26535156 -10.45960938 1.90570313 -9.73046875 1.53515625 C-6.16303489 -0.16329696 -3.86285006 -0.50385001 0 0 Z " fill="#1E1C37" transform="translate(357.6875,276.4375)"/>
<path d="M0 0 C2.06298828 0.14013672 2.06298828 0.14013672 4.5703125 0.6796875 C5.91416016 0.96005859 5.91416016 0.96005859 7.28515625 1.24609375 C8.69087891 1.55740234 8.69087891 1.55740234 10.125 1.875 C11.06988281 2.07480469 12.01476562 2.27460937 12.98828125 2.48046875 C15.32791194 2.97675405 17.66473013 3.48364939 20 4 C20 4.66 20 5.32 20 6 C19.08476563 5.98839844 18.16953125 5.97679687 17.2265625 5.96484375 C16.03804687 5.95582031 14.84953125 5.94679688 13.625 5.9375 C11.84996094 5.92009766 11.84996094 5.92009766 10.0390625 5.90234375 C7.08078479 5.78533407 7.08078479 5.78533407 5 7 C2.6505947 6.39239518 0.31470912 5.72870472 -2 5 C-2 2 -2 2 0 0 Z " fill="#292741" transform="translate(671,714)"/>
<path d="M0 0 C0.33 0.99 0.66 1.98 1 3 C-6.15533979 5.60758587 -12.40237976 6.38999191 -20 6 C-18.68 5.67 -17.36 5.34 -16 5 C-16 4.01 -16 3.02 -16 2 C-14.08654673 1.46748234 -12.1690705 0.94940517 -10.25 0.4375 C-9.18265625 0.14746094 -8.1153125 -0.14257812 -7.015625 -0.44140625 C-4.15637339 -0.97103446 -2.62188231 -1.21905276 0 0 Z " fill="#141233" transform="translate(705,455)"/>
<path d="M0 0 C0.33 1.32 0.66 2.64 1 4 C-0.7325 4.61875 -0.7325 4.61875 -2.5 5.25 C-6.84047556 6.86992749 -10.88783969 8.87048841 -15 11 C-13.05340314 4.2617801 -13.05340314 4.2617801 -10 2 C-6.53361143 0.26680571 -3.86029048 -0.22058803 0 0 Z " fill="#1C1A3A" transform="translate(634,713)"/>
<path d="M0 0 C3.70787035 -0.28328381 7.30318076 -0.46346554 11 0 C13.1875 2.5 13.1875 2.5 14 5 C11.2283799 6.38581005 9.40141372 5.82846133 6.3359375 5.44140625 C5.21445312 5.30283203 4.09296875 5.16425781 2.9375 5.02148438 C1.761875 4.87001953 0.58625 4.71855469 -0.625 4.5625 C-1.80835938 4.41490234 -2.99171875 4.26730469 -4.2109375 4.11523438 C-7.14135385 3.74893233 -10.07093807 3.37695479 -13 3 C-13 2.67 -13 2.34 -13 2 C-6.565 1.505 -6.565 1.505 0 1 C0 0.67 0 0.34 0 0 Z " fill="#201C3E" transform="translate(651,712)"/>
<path d="M0 0 C2.37625177 -0.10883596 4.74743976 -0.18766696 7.125 -0.25 C7.79015625 -0.28351563 8.4553125 -0.31703125 9.140625 -0.3515625 C14.29135714 -0.45255725 17.03555188 0.79346108 21 4 C25 8.42105263 25 8.42105263 25 11 C20.02790438 9.23570801 15.56561939 6.6060834 11 4 C11 3.34 11 2.68 11 2 C7.37 1.67 3.74 1.34 0 1 C0 0.67 0 0.34 0 0 Z " fill="#18162C" transform="translate(496,277)"/>
<path d="M0 0 C0.33 0 0.66 0 1 0 C1.47650234 9.71535325 0.83880792 18.43311421 -1.57714844 27.88232422 C-2.6321614 32.035615 -3.21857906 35.66940237 -3 40 C-3.9590625 40.1546875 -3.9590625 40.1546875 -4.9375 40.3125 C-5.9584375 40.6528125 -5.9584375 40.6528125 -7 41 C-7.33 41.99 -7.66 42.98 -8 44 C-9 42 -9 42 -8.109375 39.19921875 C-7.66078125 38.04035156 -7.2121875 36.88148438 -6.75 35.6875 C-2.36570992 23.87697655 -0.50297681 12.53973226 0 0 Z " fill="#0A0B1C" transform="translate(496,625)"/>
<path d="M0 0 C0 1.65 0 3.3 0 5 C-0.90363281 5.48210937 -1.80726563 5.96421875 -2.73828125 6.4609375 C-3.92973017 7.09887865 -5.12113406 7.7369039 -6.3125 8.375 C-6.90740234 8.69210938 -7.50230469 9.00921875 -8.11523438 9.3359375 C-10.83365888 10.79386349 -13.43067554 12.28711703 -16 14 C-15.18414751 8.62010316 -11.13262565 6.1220931 -7 3 C-1.67741935 0 -1.67741935 0 0 0 Z " fill="#23213C" transform="translate(362,107)"/>
<path d="M0 0 C0 4.25957497 -1.97098401 5.40597057 -4.875 8.4375 C-7.85032094 11.55268645 -10.09725607 14.16808514 -12 18 C-14.625 18.75 -14.625 18.75 -17 19 C-17 17.68 -17 16.36 -17 15 C-15.3125 13.359375 -15.3125 13.359375 -13 11.75 C-8.19325088 8.23825461 -4.10073077 4.30185653 0 0 Z " fill="#0C0C24" transform="translate(478,681)"/>
<path d="M0 0 C2 3 2 3 2 5 C1.34 5 0.68 5 0 5 C-2.61748237 18.33434414 -3.65397565 31.42284548 -4 45 C-4.33 45 -4.66 45 -5 45 C-5.43369801 30.42774683 -5.70650184 16.93048938 -1 3 C-0.67 2.01 -0.34 1.02 0 0 Z " fill="#0B0817" transform="translate(317,598)"/>
<path d="M0 0 C0.99 0.33 1.98 0.66 3 1 C2.35915439 6.60739911 -0.80579265 10.37773002 -5 14 C-5.66 14 -6.32 14 -7 14 C-7 14.99 -7 15.98 -7 17 C-7.99 17.33 -8.98 17.66 -10 18 C-8.47146065 13.72813475 -6.28490519 10.00673137 -3.875 6.1875 C-3.50246094 5.59001953 -3.12992187 4.99253906 -2.74609375 4.37695312 C-1.8342952 2.91573749 -0.91764024 1.45755415 0 0 Z " fill="#191539" transform="translate(384,475)"/>
<path d="M0 0 C2 2 2 2 3 6 C-1.62 5.34 -6.24 4.68 -11 4 C-11 3.01 -11 2.02 -11 1 C-3.36565097 -1.49584488 -3.36565097 -1.49584488 0 0 Z " fill="#1B1639" transform="translate(419,445)"/>
<path d="M0 0 C1.10408203 0.35384766 1.10408203 0.35384766 2.23046875 0.71484375 C1.14201599 3.98020203 0.61807191 4.45497517 -2.08203125 6.33984375 C-2.67628906 6.76523437 -3.27054688 7.190625 -3.8828125 7.62890625 C-5.84296547 8.75711024 -7.56079081 9.27602115 -9.76953125 9.71484375 C-10.09953125 8.72484375 -10.42953125 7.73484375 -10.76953125 6.71484375 C-9.55801583 5.50934081 -8.32450236 4.32591628 -7.08203125 3.15234375 C-6.39753906 2.49105469 -5.71304688 1.82976562 -5.0078125 1.1484375 C-2.76953125 -0.28515625 -2.76953125 -0.28515625 0 0 Z " fill="#1E1B3C" transform="translate(716.76953125,447.28515625)"/>
<path d="M0 0 C4.95 0 9.9 0 15 0 C15 0.66 15 1.32 15 2 C16.32 2 17.64 2 19 2 C19 2.66 19 3.32 19 4 C20.32 4.33 21.64 4.66 23 5 C15.36566439 5.45603332 8.23234104 4.59744703 1 2 C0.67 1.34 0.34 0.68 0 0 Z " fill="#18153A" transform="translate(677,719)"/>
<path d="M0 0 C0.66 0.33 1.32 0.66 2 1 C0.35 1.66 -1.3 2.32 -3 3 C-3 3.66 -3 4.32 -3 5 C-2.34 5.33 -1.68 5.66 -1 6 C-2.98 6.99 -4.96 7.98 -7 9 C-7 8.34 -7 7.68 -7 7 C-8.12148438 7.34224609 -8.12148438 7.34224609 -9.265625 7.69140625 C-10.25046875 7.97886719 -11.2353125 8.26632812 -12.25 8.5625 C-13.22453125 8.85253906 -14.1990625 9.14257812 -15.203125 9.44140625 C-17.96243932 9.99249836 -19.3912824 9.93789609 -22 9 C-20.91460937 8.60167969 -19.82921875 8.20335937 -18.7109375 7.79296875 C-17.26555893 7.25799097 -15.82025012 6.72282469 -14.375 6.1875 C-13.66214844 5.92646484 -12.94929688 5.66542969 -12.21484375 5.39648438 C-8.88114105 4.15781502 -5.76800121 2.87973396 -2.6015625 1.23828125 C-1.74304688 0.82964844 -0.88453125 0.42101562 0 0 Z " fill="#0C0C21" transform="translate(457,699)"/>
<path d="M0 0 C0.66 0 1.32 0 2 0 C2.33 0.99 2.66 1.98 3 3 C-0.72666989 7.17838745 -3.7300662 9.34094677 -9 11 C-9.99 10.34 -10.98 9.68 -12 9 C-11.21753906 8.43410156 -10.43507813 7.86820312 -9.62890625 7.28515625 C-8.61699219 6.55167969 -7.60507812 5.81820313 -6.5625 5.0625 C-5.55316406 4.33160156 -4.54382813 3.60070312 -3.50390625 2.84765625 C-1.17707392 1.22678115 -1.17707392 1.22678115 0 0 Z " fill="#282540" transform="translate(316,329)"/>
<path d="M0 0 C0.83265381 0.00523682 1.66530762 0.01047363 2.52319336 0.01586914 C3.42231445 0.0190918 4.32143555 0.02231445 5.24780273 0.02563477 C6.66609375 0.03820312 6.66609375 0.03820312 8.11303711 0.05102539 C9.06243164 0.05553711 10.01182617 0.06004883 10.98999023 0.06469727 C13.34356776 0.07652429 15.69702188 0.09300514 18.05053711 0.11352539 C17.06053711 1.59852539 17.06053711 1.59852539 16.05053711 3.11352539 C13.1333891 3.38923145 10.46185451 3.48578149 7.55053711 3.42602539 C6.37297852 3.43085937 6.37297852 3.43085937 5.17163086 3.43579102 C-0.6824242 3.38056408 -0.6824242 3.38056408 -2.94946289 1.11352539 C-1.94946289 0.11352539 -1.94946289 0.11352539 0 0 Z " fill="#26253C" transform="translate(637.949462890625,710.886474609375)"/>
<path d="M0 0 C1.36125 0.37125 1.36125 0.37125 2.75 0.75 C-1.875 5.625 -1.875 5.625 -5.25 6.75 C-5.25 7.41 -5.25 8.07 -5.25 8.75 C-6.9 9.08 -8.55 9.41 -10.25 9.75 C-5.62162162 -0.43243243 -5.62162162 -0.43243243 0 0 Z " fill="#171434" transform="translate(790.25,546.25)"/>
<path d="M0 0 C6.34507042 -0.35915493 6.34507042 -0.35915493 8.9375 1.0625 C10.59162584 4.07884711 10.30575763 6.63666608 10 10 C9.34 10.66 8.68 11.32 8 12 C8.33 10.02 8.66 8.04 9 6 C4.545 5.01 4.545 5.01 0 4 C0 2.68 0 1.36 0 0 Z " fill="#1B1833" transform="translate(720,443)"/>
<path d="M0 0 C0.33 0 0.66 0 1 0 C1.25 6.625 1.25 6.625 -1 10 C-1.66 10 -2.32 10 -3 10 C-3.103125 11.258125 -3.20625 12.51625 -3.3125 13.8125 C-3.7970251 17.74407513 -3.7970251 17.74407513 -5.4375 19.8125 C-5.953125 20.204375 -6.46875 20.59625 -7 21 C-7.66 21.99 -8.32 22.98 -9 24 C-8.40513061 18.74532038 -6.668238 14.5044496 -4.5 9.75 C-4.17902344 9.03070312 -3.85804688 8.31140625 -3.52734375 7.5703125 C-2.38921308 5.0273762 -1.24608261 2.49216522 0 0 Z " fill="#140F26" transform="translate(329,568)"/>
<path d="M0 0 C3.53045093 1.17681698 4.10920827 2.1739086 6.25 5.125 C9.51109657 9.47081099 13.05634485 13.27210714 17 17 C12.33582087 17 9.65222543 13.58613641 6.4375 10.5 C5.963125 10.005 5.48875 9.51 5 9 C4.113125 8.195625 3.22625 7.39125 2.3125 6.5625 C0 4 0 4 0 0 Z " fill="#11132A" transform="translate(344,675)"/>
<path d="M0 0 C0 6 0 6 -2.125 8.6875 C-5 11 -5 11 -8.3125 11.3125 C-9.6428125 11.1578125 -9.6428125 11.1578125 -11 11 C-7.6189962 6.86378916 -4.33409466 3.18683431 0 0 Z " fill="#312E4A" transform="translate(280,355)"/>
<path d="M0 0 C1.5625 1.75 1.5625 1.75 3 4 C2.75203633 6.16968209 2.55766393 7.44233607 1 9 C0.91299658 10.63472882 0.89298937 12.27314055 0.90234375 13.91015625 C0.90556641 14.89951172 0.90878906 15.88886719 0.91210938 16.90820312 C0.92048828 17.94912109 0.92886719 18.99003906 0.9375 20.0625 C0.94201172 21.10728516 0.94652344 22.15207031 0.95117188 23.22851562 C0.96300087 25.8190666 0.97948311 28.40950559 1 31 C-0.7706504 27.94291967 -1.24808843 25.74566252 -1.23046875 22.2265625 C-1.22853516 21.3190625 -1.22660156 20.4115625 -1.22460938 19.4765625 C-1.20624023 18.06503906 -1.20624023 18.06503906 -1.1875 16.625 C-1.18685547 15.69171875 -1.18621094 14.7584375 -1.18554688 13.796875 C-1.15555703 9.09180086 -0.96693166 4.62580108 0 0 Z " fill="#090616" transform="translate(542,785)"/>
<path d="M0 0 C1.8871875 0.061875 1.8871875 0.061875 3.8125 0.125 C3.8125 3.125 3.8125 3.125 2.1875 4.8125 C-0.76948664 6.44662419 -2.85929946 6.35192276 -6.1875 6.125 C-6.5175 4.805 -6.8475 3.485 -7.1875 2.125 C-4.09861478 0.06574319 -3.47814073 -0.1140374 0 0 Z " fill="#393650" transform="translate(696.1875,229.875)"/>
<path d="M0 0 C1.32 0 2.64 0 4 0 C4 0.99 4 1.98 4 3 C3.42765625 3.17273438 2.8553125 3.34546875 2.265625 3.5234375 C-1.18379932 5.77151059 -2.44668583 9.00501377 -4.25 12.625 C-4.61351562 13.33140625 -4.97703125 14.0378125 -5.3515625 14.765625 C-6.24480617 16.50509952 -7.12380998 18.25187331 -8 20 C-8.66 19.67 -9.32 19.34 -10 19 C-6.7 12.73 -3.4 6.46 0 0 Z " fill="#140F25" transform="translate(340,547)"/>
<path d="M0 0 C0.33 0.66 0.66 1.32 1 2 C1.99 1.67 2.98 1.34 4 1 C2.60485497 5.43909781 0.52304189 7.98024981 -3 11 C-4.32 11.33 -5.64 11.66 -7 12 C-4.69 8.04 -2.38 4.08 0 0 Z " fill="#181331" transform="translate(392,462)"/>
<path d="M0 0 C0 4.16501891 -1.19594972 6.0922013 -3.9375 9.1875 C-6 11 -6 11 -9 12 C-7.54822555 7.88663907 -5.61875142 4.49166855 -3 1 C-2.01 0.67 -1.02 0.34 0 0 Z " fill="#15112E" transform="translate(360,519)"/>
<path d="M0 0 C0.66 0 1.32 0 2 0 C1.49289581 4.36109605 0.63658349 7.45075299 -2 11 C-2.99 11.33 -3.98 11.66 -5 12 C-5.66 11.34 -6.32 10.68 -7 10 C-6.57847656 9.44570313 -6.15695312 8.89140625 -5.72265625 8.3203125 C-5.17480469 7.59585938 -4.62695312 6.87140625 -4.0625 6.125 C-3.51722656 5.40570312 -2.97195313 4.68640625 -2.41015625 3.9453125 C-0.96035376 2.05642921 -0.96035376 2.05642921 0 0 Z " fill="#27253F" transform="translate(777,640)"/>
<path d="M0 0 C0.33 0 0.66 0 1 0 C1.16435547 1.50240234 1.16435547 1.50240234 1.33203125 3.03515625 C2.43964037 12.85224617 2.43964037 12.85224617 6 22 C5.34 22.66 4.68 23.32 4 24 C0.05959148 16.90726466 -1.05804433 10.09138023 -1 2 C-0.67 1.34 -0.34 0.68 0 0 Z " fill="#42414B" transform="translate(778,561)"/>
<path d="M0 0 C0.66 0.33 1.32 0.66 2 1 C1.67 2.65 1.34 4.3 1 6 C0.34 6 -0.32 6 -1 6 C-1.2475 6.639375 -1.495 7.27875 -1.75 7.9375 C-3 10 -3 10 -5.125 10.75 C-6.053125 10.87375 -6.053125 10.87375 -7 11 C-6.40716379 7.60807637 -5.23256811 5.7892243 -2.9375 3.25 C-2.38964844 2.63640625 -1.84179688 2.0228125 -1.27734375 1.390625 C-0.85582031 0.93171875 -0.43429687 0.4728125 0 0 Z " fill="#1B1A35" transform="translate(616,721)"/>
<path d="M0 0 C1.58409994 0.11487748 3.16728963 0.24234508 4.75 0.375 C6.07257812 0.47941406 6.07257812 0.47941406 7.421875 0.5859375 C9.99066382 0.99850055 11.75841015 1.71160957 14 3 C14 3.66 14 4.32 14 5 C11.36 5.33 8.72 5.66 6 6 C5.34 4.68 4.68 3.36 4 2 C2.68 2 1.36 2 0 2 C0 1.34 0 0.68 0 0 Z " fill="#343249" transform="translate(692,719)"/>
<path d="M0 0 C2.1519437 3.22791555 2.20086443 4.28400809 2 8 C5.56071312 9.04882391 9.05527897 9.30386953 12.75 9.5625 C13.92046875 9.64628906 15.0909375 9.73007812 16.296875 9.81640625 C17.18890625 9.87699219 18.0809375 9.93757812 19 10 C19 10.33 19 10.66 19 11 C7.23296963 12.54939546 7.23296963 12.54939546 2 10 C0 8 0 8 -0.1953125 6.0546875 C-0.13020833 4.03645833 -0.06510417 2.01822917 0 0 Z " fill="#35343F" transform="translate(733,621)"/>
<path d="M0 0 C4.03174806 0.27489191 5.56894631 0.53491576 8.375 3.5625 C8.91125 4.366875 9.4475 5.17125 10 6 C5.32538149 6.32613618 2.83325617 5.70582788 -1 3 C-0.67 2.01 -0.34 1.02 0 0 Z " fill="#1C1A39" transform="translate(497,109)"/>
<path d="M0 0 C1.16406323 1.16406323 2.32754865 2.32870939 3.48828125 3.49609375 C4.53794602 4.5403339 5.59871848 5.57347976 6.66796875 6.59765625 C8.14814809 8.02861348 9.57767678 9.51152221 11 11 C11 11.66 11 12.32 11 13 C11.66 13 12.32 13 13 13 C14.625 15.5 14.625 15.5 16 18 C12.21866267 16.46679261 10.10556448 14.16776728 7.4375 11.125 C6.67308594 10.26132812 5.90867187 9.39765625 5.12109375 8.5078125 C0 2.45303867 0 2.45303867 0 0 Z " fill="#171725" transform="translate(770,475)"/>
<path d="M0 0 C2.74637817 0.37881078 3.80049058 0.77832287 5.6875 2.875 C7 5 7 5 8 8 C4.34076304 8 2.86103423 7.24243223 0 5 C-0.3125 2.3125 -0.3125 2.3125 0 0 Z " fill="#282645" transform="translate(576,354)"/>
<path d="M0 0 C2.31 0 4.62 0 7 0 C6 3 6 3 4 4 C1.11087268 3.91061582 -1.74393255 3.765952 -4.625 3.5625 C-5.42679688 3.51029297 -6.22859375 3.45808594 -7.0546875 3.40429688 C-9.03679103 3.27451629 -11.01844499 3.13790265 -13 3 C-13 2.67 -13 2.34 -13 2 C-6.565 1.505 -6.565 1.505 0 1 C0 0.67 0 0.34 0 0 Z " fill="#131030" transform="translate(651,712)"/>
<path d="M0 0 C-0.1875 1.8125 -0.1875 1.8125 -1 4 C-3.5625 5.75 -3.5625 5.75 -6 7 C-6.66 6.34 -7.32 5.68 -8 5 C-7.75 2.9375 -7.75 2.9375 -7 1 C-4.53721199 -0.231394 -2.7204945 -0.07159196 0 0 Z " fill="#181634" transform="translate(742,618)"/>
<path d="M0 0 C0.99 0.33 1.98 0.66 3 1 C2.75 3.875 2.75 3.875 2 7 C0.0625 8.4375 0.0625 8.4375 -2 9 C-2.66 8.67 -3.32 8.34 -4 8 C-2.87548273 5.0280615 -1.77706209 2.66559313 0 0 Z " fill="#262442" transform="translate(341,282)"/>
<path d="M0 0 C1.32 0 2.64 0 4 0 C4 0.66 4 1.32 4 2 C5.65 2.33 7.3 2.66 9 3 C9.33 4.32 9.66 5.64 10 7 C6.37 6.01 2.74 5.02 -1 4 C-0.34 3.34 0.32 2.68 1 2 C0.67 1.34 0.34 0.68 0 0 Z " fill="#151236" transform="translate(707,390)"/>
<path d="M0 0 C2.375 0.25 2.375 0.25 5 1 C6.45713624 3.15101064 7 4.40286494 7 7 C3.62496331 5.8141763 1.35277269 4.72426311 -1 2 C-0.67 1.34 -0.34 0.68 0 0 Z " fill="#1B1937" transform="translate(570,350)"/>
<path d="M0 0 C-1.48051948 5.67532468 -1.48051948 5.67532468 -4 7.25 C-4.66 7.4975 -5.32 7.745 -6 8 C-6.66 8.66 -7.32 9.32 -8 10 C-7.61508669 5.50934475 -5.14531178 0 0 0 Z " fill="#191733" transform="translate(283,856)"/>
<path d="M0 0 C0.66 0.33 1.32 0.66 2 1 C0.375 3 0.375 3 -2 5 C-5.14522722 5.31452272 -7.15916359 5.42041821 -10 4 C-10 3.34 -10 2.68 -10 2 C-9.04287109 1.90912109 -9.04287109 1.90912109 -8.06640625 1.81640625 C-6.82697266 1.69072266 -6.82697266 1.69072266 -5.5625 1.5625 C-4.73878906 1.48128906 -3.91507813 1.40007813 -3.06640625 1.31640625 C-1.01337975 1.21069185 -1.01337975 1.21069185 0 0 Z " fill="#3D3C4D" transform="translate(600,804)"/>
<path d="M0 0 C2.96052484 3.36423277 3.92289822 6.69159287 5 11 C4.34 10.67 3.68 10.34 3 10 C3 9.34 3 8.68 3 8 C1.68 7.67 0.36 7.34 -1 7 C-1.625 5.1875 -1.625 5.1875 -2 3 C-1.34 2.01 -0.68 1.02 0 0 Z " fill="#151731" transform="translate(339,663)"/>
<path d="M0 0 C0.66 0 1.32 0 2 0 C2.8353125 1.546875 2.8353125 1.546875 3.6875 3.125 C5.77145129 6.7924555 8.22036927 9.83430945 11 13 C10.01 13 9.02 13 8 13 C5.95703125 10.91796875 5.95703125 10.91796875 3.8125 8.1875 C3.09707031 7.29417969 2.38164063 6.40085937 1.64453125 5.48046875 C0 3 0 3 0 0 Z " fill="#333342" transform="translate(527,312)"/>
<path d="M0 0 C0.99 0 1.98 0 3 0 C3.08333357 4.8333472 2.95261487 9.23692563 2 14 C1.67 14 1.34 14 1 14 C0.67 9.38 0.34 4.76 0 0 Z " fill="#E3BFCB" transform="translate(309,629)"/>
<path d="M0 0 C3.99996286 1.33332095 4.83782337 3.4957827 7 7 C6.67 7.66 6.34 8.32 6 9 C5.62875 8.34 5.2575 7.68 4.875 7 C3.09105222 4.64696955 3.09105222 4.64696955 -0.1875 4.75 C-1.115625 4.8325 -2.04375 4.915 -3 5 C-2.01 3.35 -1.02 1.7 0 0 Z " fill="#A5DBEF" transform="translate(412,471)"/>
<path d="M0 0 C0.66 0.33 1.32 0.66 2 1 C2 2.98 2 4.96 2 7 C3.98 7 5.96 7 8 7 C7.67 7.66 7.34 8.32 7 9 C0.125 8.125 0.125 8.125 -1 7 C-0.71269945 4.66055264 -0.38063221 2.3260857 0 0 Z " fill="#2D2D3C" transform="translate(642,408)"/>
<path d="M0 0 C2.83417891 0.35119173 3.81648089 0.78491224 5.703125 2.99609375 C6.21359375 3.80175781 6.7240625 4.60742188 7.25 5.4375 C7.77078125 6.24058594 8.2915625 7.04367188 8.828125 7.87109375 C10 10 10 10 10 12 C8.68 12 7.36 12 6 12 C5.938125 11.319375 5.87625 10.63875 5.8125 9.9375 C4.71461145 5.96821063 2.50976025 3.21360445 0 0 Z " fill="#343445" transform="translate(506,115)"/>
<path d="M0 0 C2.475 0.99 2.475 0.99 5 2 C5 2.66 5 3.32 5 4 C2.69631264 5.06652192 0.35981813 6.06421005 -2 7 C-2.66 6.67 -3.32 6.34 -4 6 C-4 5.34 -4 4.68 -4 4 C-2.68662604 2.9739266 -1.35335895 1.97272675 0 1 C0 0.67 0 0.34 0 0 Z " fill="#19183C" transform="translate(458,698)"/>
<path d="M0 0 C4.29 0.99 8.58 1.98 13 3 C9 5 9 5 5.25 4.125 C4.1775 3.75375 3.105 3.3825 2 3 C2 3.66 2 4.32 2 5 C1.01 4.67 0.02 4.34 -1 4 C-0.67 2.68 -0.34 1.36 0 0 Z " fill="#36354A" transform="translate(667,453)"/>
<path d="M0 0 C3.21043882 1.38188453 5.04936365 2.92421903 7.25 5.625 C8.03117188 6.57246094 8.03117188 6.57246094 8.828125 7.5390625 C9.40820312 8.26222656 9.40820312 8.26222656 10 9 C7 9 7 9 5.17578125 7.5390625 C4.56089844 6.90742188 3.94601562 6.27578125 3.3125 5.625 C2.68988281 4.99851562 2.06726563 4.37203125 1.42578125 3.7265625 C0 2 0 2 0 0 Z " fill="#38374A" transform="translate(785,493)"/>
<path d="M0 0 C-3.14969501 1.84586777 -5.48884674 2.27170838 -9.125 2.25 C-10.42824219 2.25773437 -10.42824219 2.25773437 -11.7578125 2.265625 C-14 2 -14 2 -16 0 C-14.27185839 -0.19672365 -12.54240803 -0.38196799 -10.8125 -0.5625 C-9.84957031 -0.66691406 -8.88664062 -0.77132813 -7.89453125 -0.87890625 C-5.05766623 -0.99758751 -2.74576329 -0.67765639 0 0 Z " fill="#1B153F" transform="translate(511,279)"/>
<path d="M0 0 C0.66 0.33 1.32 0.66 2 1 C1.01 2.485 1.01 2.485 0 4 C-0.103125 4.804375 -0.20625 5.60875 -0.3125 6.4375 C-1.24562075 9.91549551 -3.10633809 10.9966956 -6 13 C-5.51675181 7.84535266 -2.81389239 4.18449681 0 0 Z " fill="#120D23" transform="translate(349,532)"/>
<path d="M0 0 C0.66 0 1.32 0 2 0 C6 6.75 6 6.75 6 9 C4.68 8.67 3.36 8.34 2 8 C2 7.34 2 6.68 2 6 C1.34 5.67 0.68 5.34 0 5 C0 3.33333333 0 1.66666667 0 0 Z " fill="#333145" transform="translate(578,854)"/>
<path d="M0 0 C-1.01454452 2.5363613 -1.6853556 3.79351461 -4 5.3125 C-4.66 5.539375 -5.32 5.76625 -6 6 C-6.66 5.67 -7.32 5.34 -8 5 C-8 4.34 -8 3.68 -8 3 C-2.25 0 -2.25 0 0 0 Z " fill="#1D1B38" transform="translate(788,598)"/>
<path d="M0 0 C0.33 0.66 0.66 1.32 1 2 C0.14883791 4.43189168 -0.84845643 6.69691285 -2 9 C-2.66 9 -3.32 9 -4 9 C-4 9.99 -4 10.98 -4 12 C-4.99 12.33 -5.98 12.66 -7 13 C-5.35821735 8.22390502 -2.73453298 4.20617096 0 0 Z " fill="#0D0A1F" transform="translate(381,480)"/>
<path d="M0 0 C5.75 2.625 5.75 2.625 8 6 C6.25 6.6875 6.25 6.6875 4 7 C1.75 5.8125 1.75 5.8125 0 4 C0 2.68 0 1.36 0 0 Z " fill="#151236" transform="translate(794,476)"/>
<path d="M0 0 C2.31 0.33 4.62 0.66 7 1 C7 1.66 7 2.32 7 3 C7.66 3.33 8.32 3.66 9 4 C5.23375329 5.25541557 3.62811066 4.37061958 0 3 C0 2.01 0 1.02 0 0 Z " fill="#19163D" transform="translate(669,456)"/>
<path d="M0 0 C1.65 0.33 3.3 0.66 5 1 C5.33 2.65 5.66 4.3 6 6 C3.0280615 4.87548273 0.66559313 3.77706209 -2 2 C-1.34 2 -0.68 2 0 2 C0 1.34 0 0.68 0 0 Z " fill="#1C1A39" transform="translate(560,343)"/>
<path d="M0 0 C0.66 0.33 1.32 0.66 2 1 C1.505 1.61875 1.01 2.2375 0.5 2.875 C-1.19222773 4.83880904 -1.19222773 4.83880904 -1 7 C-1.99 7.33 -2.98 7.66 -4 8 C-4.99 6.68 -5.98 5.36 -7 4 C-1.7265625 0.77734375 -1.7265625 0.77734375 0 0 Z " fill="#36344C" transform="translate(804,535)"/>
<path d="M0 0 C0.66 0 1.32 0 2 0 C1.40072174 3.35595828 0.15377564 5.37801226 -2 8 C-2.99 7.67 -3.98 7.34 -5 7 C-4.67 6.34 -4.34 5.68 -4 5 C-3.34 5 -2.68 5 -2 5 C-1.34 3.35 -0.68 1.7 0 0 Z " fill="#191537" transform="translate(807,533)"/>
<path d="M0 0 C3 1 3 1 4.203125 2.70703125 C4.54859375 3.40183594 4.8940625 4.09664063 5.25 4.8125 C5.60578125 5.49957031 5.9615625 6.18664062 6.328125 6.89453125 C7 9 7 9 6 13 C4.02 8.71 2.04 4.42 0 0 Z " fill="#3A3948" transform="translate(708,277)"/>
<path d="M0 0 C0.99 1.32 1.98 2.64 3 4 C2.67 4.66 2.34 5.32 2 6 C1.34 6 0.68 6 0 6 C-0.33 7.98 -0.66 9.96 -1 12 C-1.33 12 -1.66 12 -2 12 C-1.85831863 10.56208484 -1.71148957 9.1246763 -1.5625 7.6875 C-1.48128906 6.88699219 -1.40007813 6.08648438 -1.31640625 5.26171875 C-1 3 -1 3 0 0 Z " fill="#0E0C22" transform="translate(548,758)"/>
<path d="M0 0 C1.11375 0.556875 1.11375 0.556875 2.25 1.125 C0.875 2.625 0.875 2.625 -0.75 4.125 C-1.41 4.125 -2.07 4.125 -2.75 4.125 C-2.75 3.465 -2.75 2.805 -2.75 2.125 C-4.07 1.795 -5.39 1.465 -6.75 1.125 C-4.02098495 -0.69434337 -3.21400584 -1.02263822 0 0 Z " fill="#2B2845" transform="translate(780.75,602.875)"/>
<path d="M0 0 C0.66 0.33 1.32 0.66 2 1 C0.68 3.64 -0.64 6.28 -2 9 C-2.66 7.68 -3.32 6.36 -4 5 C-3.125 2.75 -3.125 2.75 -2 1 C-1.67 1.33 -1.34 1.66 -1 2 C-0.67 1.34 -0.34 0.68 0 0 Z " fill="#2C294B" transform="translate(259,381)"/>
<path d="M0 0 C1.32 0.33 2.64 0.66 4 1 C4.33 2.98 4.66 4.96 5 7 C3.0625 6.3125 3.0625 6.3125 1 5 C0.25 2.375 0.25 2.375 0 0 Z " fill="#161436" transform="translate(544,332)"/>
<path d="M0 0 C1.9375 1.25 1.9375 1.25 3.9375 4.25 C1.2975 3.92 -1.3425 3.59 -4.0625 3.25 C-4.3925 2.26 -4.7225 1.27 -5.0625 0.25 C-2.0625 -0.75 -2.0625 -0.75 0 0 Z " fill="#13112E" transform="translate(702.0625,232.75)"/>
<path d="M0 0 C4.455 0.99 4.455 0.99 9 2 C7 4 7 4 3.375 4.125 C2.26125 4.08375 1.1475 4.0425 0 4 C0 2.68 0 1.36 0 0 Z " fill="#34334A" transform="translate(486,104)"/>
<path d="M0 0 C0.99 0.33 1.98 0.66 3 1 C1.515 3.475 1.515 3.475 0 6 C-2.475 5.01 -2.475 5.01 -5 4 C-2.6875 1.9375 -2.6875 1.9375 0 0 Z " fill="#292740" transform="translate(757,717)"/>
<path d="M0 0 C0.66 0 1.32 0 2 0 C0.64615385 6.52307692 0.64615385 6.52307692 -2.625 8.9375 C-3.40875 9.288125 -4.1925 9.63875 -5 10 C-3.66749209 6.4124787 -2.169283 3.1635377 0 0 Z " fill="#0C0D23" transform="translate(485,670)"/>
<path d="M0 0 C0.99 1.32 1.98 2.64 3 4 C2.01 4.66 1.02 5.32 0 6 C-0.33 6.99 -0.66 7.98 -1 9 C-1.66 9 -2.32 9 -3 9 C-2.01 6.03 -1.02 3.06 0 0 Z " fill="#2B2A42" transform="translate(767,654)"/>
<path d="M0 0 C1.42944945 2.35438733 2.08661261 3.48032433 1.625 6.25 C1.41875 6.8275 1.2125 7.405 1 8 C0.34 8 -0.32 8 -1 8 C-1.33 5.69 -1.66 3.38 -2 1 C-1.34 0.67 -0.68 0.34 0 0 Z " fill="#E7C4D0" transform="translate(510,588)"/>
<path d="M0 0 C0 2 0 4 0 6 C-3.01031744 6.93423645 -3.86650268 7.04449911 -7 6 C-4.69 4.02 -2.38 2.04 0 0 Z " fill="#3D3D4E" transform="translate(280,355)"/>
<path d="M0 0 C2.02350324 3.03525486 2.32124018 4.19426202 2.625 7.6875 C2.69976562 8.49574219 2.77453125 9.30398438 2.8515625 10.13671875 C2.92503906 11.05904297 2.92503906 11.05904297 3 12 C1 10 1 10 0.5 7.4375 C0.335 6.633125 0.17 5.82875 0 5 C-0.66 4.67 -1.32 4.34 -2 4 C-1.34 2.68 -0.68 1.36 0 0 Z " fill="#0D091D" transform="translate(306,745)"/>
<path d="M0 0 C1.98 0 3.96 0 6 0 C5.67 1.32 5.34 2.64 5 4 C3.35 4 1.7 4 0 4 C0 2.66666667 0 1.33333333 0 0 Z " fill="#110E2B" transform="translate(702,722)"/>
<path d="M0 0 C2.93200474 2.85276137 5.64315404 5.65079784 8 9 C7.01 9 6.02 9 5 9 C3.61328125 7.5390625 3.61328125 7.5390625 2.3125 5.625 C1.65701172 4.68527344 1.65701172 4.68527344 0.98828125 3.7265625 C0 2 0 2 0 0 Z " fill="#19192C" transform="translate(783,460)"/>
<path d="M0 0 C0 0.99 0 1.98 0 3 C-0.763125 2.835 -1.52625 2.67 -2.3125 2.5 C-5.03596236 1.90854604 -5.03596236 1.90854604 -8 2 C-8 1.34 -8 0.68 -8 0 C-4.71023192 -1.09658936 -3.28696233 -0.79953138 0 0 Z " fill="#414051" transform="translate(709,469)"/>
<path d="M0 0 C0.66 0.309375 1.32 0.61875 2 0.9375 C5.70476015 2.24960255 9.09263991 2.60264135 13 3 C13 3.33 13 3.66 13 4 C9.04 4 5.08 4 1 4 C0.67 2.68 0.34 1.36 0 0 Z " fill="#090723" transform="translate(361,219)"/>
<path d="M0 0 C1.32 0 2.64 0 4 0 C3.67 1.32 3.34 2.64 3 4 C1.35 4.33 -0.3 4.66 -2 5 C-1.34 3.35 -0.68 1.7 0 0 Z " fill="#171438" transform="translate(774,605)"/>
<path d="M0 0 C3.36720387 1.39332574 4.9859524 2.9789286 7 6 C4 6 4 6 1.8125 4.125 C0 2 0 2 0 0 Z " fill="#484758" transform="translate(797,506)"/>
<path d="M0 0 C1.65 1.65 3.3 3.3 5 5 C4.01 5.66 3.02 6.32 2 7 C0.5393715 4.35261084 0 3.10551666 0 0 Z " fill="#1A1836" transform="translate(817,499)"/>
<path d="M0 0 C0.33 0.66 0.66 1.32 1 2 C-1.31 2.33 -3.62 2.66 -6 3 C-6.33 2.01 -6.66 1.02 -7 0 C-2.25 -1.125 -2.25 -1.125 0 0 Z " fill="#181438" transform="translate(669,394)"/>
<path d="M0 0 C0.99 0.66 1.98 1.32 3 2 C3.1875 4.625 3.1875 4.625 3 7 C1.2925002 5.71937515 -0.37373596 4.38232443 -2 3 C-2 2.34 -2 1.68 -2 1 C-1.34 0.67 -0.68 0.34 0 0 Z " fill="#171532" transform="translate(712,246)"/>
<path d="M0 0 C3.12290635 0.48578543 5.99580359 0.9986012 9 2 C9 2.66 9 3.32 9 4 C7.68528432 3.71848913 6.37324233 3.42446661 5.0625 3.125 C3.96615234 2.88136719 3.96615234 2.88136719 2.84765625 2.6328125 C1 2 1 2 0 0 Z " fill="#383744" transform="translate(290,912)"/>
<path d="M0 0 C0.66 0.33 1.32 0.66 2 1 C0.68 3.31 -0.64 5.62 -2 8 C-2.6875 6.25 -2.6875 6.25 -3 4 C-1.5625 1.75 -1.5625 1.75 0 0 Z " fill="#34314B" transform="translate(620,717)"/>
<path d="M0 0 C0.625 1.8125 0.625 1.8125 1 4 C-1 7 -1 7 -4 8 C-2.87548273 5.0280615 -1.77706209 2.66559313 0 0 Z " fill="#0F0D21" transform="translate(366,505)"/>
<path d="M0 0 C-0.66 1.32 -1.32 2.64 -2 4 C-4.64 3.67 -7.28 3.34 -10 3 C-10 2.67 -10 2.34 -10 2 C-8.7090864 1.66376204 -7.41723903 1.33110751 -6.125 1 C-5.40570312 0.814375 -4.68640625 0.62875 -3.9453125 0.4375 C-2 0 -2 0 0 0 Z " fill="#333246" transform="translate(703,454)"/>
</svg>
