<?xml version="1.0" encoding="UTF-8"?>
<svg version="1.1" xmlns="http://www.w3.org/2000/svg" width="600" height="600">
<path d="M0 0 C1.4540625 0.0309375 1.4540625 0.0309375 2.9375 0.0625 C2.9375 0.3925 2.9375 0.7225 2.9375 1.0625 C4.10925781 1.24425781 5.28101563 1.42601562 6.48828125 1.61328125 C11.31449907 2.37569497 16.12722734 3.20573012 20.9375 4.0625 C21.91976563 4.23265625 22.90203125 4.4028125 23.9140625 4.578125 C34.40057768 6.90846171 46.71653989 13.08616118 54.9375 20.0625 C54.9375 20.7225 54.9375 21.3825 54.9375 22.0625 C55.73671875 22.14886719 56.5359375 22.23523438 57.359375 22.32421875 C69.36609738 23.86029004 79.51524678 27.07511723 87.9375 36.0625 C88.55367188 36.70832031 89.16984375 37.35414062 89.8046875 38.01953125 C97.2884837 46.6756818 100.20894987 57.9475207 101.9375 69.0625 C102.14375 70.2175 102.35 71.3725 102.5625 72.5625 C104.10453321 86.95480994 102.29099576 101.08542962 98 114.8125 C97.60264648 116.12541016 97.60264648 116.12541016 97.19726562 117.46484375 C96.93751953 118.29628906 96.67777344 119.12773438 96.41015625 119.984375 C96.17562744 120.74331055 95.94109863 121.50224609 95.69946289 122.28417969 C94.9375 124.0625 94.9375 124.0625 92.9375 125.0625 C92.81375 125.866875 92.69 126.67125 92.5625 127.5 C91.8692811 131.45134772 90.47745872 134.59504322 88.77734375 138.20703125 C87.86332931 141.31468035 87.87965116 144.03046007 87.94995117 147.24926758 C87.92222423 153.5139251 87.20206035 159.76513113 86.625 166 C86.55813995 166.73283203 86.49127991 167.46566406 86.4223938 168.22070312 C85.40661191 179.26342521 84.1135069 190.18246548 81.9375 201.0625 C81.71126953 202.28646484 81.71126953 202.28646484 81.48046875 203.53515625 C78.52428584 218.31607081 73.74507652 233.14039509 65.9375 246.0625 C65.46183594 246.85011719 64.98617188 247.63773438 64.49609375 248.44921875 C61.42719201 253.2969617 58.42565677 256.52927021 53.9375 260.0625 C50.30875589 263.53708316 50.30875589 263.53708316 48.9375 268.0625 C49.7728125 268.43375 49.7728125 268.43375 50.625 268.8125 C53.36160913 270.29174818 55.61400869 271.99717439 57.9375 274.0625 C57.9375 274.7225 57.9375 275.3825 57.9375 276.0625 C58.9275 276.3925 59.9175 276.7225 60.9375 277.0625 C60.9375 278.0525 60.9375 279.0425 60.9375 280.0625 C61.5975 280.0625 62.2575 280.0625 62.9375 280.0625 C63.164375 280.68125 63.39125 281.3 63.625 281.9375 C65.35326348 284.73564088 66.88155015 284.93388216 69.9375 286.0625 C76.3618912 288.88577506 82.68368619 291.88073508 88.9375 295.0625 C90.27036451 295.73010349 91.60358084 296.39700627 92.9375 297.0625 C92.9375 297.7225 92.9375 298.3825 92.9375 299.0625 C94.2575 299.3925 95.5775 299.7225 96.9375 300.0625 C96.9375 299.4025 96.9375 298.7425 96.9375 298.0625 C97.1025 296.969375 97.2675 295.87625 97.4375 294.75 C98.00048297 291.2182079 98.00048297 291.2182079 97.9375 288.25 C97.9375 286.0625 97.9375 286.0625 98.9375 284.0625 C99.09849102 282.25284171 99.21543396 280.43921042 99.3125 278.625 C99.73236946 272.74682756 100.43472422 266.95223674 101.3125 261.125 C101.4264209 260.32070557 101.5403418 259.51641113 101.65771484 258.68774414 C102.38746505 254.01841457 103.22190207 250.03189527 105.9375 246.0625 C111.70437447 241.92070251 116.09268336 241.50716248 123.07421875 241.63671875 C124.61656189 241.64090317 124.61656189 241.64090317 126.19006348 241.64517212 C129.66881574 241.66010335 133.14652022 241.70464752 136.625 241.75 C139.11042221 241.76926139 141.59585629 241.7870366 144.08129883 241.8034668 C148.96591888 241.8393769 153.85027636 241.88383928 158.73472118 241.93829441 C167.69972686 242.03812337 176.66452289 242.09978391 185.62996197 242.14547634 C193.98997186 242.18835693 202.34984808 242.24306986 210.70972919 242.30624485 C215.93744449 242.34572545 221.16511323 242.38142864 226.39291382 242.40756226 C231.3804194 242.43329716 236.36759991 242.47391301 241.35490417 242.52537155 C243.21177796 242.54214422 245.06870521 242.5538576 246.92564392 242.56019974 C249.49007286 242.56981088 252.0536912 242.59775844 254.61791992 242.63012695 C255.73406945 242.62797196 255.73406945 242.62797196 256.87276745 242.62577343 C263.04724235 242.73641605 267.8149627 243.99581894 272.3125 248.375 C276.17418557 254.76163383 274.86286639 261.93717879 273.9375 269.0625 C273.6075 270.0525 273.2775 271.0425 272.9375 272.0625 C272.77074629 273.42360931 272.64027019 274.78930452 272.53125 276.15625 C272.08992089 280.90743371 271.46532905 285.62240623 270.78125 290.34375 C270.67353271 291.08802246 270.56581543 291.83229492 270.45483398 292.59912109 C270.00382955 295.70105503 269.54893695 298.80241441 269.09423828 301.90380859 C268.75894342 304.19603243 268.42557276 306.48852104 268.09375 308.78125 C267.93507446 309.87638916 267.93507446 309.87638916 267.77319336 310.99365234 C267.09935582 315.71970136 266.54552837 320.43875961 266.16601562 325.19726562 C265.9375 327.0625 265.9375 327.0625 264.9375 330.0625 C264.57266946 332.6248645 264.2395396 335.1803037 263.9375 337.75 C263.77083333 339.12890625 263.60416667 340.5078125 263.4375 341.88671875 C263.35628906 342.56782715 263.27507813 343.24893555 263.19140625 343.95068359 C262.78596423 347.32286967 262.36110734 350.69255234 261.9375 354.0625 C262.81792969 354.46082031 263.69835937 354.85914063 264.60546875 355.26953125 C265.76691406 355.79933594 266.92835938 356.32914062 268.125 356.875 C269.27355469 357.39707031 270.42210937 357.91914063 271.60546875 358.45703125 C276.21014851 360.67569876 279.97988981 362.58958162 283.125 366.6875 C283.61355469 367.29851562 284.10210938 367.90953125 284.60546875 368.5390625 C288.27862104 375.4975856 288.22875278 383.18091215 288.125 390.875 C288.12435547 391.80248047 288.12371094 392.72996094 288.12304688 393.68554688 C288.09707225 397.68852461 287.93320161 401.18249166 286.9375 405.0625 C286.9375 406.114375 286.9375 407.16625 286.9375 408.25 C286.9375 409.178125 286.9375 410.10625 286.9375 411.0625 C286.6075 411.3925 286.2775 411.7225 285.9375 412.0625 C285.80003848 413.58068611 285.70440603 415.10267303 285.625 416.625 C284.10407195 434.41524937 277.20976009 451.7328933 267.296875 466.5078125 C264.32398744 470.99600682 262.66479884 474.48940638 262.08984375 479.87890625 C260.96959833 487.98952888 258.40757409 495.41757772 255.75 503.125 C254.80698685 505.86199172 253.8779177 508.60315206 252.95703125 511.34765625 C252.33985229 513.14021851 252.33985229 513.14021851 251.71020508 514.96899414 C250.97064381 517.92980955 250.83318076 519.2756546 251.9375 522.0625 C251.2775 522.0625 250.6175 522.0625 249.9375 522.0625 C249.6075 522.7225 249.2775 523.3825 248.9375 524.0625 C249.9275 524.3925 250.9175 524.7225 251.9375 525.0625 C249.29011084 526.5231285 248.04301666 527.0625 244.9375 527.0625 C244.68226563 527.73667969 244.42703125 528.41085937 244.1640625 529.10546875 C242.70881195 532.61382756 241.02802165 535.98928552 239.3125 539.375 C238.98765625 540.02017578 238.6628125 540.66535156 238.328125 541.33007812 C237.53308044 542.90847541 236.73554366 544.48561694 235.9375 546.0625 C235.2775 546.0625 234.6175 546.0625 233.9375 546.0625 C233.87304688 546.74957031 233.80859375 547.43664062 233.7421875 548.14453125 C232.67730374 552.00602722 230.53580015 554.68595418 228.0625 557.75 C227.57507324 558.36141846 227.08764648 558.97283691 226.58544922 559.6027832 C220.77692382 566.71957698 214.16622329 573.78519334 205.9375 578.0625 C204.9475 578.0625 203.9575 578.0625 202.9375 578.0625 C202.9375 578.7225 202.9375 579.3825 202.9375 580.0625 C187.21448725 587.40703657 171.91003643 588.87196709 154.9375 585.0625 C154.9375 584.4025 154.9375 583.7425 154.9375 583.0625 C153.65875 582.835625 152.38 582.60875 151.0625 582.375 C146.29652655 581.34186968 142.35848175 579.42386458 138.1015625 577.0859375 C135.8844758 575.84873745 135.8844758 575.84873745 132.9375 576.0625 C127.26807851 574.55836777 127.26807851 574.55836777 124.9375 571.0625 C122.9425932 570.62853039 122.9425932 570.62853039 120.60220337 570.7298584 C119.68528843 570.73167618 118.76837349 570.73349396 117.82367325 570.73536682 C116.80887768 570.75244186 115.79408211 570.76951691 114.74853516 570.78710938 C113.67438229 570.79274399 112.60022942 570.7983786 111.49352646 570.80418396 C109.12536208 570.81800749 106.75723034 570.83858873 104.3891716 570.86488342 C98.48233021 570.92939531 92.57529907 570.95170395 86.66819215 570.97827435 C84.53604321 570.98843053 82.4039102 571.00041532 80.27177238 571.01267242 C64.26068898 571.09980473 48.2516035 570.98305606 32.24097729 570.86168671 C28.19111921 570.831483 24.14124414 570.80377566 20.09136963 570.77587891 C8.50750586 570.69559749 -3.07632548 570.61095169 -14.66015625 570.52606201 C-37.23106511 570.36080042 -59.8019808 570.2069015 -82.3731842 570.08752441 C-85.52169708 570.07087074 -88.67020469 570.05349074 -91.81871033 570.03552246 C-100.25164217 569.98782607 -108.68452377 569.94706722 -117.11756599 569.92509127 C-120.64173174 569.91588587 -124.16581164 569.90368916 -127.68992996 569.88291931 C-131.52554738 569.86054866 -135.36109521 569.85421288 -139.19677734 569.84960938 C-140.31982143 569.84087799 -141.44286552 569.83214661 -142.59994125 569.82315063 C-147.95526037 569.83060711 -151.97045891 570.3132589 -157.0625 572.0625 C-158.417456 571.4409564 -159.7488437 570.76714839 -161.0625 570.0625 C-163.76788144 569.87696477 -166.36815929 569.79946515 -169.07226562 569.81958008 C-169.87597092 569.81768173 -170.67967621 569.81578339 -171.50773621 569.81382751 C-174.16150705 569.81012619 -176.81500351 569.82081521 -179.46875 569.83203125 C-181.31433073 569.83322359 -183.15991207 569.8336761 -185.00549316 569.8334198 C-188.87235313 569.83498358 -192.73912038 569.84326505 -196.60595703 569.85668945 C-201.56254828 569.87367906 -206.51903765 569.8775037 -211.4756546 569.87674427 C-215.28632581 569.87701621 -219.09697475 569.88250125 -222.90763855 569.88974571 C-224.73528373 569.89292778 -226.56293143 569.89489871 -228.39057922 569.89563942 C-230.94467465 569.89780786 -233.49866215 569.90656309 -236.05273438 569.91723633 C-236.80818039 569.91678314 -237.5636264 569.91632996 -238.34196472 569.91586304 C-241.13391855 569.93292042 -243.70832868 569.97233444 -246.42370605 570.66362 C-246.96450806 570.7952504 -247.50531006 570.9268808 -248.0625 571.0625 C-250.29296875 569.58984375 -250.29296875 569.58984375 -252.0625 567.0625 C-252.40144913 564.42864762 -252.48407454 562.24723498 -252.375 559.625 C-252.35953125 558.86002197 -252.3440625 558.09504395 -252.328125 557.30688477 C-252.26414282 554.55751734 -252.16489805 551.81070278 -252.0625 549.0625 C-251.982809 546.71615478 -251.90339823 544.36980004 -251.82421875 542.0234375 C-251.69486296 538.25536491 -251.56202829 534.48755795 -251.41918945 530.7199707 C-251.11057282 522.4233724 -250.99376432 514.16003203 -251.125 505.859375 C-251.0625 503.0625 -251.0625 503.0625 -250.0625 502.0625 C-249.99005947 500.04285801 -249.97872812 498.02082876 -250 496 C-250.01353516 494.34291016 -250.01353516 494.34291016 -250.02734375 492.65234375 C-250.03894531 491.79769531 -250.05054688 490.94304687 -250.0625 490.0625 C-249.4025 490.0625 -248.7425 490.0625 -248.0625 490.0625 C-248.3925 489.4025 -248.7225 488.7425 -249.0625 488.0625 C-249.49619267 480.7083693 -248.85735868 473.37569877 -248.125 466.0625 C-248.03798828 465.155 -247.95097656 464.2475 -247.86132812 463.3125 C-247.68627264 461.48673617 -247.50872163 459.6612098 -247.32861328 457.8359375 C-246.96855249 454.08337728 -246.65310722 450.32718993 -246.34155273 446.5703125 C-246.05839276 444.02558875 -245.56619067 441.571332 -245.0625 439.0625 C-245.0254721 437.3962447 -245.01490038 435.72848681 -245.0625 434.0625 C-244.4025 434.0625 -243.7425 434.0625 -243.0625 434.0625 C-243.371875 432.5465625 -243.371875 432.5465625 -243.6875 431 C-244.09821547 426.68748756 -243.33643055 424.16738733 -242.0625 420.0625 C-241.88657189 418.71191345 -241.74288101 417.35688569 -241.625 416 C-240.23048126 401.76629145 -236.4228615 386.34687415 -231.0625 373.0625 C-230.57749215 371.54351938 -230.09857917 370.02258251 -229.625 368.5 C-228.24772573 364.29606857 -226.31552801 360.86448476 -224.0625 357.0625 C-223.65 356.010625 -223.2375 354.95875 -222.8125 353.875 C-219.57884596 346.05737484 -214.64802371 339.27510945 -208.0625 334.0625 C-207.7325 333.0725 -207.4025 332.0825 -207.0625 331.0625 C-205.4402546 329.35256566 -203.76836575 327.68902316 -202.0625 326.0625 C-201.4334375 325.41410156 -200.804375 324.76570313 -200.15625 324.09765625 C-181.75886782 306.21512619 -152.22570716 294.47671883 -128.0625 287.0625 C-126.81533203 286.67964844 -126.81533203 286.67964844 -125.54296875 286.2890625 C-124.68316406 286.02867187 -123.82335937 285.76828125 -122.9375 285.5 C-122.10863281 285.24347656 -121.27976563 284.98695313 -120.42578125 284.72265625 C-118.0625 284.0625 -118.0625 284.0625 -114.125 283.4375 C-110.97486643 282.41199385 -110.97486643 282.41199385 -110.07421875 280.078125 C-109.56668681 278.48525552 -109.1002106 276.87871645 -108.67578125 275.26171875 C-107.95630723 272.68169409 -106.95825697 270.95825697 -105.0625 269.0625 C-104.4025 269.0625 -103.7425 269.0625 -103.0625 269.0625 C-102.8253125 268.47984375 -102.588125 267.8971875 -102.34375 267.296875 C-100.7898194 264.58697163 -99.04320569 263.19719198 -96.5625 261.3125 C-95.7684375 260.69890625 -94.974375 260.0853125 -94.15625 259.453125 C-92.0625 258.0625 -92.0625 258.0625 -90.0625 258.0625 C-89.03952078 257.08601983 -88.04345748 256.08118662 -87.0625 255.0625 C-86.39041504 254.65040283 -85.71833008 254.23830566 -85.02587891 253.8137207 C-81.08746936 250.30088662 -81.78710132 244.23522837 -81.4375 239.25 C-81.34831299 238.02128174 -81.25912598 236.79256348 -81.16723633 235.52661133 C-80.73928232 227.08780583 -81.34971543 221.59467986 -85.45703125 214.16015625 C-88.23731967 208.79575548 -89.03693491 202.98198973 -90.0625 197.0625 C-91.34125 196.753125 -92.62 196.44375 -93.9375 196.125 C-96.16351675 195.58644756 -98.00989999 195.0888 -100.0625 194.0625 C-100.0625 193.4025 -100.0625 192.7425 -100.0625 192.0625 C-100.619375 191.835625 -101.17625 191.60875 -101.75 191.375 C-104.70426591 189.69825448 -106.73097851 187.51673315 -109.0625 185.0625 C-109.7225 184.4025 -110.3825 183.7425 -111.0625 183.0625 C-111.0625 182.0725 -111.0625 181.0825 -111.0625 180.0625 C-111.7225 180.0625 -112.3825 180.0625 -113.0625 180.0625 C-116.12979338 172.73947854 -118.83319333 166.04523859 -119.0625 158.0625 C-119.124375 157.25167969 -119.18625 156.44085938 -119.25 155.60546875 C-119.56030424 149.29271695 -118.32403151 144.48831939 -115.0625 139.0625 C-114.35222656 138.30839844 -113.64195312 137.55429688 -112.91015625 136.77734375 C-110.40085017 133.0903084 -110.81336862 130.82110618 -111.25 126.4375 C-111.42595703 124.46910156 -111.42595703 124.46910156 -111.60546875 122.4609375 C-111.95202045 119.08233345 -111.95202045 119.08233345 -113.0625 116.0625 C-114.01221516 101.57790477 -113.48055116 87.17479706 -110.0625 73.0625 C-109.62744141 71.20238281 -109.62744141 71.20238281 -109.18359375 69.3046875 C-107.18057924 61.54405386 -104.24433349 54.89282803 -100.0625 48.0625 C-99.4025 48.0625 -98.7425 48.0625 -98.0625 48.0625 C-97.80855469 47.33804688 -97.55460938 46.61359375 -97.29296875 45.8671875 C-95.97862083 42.87130876 -94.43570486 40.72188359 -92.375 38.1875 C-91.73175781 37.38570312 -91.08851563 36.58390625 -90.42578125 35.7578125 C-85.01553074 29.58744415 -79.41700052 24.5274702 -72.5625 20 C-71.77641357 19.48050781 -70.99032715 18.96101563 -70.18041992 18.42578125 C-63.08501494 13.8650122 -56.09215125 10.65803051 -48.0625 8.0625 C-46.92167969 7.68738281 -45.78085938 7.31226563 -44.60546875 6.92578125 C-31.65970641 3.08629936 -17.56651054 0.97380371 -4.0625 1.0625 C-3.0625 0.0625 -3.0625 0.0625 0 0 Z " fill="#4F4744" transform="translate(292.0625,1.9375)"/>
<path d="M0 0 C-0.16008545 1.2984082 -0.3201709 2.59681641 -0.48510742 3.93457031 C-1.00624123 8.64782241 -1.19234222 13.30775328 -1.23828125 18.046875 C-1.24793915 18.88816956 -1.25759705 19.72946411 -1.26754761 20.59625244 C-1.2922972 23.31421378 -1.30494253 26.03193815 -1.3125 28.75 C-1.31545074 29.68118652 -1.31840149 30.61237305 -1.32144165 31.57177734 C-1.33255249 47.03807003 -0.20098178 61.81424717 2.48730469 77.06591797 C2.95257435 79.7285898 3.36813531 82.39180371 3.7578125 85.06640625 C5.06332238 93.83794597 6.95399519 102.37010594 9.28686523 110.92797852 C10.79899003 116.60153667 11.57280333 122.14570916 12 128 C11.05592285 128.46768799 11.05592285 128.46768799 10.09277344 128.94482422 C2.22447468 132.91015576 -2.54789838 137.84317703 -6 146 C-7.22704643 155.2028482 -6.57258826 163.39297475 -1 171 C4.38361963 176.62832962 11.16332073 180.16978735 19 180.4375 C26.86111662 180.07186667 34.28307099 177.54627441 40 172 C46.38860655 163.69150132 47.10485922 155.26244234 46 145 C44.5717157 141.37827909 42.65852715 138.81803878 40 136 C39.48179687 135.41605469 38.96359375 134.83210937 38.4296875 134.23046875 C34.9371274 130.76321706 32.062342 129.65757685 27.25 128.6875 C22.3890625 127.51875 22.3890625 127.51875 20.734375 125.3125 C19.89444007 122.88204998 19.42754291 120.53651508 19 118 C18.52217168 115.85386825 18.04288653 113.70806057 17.5625 111.5625 C17.18383704 109.71502336 16.80518357 107.86754477 16.42675781 106.02001953 C15.97265995 103.87058835 15.4864793 101.73037859 14.9921875 99.58984375 C12.26630141 87.76756079 9.84131609 76.19221391 10 64 C12.95888673 64.30784377 15.91703167 64.62105574 18.875 64.9375 C19.71675781 65.02451172 20.55851563 65.11152344 21.42578125 65.20117188 C22.23144531 65.28818359 23.03710938 65.37519531 23.8671875 65.46484375 C24.61081543 65.543396 25.35444336 65.62194824 26.12060547 65.70288086 C28 66 28 66 30 67 C29.14939775 72.25026907 27.09484653 76.86024075 25.05859375 81.74609375 C23.92592504 85.22769165 23.57914081 87.36878052 24 91 C25.96830166 93.81061634 25.96830166 93.81061634 28.75 96.37109375 C29.24153564 96.85651138 29.73307129 97.34192902 30.23950195 97.84205627 C31.81278335 99.38848366 33.40585863 100.91261666 35 102.4375 C36.04168466 103.45763815 37.0820634 104.47911163 38.12109375 105.50195312 C43.04274662 110.32297695 48.05267279 115.02116002 53.27880859 119.51293945 C55.85172623 121.7358673 58.32446011 124.05746913 60.8125 126.375 C65.51028818 130.72004303 70.36593252 134.80609467 75.3515625 138.8203125 C77.97275119 140.97757399 80.49154281 143.21311 83 145.5 C87.230199 149.35477722 91.59859896 152.99076641 96.06640625 156.56640625 C97.03449219 157.36949219 98.00257813 158.17257812 99 159 C99.77762695 159.47397217 100.55525391 159.94794434 101.35644531 160.4362793 C104.23917897 162.43212596 106.06182406 164.06121996 108 167 C108.87999611 172.98030199 108.23648235 178.70284429 107.625 184.6875 C107.48636707 186.40729334 107.35312744 188.12752936 107.22509766 189.84814453 C106.96496734 193.30115887 106.68523329 196.75158938 106.38867188 200.20166016 C105.8536122 206.58598081 105.57658009 212.9721677 105.375 219.375 C105.33802002 220.4875415 105.30104004 221.60008301 105.26293945 222.74633789 C104.96700586 232.78910085 104.86711998 242.83444702 104.82476807 252.88116455 C104.81663222 254.70080104 104.80555527 256.52042691 104.79144287 258.34002686 C104.77367585 260.88563674 104.76954719 263.43089814 104.76953125 265.9765625 C104.76239609 266.74389709 104.75526093 267.51123169 104.74790955 268.30181885 C104.76406097 272.08130492 104.84989451 273.77484176 107 277 C106.25823957 276.99815641 105.51647915 276.99631283 104.75224113 276.99441338 C86.69947665 276.95023522 68.64672296 276.91714385 50.59391594 276.89637566 C41.86369764 276.88606525 33.13351544 276.87200939 24.40332031 276.84912109 C16.79364978 276.82918004 9.1840054 276.81628185 1.57430947 276.81182301 C-2.45456356 276.80921685 -6.4833618 276.80309608 -10.51221085 276.78853989 C-14.30588324 276.77494469 -18.09945017 276.77078128 -21.89314461 276.77378464 C-23.28387971 276.77323534 -24.67461841 276.76926941 -26.06533241 276.76158905 C-27.96809956 276.75159806 -29.87092355 276.75523192 -31.77371216 276.75949097 C-33.36933581 276.75672559 -33.36933581 276.75672559 -34.99719429 276.75390434 C-38.25336133 277.02076429 -40.92128758 277.94862345 -44 279 C-45.35575853 278.38020887 -46.68701651 277.70590126 -48 277 C-50.72377483 276.79116368 -53.3486641 276.68887896 -56.07324219 276.68115234 C-56.88337265 276.67110672 -57.69350311 276.6610611 -58.52818298 276.65071106 C-61.20107323 276.61986534 -63.87386324 276.6028401 -66.546875 276.5859375 C-68.40204735 276.56722697 -70.25721119 276.54765364 -72.11236572 276.5272522 C-76.99162779 276.47591289 -81.87091746 276.43629676 -86.75030518 276.39910889 C-91.73074175 276.35908055 -96.71106334 276.30798286 -101.69140625 276.2578125 C-111.46085675 276.16103189 -121.23037215 276.07663389 -131 276 C-130.84014618 275.12429855 -130.68029236 274.24859711 -130.51559448 273.34635925 C-130.05215315 270.33848924 -129.82979926 267.49605341 -129.75048828 264.45825195 C-129.72008957 263.38924149 -129.68969086 262.32023102 -129.65837097 261.21882629 C-129.61478203 259.4959565 -129.61478203 259.4959565 -129.5703125 257.73828125 C-129.49848467 255.24803185 -129.42611664 252.75779798 -129.35327148 250.26757812 C-129.31628143 248.96763916 -129.27929138 247.6677002 -129.24118042 246.32836914 C-128.59701453 223.88311644 -127.49550715 201.58139938 -125.28759766 179.23046875 C-124.90989398 174.98787528 -124.75449006 170.7557779 -124.625 166.5 C-123.84151424 145.45497733 -120.16153582 123.39008799 -115 103 C-114.79294434 102.16936035 -114.58588867 101.3387207 -114.37255859 100.48291016 C-106.14831967 68.10481506 -91.17967458 43.41109196 -62.25 25.875 C-54.05851504 21.00880154 -45.76580445 16.73554863 -37 13 C-36.18273437 12.649375 -35.36546875 12.29875 -34.5234375 11.9375 C-5.575 0 -5.575 0 0 0 Z " fill="#FEF6E8" transform="translate(179,295)"/>
<path d="M0 0 C19.67068178 -0.02332753 39.34136076 -0.04097845 59.01205349 -0.05181217 C68.14484048 -0.05697544 77.2776189 -0.06401872 86.41040039 -0.07543945 C94.36757874 -0.08538535 102.32475088 -0.0918532 110.28193527 -0.09408849 C114.49785986 -0.09539576 118.71376668 -0.09848262 122.92968559 -0.10573006 C126.89322184 -0.11248879 130.85673289 -0.11461726 134.82027435 -0.11310768 C136.27922006 -0.11338408 137.73816657 -0.11539007 139.19710732 -0.11920547 C141.18046595 -0.12414036 143.16383792 -0.12239811 145.14720154 -0.12025452 C146.25980567 -0.12117631 147.3724098 -0.1220981 148.51872921 -0.12304783 C151 0 151 0 152 1 C152.45071817 8.07008898 151.24180691 14.87662565 150.14886475 21.84884644 C147.70610597 37.47102239 145.66949212 53.13135417 143.78833008 68.83007812 C142.44713946 79.93197136 140.81295063 90.96542112 139 102 C138.37544922 101.97905273 137.75089844 101.95810547 137.10742188 101.93652344 C134.2384494 101.85264156 131.36973592 101.80111489 128.5 101.75 C127.51773438 101.71648437 126.53546875 101.68296875 125.5234375 101.6484375 C119.20660861 101.56421311 114.18526934 102.15962008 109 106 C105.73655402 109.74792565 104.81186392 112.67250569 105.125 117.625 C105.33989658 121.58044016 105.33989658 121.58044016 103.75 123.54296875 C102.20683165 124.74856902 100.6042813 125.87700309 99 127 C96.30633125 130.55074517 96.5597883 134.71794072 97 139 C97.391875 140.2375 97.78375 141.475 98.1875 142.75 C98.455625 143.8225 98.72375 144.895 99 146 C98.52949219 146.62519531 98.05898438 147.25039063 97.57421875 147.89453125 C94.8652069 151.51775058 95.43514249 155.6576579 96 160 C96.9563874 161.69207001 97.94410931 163.36816893 99 165 C98.28541109 167.14376674 97.58775583 168.41224417 96 170 C95.39165165 174.45095376 95.04779052 178.96761612 96.98828125 183.109375 C102.96789576 190.72285601 113.26359573 193.67273114 122 197 C121.74382807 199.56473312 121.47065547 202.12572337 121.1875 204.6875 C121.08211914 205.7693457 121.08211914 205.7693457 120.97460938 206.87304688 C120.47501189 211.24952083 119.75140332 214.4091855 117 218 C113.91962633 220.05358245 113.26668014 220.25266626 109.78570557 220.2784729 C108.92606705 220.28963638 108.06642853 220.30079987 107.18074036 220.31230164 C106.23969955 220.31446182 105.29865875 220.31662201 104.32910156 220.31884766 C102.83768898 220.33391609 102.83768898 220.33391609 101.31614685 220.34928894 C98.00764536 220.38031325 94.69922684 220.39724143 91.390625 220.4140625 C89.07020398 220.43280126 86.74978958 220.45237663 84.42938232 220.4727478 C78.28623526 220.52425864 72.14306508 220.56370885 65.99981689 220.60089111 C59.87090976 220.640296 53.74210715 220.69192333 47.61328125 220.7421875 C37.1570551 220.82616806 26.70083027 220.89360954 16.24440765 220.94766617 C10.52684721 220.97773834 4.80954795 221.01672339 -0.9078331 221.07109261 C-3.88411808 221.09808067 -6.86041192 221.11750756 -9.8367691 221.13450241 C-11.76304354 221.14798207 -13.6892413 221.17130742 -15.61541748 221.19497681 C-16.72105042 221.19943817 -17.82668335 221.20389954 -18.96582031 221.20849609 C-20.37072723 221.22062637 -20.37072723 221.22062637 -21.80401611 221.23300171 C-24 221 -24 221 -26 219 C-26.40878798 212.97037733 -25.70106298 207.27135302 -24.84594727 201.30200195 C-24.12744998 196.21025525 -23.63047967 191.12224115 -23.1875 186 C-22.18724333 174.75112415 -20.69309362 163.5706286 -19.22695923 152.37533569 C-17.8086455 141.53164852 -16.48762544 130.69251758 -15.375 119.8125 C-14.61668941 112.39907128 -13.76089731 105.04260381 -12.5625 97.6875 C-10.79495827 86.81113268 -9.82403289 75.8474639 -8.74203491 64.8868103 C-7.7436241 54.80249343 -6.66722254 44.77984674 -5.00610352 34.77905273 C-3.81755372 27.42382431 -3.2438288 20.02593832 -2.73388672 12.59570312 C-2.66572754 11.67853516 -2.59756836 10.76136719 -2.52734375 9.81640625 C-2.47312256 9.00631104 -2.41890137 8.19621582 -2.36303711 7.36157227 C-1.95248817 4.69093347 -1.03365142 2.48801602 0 0 Z " fill="#FDF4E5" transform="translate(405,254)"/>
<path d="M0 0 C8.48616071 4.28930128 13.50002539 17.44515643 16.52197266 25.96044922 C20.20787803 37.60836419 20.95301327 49.00328652 20.99609375 61.13671875 C21.00179382 62.4035701 21.0074939 63.67042145 21.0133667 64.97566223 C21.02278423 67.65430265 21.02969643 70.33283205 21.03320312 73.01147461 C21.03755393 75.70985691 21.05132329 78.40791336 21.07421875 81.10620117 C21.33610813 114.44185534 18.93656858 152.26074506 -2.20703125 179.90625 C-2.73554688 180.61394531 -3.2640625 181.32164062 -3.80859375 182.05078125 C-12.77888599 193.16799177 -26.37931093 200.73291024 -40.20703125 203.90625 C-53.63433971 205.24647835 -65.7506822 203.99503906 -78.20703125 198.90625 C-79.22152344 198.49890625 -80.23601562 198.0915625 -81.28125 197.671875 C-92.08059675 193.03282507 -100.73345416 187.02199022 -109.20703125 178.90625 C-109.84640625 178.33003906 -110.48578125 177.75382813 -111.14453125 177.16015625 C-124.63339189 164.60467659 -135.05665496 140.9733153 -136.1640625 122.56640625 C-136.17824219 122.01855469 -136.19242188 121.47070312 -136.20703125 120.90625 C-136.81289062 120.91527344 -137.41875 120.92429687 -138.04296875 120.93359375 C-145.69288698 120.66290434 -150.62383425 118.09477273 -156.20703125 112.90625 C-164.00711031 103.31730984 -166.13466159 94.18470252 -165.20703125 81.90625 C-163.61370845 77.21014068 -161.57487503 74.32250401 -157.20703125 71.90625 C-151.84166587 70.91643259 -147.48195186 71.34792554 -142.76953125 74.15625 C-140.04839059 76.08578611 -137.92866636 78.00099075 -136.20703125 80.90625 C-132.91627129 80.52720792 -132.91627129 80.52720792 -130.20703125 78.90625 C-129.94401764 77.22149543 -129.73891871 75.52763056 -129.55859375 73.83203125 C-129.44201416 72.77814209 -129.32543457 71.72425293 -129.20532227 70.63842773 C-129.02054321 68.94568726 -129.02054321 68.94568726 -128.83203125 67.21875 C-125.3071827 36.69092816 -125.3071827 36.69092816 -118.3125 30.12890625 C-112.23208272 25.33451414 -107.61845357 24.76773105 -99.953125 24.6953125 C-98.27538199 24.66717716 -96.59764778 24.63851255 -94.91992188 24.609375 C-92.30770776 24.56869159 -89.69564609 24.5317762 -87.08325195 24.50488281 C-59.07934219 24.19244138 -29.76096435 19.41353841 -6.57006836 2.61254883 C-2.71478614 -0.11531835 -2.71478614 -0.11531835 0 0 Z " fill="#FDD3AD" transform="translate(347.20703125,70.09375)"/>
<path d="M0 0 C0.08362663 6.43113126 -0.21479908 12.71516103 -0.8046875 19.1171875 C-0.93074875 20.52389206 -0.93074875 20.52389206 -1.05935669 21.95901489 C-1.23725587 23.93070516 -1.41720741 25.90221123 -1.59912109 27.87353516 C-1.87354214 30.85913899 -2.13834822 33.84548967 -2.40234375 36.83203125 C-4.07224399 55.34715168 -4.07224399 55.34715168 -6 64 C-6.62938477 64.17877686 -7.25876953 64.35755371 -7.90722656 64.54174805 C-14.50094066 66.46164829 -18.76099426 68.83450913 -22.8125 74.5625 C-26.08958106 81.28914008 -26.54021548 90.42253718 -24.1640625 97.484375 C-20.9364422 103.07314035 -15.73000283 107.13499858 -10 110 C-7.85595831 110.09706713 -5.70873249 110.12978536 -3.5625 110.125 C-2.40878906 110.12757813 -1.25507813 110.13015625 -0.06640625 110.1328125 C3.04125667 110.13895922 3.04125667 110.13895922 6 109 C5.95359375 109.79664063 5.9071875 110.59328125 5.859375 111.4140625 C5.61111953 118.19753946 5.61111953 118.19753946 7.6875 124.5625 C11.80886337 128.90663977 15.00498537 130.32610739 21.05525208 130.49235535 C21.8169017 130.49874527 22.57855133 130.50513519 23.36328125 130.51171875 C24.15526413 130.52966995 24.94724701 130.54762115 25.76322937 130.56611633 C28.27959962 130.62006838 30.79578185 130.65406563 33.3125 130.6875 C35.02411462 130.72068651 36.73570448 130.75517741 38.44726562 130.79101562 C42.63137442 130.87578582 46.81542893 130.94266843 51 131 C51.0154612 131.88273087 51.0154612 131.88273087 51.03123474 132.78329468 C51.16361659 140.31391903 51.2999635 147.84446818 51.4375 155.375 C51.45923279 156.57573151 51.48096558 157.77646301 51.50335693 159.01358032 C51.72231166 171.01718517 51.94235358 183.01982794 52.32421875 195.01953125 C52.34969284 195.82322144 52.37516693 196.62691162 52.40141296 197.45495605 C52.51947575 201.11081655 52.64605382 204.76618496 52.78295898 208.42138672 C52.82622314 209.67838379 52.8694873 210.93538086 52.9140625 212.23046875 C52.9548291 213.30707764 52.9955957 214.38368652 53.03759766 215.49291992 C53 218 53 218 52 220 C19.78512342 220.12524252 -12.41397672 219.98938182 -44.625 219.5 C-45.80609722 219.48206327 -45.80609722 219.48206327 -47.01105499 219.46376419 C-56.67415621 219.31636158 -66.33712881 219.16180441 -76 219 C-75.34 218.01 -74.68 217.02 -74 216 C-73.6838183 213.09788605 -73.6838183 213.09788605 -73.71289062 209.75390625 C-73.69947632 208.45984863 -73.68606201 207.16579102 -73.67224121 205.83251953 C-73.66967819 205.13854065 -73.66711517 204.44456177 -73.66447449 203.72955322 C-73.65612287 201.52900254 -73.63554052 199.32885477 -73.61193848 197.12841797 C-73.56368554 192.4190068 -73.53101327 187.7095517 -73.5 183 C-73.26480965 147.98775291 -73.26480965 147.98775291 -72.26953125 131.6640625 C-72.19001221 130.02377075 -72.19001221 130.02377075 -72.10888672 128.3503418 C-71.643191 121.83735097 -70.62816433 118.22437791 -66.1875 113.375 C-64.66731958 112.05843282 -63.1461902 110.74246934 -61.59716797 109.45996094 C-58.54770775 106.67246902 -56.20060553 103.30951874 -53.75 100 C-53.20988281 99.28199219 -52.66976563 98.56398438 -52.11328125 97.82421875 C-50.98576461 96.32525388 -49.86098469 94.82422705 -48.73876953 93.32128906 C-46.97200897 90.96263147 -45.18907664 88.61699304 -43.40234375 86.2734375 C-31.26367244 70.3047978 -19.50923894 54.03426461 -9 36.9375 C-8.23393433 35.71546875 -8.23393433 35.71546875 -7.45239258 34.46875 C-4.88826386 30.19535226 -3.1193245 27.11762612 -4 22 C-5.24605353 18.46841075 -5.24605353 18.46841075 -6.9375 14.9375 C-8.77206175 10.94309959 -10.34874056 7.36096508 -11 3 C-9.54293274 2.49632243 -8.08429904 1.99717444 -6.625 1.5 C-5.81289063 1.2215625 -5.00078125 0.943125 -4.1640625 0.65625 C-2 0 -2 0 0 0 Z " fill="#FEF6E8" transform="translate(365,353)"/>
<path d="M0 0 C1.13526123 0.00491455 2.27052246 0.0098291 3.44018555 0.01489258 C22.20406987 0.275261 42.15544506 4.57733305 56.61328125 17.41015625 C59.88252935 19.76885821 63.06507743 20.42381416 66.9375 21.1875 C76.93981491 23.45966732 84.63172938 27.12594143 90.71875 35.7109375 C103.18456579 56.89010413 100.18257877 81.62706213 94.5625 104.375 C94.13127796 106.02248935 93.69647838 107.66907958 93.25 109.3125 C92.59 109.3125 91.93 109.3125 91.25 109.3125 C91.16363281 108.28253906 91.07726562 107.25257812 90.98828125 106.19140625 C88.93817024 84.41736831 82.52699121 62.08599917 65.15234375 47.55859375 C63.25351787 46.08441157 63.25351787 46.08441157 60.5625 46.1875 C56.50030273 47.56711417 53.93430606 49.7439497 50.625 52.421875 C26.84251423 71.35398538 -4.38187201 72.85003824 -33.42285156 72.81030273 C-49.33531118 72.80629395 -49.33531118 72.80629395 -62.625 80.8125 C-72.07521595 93.04352112 -73.85781808 109.46443717 -75.75 124.3125 C-81.453125 122.4453125 -81.453125 122.4453125 -84.125 121.25 C-87.6585389 119.98802182 -91.01865388 119.69195893 -94.75 119.3125 C-96.34722028 109.95043034 -97.09639953 100.84889425 -97.06567383 91.35351562 C-97.06250119 89.3132633 -97.08614502 87.27445131 -97.11132812 85.234375 C-97.22287218 62.11713028 -89.0080274 42.85301146 -72.984375 26.390625 C-53.85339615 7.62977391 -26.21599674 -0.13536659 0 0 Z " fill="#8F847B" transform="translate(285.75,13.6875)"/>
<path d="M0 0 C12.87 0 25.74 0 39 0 C36.75026015 6.74921956 36.75026015 6.74921956 35.1953125 9.8046875 C34.85886719 10.47113281 34.52242188 11.13757813 34.17578125 11.82421875 C33.65564453 12.83935547 33.65564453 12.83935547 33.125 13.875 C32.78597656 14.54402344 32.44695312 15.21304687 32.09765625 15.90234375 C29.2615755 21.49902021 29.2615755 21.49902021 27.859375 24.18457031 C27.49585938 24.88936523 27.13234375 25.59416016 26.7578125 26.3203125 C26.26112061 27.27188232 26.26112061 27.27188232 25.75439453 28.24267578 C24.76062083 30.55762176 24.68964199 32.51713588 25 35 C26.65 35.33 28.3 35.66 30 36 C30.38369751 35.27018921 30.38369751 35.27018921 30.77514648 34.52563477 C36.83178912 23.00735493 42.90501108 11.49803464 49 0 C53.41071299 -0.12452065 57.82046857 -0.21476527 62.23242188 -0.2746582 C63.72999923 -0.29965007 65.22745651 -0.33365627 66.72460938 -0.37719727 C75.40165665 -0.62304694 81.98858577 -0.70857101 89 5 C98.16254197 8.70025733 107.68035643 7.27865415 117 5 C113.25441985 18.46422562 108.80033413 31.28206565 103 44 C102.68305176 44.70640625 102.36610352 45.4128125 102.03955078 46.140625 C92.46075822 67.2745499 78.71723397 85.06001945 56.796875 94.01953125 C43.06951288 98.83177691 27.5473287 96.0404717 14.46484375 90.50390625 C11.57007436 89.09345361 8.7642348 87.65061791 6 86 C4.97253662 85.49666138 4.97253662 85.49666138 3.92431641 84.9831543 C0.8109764 81.77462082 1.05167735 78.13183407 0.7578125 73.8046875 C0.68233185 72.84593719 0.6068512 71.88718689 0.52908325 70.89938354 C-0.38845335 57.69218123 -0.2240937 44.4429161 -0.1373291 31.21209717 C-0.11645145 27.67788216 -0.10753656 24.14363502 -0.09765625 20.609375 C-0.07761555 13.73942378 -0.03842743 6.86996975 0 0 Z " fill="#FDF2E1" transform="translate(425,483)"/>
<path d="M0 0 C0.15855469 0.59425781 0.31710938 1.18851562 0.48046875 1.80078125 C1.76386581 6.36003157 3.21957612 10.67831521 5.234375 14.96875 C8.60041908 22.25600488 11.71643592 29.6465777 14.84594727 37.0378418 C17.39655074 43.05675571 19.94726016 49.0328341 22.93823242 54.84643555 C25.21233501 59.45895771 27.21168672 64.20260532 29.28411865 68.90820312 C34.308105 80.28574352 39.64248714 91.39556604 45.57470703 102.33007812 C47.57220975 106.07188864 49.49927494 109.84888365 51.43144226 113.6247406 C57.08414824 124.66921092 62.81235485 135.64476155 68.9375 146.4375 C69.73401978 147.84491455 69.73401978 147.84491455 70.54663086 149.28076172 C72.83795596 153.30365487 75.16019843 157.29311707 77.62109375 161.21484375 C83.56974105 170.79698914 83.56974105 170.79698914 83.0625 176.1875 C82.42554979 178.47302723 81.7502893 180.74913211 81 183 C77.07526514 181.34099372 74.06523223 178.69223127 70.875 175.9375 C70.30023926 175.44652832 69.72547852 174.95555664 69.13330078 174.44970703 C64.83233633 170.76026544 60.62791358 166.97060082 56.4375 163.15625 C53.97556487 160.97838431 51.44446353 158.92445305 48.875 156.875 C38.8482213 148.75944227 29.5500527 139.69227535 20.5234375 130.48828125 C18.89228708 128.83980634 18.89228708 128.83980634 16.4375 127 C13.4776565 124.57141046 11.12065471 121.81642783 8.6484375 118.90234375 C7.06072738 116.99142817 7.06072738 116.99142817 5.29296875 115.4609375 C4 114 4 114 3.9375 110.6875 C4.81410098 105.20364733 7.3858025 100.25665208 9.72265625 95.26953125 C10.92812123 92.18398328 11.28838506 90.25813754 11 87 C3.98428345 85.43444907 -3.03778147 83.89960768 -10.0625 82.375 C-11.11888672 82.14554687 -12.17527344 81.91609375 -13.26367188 81.6796875 C-15.84240644 81.11960036 -18.42118322 80.55970847 -21 80 C-21.79727722 75.06534929 -22.17168245 70.26008377 -22.203125 65.2578125 C-22.20882507 64.53117401 -22.21452515 63.80453552 -22.22039795 63.05587769 C-22.22979519 61.5213158 -22.23636079 59.98673421 -22.24023438 58.45214844 C-22.2498295 56.16562941 -22.28085565 53.88005456 -22.3125 51.59375 C-22.41573461 37.1812457 -21.80533152 19.58552276 -12.6875 7.6875 C-5 0 -5 0 0 0 Z " fill="#FCF4E6" transform="translate(208,269)"/>
<path d="M0 0 C1.3125 0.875 2.625 1.75 3.9375 2.625 C5.17113281 3.44484375 5.17113281 3.44484375 6.4296875 4.28125 C8.06642041 5.37572185 9.69733715 6.47897905 11.3203125 7.59375 C27.08778519 18.36178013 44.01854047 22.50895352 63 21 C72.55377184 19.1318359 81.63657782 15.44299441 89 9 C88.48082862 17.36595513 87.01986952 25.33035742 85.1875 33.5 C84.6415552 35.9842933 84.09598322 38.46866857 83.55078125 40.953125 C83.28475098 42.15646484 83.0187207 43.35980469 82.74462891 44.59960938 C81.91906084 48.36961333 81.13069509 52.14610868 80.35327148 55.92626953 C78.79377981 63.50321785 77.04825588 71.01195805 75.1328125 78.5078125 C73.6950022 84.1572849 72.35331711 89.82982066 71 95.5 C68.72585909 105.01544666 66.40275423 114.51618773 64 124 C63.34 124 62.68 124 62 124 C58.86088288 118.30356876 55.72633495 112.60463945 52.59521484 106.90380859 C51.56230844 105.02358381 50.52881763 103.14367992 49.49462891 101.26416016 C33.97933093 73.05312679 18.85840672 44.54936556 5.91064453 15.05615234 C4.25268745 11.31263638 2.5141213 7.60590204 0.77734375 3.8984375 C0 2 0 2 0 0 Z " fill="#FCD3AE" transform="translate(231,304)"/>
<path d="M0 0 C0.66 0 1.32 0 2 0 C2 0.66 2 1.32 2 2 C2.5988501 2.26683594 3.1977002 2.53367187 3.81469727 2.80859375 C10.32405281 6.35743244 13.61207736 13.51608556 16.5625 20 C16.94744629 20.83378174 17.33239258 21.66756348 17.72900391 22.52661133 C23.7650631 35.84998367 29.54119714 51.1313208 29 66 C28.4652002 66.17128418 27.93040039 66.34256836 27.37939453 66.51904297 C24.95918664 67.29807533 22.54211067 68.08641306 20.125 68.875 C19.28324219 69.14441406 18.44148438 69.41382813 17.57421875 69.69140625 C16.76855469 69.95566406 15.96289062 70.21992188 15.1328125 70.4921875 C14.38918457 70.73308105 13.64555664 70.97397461 12.87939453 71.22216797 C10.80413562 71.94056343 10.80413562 71.94056343 9 74 C9.43243476 79.00903598 11.81454954 83.57155298 13.828125 88.12109375 C16.1533593 93.6492243 18.41364659 99.49741194 16.05859375 105.33251953 C14.65302162 107.79892981 13.1264268 110.11102312 11.5 112.4375 C10.9426416 113.27369873 10.3852832 114.10989746 9.81103516 114.97143555 C8.23030727 117.3310295 6.62070735 119.66776259 5 122 C4.33742188 122.97710937 3.67484375 123.95421875 2.9921875 124.9609375 C1.36112691 127.33267295 -0.31417078 129.66693278 -2 132 C-2.721875 133.02609375 -3.44375 134.0521875 -4.1875 135.109375 C-14.2888181 149.4510584 -25.12148409 163.24380053 -36 177 C-37.09102268 173.72693196 -36.91386999 172.56270318 -36.25 169.2578125 C-36.05760742 168.29004883 -35.86521484 167.32228516 -35.66699219 166.32519531 C-35.44688477 165.26913086 -35.22677734 164.21306641 -35 163.125 C-34.7721582 162.0122168 -34.54431641 160.89943359 -34.30957031 159.75292969 C-31.23396051 144.9908239 -27.58632247 130.36184727 -23.93603516 115.73339844 C-13.40252729 73.61301239 -13.40252729 73.61301239 -6.0168457 30.85620117 C-4.59675655 20.46896433 -2.2332273 10.23706093 0 0 Z " fill="#FBF3E5" transform="translate(335,278)"/>
<path d="M0 0 C0.72614502 0.00805664 1.45229004 0.01611328 2.20043945 0.02441406 C8.51390058 0.24507614 14.54548481 1.3830601 20.6875 2.8125 C21.57179688 3.01673584 22.45609375 3.22097168 23.3671875 3.43139648 C29.62425918 5.01782287 34.00909984 7.31238685 38.84375 11.6796875 C41.3098861 15.97216024 41.09419832 19.81686859 41 24.6875 C40.98936523 25.68434814 40.97873047 26.68119629 40.96777344 27.70825195 C40.77047267 35.79695907 39.90344855 43.74600228 38.75 51.75 C38.59337891 52.84650879 38.43675781 53.94301758 38.27539062 55.07275391 C37.09290262 62.54258954 35.11874028 69.47357394 32.5 76.5625 C32.24653809 77.25609619 31.99307617 77.94969238 31.73193359 78.66430664 C28.34923545 87.55722332 23.85157716 95.66052518 18.875 103.75 C18.32465088 104.64710693 17.77430176 105.54421387 17.20727539 106.46850586 C10.14627557 117.68040814 10.14627557 117.68040814 4.5 119.5625 C3.02413385 119.67937338 1.54293388 119.73751742 0.0625 119.75 C-0.69933594 119.76417969 -1.46117187 119.77835937 -2.24609375 119.79296875 C-4.73347315 119.53862666 -6.34808106 118.80267196 -8.5 117.5625 C-7.06770833 116.71614583 -5.63541667 115.86979167 -4.203125 115.0234375 C1.81880323 109.85783851 2.42537267 103.55624082 3.49609375 96.12109375 C4.5 92.5625 4.5 92.5625 7.16015625 89.91015625 C7.93230469 89.13542969 8.70445312 88.36070312 9.5 87.5625 C9.45020416 84.802335 9.45020416 84.802335 8.5 82.5625 C7.71238281 82.33175781 6.92476562 82.10101563 6.11328125 81.86328125 C0.16456947 80.08218766 -5.73078305 78.19815145 -11.5625 76.0625 C-13.12677734 75.49015625 -13.12677734 75.49015625 -14.72265625 74.90625 C-17.68083279 73.47500847 -19.43647528 72.10897731 -21.5 69.5625 C-21.875 66.4375 -21.875 66.4375 -21.5 63.5625 C-19.5 61.5625 -19.5 61.5625 -15.609375 61.21875 C-9.66277411 61.35206051 -4.34861528 63.19147889 1.25 65.0625 C3.26353051 65.72514854 5.27910084 66.38163808 7.296875 67.03125 C8.61703613 67.47114258 8.61703613 67.47114258 9.96386719 67.91992188 C12.57819098 68.58231119 14.81496956 68.68065581 17.5 68.5625 C17.995 66.5825 17.995 66.5825 18.5 64.5625 C13.22148381 61.24316606 8.35217594 59.45881778 2.3125 58 C1.48041016 57.78875488 0.64832031 57.57750977 -0.20898438 57.35986328 C-3.8977461 56.42767233 -7.59381475 55.54080594 -11.30078125 54.68359375 C-12.35652344 54.43738281 -13.41226563 54.19117188 -14.5 53.9375 C-15.4075 53.73898437 -16.315 53.54046875 -17.25 53.3359375 C-19.75913455 52.4734225 -20.90640416 51.67015901 -22.5 49.5625 C-22.88601984 46.47434125 -22.97901666 44.46065624 -21.5 41.6875 C-15.59152384 38.36398216 -7.92768737 41.31906979 -1.89648438 43.00195312 C-0.75501953 43.33130859 0.38644531 43.66066406 1.5625 44 C12.5199489 48.10374185 12.5199489 48.10374185 23.5 47.5625 C23.17 45.9125 22.84 44.2625 22.5 42.5625 C18.43052105 41.45393773 14.35943468 40.35153378 10.28686523 39.25439453 C8.90654424 38.88166452 7.52664705 38.50736083 6.1472168 38.13134766 C-1.33997959 36.09161017 -8.75690219 34.1752575 -16.44995117 33.05029297 C-18.5 32.5625 -18.5 32.5625 -20.5 30.5625 C-21.0412844 24.87901376 -21.0412844 24.87901376 -20.5 22.5625 C-18.36974496 20.36769178 -16.95417314 19.63923245 -13.93359375 19.12890625 C-2.85940026 19.11446793 8.30387876 21.10403865 18.79296875 24.6875 C22.5353697 25.89716495 25.59044334 25.6973123 29.5 25.5625 C29.09995382 22.60271368 29.09995382 22.60271368 27.5 19.5625 C22.06645384 17.16288325 16.54116961 15.6958499 10.75 14.4375 C9.97011719 14.26428223 9.19023438 14.09106445 8.38671875 13.91259766 C2.82869588 12.7256805 -2.62386276 12.04136051 -8.3125 11.8359375 C-10.5 11.5625 -10.5 11.5625 -12.5 9.5625 C-12.9375 7.1875 -12.9375 7.1875 -12.5 4.5625 C-8.65650603 0.5877292 -5.33714382 -0.11269043 0 0 Z " fill="#F9D2AD" transform="translate(529.5,363.4375)"/>
<path d="M0 0 C0.66 0 1.32 0 2 0 C3.28788243 1.47144268 4.50570327 3.0045715 5.6875 4.5625 C11.98408094 12.58866242 18.48503292 18.38161996 27 24 C27.87914062 24.60070312 28.75828125 25.20140625 29.6640625 25.8203125 C48.16261705 38.13491221 69.70926239 42.96688274 91.5625 38.75 C96.86414665 37.47492043 101.25234259 35.64773201 106 33 C106.66 33 107.32 33 108 33 C106.28055176 45.57506923 103.15692358 59.37439479 92.8984375 67.70703125 C81.74077009 75.58641494 69.39184607 77.55882692 56.00390625 75.421875 C34.9255406 71.44934792 17.41281694 58.21682761 5 41 C-2.36605646 30.05481547 -2.35782725 22.12412358 -1 9.5 C-0.90460938 8.5821875 -0.80921875 7.664375 -0.7109375 6.71875 C-0.47760493 4.47875735 -0.24055688 2.23922632 0 0 Z " fill="#FBD3AD" transform="translate(219,242)"/>
<path d="M0 0 C1.01707031 -0.020625 2.03414063 -0.04125 3.08203125 -0.0625 C10.32374544 -0.09968467 17.26220177 0.33153797 23.15625 4.93359375 C23.5996875 5.51238281 24.043125 6.09117187 24.5 6.6875 C24.9640625 7.26371094 25.428125 7.83992188 25.90625 8.43359375 C28.41926308 12.60699047 28.69849721 17.49859457 28 22.25 C25.84386091 28.86954852 22.94642437 33.07789287 16.8671875 36.5078125 C15 37.25 15 37.25 12 37.25 C12.40992188 37.97445312 12.81984375 38.69890625 13.2421875 39.4453125 C18.5940246 49.04789104 18.5940246 49.04789104 20 54.25 C20.66 54.25 21.32 54.25 22 54.25 C22.33837891 53.46882813 22.33837891 53.46882813 22.68359375 52.671875 C25.85051662 46.84548871 31.10655453 38.46042646 37.7265625 36.40234375 C40.1875 36.4375 40.1875 36.4375 44 37.25 C44.77734375 38.9296875 44.77734375 38.9296875 45 41.25 C43.19140625 43.6953125 43.19140625 43.6953125 40.5625 46.375 C39.63852355 47.34566019 38.71668536 48.3183598 37.796875 49.29296875 C37.32958984 49.7832959 36.86230469 50.27362305 36.38085938 50.77880859 C34.27888728 53.01828593 32.28162614 55.33083307 30.3125 57.6875 C29.64863281 58.46996094 28.98476563 59.25242187 28.30078125 60.05859375 C26.77357931 62.10393262 26.77357931 62.10393262 27.28735352 64.13891602 C28.03016893 66.33936991 28.95506176 68.20028342 30.1015625 70.21875 C30.50890625 70.95480469 30.91625 71.69085938 31.3359375 72.44921875 C32.19718542 73.9864158 33.06441168 75.52027821 33.9375 77.05078125 C34.34226562 77.78683594 34.74703125 78.52289063 35.1640625 79.28125 C35.53998535 79.94705078 35.9159082 80.61285156 36.30322266 81.29882812 C37.15182986 83.67516616 36.82268756 84.90543848 36 87.25 C33.36 87.25 30.72 87.25 28 87.25 C26.66141476 84.96125827 25.32898986 82.66930344 24 80.375 C23.6184375 79.72402344 23.236875 79.07304687 22.84375 78.40234375 C20 73.4765625 20 73.4765625 20 71.25 C15.54808908 75.59081154 11.58000338 80.24197693 7.59765625 85.01953125 C5 87.25 5 87.25 1.80859375 87.69921875 C-1 87.25 -1 87.25 -3 85.25 C-2.99054433 79.97373369 0.60016645 76.80730763 3.9375 73.125 C5.03124312 71.89437909 6.12373942 70.66264865 7.21484375 69.4296875 C7.70073975 68.89069824 8.18663574 68.35170898 8.68725586 67.79638672 C11.46217781 64.55855789 11.46217781 64.55855789 11.83984375 60.4375 C10.90516897 56.89008317 9.50658747 54.35407313 7.5625 51.25 C5.10633187 47.31192667 3.32004304 43.70763277 2 39.25 C-1.3 39.25 -4.6 39.25 -8 39.25 C-8.03738281 40.03761719 -8.07476562 40.82523437 -8.11328125 41.63671875 C-9.38035264 62.63035264 -9.38035264 62.63035264 -13 66.25 C-14.8125 66.3828125 -14.8125 66.3828125 -17 66.375 C-17.721875 66.37757813 -18.44375 66.38015625 -19.1875 66.3828125 C-21 66.25 -21 66.25 -22 65.25 C-21.80704157 57.84586062 -20.45790321 50.51740615 -19.125 43.25 C-18.76438009 41.23459736 -18.40502463 39.21896809 -18.046875 37.203125 C-17.86962891 36.20603516 -17.69238281 35.20894531 -17.50976562 34.18164062 C-16.74709799 29.79557117 -16.05620003 25.39934277 -15.375 21 C-12.11054112 0.05958446 -12.11054112 0.05958446 0 0 Z " fill="#4D4542" transform="translate(439,274.75)"/>
<path d="M0 0 C3.52229008 0.57110922 6.21878559 1.46032006 9.3203125 3.21484375 C10.49400391 3.87323242 10.49400391 3.87323242 11.69140625 4.54492188 C12.49449219 5.00447266 13.29757812 5.46402344 14.125 5.9375 C14.93582031 6.39318359 15.74664062 6.84886719 16.58203125 7.31835938 C19.79403569 9.13141643 22.92932895 10.95288597 26 13 C27.86763566 22.53919585 24.91525015 34.06984007 23.6875 43.625 C23.45446758 45.47761492 23.22213271 47.33031771 22.99047852 49.18310547 C22.53475202 52.82423839 22.07614084 56.4649881 21.61523438 60.10546875 C20.85753891 66.10826069 20.14443548 72.11604841 19.4375 78.125 C17.73820722 92.43087482 15.86414699 106.71485225 14 121 C11.36 120.01 8.72 119.02 6 118 C6.48096611 108.43043296 7.5784926 99.01087653 8.89575195 89.52514648 C13.1891805 58.18230235 11.00963502 29.71023347 0 0 Z " fill="#F9F2E5" transform="translate(362,300)"/>
<path d="M0 0 C2.375 0.75 2.375 0.75 3.375 1.75 C4.04993697 10.45081795 2.93678231 19.28616921 2.20697021 27.95809937 C-0.22972528 57.14850424 -1.6473898 86.38311413 -2.28369141 115.66674805 C-2.37298202 119.69540114 -2.49030508 123.72257227 -2.625 127.75 C-2.64745789 128.44841003 -2.66991577 129.14682007 -2.6930542 129.86639404 C-2.766994 131.94199425 -2.86245914 134.01547206 -2.96484375 136.08984375 C-3.01890381 137.29890381 -3.07296387 138.50796387 -3.12866211 139.75366211 C-3.625 142.75 -3.625 142.75 -5.03344727 144.67797852 C-6.625 145.75 -6.625 145.75 -8.75 145.5625 C-10.625 144.75 -10.625 144.75 -11.625 142.75 C-11.9234988 137.80125179 -11.8700335 132.83208012 -11.875 127.875 C-11.87633942 127.08635559 -11.87767883 126.29771118 -11.87905884 125.48516846 C-11.86997556 100.08394847 -10.30142949 74.71230143 -8.83392334 49.36199951 C-8.63219872 45.87445608 -8.43435955 42.38670814 -8.23681641 38.89892578 C-7.94297035 33.76284762 -7.63147803 28.62817242 -7.30288696 23.49420166 C-7.18517891 21.63700319 -7.0716498 19.7795347 -6.9624939 17.92181396 C-6.81180616 15.39334837 -6.64315514 12.86676864 -6.46875 10.33984375 C-6.42812943 9.60536514 -6.38750885 8.87088654 -6.34565735 8.114151 C-6.12857397 5.22281616 -5.91705937 3.16852601 -4.23632812 0.76000977 C-2.625 -0.25 -2.625 -0.25 0 0 Z " fill="#4B4340" transform="translate(143.625,428.25)"/>
<path d="M0 0 C5.2354914 2.47495957 9.39229231 6.78458462 12 12 C12.56088092 17.99711135 12.45741843 22.87348302 9 28 C4.67849693 33.02228735 0.7696826 35.6872939 -5.875 36.4375 C-11.74371722 36.19015943 -16.32538888 33.71867983 -20.375 29.5625 C-23.86904602 24.0526582 -24.71017517 19.4603032 -24 13 C-22.16108509 7.48325526 -18.55861354 4.37227556 -14 1 C-9.81411228 -1.09294386 -4.5584359 -0.42417949 0 0 Z " fill="#FAD3AE" transform="translate(205,431)"/>
<path d="M0 0 C1.0955999 0.00067978 1.0955999 0.00067978 2.21333313 0.00137329 C2.97919235 -0.00198532 3.74505157 -0.00534393 4.53411865 -0.00880432 C7.07906188 -0.01834363 9.62393951 -0.02025901 12.16889954 -0.02133179 C13.93148323 -0.02454264 15.69406666 -0.02790657 17.45664978 -0.03141785 C21.1572888 -0.03741681 24.85790443 -0.039257 28.55854797 -0.03866577 C33.30573278 -0.03856418 38.0527679 -0.05220964 42.79991722 -0.06943798 C46.44241528 -0.08054563 50.08487703 -0.08258535 53.72739029 -0.08205605 C55.47771851 -0.08323829 57.2280476 -0.08767369 58.97835922 -0.09538841 C61.42528056 -0.10516214 63.87187553 -0.10232056 66.31880188 -0.09628296 C67.40832909 -0.10471222 67.40832909 -0.10471222 68.51986694 -0.11331177 C72.20600909 -0.09014493 73.74111243 0.04373723 76.89546204 2.14663696 C77.20796204 4.64663696 77.20796204 4.64663696 76.89546204 7.14663696 C74.44046435 9.60163465 73.08074134 9.38883097 69.72996521 9.41769409 C69.01251129 9.41364563 68.29505737 9.40959717 67.55586243 9.40542603 C66.79961075 9.40893066 66.04335907 9.4124353 65.26419067 9.41604614 C62.75707395 9.42486932 60.25023803 9.41901174 57.74311829 9.41226196 C56.00438381 9.41360859 54.26564969 9.4155491 52.5269165 9.4180603 C48.87930219 9.42101247 45.2317857 9.41671148 41.58418274 9.40737915 C36.90539021 9.395993 32.22682732 9.40253815 27.54804325 9.41452408 C23.95614895 9.4217474 20.36430919 9.41945243 16.77241325 9.41426849 C15.04720978 9.41293287 13.32200138 9.41457669 11.59680367 9.4192276 C9.18588761 9.42429966 6.77534442 9.41657279 4.36445618 9.40542603 C3.29131165 9.41149872 3.29131165 9.41149872 2.19648743 9.41769409 C-1.46486026 9.386291 -2.96939572 9.23673179 -6.10453796 7.14663696 C-6.35453796 4.08413696 -6.35453796 4.08413696 -6.10453796 1.14663696 C-4.40361541 -0.55428559 -2.26984097 0.01462898 0 0 Z " fill="#4E4642" transform="translate(416.1045379638672,378.8533630371094)"/>
<path d="M0 0 C1.11433914 0.00303635 1.11433914 0.00303635 2.25119019 0.00613403 C3.41942825 0.00350555 3.41942825 0.00350555 4.61126709 0.00082397 C7.19829505 -0.00359493 9.78525522 -0.00065643 12.37228394 0.00271606 C14.16207899 0.00204304 15.95187396 0.00107302 17.7416687 -0.00018311 C21.49778105 -0.00166013 25.25386966 0.00049462 29.00997925 0.00515747 C33.83578887 0.01085476 38.66154288 0.00757578 43.48735046 0.00158501 C47.18466616 -0.00202048 50.88196858 -0.00088208 54.57928467 0.0017128 C56.35917162 0.0023821 58.13905975 0.00155353 59.91894531 -0.00076675 C62.40212216 -0.00329309 64.88520768 0.00054702 67.36837769 0.00613403 C68.11127045 0.0041098 68.85416321 0.00208557 69.61956787 0 C74.69552132 0.02126595 74.69552132 0.02126595 75.80978394 1.13552856 C75.93478394 4.13552856 75.93478394 4.13552856 75.80978394 7.13552856 C74.09519059 8.85012191 71.91789497 8.26764095 69.63067627 8.28216553 C68.5186937 8.28148575 68.5186937 8.28148575 67.38424683 8.28079224 C66.60702774 8.28415085 65.82980865 8.28750946 65.02903748 8.29096985 C62.44682235 8.30050817 59.86467186 8.3024244 57.28244019 8.30349731 C55.49504062 8.30670789 53.70764131 8.3100718 51.92024231 8.31358337 C48.16832876 8.31958186 44.41643827 8.32142254 40.66452026 8.3208313 C35.84773571 8.32072963 31.03109842 8.33438309 26.21434879 8.35160351 C22.52127905 8.36270105 18.82824516 8.3647512 15.13516045 8.36422157 C13.358886 8.36540504 11.58261073 8.36984721 9.80635262 8.37755394 C7.32570087 8.38730874 4.84537209 8.38449382 2.36471558 8.37844849 C1.62541809 8.38406799 0.88612061 8.3896875 0.12442017 8.39547729 C-4.96190043 8.3638442 -4.96190043 8.3638442 -7.19021606 6.13552856 C-6.48834566 0.38019126 -5.68688779 0.02382548 0 0 Z " fill="#433B3A" transform="translate(413.1902160644531,405.8644714355469)"/>
<path d="M0 0 C1.4540625 0.0309375 1.4540625 0.0309375 2.9375 0.0625 C5.28444364 4.36134095 6.59842698 8.24405073 7.54296875 13.04296875 C7.67190018 13.69646805 7.8008316 14.34996735 7.93367004 15.02326965 C8.20261066 16.39983349 8.46708786 17.77727619 8.72729492 19.15551758 C9.1211562 21.22975695 9.53512499 23.29925195 9.95117188 25.36914062 C13.63724632 44.19925867 13.63724632 44.19925867 11.10620117 49.9519043 C8.04301164 54.17330838 3.89309711 56.06971203 -1.0625 57.0625 C-6.50255363 57.53718612 -11.23934211 57.89103418 -16.0625 55.0625 C-16.1875 52.6875 -16.1875 52.6875 -16.0625 50.0625 C-13.3168993 47.3168993 -11.45355698 47.70060443 -7.625 47.5 C-2.75925268 47.23631643 -2.75925268 47.23631643 1.9375 46.0625 C2.37465329 37.75658743 0.69196558 30.1459941 -1.0625 22.0625 C-1.63534056 19.37706957 -2.19504302 16.68917449 -2.75 14 C-3.00136719 12.81277344 -3.25273437 11.62554687 -3.51171875 10.40234375 C-4.03921028 7.20372488 -4.24030025 4.29654243 -4.0625 1.0625 C-3.0625 0.0625 -3.0625 0.0625 0 0 Z " fill="#4C4441" transform="translate(313.0625,150.9375)"/>
<path d="M0 0 C4.57170361 2.52621973 4.57170361 2.52621973 5.89453125 5.171875 C6.10532047 8.50730436 5.99230333 11.83295861 5.89453125 15.171875 C5.889375 15.91824219 5.88421875 16.66460937 5.87890625 17.43359375 C5.67162289 21.32015676 4.92281354 23.13706603 2.45703125 26.171875 C-1.02642656 28.61113083 -4.37359456 28.99723521 -8.5625 28.80078125 C-13.10055873 27.67846565 -16.18972581 24.72710204 -19.10546875 21.171875 C-20.75921471 16.21063711 -21.50425754 10.01421381 -19.12890625 5.1875 C-14.24531333 -0.86455994 -7.30190492 -2.87199229 0 0 Z " fill="#FAD4AF" transform="translate(368.10546875,426.828125)"/>
<path d="M0 0 C5.12235564 -0.37480651 8.36943541 0.89519791 13 3 C22.28659131 5.41905962 32.96544808 4.88081789 41.94140625 1.671875 C44.6885648 0.77526917 47.13960943 0.70662661 50 1 C51 2 51 2 51.4375 4.3125 C51 7 51 7 48.5625 9.125 C41.05889287 13.45869817 33.61480852 14.5027848 25.0625 14.4375 C24.13759766 14.45748047 23.21269531 14.47746094 22.25976562 14.49804688 C14.47516448 14.49259165 6.82503163 12.81908811 0.8125 7.5625 C-1 5 -1 5 -0.8125 2.1875 C-0.544375 1.465625 -0.27625 0.74375 0 0 Z " fill="#4A4240" transform="translate(276,222)"/>
<path d="M0 0 C1.43158447 -0.00945648 1.43158447 -0.00945648 2.89208984 -0.019104 C3.92543457 -0.01505554 4.9587793 -0.01100708 6.0234375 -0.00683594 C7.08127441 -0.00874939 8.13911133 -0.01066284 9.22900391 -0.01263428 C11.46842689 -0.01399696 13.70785776 -0.01029476 15.94726562 -0.00195312 C19.38429427 0.00874504 22.8208002 -0.00184581 26.2578125 -0.01464844 C28.42968866 -0.01332686 30.60156449 -0.0107645 32.7734375 -0.00683594 C33.80678223 -0.0108844 34.84012695 -0.01493286 35.90478516 -0.019104 C36.8591748 -0.01279968 37.81356445 -0.00649536 38.796875 0 C39.63911621 0.00159119 40.48135742 0.00318237 41.34912109 0.00482178 C43.3984375 0.25878906 43.3984375 0.25878906 45.3984375 2.25878906 C45.6484375 4.75878906 45.6484375 4.75878906 45.3984375 7.25878906 C42.94282593 9.71440063 42.27744139 9.51104474 38.90454102 9.51757812 C37.97339981 9.52388245 37.04225861 9.53018677 36.082901 9.53668213 C34.57040016 9.53060944 34.57040016 9.53060944 33.02734375 9.52441406 C31.99407455 9.52632751 30.96080536 9.52824097 29.89622498 9.5302124 C27.70807655 9.53157515 25.51992006 9.52787249 23.33178711 9.51953125 C19.97816823 9.50884397 16.62508639 9.51941809 13.27148438 9.53222656 C11.14843631 9.53090477 9.02538859 9.52834197 6.90234375 9.52441406 C5.39287926 9.53048676 5.39287926 9.53048676 3.85292053 9.53668213 C2.91862717 9.53037781 1.9843338 9.52407349 1.02172852 9.51757812 C0.19947281 9.51598694 -0.6227829 9.51439575 -1.46995544 9.51275635 C-3.6015625 9.25878906 -3.6015625 9.25878906 -6.6015625 7.25878906 C-6.9140625 4.75878906 -6.9140625 4.75878906 -6.6015625 2.25878906 C-4.12591215 -0.21686129 -3.40850517 0.00643945 0 0 Z " fill="#4B4341" transform="translate(409.6015625,432.7412109375)"/>
<path d="M0 0 C2.75059381 -0.08107646 5.49879021 -0.14052813 8.25 -0.1875 C9.02730469 -0.21263672 9.80460937 -0.23777344 10.60546875 -0.26367188 C14.04245419 -0.30773579 16.3950313 -0.29919136 19.51171875 1.2421875 C21.86048668 4.01632285 21.60795197 6.19801763 21.46484375 9.70703125 C20.68536714 13.55201252 18.81367701 15.32030761 16 18 C12.69005287 19.65497356 9.00877 19.10084335 5.375 19.0625 C4.57320313 19.05798828 3.77140625 19.05347656 2.9453125 19.04882812 C0.96350994 19.03703168 -1.01825433 19.01909605 -3 19 C-2.68926976 16.77058595 -2.37634375 14.54147788 -2.0625 12.3125 C-1.88847656 11.07113281 -1.71445312 9.82976562 -1.53515625 8.55078125 C-1.10177103 5.67525452 -0.60350718 2.84355187 0 0 Z " fill="#FCF4E7" transform="translate(436,285)"/>
<path d="M0 0 C0.70914551 0.01240723 1.41829102 0.02481445 2.14892578 0.03759766 C17.50826126 0.38326126 17.50826126 0.38326126 20.375 3.25 C20.625 5.75 20.625 5.75 20.375 8.25 C17.65847634 10.96652366 16.17412908 10.50785302 12.37890625 10.515625 C10.58163086 10.51949219 10.58163086 10.51949219 8.74804688 10.5234375 C7.49056641 10.51570312 6.23308594 10.50796875 4.9375 10.5 C3.05708008 10.51160156 3.05708008 10.51160156 1.13867188 10.5234375 C-0.06080078 10.52085937 -1.26027344 10.51828125 -2.49609375 10.515625 C-3.59880615 10.51336914 -4.70151855 10.51111328 -5.83764648 10.50878906 C-8.625 10.25 -8.625 10.25 -11.625 8.25 C-12.0625 5.8125 -12.0625 5.8125 -11.625 3.25 C-8.24022377 -0.33939746 -4.63379291 -0.1439604 0 0 Z " fill="#544A46" transform="translate(337.625,127.75)"/>
<path d="M0 0 C1.30517578 0.00322266 2.61035156 0.00644531 3.95507812 0.00976562 C5.25638672 -0.00634766 6.55769531 -0.02246094 7.8984375 -0.0390625 C9.76532227 -0.0400293 9.76532227 -0.0400293 11.66992188 -0.04101562 C12.81452881 -0.04399658 13.95913574 -0.04697754 15.13842773 -0.05004883 C18.01757812 0.32226562 18.01757812 0.32226562 19.92602539 1.71606445 C21.01757812 3.32226562 21.01757812 3.32226562 20.83007812 5.38476562 C20.01757812 7.32226562 20.01757812 7.32226562 18.01757812 9.32226562 C15.16015625 9.58105469 15.16015625 9.58105469 11.54882812 9.58789062 C10.25589844 9.59046875 8.96296875 9.59304687 7.63085938 9.59570312 C6.95619629 9.59151367 6.2815332 9.58732422 5.58642578 9.58300781 C3.52541655 9.57230632 1.46527893 9.58290505 -0.59570312 9.59570312 C-1.88863281 9.593125 -3.1815625 9.59054688 -4.51367188 9.58789062 C-5.70541016 9.58563477 -6.89714844 9.58337891 -8.125 9.58105469 C-10.98242188 9.32226562 -10.98242188 9.32226562 -12.98242188 7.32226562 C-12.14336536 -1.06829956 -7.1385033 0.04070686 0 0 Z " fill="#504743" transform="translate(261.982421875,128.677734375)"/>
<path d="M0 0 C0.86751892 -0.00311188 1.73503784 -0.00622375 2.62884521 -0.00942993 C4.07834564 -0.00645401 4.07834564 -0.00645401 5.55712891 -0.00341797 C6.59274963 -0.00473724 7.62837036 -0.00605652 8.69537354 -0.00741577 C12.22484031 -0.00937791 15.75423218 -0.00285678 19.28369141 0.00439453 C20.50368835 0.00528076 21.7236853 0.00616699 22.98065186 0.00708008 C63.95811355 0.04119461 104.93488127 0.62799849 145.90869141 1.12939453 C145.90869141 1.45939453 145.90869141 1.78939453 145.90869141 2.12939453 C132.38940541 2.26120162 118.87010725 2.39167929 105.35079288 2.52054596 C99.07052555 2.58044966 92.79026297 2.64077956 86.51000977 2.70214844 C80.42804874 2.76156289 74.3460772 2.81977306 68.26409721 2.87721252 C65.96536296 2.89912153 63.66663252 2.92143545 61.36790657 2.94419861 C49.37043737 3.06272658 37.3733287 3.15259333 25.37524414 3.17041016 C24.36050805 3.17325264 23.34577196 3.17609512 22.30028629 3.17902374 C0.90390311 3.18477772 0.90390311 3.18477772 -6.09130859 1.12939453 C-3.80320617 -0.01465668 -2.54304304 0.00270329 0 0 Z " fill="#958976" transform="translate(409.09130859375,243.87060546875)"/>
<path d="M0 0 C2.5 0.5625 2.5 0.5625 4.8125 2.5 C7.08099461 6.61689762 7.21783386 9.95500827 6.5 14.5625 C5.3410416 16.98119578 4.37677904 18.68572096 2.5 20.5625 C-0.375 20.875 -0.375 20.875 -3.5 20.5625 C-5.78783421 18.30681334 -6.45204249 16.88048854 -6.93359375 13.6875 C-6.93488281 12.65625 -6.93617188 11.625 -6.9375 10.5625 C-6.95683594 9.53125 -6.97617187 8.5 -6.99609375 7.4375 C-6.2592839 3.16748384 -4.24085023 0.9541913 0 0 Z " fill="#4D4542" transform="translate(340.5,149.4375)"/>
<path d="M0 0 C2.5 0.625 2.5 0.625 4.8125 2.5625 C7.08099461 6.67939762 7.21783386 10.01750827 6.5 14.625 C5.3410416 17.04369578 4.37677904 18.74822096 2.5 20.625 C-0.375 21 -0.375 21 -3.5 20.625 C-6.47287194 17.65212806 -6.75057015 14.66509684 -6.9375 10.625 C-6.822774 7.13107182 -6.5165225 5.65559722 -4.8125 2.5 C-2.5 0.625 -2.5 0.625 0 0 Z " fill="#4D4441" transform="translate(268.5,149.375)"/>
<path d="M0 0 C0.11819618 7.08438356 -0.34155976 14.01096097 -1 21.0625 C-1.09539062 22.11888672 -1.19078125 23.17527344 -1.2890625 24.26367188 C-1.52246739 26.84279586 -1.75951743 29.42152799 -2 32 C-2.99 32 -3.98 32 -5 32 C-4.85820312 31.44054687 -4.71640625 30.88109375 -4.5703125 30.3046875 C-3.20657055 22.86392 -5.3809444 17.79027128 -8.5546875 11.19921875 C-9.82435294 8.38879715 -10.55627742 6.03210428 -11 3 C-9.54293274 2.49632243 -8.08429904 1.99717444 -6.625 1.5 C-5.81289063 1.2215625 -5.00078125 0.943125 -4.1640625 0.65625 C-2 0 -2 0 0 0 Z " fill="#F3ECE1" transform="translate(365,353)"/>
<path d="M0 0 C0.33 0.66 0.66 1.32 1 2 C0.12319565 3.47530561 -0.82941084 4.9057846 -1.8125 6.3125 C-4.27610242 10.25111619 -5.40359737 13.24270675 -5.875 17.8515625 C-6.97124399 25.95595824 -9.53324752 33.36471096 -12.1875 41.0625 C-13.13051315 43.79949172 -14.0595823 46.54065206 -14.98046875 49.28515625 C-15.39192139 50.48019775 -15.80337402 51.67523926 -16.22729492 52.90649414 C-16.96685619 55.86730955 -17.10431924 57.2131546 -16 60 C-16.66 60 -17.32 60 -18 60 C-18.33 60.66 -18.66 61.32 -19 62 C-18.01 62.33 -17.02 62.66 -16 63 C-18.64738916 64.4606285 -19.89448334 65 -23 65 C-23.66 66.65 -24.32 68.3 -25 70 C-25.33 69.34 -25.66 68.68 -26 68 C-25.21484375 65.890625 -25.21484375 65.890625 -23.9375 63.25 C-23.47085938 62.25226562 -23.00421875 61.25453125 -22.5234375 60.2265625 C-21.76933594 58.62941406 -21.76933594 58.62941406 -21 57 C-14.82245491 43.88510482 -9.79724844 29.76873702 -8.0625 15.3125 C-7.22460621 9.05082061 -3.9562115 4.78130373 0 0 Z " fill="#E6D9BC" transform="translate(560,464)"/>
<path d="M0 0 C-5.16013967 2.75122926 -10.3857658 5.19355918 -15.81933594 7.34667969 C-35.03759514 14.97550457 -52.84099862 24.7825515 -68 39 C-68 36 -68 36 -66.125 33.75 C-56.75210462 25.02440403 -12.65087984 -6.32543992 0 0 Z " fill="#EFE3C7" transform="translate(157,293)"/>
<path d="M0 0 C0.66 0 1.32 0 2 0 C2 10.56 2 21.12 2 32 C1.34 32 0.68 32 0 32 C-1.06637334 28.80087999 -1.12921706 26.4862254 -1.1328125 23.125 C-1.13410156 21.97515625 -1.13539063 20.8253125 -1.13671875 19.640625 C-1.13285156 18.43921875 -1.12898437 17.2378125 -1.125 16 C-1.13080078 14.19789062 -1.13080078 14.19789062 -1.13671875 12.359375 C-1.13542969 11.20953125 -1.13414062 10.0596875 -1.1328125 8.875 C-1.13168457 7.82054688 -1.13055664 6.76609375 -1.12939453 5.6796875 C-1 3 -1 3 0 0 Z " fill="#8A806F" transform="translate(180,89)"/>
<path d="M0 0 C0.71800781 0.0721875 1.43601562 0.144375 2.17578125 0.21875 C12.12908942 1.11120104 22.01454075 1.09489877 32 1 C32 1.66 32 2.32 32 3 C21.15069396 4.70185193 10.71669638 4.40535069 0 2 C0 1.34 0 0.68 0 0 Z " fill="#D9D1C1" transform="translate(447,585)"/>
<path d="M0 0 C0.33 0 0.66 0 1 0 C1 7.26 1 14.52 1 22 C0.34 22.33 -0.32 22.66 -1 23 C-2.18955012 18.75321709 -2.18382291 14.75809468 -2.1875 10.375 C-2.19974609 9.59898437 -2.21199219 8.82296875 -2.22460938 8.0234375 C-2.22984167 6.01423638 -2.12248735 4.00547086 -2 2 C-1.34 1.34 -0.68 0.68 0 0 Z " fill="#8A8278" transform="translate(43,503)"/>
<path d="M0 0 C1.4540625 0.0309375 1.4540625 0.0309375 2.9375 0.0625 C2.9375 0.3925 2.9375 0.7225 2.9375 1.0625 C11.8475 2.5475 11.8475 2.5475 20.9375 4.0625 C20.9375 4.3925 20.9375 4.7225 20.9375 5.0625 C18.6275 5.3925 16.3175 5.7225 13.9375 6.0625 C13.9375 5.4025 13.9375 4.7425 13.9375 4.0625 C2.7175 3.7325 -8.5025 3.4025 -20.0625 3.0625 C-20.0625 2.7325 -20.0625 2.4025 -20.0625 2.0625 C-18.91910156 2.00191406 -17.77570313 1.94132813 -16.59765625 1.87890625 C-15.10675695 1.79451572 -13.61587225 1.70986698 -12.125 1.625 C-11.37025391 1.58568359 -10.61550781 1.54636719 -9.83789062 1.50585938 C-6.18983161 1.29319226 -3.41264921 0.0696459 0 0 Z " fill="#C9B490" transform="translate(292.0625,1.9375)"/>
<path d="M0 0 C1.04220703 -0.01224609 2.08441406 -0.02449219 3.15820312 -0.03710938 C8.43091119 -0.0471654 12.89115539 0.0370679 17.8125 2.1875 C14.50937244 3.22397521 11.8238553 3.17190578 8.390625 2.84765625 C6.85341797 2.7074707 6.85341797 2.7074707 5.28515625 2.56445312 C3.68994141 2.40879883 3.68994141 2.40879883 2.0625 2.25 C0.44408203 2.10014648 0.44408203 2.10014648 -1.20703125 1.94726562 C-3.86781187 1.70002495 -6.52784775 1.44655292 -9.1875 1.1875 C-9.1875 1.8475 -9.1875 2.5075 -9.1875 3.1875 C-9.8475 3.1875 -10.5075 3.1875 -11.1875 3.1875 C-11.1875 4.8375 -11.1875 6.4875 -11.1875 8.1875 C-11.5175 8.1875 -11.8475 8.1875 -12.1875 8.1875 C-12.22991723 5.85455225 -12.22842937 3.52047433 -12.1875 1.1875 C-9.73932806 -1.26067194 -3.28752481 0.00199607 0 0 Z " fill="#433B39" transform="translate(439.1875,274.8125)"/>
<path d="M0 0 C0.66 0.33 1.32 0.66 2 1 C-1.77900226 6.57852714 -5.40075202 10.26716801 -11 14 C-11.33 14.66 -11.66 15.32 -12 16 C-12.66 15.67 -13.32 15.34 -14 15 C-12.7260411 12.96166576 -11.38938077 10.96147874 -10 9 C-9.34 9 -8.68 9 -8 9 C-7.79375 8.443125 -7.5875 7.88625 -7.375 7.3125 C-5.44999226 4.07498698 -2.96149098 2.31768859 0 0 Z " fill="#A69B88" transform="translate(197,262)"/>
<path d="M0 0 C0.66 0.33 1.32 0.66 2 1 C0.46356148 4.68069887 -1.78150945 6.98775204 -4.625 9.75 C-5.85089844 10.94882812 -5.85089844 10.94882812 -7.1015625 12.171875 C-7.72804687 12.77515625 -8.35453125 13.3784375 -9 14 C-9.99 13.67 -10.98 13.34 -12 13 C-10.56354149 11.39490066 -9.12579294 9.79095576 -7.6875 8.1875 C-6.88699219 7.29417969 -6.08648437 6.40085937 -5.26171875 5.48046875 C-3.54775419 3.60073214 -1.82122396 1.77407253 0 0 Z " fill="#6F665B" transform="translate(211,28)"/>
<path d="M0 0 C2.40802782 7.70186675 1.49565341 17.1478196 0 25 C-2.38005939 21.27879603 -2.26733337 17.9670082 -2.25 13.625 C-2.25515625 12.33851563 -2.2603125 11.05203125 -2.265625 9.7265625 C-2.00947024 6.13286185 -1.30334733 3.34112053 0 0 Z " fill="#9C917D" transform="translate(175,144)"/>
<path d="M0 0 C1.32 0.66 2.64 1.32 4 2 C4 2.66 4 3.32 4 4 C3.34 4 2.68 4 2 4 C1.67 4.66 1.34 5.32 1 6 C1.99 6.33 2.98 6.66 4 7 C1.35261084 8.4606285 0.10551666 9 -3 9 C-3.66 10.65 -4.32 12.3 -5 14 C-5.33 13.34 -5.66 12.68 -6 12 C-4.78515625 9.1796875 -4.78515625 9.1796875 -3.0625 5.875 C-2.49660156 4.77929688 -1.93070313 3.68359375 -1.34765625 2.5546875 C-0.90292969 1.71164062 -0.45820312 0.86859375 0 0 Z " fill="#EEDEC4" transform="translate(540,520)"/>
<path d="M0 0 C0 0.66 0 1.32 0 2 C-0.66386719 2.00257813 -1.32773438 2.00515625 -2.01171875 2.0078125 C-7.22625453 2.09732059 -7.22625453 2.09732059 -11.70703125 4.40234375 C-12.86533352 5.88958986 -13.93908823 7.44178584 -15 9 C-15.66 9 -16.32 9 -17 9 C-14.22008375 -0.09790773 -8.46400786 -0.5916588 0 0 Z " fill="#E4CCA9" transform="translate(200,142)"/>
<path d="M0 0 C1.65 0 3.3 0 5 0 C5 0.33 5 0.66 5 1 C3.35 1 1.7 1 0 1 C0 0.67 0 0.34 0 0 Z M0 1 C-3.33333333 3.66666667 -6.66666667 6.33333333 -10 9 C-10.33 8.34 -10.66 7.68 -11 7 C-8.89230722 1.37948593 -5.63928618 0.74936506 0 1 Z " fill="#675C54" transform="translate(407,245)"/>
<path d="M0 0 C0.66 0 1.32 0 2 0 C2.18175781 1.24716797 2.18175781 1.24716797 2.3671875 2.51953125 C2.61855469 4.14955078 2.61855469 4.14955078 2.875 5.8125 C3.03742188 6.89144531 3.19984375 7.97039062 3.3671875 9.08203125 C3.85132338 12.17321793 3.85132338 12.17321793 6 15 C5.01 15 4.02 15 3 15 C-0.16727335 9.8531808 -0.35050464 5.841744 0 0 Z " fill="#59504B" transform="translate(346,436)"/>
<path d="M0 0 C0.33 0 0.66 0 1 0 C1.09945415 6.11090483 1.0712828 11.97403427 0 18 C-0.33 18 -0.66 18 -1 18 C-1.89137992 12.07575193 -2.05586391 6.91283789 -1 1 C-0.67 0.67 -0.34 0.34 0 0 Z " fill="#70645A" transform="translate(559,299)"/>
<path d="M0 0 C2.475 0.99 2.475 0.99 5 2 C5 2.99 5 3.98 5 5 C5.66 5 6.32 5 7 5 C7.28875 5.61875 7.5775 6.2375 7.875 6.875 C8.93720042 9.13325765 8.93720042 9.13325765 11 11 C5.55090172 10.0605003 3.18965284 6.28953313 0 2 C0 1.34 0 0.68 0 0 Z " fill="#867D6E" transform="translate(348,277)"/>
<path d="M0 0 C0.33 0.66 0.66 1.32 1 2 C1.66 2 2.32 2 3 2 C3.86627399 3.59766103 4.71766465 5.20339944 5.5625 6.8125 C6.27599609 8.15248047 6.27599609 8.15248047 7.00390625 9.51953125 C8 12 8 12 7 15 C6.34 14.34 5.68 13.68 5 13 C5 12.01 5 11.02 5 10 C4.34 10 3.68 10 3 10 C0 3.375 0 3.375 0 0 Z " fill="#776C61" transform="translate(176,172)"/>
<path d="M0 0 C2.9787979 0.33097754 5.35930766 0.6073176 7.9375 2.1875 C9.551632 4.94101929 8.73199739 7.00546522 8 10 C6 6.25 6 6.25 6 4 C3.03 3.505 3.03 3.505 0 3 C0 2.01 0 1.02 0 0 Z " fill="#82786A" transform="translate(196,195)"/>
<path d="M0 0 C0.66 0 1.32 0 2 0 C2.09038099 5.15171623 1.84681133 9.91913204 1 15 C0.67 15 0.34 15 0 15 C-0.19517554 13.06325815 -0.38087873 11.12555991 -0.5625 9.1875 C-0.66691406 8.10855469 -0.77132813 7.02960938 -0.87890625 5.91796875 C-1 3 -1 3 0 0 Z " fill="#72695E" transform="translate(392,278)"/>
<path d="M0 0 C0.66 1.32 1.32 2.64 2 4 C1.0925 3.79375 0.185 3.5875 -0.75 3.375 C-4.11621369 2.98659073 -5.32009821 3.01488756 -8 5 C-8.33 5.99 -8.66 6.98 -9 8 C-8.64005447 5.3364031 -8.28838998 3.41816548 -6.75 1.1875 C-4.41988723 -0.39364795 -2.75498245 -0.22337696 0 0 Z " fill="#5A504B" transform="translate(343,150)"/>
<path d="M0 0 C0.33 0 0.66 0 1 0 C1.11269443 6.1105424 0.89604368 11.95170514 0 18 C-0.33 18 -0.66 18 -1 18 C-1.33 14.04 -1.66 10.08 -2 6 C-1.34 6 -0.68 6 0 6 C0 4.02 0 2.04 0 0 Z " fill="#847B74" transform="translate(54,461)"/>
<path d="M0 0 C1.65 0 3.3 0 5 0 C3.55746343 3.36591866 1.66735273 5.51047079 -1 8 C-0.67 5.36 -0.34 2.72 0 0 Z " fill="#EEE9E0" transform="translate(299,447)"/>
<path d="M0 0 C4.875 0.875 4.875 0.875 6 2 C6.07226502 3.85287502 6.0838122 5.70833878 6.0625 7.5625 C6.05347656 8.57441406 6.04445312 9.58632813 6.03515625 10.62890625 C6.02355469 11.41136719 6.01195312 12.19382812 6 13 C4 10 4 10 4.125 7.0625 C4.30794694 3.87368977 4.30794694 3.87368977 2 1.625 C1.34 1.08875 0.68 0.5525 0 0 Z " fill="#5C524C" transform="translate(141,428)"/>
<path d="M0 0 C0.68359375 1.765625 0.68359375 1.765625 1 4 C-0.21484375 5.921875 -0.21484375 5.921875 -1.9375 7.75 C-2.50339844 8.36359375 -3.06929688 8.9771875 -3.65234375 9.609375 C-4.31943359 10.29773438 -4.31943359 10.29773438 -5 11 C-5.33 9.68 -5.66 8.36 -6 7 C-5.34 7 -4.68 7 -4 7 C-3.71125 6.401875 -3.4225 5.80375 -3.125 5.1875 C-2 3 -2 3 0 0 Z " fill="#7C7265" transform="translate(353,250)"/>
<path d="M0 0 C0.66 0 1.32 0 2 0 C3.171875 5.76171875 3.171875 5.76171875 3 8 C1.68 9.65 0.36 11.3 -1 13 C-0.67 8.71 -0.34 4.42 0 0 Z " fill="#B3A998" transform="translate(47,436)"/>
<path d="M0 0 C0 0.33 0 0.66 0 1 C-0.69867188 1.13277344 -1.39734375 1.26554688 -2.1171875 1.40234375 C-3.02726562 1.57894531 -3.93734375 1.75554688 -4.875 1.9375 C-5.77992188 2.11152344 -6.68484375 2.28554687 -7.6171875 2.46484375 C-9.99956317 2.89963701 -9.99956317 2.89963701 -12 4 C-13.67654729 3.72057545 -15.34608154 3.39171753 -17 3 C-11.41161911 -0.10465605 -6.24532781 -0.10585301 0 0 Z " fill="#9D8F77" transform="translate(272,5)"/>
<path d="M0 0 C1.65322266 0.01740234 1.65322266 0.01740234 3.33984375 0.03515625 C4.99693359 0.04869141 4.99693359 0.04869141 6.6875 0.0625 C7.54214844 0.07410156 8.39679688 0.08570313 9.27734375 0.09765625 C9.27734375 0.42765625 9.27734375 0.75765625 9.27734375 1.09765625 C5.97734375 1.09765625 2.67734375 1.09765625 -0.72265625 1.09765625 C-0.72265625 1.75765625 -0.72265625 2.41765625 -0.72265625 3.09765625 C-1.38265625 3.09765625 -2.04265625 3.09765625 -2.72265625 3.09765625 C-2.72265625 4.74765625 -2.72265625 6.39765625 -2.72265625 8.09765625 C-3.05265625 8.09765625 -3.38265625 8.09765625 -3.72265625 8.09765625 C-3.76507348 5.7647085 -3.76358562 3.43063058 -3.72265625 1.09765625 C-2.72265625 0.09765625 -2.72265625 0.09765625 0 0 Z " fill="#383030" transform="translate(430.72265625,274.90234375)"/>
<path d="M0 0 C0.66 0 1.32 0 2 0 C1.74438677 2.3431213 1.40729228 4.67843403 1 7 C-1.70879335 8.35439668 -4.00933268 8.06501451 -7 8 C-7 7.34 -7 6.68 -7 6 C-5.02 5.67 -3.04 5.34 -1 5 C-0.67 3.35 -0.34 1.7 0 0 Z " fill="#B7AD97" transform="translate(182,279)"/>
<path d="M0 0 C3.56756757 4.75675676 3.56756757 4.75675676 4 8 C3.67 8.66 3.34 9.32 3 10 C2.34 10 1.68 10 1 10 C0.67 6.7 0.34 3.4 0 0 Z " fill="#605750" transform="translate(390,63)"/>
<path d="M0 0 C0.66 0.99 1.32 1.98 2 3 C0.7260411 5.03833424 -0.61061923 7.03852126 -2 9 C-2.66 9 -3.32 9 -4 9 C-2.94124926 5.59687262 -1.99097846 2.98646769 0 0 Z " fill="#E0D9D0" transform="translate(474,483)"/>
<path d="M0 0 C0.66 0.33 1.32 0.66 2 1 C2 1.99 2 2.98 2 4 C1.34 4 0.68 4 0 4 C-0.12375 4.969375 -0.2475 5.93875 -0.375 6.9375 C-0.58125 7.948125 -0.7875 8.95875 -1 10 C-1.99 10.495 -1.99 10.495 -3 11 C-2.32829194 7.1936543 -1.27253436 3.64793184 0 0 Z " fill="#9A9285" transform="translate(61,375)"/>
<path d="M0 0 C2.64 0 5.28 0 8 0 C7.67 0.99 7.34 1.98 7 3 C5.125 3.875 5.125 3.875 3 4 C1.25 2.625 1.25 2.625 0 1 C0 0.67 0 0.34 0 0 Z " fill="#6D6560" transform="translate(132,570)"/>
<path d="M0 0 C1.4606285 2.64738916 2 3.89448334 2 7 C1.34 7 0.68 7 0 7 C0 8.98 0 10.96 0 13 C-0.33 13 -0.66 13 -1 13 C-1.07654536 8.48382401 -1.10228696 4.40914783 0 0 Z " fill="#736A64" transform="translate(382,365)"/>
<path d="M0 0 C0.33 0 0.66 0 1 0 C0.67 2.97 0.34 5.94 0 9 C-0.99 9 -1.98 9 -3 9 C-2.01 6.03 -1.02 3.06 0 0 Z " fill="#E0D3BB" transform="translate(543,511)"/>
<path d="M0 0 C0.33 1.32 0.66 2.64 1 4 C-2.22791555 6.1519437 -3.28400809 6.20086443 -7 6 C-6.01 5.67 -5.02 5.34 -4 5 C-4 4.34 -4 3.68 -4 3 C-2.68 3 -1.36 3 0 3 C0 2.01 0 1.02 0 0 Z " fill="#655851" transform="translate(553,407)"/>
<path d="M0 0 C0.66 0.33 1.32 0.66 2 1 C1.67 1.99 1.34 2.98 1 4 C0.34 4 -0.32 4 -1 4 C-0.67 2.68 -0.34 1.36 0 0 Z " fill="#FFE7C7" transform="translate(67,311)"/>
<path d="M0 0 C0.66 0 1.32 0 2 0 C2.33 1.32 2.66 2.64 3 4 C2.01 3.67 1.02 3.34 0 3 C0 2.01 0 1.02 0 0 Z " fill="#FEE7C7" transform="translate(67,305)"/>
<path d="M0 0 C0 0.99 0 1.98 0 3 C-0.66 3 -1.32 3 -2 3 C-2 2.34 -2 1.68 -2 1 C-1.34 0.67 -0.68 0.34 0 0 Z " fill="#FFE7C7" transform="translate(558,541)"/>
<path d="M0 0 C0.99 0.33 1.98 0.66 3 1 C2.34 1.66 1.68 2.32 1 3 C0.67 2.01 0.34 1.02 0 0 Z " fill="#FFE7C7" transform="translate(60,316)"/>
<path d="M0 0 C0.99 0.99 1.98 1.98 3 3 C2.01 2.67 1.02 2.34 0 2 C0 1.34 0 0.68 0 0 Z " fill="#FFD7A4" transform="translate(580,192)"/>
<path d="M0 0 C0.66 0 1.32 0 2 0 C1.67 0.99 1.34 1.98 1 3 C0.67 2.01 0.34 1.02 0 0 Z " fill="#FFD7A4" transform="translate(391,13)"/>
<path d="M0 0 C4 1 4 1 4 1 Z " fill="#FEE7C7" transform="translate(558,544)"/>
<path d="M0 0 C0.99 1.485 0.99 1.485 2 3 C1.34 3 0.68 3 0 3 C0 2.01 0 1.02 0 0 Z " fill="#FFE8C7" transform="translate(567,539)"/>
<path d="M0 0 C0.66 0 1.32 0 2 0 C2 0.66 2 1.32 2 2 C1.34 2 0.68 2 0 2 C0 1.34 0 0.68 0 0 Z " fill="#FFE6C7" transform="translate(68,318)"/>
<path d="M0 0 C0.66 0.66 1.32 1.32 2 2 C1.01 2.495 1.01 2.495 0 3 C0 2.01 0 1.02 0 0 Z " fill="#FFE7C7" transform="translate(65,316)"/>
<path d="M0 0 C0.33 0.66 0.66 1.32 1 2 C0.34 1.67 -0.32 1.34 -1 1 C-0.67 0.67 -0.34 0.34 0 0 Z " fill="#FFE6C7" transform="translate(574,547)"/>
<path d="M0 0 C0.66 0 1.32 0 2 0 C1.67 0.66 1.34 1.32 1 2 C0.67 1.34 0.34 0.68 0 0 Z " fill="#FFE7C7" transform="translate(564,545)"/>
<path d="M0 0 C0.66 0.66 1.32 1.32 2 2 C1.34 2 0.68 2 0 2 C0 1.34 0 0.68 0 0 Z " fill="#FFE6C7" transform="translate(578,542)"/>
<path d="M0 0 C0.66 0.66 1.32 1.32 2 2 C1.34 2 0.68 2 0 2 C0 1.34 0 0.68 0 0 Z " fill="#FEE6C7" transform="translate(545,513)"/>
<path d="M0 0 C0.33 0.66 0.66 1.32 1 2 C0.34 1.67 -0.32 1.34 -1 1 C-0.67 0.67 -0.34 0.34 0 0 Z " fill="#FEE7C7" transform="translate(88,326)"/>
<path d="" fill="#FFE7C7" transform="translate(0,0)"/>
<path d="M0 0 C3 1 3 1 3 1 Z " fill="#FBD3A4" transform="translate(285,2)"/>
<path d="" fill="#FFEFD9" transform="translate(0,0)"/>
<path d="M0 0 C2 1 2 1 2 1 Z " fill="#FDEDD0" transform="translate(436,583)"/>
<path d="M0 0 C2 1 2 1 2 1 Z " fill="#FFE7C7" transform="translate(565,553)"/>
<path d="M0 0 C2 1 2 1 2 1 Z " fill="#FFE7C7" transform="translate(568,545)"/>
<path d="M0 0 C2 1 2 1 2 1 Z " fill="#FFE6C7" transform="translate(569,542)"/>
<path d="M0 0 C2 1 2 1 2 1 Z " fill="#FFE7C7" transform="translate(550,539)"/>
<path d="M0 0 C2 1 2 1 2 1 Z " fill="#FFE7C7" transform="translate(549,515)"/>
<path d="" fill="#FFE7C7" transform="translate(0,0)"/>
<path d="M0 0 C2 1 2 1 2 1 Z " fill="#FFE7C7" transform="translate(88,324)"/>
<path d="" fill="#FFE6C7" transform="translate(0,0)"/>
<path d="M0 0 C2 1 2 1 2 1 Z " fill="#FFE7C8" transform="translate(55,310)"/>
<path d="M0 0 C2 1 2 1 2 1 Z " fill="#FFE6C7" transform="translate(68,284)"/>
<path d="M0 0 C2 1 2 1 2 1 Z " fill="#FCD6A5" transform="translate(356,24)"/>
<path d="M0 0 C2 1 2 1 2 1 Z " fill="#FFD7A5" transform="translate(395,17)"/>
<path d="M0 0 C2 1 2 1 2 1 Z " fill="#FFD8A5" transform="translate(375,15)"/>
<path d="M0 0 C2 1 2 1 2 1 Z " fill="#FED7A5" transform="translate(375,12)"/>
<path d="" fill="#FFD7A5" transform="translate(0,0)"/>
<path d="M0 0 C2 1 2 1 2 1 Z " fill="#FFD7A5" transform="translate(384,10)"/>
<path d="M0 0 C2 1 2 1 2 1 Z " fill="#FED2A5" transform="translate(279,2)"/>
<path d="" fill="#FFEFD9" transform="translate(0,0)"/>
<path d="" fill="#FFF0D9" transform="translate(0,0)"/>
<path d="" fill="#FFEED9" transform="translate(0,0)"/>
<path d="" fill="#FFEFD9" transform="translate(0,0)"/>
<path d="" fill="#FFF0D9" transform="translate(0,0)"/>
<path d="" fill="#FCECD3" transform="translate(0,0)"/>
<path d="" fill="#FFE7C7" transform="translate(0,0)"/>
<path d="" fill="#FFE7C7" transform="translate(0,0)"/>
<path d="" fill="#FFE7C7" transform="translate(0,0)"/>
<path d="" fill="#FFE7C7" transform="translate(0,0)"/>
<path d="" fill="#FFE7C7" transform="translate(0,0)"/>
<path d="" fill="#FFE6C7" transform="translate(0,0)"/>
<path d="" fill="#FFE6C7" transform="translate(0,0)"/>
<path d="" fill="#FFE8C8" transform="translate(0,0)"/>
<path d="" fill="#FFE7C7" transform="translate(0,0)"/>
<path d="" fill="#FFE6C7" transform="translate(0,0)"/>
<path d="" fill="#FFE5C7" transform="translate(0,0)"/>
<path d="" fill="#FFE7C7" transform="translate(0,0)"/>
<path d="" fill="#FFE8C7" transform="translate(0,0)"/>
<path d="" fill="#FEE7C7" transform="translate(0,0)"/>
<path d="" fill="#FEE9C7" transform="translate(0,0)"/>
<path d="" fill="#FFE8C7" transform="translate(0,0)"/>
<path d="" fill="#FFE7C7" transform="translate(0,0)"/>
<path d="" fill="#FFE8C8" transform="translate(0,0)"/>
<path d="" fill="#FFE8C7" transform="translate(0,0)"/>
<path d="" fill="#FFE7C7" transform="translate(0,0)"/>
<path d="" fill="#FFE7C7" transform="translate(0,0)"/>
<path d="" fill="#FFE7C7" transform="translate(0,0)"/>
<path d="" fill="#FFE7C7" transform="translate(0,0)"/>
<path d="" fill="#FFE6C7" transform="translate(0,0)"/>
<path d="" fill="#FFE8C7" transform="translate(0,0)"/>
<path d="" fill="#FFE9C7" transform="translate(0,0)"/>
<path d="" fill="#FFE7C7" transform="translate(0,0)"/>
<path d="" fill="#FFE7C7" transform="translate(0,0)"/>
<path d="" fill="#FFE8C7" transform="translate(0,0)"/>
<path d="" fill="#FFE7C7" transform="translate(0,0)"/>
<path d="" fill="#FFE6C7" transform="translate(0,0)"/>
<path d="" fill="#FFE7C7" transform="translate(0,0)"/>
<path d="" fill="#FFE7C7" transform="translate(0,0)"/>
<path d="" fill="#FFE5C7" transform="translate(0,0)"/>
<path d="" fill="#FFE7C7" transform="translate(0,0)"/>
<path d="" fill="#FFE7C7" transform="translate(0,0)"/>
<path d="" fill="#FFE7C7" transform="translate(0,0)"/>
<path d="" fill="#FFE7C7" transform="translate(0,0)"/>
<path d="" fill="#FFE8C7" transform="translate(0,0)"/>
<path d="" fill="#FFE7C7" transform="translate(0,0)"/>
<path d="" fill="#FFE8C7" transform="translate(0,0)"/>
<path d="" fill="#FFE7C7" transform="translate(0,0)"/>
<path d="" fill="#FFE7C7" transform="translate(0,0)"/>
<path d="" fill="#FFD7A5" transform="translate(0,0)"/>
<path d="" fill="#FFD7A5" transform="translate(0,0)"/>
<path d="" fill="#FED7A4" transform="translate(0,0)"/>
<path d="" fill="#FFD7A5" transform="translate(0,0)"/>
<path d="" fill="#FFD8A5" transform="translate(0,0)"/>
<path d="" fill="#FFD7A5" transform="translate(0,0)"/>
<path d="" fill="#FFD8A5" transform="translate(0,0)"/>
<path d="" fill="#FED6A4" transform="translate(0,0)"/>
<path d="" fill="#FFD6A4" transform="translate(0,0)"/>
<path d="" fill="#FDD6A5" transform="translate(0,0)"/>
<path d="" fill="#FED9A5" transform="translate(0,0)"/>
<path d="" fill="#FED6A5" transform="translate(0,0)"/>
<path d="" fill="#FFD9A5" transform="translate(0,0)"/>
<path d="" fill="#FFD8A5" transform="translate(0,0)"/>
<path d="" fill="#FFD8A5" transform="translate(0,0)"/>
<path d="" fill="#FFD8A5" transform="translate(0,0)"/>
<path d="" fill="#FFD8A5" transform="translate(0,0)"/>
<path d="" fill="#FFD8A5" transform="translate(0,0)"/>
<path d="" fill="#FFD8A5" transform="translate(0,0)"/>
<path d="" fill="#FFD9A5" transform="translate(0,0)"/>
<path d="" fill="#FFD8A5" transform="translate(0,0)"/>
<path d="" fill="#FED7A5" transform="translate(0,0)"/>
<path d="" fill="#FDD9A4" transform="translate(0,0)"/>
<path d="" fill="#FFD3A4" transform="translate(0,0)"/>
<path d="" fill="#FDD3A5" transform="translate(0,0)"/>
</svg>
