<?xml version="1.0" encoding="UTF-8"?>
<svg version="1.1" xmlns="http://www.w3.org/2000/svg" width="1024" height="1024">
<path d="M0 0 C1.23084024 -0.00175304 2.46168048 -0.00350607 3.72981891 -0.00531223 C7.14926506 -0.00916513 10.56865748 -0.00854239 13.98810138 -0.00603446 C17.70713801 -0.0044007 21.42616895 -0.00854279 25.14520377 -0.01194364 C31.66440177 -0.01709791 38.18359234 -0.01851479 44.70279217 -0.01748753 C54.39715016 -0.01596366 64.09149992 -0.020122 73.78585632 -0.02536215 C92.1066049 -0.03503837 110.42735068 -0.03784649 128.74810151 -0.03841921 C142.89449473 -0.03887855 157.04088684 -0.04093582 171.1872797 -0.04411983 C175.25759607 -0.04501736 179.32791245 -0.04590718 183.39822882 -0.04679471 C184.91601485 -0.04712628 184.91601485 -0.04712628 186.46446322 -0.04746456 C214.93001608 -0.05361962 243.39556857 -0.05756503 271.86112213 -0.05712128 C272.93456438 -0.0571057 274.00800664 -0.05709012 275.11397744 -0.05707407 C280.55477681 -0.05699096 285.99557617 -0.05689192 291.43637554 -0.05678936 C292.51696138 -0.05676942 293.59754723 -0.05674947 294.7108781 -0.05672892 C296.89608606 -0.05668848 299.08129403 -0.05664669 301.266502 -0.05660353 C335.27028899 -0.05599068 369.27406601 -0.06349884 403.27785015 -0.07717609 C441.46999093 -0.09253164 479.66212515 -0.10114264 517.85426921 -0.10021287 C521.92552865 -0.10013824 525.99678808 -0.10008953 530.06804752 -0.10005856 C531.5717488 -0.10004107 531.5717488 -0.10004107 533.10582788 -0.10002324 C549.24816462 -0.09999245 565.39049271 -0.10638219 581.53282688 -0.11499082 C597.75163325 -0.12346144 613.97042694 -0.12446188 630.18923429 -0.1178815 C639.82750659 -0.11418198 649.46574043 -0.11603021 659.10400866 -0.12582384 C665.54112614 -0.13181271 671.9782157 -0.13054055 678.41533189 -0.12335334 C682.08361583 -0.11946261 685.75182524 -0.11872269 689.420104 -0.12681069 C693.37318959 -0.13545035 697.32616295 -0.12859877 701.2792511 -0.12025452 C702.41573482 -0.1252227 703.55221854 -0.13019088 704.72314116 -0.13530961 C719.99315334 -0.06695739 732.33866474 3.89600197 743.57057476 14.6403532 C753.55055158 25.63904738 756.98860945 37.55754925 756.96260834 52.09499073 C756.96496057 52.99146832 756.9673128 53.8879459 756.96973631 54.81158948 C756.97641021 57.82517109 756.97596857 60.83870941 756.97555828 63.85229778 C756.97885789 66.03094386 756.98258367 68.20958933 756.98669976 70.38823402 C756.99671655 76.38294402 757.00043603 82.377644 757.00308907 88.37236118 C757.00699299 94.83471763 757.01657118 101.29706615 757.02530193 107.75941753 C757.04440992 122.63079511 757.05432132 137.50217388 757.06276261 152.37356076 C757.06697079 159.7237871 757.07219253 167.07401263 757.07744714 174.42423828 C757.09533545 199.58908439 757.11033141 224.75393073 757.11776733 249.91878223 C757.11824209 251.49821343 757.11871798 253.07764462 757.119195 254.65707581 C757.11954956 255.83194585 757.11954956 255.83194585 757.11991129 257.03055063 C757.12111247 260.99879212 757.12232793 264.9670336 757.12355328 268.93527508 C757.12379343 269.72278044 757.12403358 270.51028579 757.124281 271.32165495 C757.13217415 296.85515873 757.15560727 322.38861607 757.18810922 347.92209957 C757.22241643 374.9231218 757.24211925 401.92411686 757.24541157 428.92516124 C757.24582911 431.88992652 757.24630867 434.85469179 757.24683475 437.81945705 C757.24695795 438.54945558 757.24708114 439.27945411 757.24720806 440.0315738 C757.24953885 451.77269098 757.26519188 463.51375415 757.2856766 475.25485209 C757.30594458 487.05909233 757.31107415 498.86326219 757.30190597 510.66751666 C757.29735649 517.0608526 757.29928558 523.45401333 757.31866741 529.84732533 C757.33626474 535.70255207 757.33532889 541.55747535 757.31977012 547.41270517 C757.31738889 549.52847598 757.32174421 551.64426762 757.33359877 553.76000656 C757.41487872 569.22710667 756.18716984 583.67001206 745.45338726 595.81613445 C744.58713726 596.57925945 743.72088726 597.34238445 742.82838726 598.12863445 C742.0414146 598.86726727 742.0414146 598.86726727 741.23854351 599.62082195 C732.21439134 607.84691985 722.45405036 610.36669938 710.49244976 610.74753094 C709.45488537 610.78520045 708.41732098 610.82286997 707.34831524 610.86168098 C693.40956416 611.31191518 679.46324903 611.25644583 665.51907253 611.23002839 C661.57538569 611.22366299 657.63169759 611.22318086 653.6880064 611.22200298 C646.26207006 611.21892773 638.83614892 611.21076715 631.41021919 611.20065349 C622.9382419 611.18937224 614.46626378 611.18395203 605.99428082 611.17895806 C588.60564093 611.16858013 571.21701571 611.15105661 553.82838726 611.12863445 C553.83362408 612.31827801 553.83886089 613.50792156 553.8442564 614.73361492 C553.862488 619.18787146 553.87388506 623.64212476 553.8833189 628.09640789 C553.88831788 630.01666095 553.89511926 631.93691026 553.90382671 633.85715008 C553.9160881 636.63255017 553.92166007 639.40789952 553.92604351 642.18332195 C553.9312048 643.02853405 553.93636608 643.87374615 553.94168377 644.74457073 C553.94222243 650.59321151 553.50882733 656.32066301 552.82838726 662.12863445 C553.46115582 662.29162029 554.09392437 662.45460613 554.74586773 662.62253094 C561.02581156 664.24009223 564.34593425 666.62850696 567.82838726 672.12863445 C569.93485067 676.77561369 571.60799887 681.55801883 573.26588726 686.37863445 C573.74147499 687.72697041 574.21853757 689.07478702 574.6970396 690.42209148 C575.6434864 693.09010693 576.58293812 695.76043615 577.51832867 698.43234539 C578.65966561 701.65259162 579.83984398 704.85124408 581.05885601 708.04269695 C581.38378033 708.89573406 581.70870464 709.74877117 582.04347515 710.62765789 C582.62696496 712.1512755 583.21554667 713.67295856 583.81056499 715.19211102 C586.04107567 721.09801463 587.56286138 726.57957722 585.76588726 732.81613445 C581.18742225 740.6438327 574.66269058 742.59613094 566.39088726 745.19113445 C564.62781231 745.76130291 564.62781231 745.76130291 562.82911968 746.34298992 C558.83502799 747.62531033 554.83379638 748.88223721 550.82838726 750.12863445 C549.77083233 750.45797985 549.77083233 750.45797985 548.69191265 750.79397869 C540.86690673 753.22779409 533.03380461 755.63496381 525.19714642 758.03096294 C512.56050173 761.89467741 499.94120091 765.81285719 487.32838726 769.75363445 C486.30126629 770.07451031 485.27414532 770.39538616 484.21589947 770.72598553 C470.76388149 774.93118497 457.33280482 779.19424595 443.92653179 783.54294109 C434.65432545 786.54827964 425.36940723 789.5115193 416.07365704 792.44320965 C414.51035435 792.93650069 412.94733873 793.43070256 411.38463116 793.92587566 C409.21827357 794.6120058 407.0508468 795.29464461 404.88307476 795.9762907 C403.64025738 796.36824627 402.39743999 796.76020184 401.11696148 797.16403484 C396.67756201 798.46619277 393.0324032 799.48359072 388.45338726 798.56613445 C387.74440289 798.44109539 387.03541851 798.31605633 386.30494976 798.1872282 C381.19970164 796.00501646 377.16430695 792.52935777 374.89479351 787.4137907 C374.37158937 786.01423217 373.87131502 784.60594745 373.39088726 783.19113445 C373.1099522 782.42043621 372.82901714 781.64973797 372.5395689 780.85568523 C371.6116779 778.28790138 370.71802774 775.70990426 369.82838726 773.12863445 C369.15959264 771.21831142 368.49030872 769.30815962 367.82057476 767.3981657 C367.13556168 765.43336283 366.45066644 763.46851886 365.76588726 761.50363445 C365.4247691 760.53047283 365.08365093 759.55731121 364.73219585 758.55465984 C363.20317293 754.17428549 361.71145428 749.79850589 360.37526226 745.35519695 C358.39569382 739.02157413 356.71583227 733.97992612 350.89088726 730.19113445 C348.88304287 729.14498487 346.86083051 728.12615261 344.82838726 727.12863445 C342.34365922 725.69261491 339.90172488 724.18812339 337.45338726 722.69113445 C336.16771774 721.9215859 334.88126001 721.15335263 333.59401226 720.38644695 C329.03490821 717.65983263 324.51126351 714.87698587 319.99635601 712.0778532 C317.90580279 710.7915572 315.80430644 709.52285813 313.69166851 708.2731657 C305.33539719 703.28818219 297.66091981 697.6515591 289.9470396 691.73703289 C287.73224498 690.05564698 285.49679366 688.4054999 283.25416851 686.76144695 C282.5133604 686.21585125 281.7725523 685.67025555 281.00929546 685.10812664 C279.57754403 684.05478841 278.14257463 683.00580747 276.70411968 681.96164227 C275.04242654 680.73175073 273.4297406 679.43612242 271.82838726 678.12863445 C271.82838726 677.46863445 271.82838726 676.80863445 271.82838726 676.12863445 C271.12069195 675.89273602 270.41299664 675.65683758 269.68385601 675.4137907 C266.32490233 673.9020318 263.94436509 671.94889937 261.14088726 669.56613445 C257.69022675 666.536935 257.69022675 666.536935 253.82838726 664.12863445 C253.82838726 663.46863445 253.82838726 662.80863445 253.82838726 662.12863445 C252.74364117 661.75545086 252.74364117 661.75545086 251.63698101 661.3747282 C248.55016565 660.00519538 246.45865985 658.37908244 243.89088726 656.19113445 C242.9305357 655.38675945 241.97018414 654.58238445 240.98073101 653.75363445 C240.47010113 653.3256657 239.95947124 652.89769695 239.43336773 652.45675945 C236.64673858 650.15081748 233.80061846 647.92149182 230.95338726 645.69113445 C230.36460796 645.22852215 229.77582867 644.76590984 229.16920757 644.28927898 C226.27529295 642.02135298 223.36878946 639.77294789 220.43385601 637.55832195 C200.87409829 622.78700484 200.87409829 622.78700484 198.96440029 617.93223667 C197.61790596 614.86635355 196.4544493 613.24297796 193.82838726 611.12863445 C187.25899762 609.72480642 180.7193145 609.9637584 174.02858257 610.06271648 C171.97497525 610.06030335 169.92136931 610.05389081 167.86778545 610.04378033 C163.44753592 610.030691 159.02862322 610.04606088 154.60851574 610.0835638 C147.61523903 610.14289438 140.6228208 610.1401487 133.62935162 610.12933636 C122.56310459 610.11977889 111.49746305 610.15343087 100.43134665 610.20470607 C80.62839474 610.29508063 60.8253068 610.31257517 41.02217078 610.31389987 C34.07522524 610.31607372 27.12866443 610.3371181 20.18181944 610.37409043 C15.85255337 610.3947906 11.52331557 610.40356057 7.19400692 610.40971851 C5.19215885 610.41527881 3.19031714 610.42604173 1.18852901 610.44250202 C-14.82714608 610.57081201 -26.87073083 609.21871094 -39.39817524 598.1637907 C-48.42394704 588.80695778 -53.33194468 577.29455267 -53.30024719 564.38716984 C-53.30287675 563.04248364 -53.30287675 563.04248364 -53.30555943 561.67063206 C-53.31023796 558.64509219 -53.30774916 555.61959997 -53.30532551 552.59405804 C-53.30719256 550.41158815 -53.30949283 548.22911859 -53.31219083 546.04664958 C-53.31832853 540.0321552 -53.31817292 534.01767468 -53.31699646 528.00317788 C-53.31679294 521.52310326 -53.32230653 515.04303316 -53.32705402 508.56296062 C-53.33559026 495.85998908 -53.33812235 483.15702148 -53.3386664 470.45404737 C-53.33912568 460.13004661 -53.34118263 449.80604735 -53.34436703 439.48204708 C-53.34526456 436.51187058 -53.34615437 433.54169409 -53.3470419 430.57151759 C-53.34726295 429.83314595 -53.347484 429.09477432 -53.34771175 428.33402779 C-53.35386782 407.55867656 -53.35781213 386.78332585 -53.35736847 366.00797367 C-53.35735289 365.22437398 -53.35733731 364.44077429 -53.35732126 363.63342916 C-53.35723815 359.66170097 -53.35713911 355.68997278 -53.35703655 351.7182446 C-53.35701661 350.92942791 -53.35699666 350.14061122 -53.35697611 349.32789099 C-53.35693568 347.73270957 -53.35689388 346.13752814 -53.35685072 344.54234672 C-53.3562381 319.72946932 -53.36374128 294.91660559 -53.37742329 270.10373211 C-53.39278453 242.23392135 -53.40138945 214.36411956 -53.40046006 186.4943043 C-53.40038543 183.52224167 -53.40033673 180.55017905 -53.40030575 177.57811642 C-53.40029409 176.84630689 -53.40028244 176.11449737 -53.40027043 175.3605118 C-53.40023966 163.58357534 -53.40662574 151.80665075 -53.41523801 140.02971781 C-53.42371586 128.19167476 -53.4245319 116.35365053 -53.41812869 104.51560609 C-53.41485842 98.10232989 -53.41482508 91.68909668 -53.42348194 85.27582455 C-53.43132557 79.40465941 -53.42993735 73.53357151 -53.42119781 67.66240831 C-53.41965809 65.53854132 -53.42149669 63.41466863 -53.42705788 61.29080836 C-53.43412056 58.40216093 -53.42882217 55.51378423 -53.42050171 52.62514591 C-53.42546989 51.80225635 -53.43043807 50.9793668 -53.4355568 50.13154119 C-53.35007784 36.07653813 -48.87344882 23.45639545 -39.17161274 13.12863445 C-27.45888241 2.12576656 -15.45379941 -0.02777637 0 0 Z M-31.17161274 147.12863445 C-31.27336032 149.35103013 -31.30270964 151.57673409 -31.30583382 153.8014555 C-31.30818605 154.51071829 -31.31053828 155.21998109 -31.31296179 155.9507367 C-31.3196858 158.35754442 -31.31919255 160.76429857 -31.31878376 163.17111492 C-31.3220803 164.90210554 -31.32580542 166.63309539 -31.32992524 168.36408424 C-31.33997774 173.1445131 -31.34366725 177.9249294 -31.34631455 182.70536733 C-31.35020814 187.85213302 -31.35978727 192.99888869 -31.36852741 198.145648 C-31.38832122 210.58883865 -31.39836286 223.03203014 -31.4072552 235.4752326 C-31.41163435 241.3307189 -31.41700221 247.18620429 -31.42224407 253.04168987 C-31.43926117 272.50086053 -31.45375524 291.96003061 -31.46099281 311.41920757 C-31.46290281 316.47290326 -31.46482313 321.52659894 -31.46677876 326.58029461 C-31.4672625 327.83641713 -31.46774624 329.09253966 -31.46824463 330.3867265 C-31.47654444 350.73400301 -31.5018784 371.08122073 -31.53435943 391.42847157 C-31.56741512 412.30552697 -31.58544033 433.18255249 -31.58863705 454.05963421 C-31.5908038 465.78650842 -31.59957629 477.51329694 -31.62509823 489.24014568 C-31.64678507 499.22816477 -31.65486566 509.21607739 -31.64513145 519.20411736 C-31.64058058 524.30089316 -31.64251865 529.39744919 -31.66189289 534.49419498 C-31.67948152 539.16151827 -31.67856175 543.82846077 -31.6629956 548.49578786 C-31.66061296 550.18299095 -31.66497705 551.87022012 -31.67682425 553.5573833 C-31.74569193 564.01381245 -30.85241994 571.5548407 -24.98411274 580.44113445 C-21.40442664 583.86172339 -17.74039639 585.37831459 -13.17161274 587.12863445 C-12.51161274 587.45863445 -11.85161274 587.78863445 -11.17161274 588.12863445 C-8.53906471 588.22432468 -5.93309517 588.2587681 -3.3003664 588.24888897 C-2.47786353 588.24974339 -1.65536065 588.25059782 -0.80793345 588.25147814 C1.96360277 588.25313261 4.73507922 588.24761208 7.50660992 588.24215984 C9.48717529 588.24187794 11.46774077 588.24203577 13.44830608 588.24260235 C18.8385207 588.2428902 24.22871324 588.23699552 29.61892271 588.23002839 C35.24704185 588.22379274 40.87516144 588.22319089 46.5032835 588.22200298 C57.16696955 588.2188903 67.8306454 588.21067774 78.49432695 588.20065349 C90.63198867 588.18949042 102.76965087 588.18398142 114.90731645 588.17895806 C139.88101238 588.16849508 164.85469925 588.15089684 189.82838726 588.12863445 C189.95984646 587.51207485 190.09130566 586.89551525 190.22674847 586.26027203 C190.40232784 585.45072567 190.57790722 584.64117931 190.75880718 583.80710125 C190.93151638 583.00491665 191.10422558 582.20273205 191.28216839 581.37623882 C193.48387241 572.31657457 198.91758033 564.76620284 206.76588726 559.87863445 C216.43414526 554.17880565 228.08815777 553.33110859 238.95338726 556.12863445 C251.17700881 560.51607792 262.18207886 568.85216596 272.82838726 576.12863445 C274.00402709 572.60171495 273.36700901 571.6593541 271.78493023 568.45187664 C271.31144146 567.51843426 271.31144146 567.51843426 270.82838726 566.56613445 C262.41782629 549.21074363 256.32563395 530.7723307 249.63484478 512.70364666 C246.2246639 503.49553903 242.80479637 494.29103835 239.38206768 485.08758831 C238.3531897 482.3203425 237.325259 479.55274612 236.2973814 476.78512859 C233.65121996 469.66636226 231.00463832 462.55018265 228.25026226 455.47238445 C225.18451427 447.54534485 222.39154141 439.52283911 219.57838726 431.50363445 C219.03167884 429.9501904 218.48480473 428.39680465 217.93776226 426.8434782 C214.06370309 415.83458195 214.06370309 415.83458195 212.82838726 412.12863445 C211.48935943 412.12505192 211.48935943 412.12505192 210.12328053 412.12139702 C188.38044644 412.06220497 166.6377228 411.9866279 144.89500904 411.89291954 C134.38029897 411.84799565 123.86562251 411.8085731 113.3508482 411.78219891 C104.18384815 411.75919127 95.01695477 411.7257623 85.85003936 411.67993289 C80.99833503 411.65603802 76.14673611 411.63728476 71.29497433 411.63102055 C66.7230986 411.6249528 62.15149243 411.60489203 57.57971668 411.57435894 C55.90687657 411.56560575 54.23400118 411.56185047 52.56113911 411.56362629 C40.82081998 411.57214994 30.81669227 411.44281659 21.82838726 403.12863445 C21.16838726 403.12863445 20.50838726 403.12863445 19.82838726 403.12863445 C19.58088726 402.61300945 19.33338726 402.09738445 19.07838726 401.56613445 C17.73399507 398.94456968 16.25031205 396.43296241 14.73073101 393.90988445 C12.79379226 390.08631705 12.69693107 386.44979752 12.67448711 382.2101469 C12.66588665 380.99904751 12.65728619 379.78794811 12.6484251 378.54014874 C12.64399024 377.20099206 12.63969185 375.86183493 12.63551617 374.52267742 C12.62761077 373.1097573 12.61934155 371.69683918 12.61073589 370.28392315 C12.58456209 365.64624224 12.56921096 361.00855252 12.55494976 356.37082195 C12.54958781 354.77125449 12.54421029 353.17168707 12.53881741 351.57211971 C12.51719376 344.91517893 12.49845955 338.25824053 12.48719501 331.60127354 C12.47097146 322.07793154 12.43782684 312.5549985 12.38079417 303.03181064 C12.34201554 296.32674599 12.32255288 289.62179036 12.31727445 282.91661656 C12.31363125 278.91658576 12.30172109 274.91699162 12.26917171 270.91708279 C12.23895155 267.14943684 12.23282814 263.38248856 12.24455547 259.61474705 C12.24487911 257.58652846 12.22050576 255.55835202 12.19517803 253.53029156 C12.25492243 244.71050662 13.69520606 237.90470599 19.57098103 231.11499119 C29.70407587 221.41719497 41.31746079 221.54898195 54.5322752 221.60965252 C56.4424447 221.60377275 58.35260948 221.59614336 60.26276577 221.58692145 C65.49638122 221.56669304 70.72972512 221.57120687 75.96336174 221.57982898 C81.61289482 221.58477782 87.26236005 221.56668391 92.9118681 221.55140972 C102.69493068 221.5281038 112.47791916 221.51934891 122.26100826 221.5205183 C136.40564042 221.52218794 150.55017381 221.50184863 164.69477962 221.476163 C187.64426261 221.43508488 210.59371742 221.41173558 233.54323101 221.39963055 C255.83458949 221.38783036 278.12591471 221.36764918 300.41725445 221.33615398 C301.44842122 221.33470206 301.44842122 221.33470206 302.50041964 221.3332208 C309.40419103 221.32349076 316.30796217 221.31359068 323.21173314 221.30356604 C381.0839336 221.21954845 438.95613754 221.16419697 496.82838726 221.12863445 C497.15838726 220.13863445 497.48838726 219.14863445 497.82838726 218.12863445 C499.76588726 217.00363445 499.76588726 217.00363445 501.82838726 216.12863445 C502.48838726 215.79863445 503.14838726 215.46863445 503.82838726 215.12863445 C503.82838726 214.46863445 503.82838726 213.80863445 503.82838726 213.12863445 C504.55284039 212.86437664 505.27729351 212.60011883 506.02369976 212.3278532 C508.86076421 211.11479083 511.1561611 209.674994 513.70338726 207.94113445 C542.02199081 189.72004906 576.3623375 186.81288175 608.82838726 193.12863445 C614.3133898 194.37976482 619.58196333 196.10902309 624.82838726 198.12863445 C625.81331158 198.50761883 625.81331158 198.50761883 626.81813335 198.89425945 C657.88855591 211.13935233 682.32689341 233.4742081 696.62135601 263.8200407 C703.96114579 281.00911136 707.00676767 299.1679059 707.01588726 317.75363445 C707.02813335 319.04398602 707.04037945 320.33433758 707.05299664 321.6637907 C707.09333489 348.36771773 698.13909025 377.02699733 680.26198101 397.3434782 C678.61967046 399.00694593 678.61967046 399.00694593 678.82838726 401.12863445 C678.16838726 401.12863445 677.50838726 401.12863445 676.82838726 401.12863445 C673.19205187 404.60861953 673.19205187 404.60861953 671.82838726 409.12863445 C671.25217632 409.38773602 670.67596539 409.64683758 670.08229351 409.9137907 C667.65028939 411.22462828 665.82126305 412.72461279 663.76588726 414.56613445 C663.0942857 415.16297039 662.42268414 415.75980633 661.73073101 416.3747282 C660.05265762 417.92186362 658.43650471 419.50971473 656.82838726 421.12863445 C661.9129883 437.0102898 667.04435052 452.87461253 672.32838726 468.69113445 C672.55465801 469.36850658 672.78092876 470.04587872 673.01405621 470.74377728 C674.6166332 475.53946683 676.22223174 480.33414245 677.82838726 485.12863445 C679.46456183 490.01327241 681.0996118 494.89828223 682.73219585 499.78412151 C683.37237751 501.69828957 684.01441733 503.61183586 684.65651226 505.52536297 C689.49520438 520.00024614 693.18677138 531.38376094 686.82838726 546.12863445 C683.12950214 552.99398941 678.94658913 557.84331051 671.82838726 561.12863445 C671.15162945 561.44574383 670.47487164 561.7628532 669.77760601 562.08957195 C661.6608105 565.32441916 652.55527863 565.4894643 644.39088726 562.37863445 C635.23597667 558.11126484 628.86112211 552.64593147 625.14259624 543.05368328 C623.33931134 538.03944839 621.74221572 532.96011087 620.14088726 527.87863445 C619.53568559 526.00665438 618.9287255 524.13524195 618.32008648 522.26437664 C616.76951153 517.48481672 615.23949563 512.69896317 613.71553326 507.91086102 C611.56624724 501.17036883 609.38490703 494.44014078 607.20677471 487.7089262 C606.70636645 486.16112071 606.20678735 484.6130469 605.70805645 483.06470013 C601.70659556 470.64190964 597.44591009 458.33790806 592.82838726 446.12863445 C592.09426617 446.1443449 591.36014507 446.16005535 590.60377789 446.17624187 C560.02354654 446.74351761 527.54430983 441.54755537 503.71141243 420.40617943 C493.49988765 411.63636389 485.372539 410.5786201 472.22511578 410.87985516 C470.30174724 410.88296517 468.3783657 410.88120226 466.45500469 410.8749876 C461.27926695 410.87185597 456.10638435 410.93611445 450.93130517 411.01330113 C445.50627581 411.08248443 440.08116702 411.08855978 434.65576458 411.10158062 C424.40271631 411.13564851 414.15097199 411.22574776 403.89849561 411.33642501 C392.21778112 411.45975893 380.5370014 411.51995253 368.85579693 411.57507479 C344.84593996 411.68977715 320.83723696 411.88301789 296.82838726 412.12863445 C297.29148825 413.86756723 297.75762484 415.60569174 298.22500896 417.3434782 C298.61388082 418.79548626 298.61388082 418.79548626 299.01060867 420.27682781 C300.17488915 424.33697667 301.67600192 428.21793838 303.26198101 432.12863445 C303.58119015 432.93043133 303.90039928 433.7322282 304.22928143 434.55832195 C305.23591018 437.08402991 306.25046566 439.60645038 307.26588726 442.12863445 C308.60042337 445.46096951 309.93170181 448.79459803 311.26198101 452.12863445 C311.57775097 452.91858807 311.89352093 453.70854168 312.21885967 454.52243328 C314.54024259 460.34952952 316.75386507 466.20855509 318.82838726 472.12863445 C319.48838726 472.12863445 320.14838726 472.12863445 320.82838726 472.12863445 C321.52963726 471.24175945 322.23088726 470.35488445 322.95338726 469.44113445 C328.120371 463.05039141 334.77933199 460.08405077 342.82838726 459.12863445 C354.2685498 457.99335115 364.18793713 460.58065842 373.14088726 467.87863445 C374.72073346 469.27593066 376.29000052 470.68581883 377.82838726 472.12863445 C378.56315289 471.36808758 379.29791851 470.6075407 380.05494976 469.82394695 C382.37269691 467.57148846 384.52184109 465.77519744 387.20338726 464.00363445 C387.91237164 463.52668133 388.62135601 463.0497282 389.35182476 462.55832195 C395.3547526 459.09290935 400.24568491 457.59406799 407.07838726 457.69113445 C408.1949168 457.70140667 408.1949168 457.70140667 409.33400249 457.71188641 C418.76277339 457.98431167 427.4233631 461.22144473 434.82838726 467.12863445 C436.61244572 469.05377917 438.19853971 471.06735667 439.82838726 473.12863445 C440.48838726 473.12863445 441.14838726 473.12863445 441.82838726 473.12863445 C443.12568836 471.69418994 443.12568836 471.69418994 444.45338726 469.87863445 C449.57785789 463.70682676 457.16968753 460.682837 465.10182476 459.9059782 C476.89457196 459.47816561 487.60414376 463.38088806 496.27760601 471.3903532 C504.85793463 480.42451738 508.83086153 491.2707659 513.26588726 502.75363445 C513.75785261 504.01766864 514.25012462 505.28158352 514.7426939 506.5453825 C517.58723716 513.85706432 520.37024984 521.18959596 523.10573101 528.54269695 C525.37990942 534.62161195 527.70102819 540.68261808 530.0310545 546.74029827 C530.55271776 548.09843571 531.07286026 549.45715851 531.5912962 550.81653118 C534.56189791 558.60156888 537.69635124 566.24502135 541.33619976 573.74899578 C542.66276205 576.75351179 543.80839196 579.75199015 544.92164898 582.83986187 C545.27943432 583.83030341 545.63721966 584.82074495 546.00584698 585.84119987 C546.27728527 586.59605329 546.54872356 587.3509067 546.82838726 588.12863445 C568.44702293 588.19877209 590.06563979 588.25164594 611.68436623 588.28407097 C621.72272773 588.29952786 631.76101846 588.32059486 641.79933453 588.35495281 C650.55058594 588.38489123 659.30178609 588.40421802 668.05308729 588.41089994 C672.68515531 588.41480466 677.31707669 588.42395678 681.94909763 588.44582462 C686.31324514 588.46625997 690.67718626 588.47245405 695.04137707 588.4679575 C696.63887753 588.46877955 698.23638525 588.47470312 699.83384418 588.48625088 C709.54264653 588.55296306 717.84504417 588.4195214 726.14088726 582.94113445 C733.13583713 575.62083808 733.95295755 567.64694121 733.9542284 557.76044273 C733.95568184 557.04891319 733.95713528 556.33738365 733.95863277 555.6042926 C733.96227498 553.22596612 733.95881464 550.84770445 733.9553709 548.46937847 C733.95652341 546.74472038 733.95811181 545.02006254 733.96009815 543.29540521 C733.9642734 538.56061894 733.96220892 533.82585282 733.95911193 529.09106648 C733.95685081 523.98339935 733.96034094 518.87573571 733.96309185 513.76806927 C733.96754041 503.76530527 733.96657727 493.76254877 733.96367921 483.75978448 C733.96142223 475.63401368 733.96111394 467.50824497 733.96220303 459.38247395 C733.96235626 458.22667418 733.96250949 457.07087442 733.96266737 455.88005042 C733.96298709 453.53224362 733.9633113 451.18443682 733.96363996 448.83663002 C733.96649191 426.81886378 733.96321186 404.8011017 733.95783959 382.78333614 C733.95336885 363.87442633 733.95415026 344.96552266 733.95875835 326.05661297 C733.96410404 304.11069475 733.96622037 282.16478018 733.96314609 260.2188614 C733.96282753 257.88114631 733.96251316 255.54343122 733.96220303 253.20571613 C733.96204875 252.05542849 733.96189447 250.90514085 733.96173552 249.719996 C733.96087057 241.59760897 733.96233272 233.47522424 733.96468258 225.35283756 C733.96748057 215.46396938 733.9667422 205.57510915 733.96140184 195.68624189 C733.95876527 190.63695162 733.95775905 185.58767462 733.96105099 180.53838444 C733.96401468 175.92297826 733.96241991 171.30759773 733.95707344 166.6921939 C733.9559496 165.01606664 733.95653969 163.33993725 733.95894922 161.66381135 C733.96195797 159.39838288 733.95890373 157.13304413 733.9542284 154.86762047 C733.95398487 152.97433086 733.95398487 152.97433086 733.95373642 151.04279298 C734.02978115 148.19111954 734.02978115 148.19111954 732.82838726 146.12863445 C660.10043678 146.11150405 587.37248606 146.09560333 514.64453411 146.08629131 C513.56904242 146.08615326 512.49355074 146.0860152 511.38546839 146.08587296 C488.01510574 146.08288042 464.64474307 146.08011018 441.27438036 146.07756912 C429.81443669 146.07632173 418.35449303 146.07502518 406.89454937 146.07370281 C405.75411515 146.07357205 404.61368094 146.07344129 403.43868811 146.07330657 C366.43879647 146.06904121 329.43890636 146.06152691 292.43901565 146.05233723 C254.43356308 146.04291489 216.42811136 146.03675139 178.42265765 146.03471946 C173.06115034 146.03443129 167.69964303 146.03410565 162.33813572 146.03375721 C161.28285933 146.03368979 160.22758293 146.03362236 159.14032847 146.0335529 C142.11713977 146.03236875 125.09395368 146.02772417 108.07076605 146.02180242 C90.97862281 146.01592992 73.88648215 146.01366276 56.79433794 146.01513308 C46.62543469 146.0158967 36.45654089 146.01383885 26.28763935 146.00783691 C19.50805833 146.00410692 12.72848355 146.00395665 5.94890211 146.00680264 C2.07752876 146.00832278 -1.79382666 146.00820565 -5.66519814 146.00375127 C-9.82098273 145.99900561 -13.97672554 146.00186769 -18.13251114 146.00558662 C-19.96474398 146.0016461 -19.96474398 146.0016461 -21.83399162 145.99762598 C-22.92993623 145.99987327 -24.02588085 146.00212056 -25.15503591 146.00443596 C-26.10698566 146.00427998 -27.05893541 146.004124 -28.03973212 146.00396329 C-30.15523922 145.8907209 -30.15523922 145.8907209 -31.17161274 147.12863445 Z M34.82838726 246.12863445 C32.78525832 249.64030515 32.57753544 252.74043027 32.57441998 256.75218487 C32.56878033 257.87236004 32.56314068 258.99253521 32.55733013 260.14665508 C32.56137859 261.36604275 32.56542706 262.58543041 32.5695982 263.84176922 C32.56609356 265.13329906 32.56258892 266.42482891 32.55897808 267.75549603 C32.54987447 271.29051807 32.55338969 274.82542313 32.55973625 278.36044717 C32.56480568 282.0621457 32.56010228 285.76383433 32.55696392 289.46553326 C32.55332748 295.68031898 32.55811539 301.89505713 32.56764507 308.10983562 C32.57853381 315.29386598 32.57499974 322.47778284 32.56399226 329.66181046 C32.55491592 335.83263322 32.55363566 342.00342183 32.5588696 348.17424911 C32.56198678 351.85867927 32.56240548 355.54305607 32.55579662 359.2274828 C32.54894589 363.33335499 32.55844157 367.4390315 32.5695982 371.54489422 C32.56554974 372.76630611 32.56150127 373.98771801 32.55733013 375.24614239 C32.56296978 376.36349773 32.56860943 377.48085308 32.57441998 378.63206768 C32.57517403 379.60267415 32.57592808 380.57328062 32.57670498 381.57329941 C32.91078254 385.17197871 32.91078254 385.17197871 34.82838726 388.12863445 C40.0736283 389.8947013 44.79377537 390.38756676 50.34230328 390.43643475 C51.40989675 390.44958151 51.40989675 390.44958151 52.49905777 390.46299386 C54.86014813 390.4894902 57.22108983 390.50206287 59.58229351 390.51437664 C61.28476392 390.53019969 62.9872278 390.54673885 64.68968487 390.56393719 C70.25668838 390.61609754 75.82372005 390.64694703 81.39088726 390.67550945 C83.31244706 390.68623713 85.23400672 390.69699216 87.15556622 390.70777416 C95.14744754 390.75097525 103.13932119 390.7884508 111.13128948 390.81101894 C122.56504406 390.84352808 133.99744322 390.91001605 145.43068695 391.02382064 C153.48356065 391.10123739 161.53607175 391.1402851 169.58930779 391.15086007 C174.39448276 391.15816025 179.19820745 391.18212342 184.00297832 391.24706554 C188.52132964 391.30727146 193.03735467 391.31984104 197.55602169 391.29629803 C199.2104654 391.29585698 200.86501789 391.31243563 202.51908779 391.34760571 C211.59779228 391.72876388 211.59779228 391.72876388 219.52275372 387.94056225 C221.54027895 385.42729131 223.17595047 382.88939708 224.82838726 380.12863445 C230.59025598 373.7724498 238.41594678 369.85394253 246.91823101 368.71457195 C258.39315435 368.38967065 267.87325918 371.97820394 276.82838726 379.12863445 C279.95411612 382.49692428 282.76747593 386.00681179 284.82838726 390.12863445 C346.86838726 390.12863445 408.90838726 390.12863445 472.82838726 390.12863445 C469.85838726 383.85863445 466.88838726 377.58863445 463.82838726 371.12863445 C461.06782737 364.9173747 459.05192309 358.71668056 457.20338726 352.19113445 C456.99681499 351.46337811 456.79024273 350.73562176 456.5774107 349.98581219 C453.75729826 339.66947406 452.46281766 329.83254198 452.51588726 319.12863445 C452.52080181 317.94745037 452.52571636 316.76626629 452.53077984 315.54928875 C452.85740386 290.87493742 459.1537689 265.84885133 473.79713726 245.59738445 C474.924159 244.29133757 474.924159 244.29133757 474.82838726 243.12863445 C419.6414928 243.06000656 364.45460265 243.0071251 309.26767393 242.97543846 C302.75617336 242.97168623 296.24467287 242.96780327 289.73317242 242.96383953 C287.78864299 242.96265913 287.78864299 242.96265913 285.80483015 242.96145489 C264.79912604 242.94839178 243.79344649 242.92473295 222.78775696 242.89717606 C201.2429131 242.86914706 179.69808212 242.8524635 158.15322077 242.84636897 C144.85293849 242.84224733 131.55272564 242.82921737 118.25246473 242.80488505 C109.13887077 242.78905878 100.02531284 242.78422703 90.91170613 242.78813032 C85.64927272 242.79005671 80.38696086 242.78705017 75.12454891 242.77101803 C70.30936974 242.75645514 65.49439425 242.75565858 60.67920585 242.76593777 C58.9348266 242.76720884 57.19043482 242.76337276 55.44608037 242.75398491 C53.07867415 242.74198204 50.71200748 242.74841206 48.34461308 242.75949097 C47.02850241 242.75835181 45.71239175 242.75721264 44.35639894 242.75603896 C40.51558189 243.16167002 38.09659984 244.10044576 34.82838726 246.12863445 Z " fill="#D95F05" transform="translate(127.17161273956299,59.871365547180176)"/>
<path d="M0 0 C1.04529108 -0.00327219 2.09058215 -0.00654439 3.16754872 -0.00991574 C4.8838998 -0.0076903 4.8838998 -0.0076903 6.63492465 -0.00541991 C7.85869168 -0.00777214 9.0824587 -0.01012437 10.34330958 -0.01254788 C13.75223384 -0.01807301 17.16110667 -0.01910946 20.57003184 -0.01827047 C24.27417475 -0.01843996 27.97830921 -0.02434592 31.68244791 -0.02951133 C39.03454008 -0.03884079 46.38662623 -0.04275995 53.73872358 -0.0450303 C62.5427623 -0.04799142 71.34679302 -0.05668821 80.15082754 -0.06544458 C101.43006373 -0.08629226 122.70930132 -0.09675875 143.98854535 -0.10557419 C154.05224956 -0.10977969 164.11595318 -0.11500176 174.17965689 -0.12025872 C208.61986867 -0.13814797 243.06008062 -0.15314516 277.50029635 -0.16057891 C279.66256229 -0.16105367 281.82482822 -0.16152955 283.98709415 -0.16200657 C285.59554442 -0.16236113 285.59554442 -0.16236113 287.23648864 -0.16272286 C292.66939398 -0.16392407 298.10229932 -0.16513952 303.53520465 -0.16636485 C304.61338465 -0.166605 305.69156466 -0.16684515 306.80241678 -0.16709258 C341.77291797 -0.17498849 376.74338527 -0.19842682 411.71387166 -0.23092079 C448.67564733 -0.26520243 485.63740317 -0.28492843 522.599195 -0.28822315 C526.65502096 -0.2886407 530.71084691 -0.28912026 534.76667285 -0.28964633 C535.76535134 -0.28976952 536.76402983 -0.28989271 537.7929713 -0.29001964 C553.87797984 -0.29235357 569.96294906 -0.30802412 586.04794358 -0.32848817 C602.20873439 -0.34872286 618.36947788 -0.35423462 634.53027901 -0.34471754 C644.13547034 -0.33949363 653.74050438 -0.34542201 663.34567314 -0.36725221 C669.75952991 -0.38072985 676.17327805 -0.37971026 682.58713582 -0.36685025 C686.24305759 -0.35993339 689.89867799 -0.35935262 693.55457321 -0.37641034 C697.49273859 -0.39463554 701.4304596 -0.38192547 705.36864352 -0.36618346 C706.50351292 -0.37640567 707.63838231 -0.38662787 708.80764169 -0.39715984 C717.7493494 -0.31882265 725.19627796 1.758961 731.75346637 8.12880117 C750.50149694 32.76906993 737.75346637 85.31524429 737.75346637 102.12880117 C485.30346637 102.12880117 232.85346637 102.12880117 -27.24653363 102.12880117 C-27.24653363 17.12880117 -27.24653363 17.12880117 -20.99653363 7.75380117 C-14.95847631 1.990201 -8.25381002 0.00678163 0 0 Z " fill="#FEAA27" transform="translate(123.24653363227844,81.87119883298874)"/>
<path d="M0 0 C5.75044464 -0.74199286 9.19661561 -0.44293823 14 2.9375 C27.40026435 14.96074332 32.76889469 36.13634726 39.3523407 52.4598999 C41.26783904 57.20608672 43.20894928 61.94055203 45.1796875 66.6640625 C53.24553369 85.99747472 61.11957086 105.40806501 68.375 125.0625 C70.29706224 130.25041583 72.4227658 135.26510673 74.77734375 140.26953125 C76.65120242 144.45428272 78.21327593 148.75035775 79.7890625 153.0546875 C81.93901618 158.28702654 81.93901618 158.28702654 85.75 162.3125 C90.22048728 163.67848223 93.69686438 163.60997838 97.9375 161.625 C101.06302751 157.64705589 100.57480162 153.90340977 100 149 C98.96419664 145.5048908 97.49646919 142.29004457 95.9375 139 C95.11380185 137.16499635 94.29222443 135.32903943 93.47265625 133.4921875 C93.05902832 132.57791992 92.64540039 131.66365234 92.21923828 130.72167969 C90.35305181 126.55583132 88.58590497 122.35670053 86.875 118.125 C86.56812256 117.40699219 86.26124512 116.68898438 85.94506836 115.94921875 C84.07006536 111.26917587 83.73060872 108.03422007 85 103 C86.9375 100.0625 86.9375 100.0625 89 98 C89.66 98 90.32 98 91 98 C91.185625 96.824375 91.185625 96.824375 91.375 95.625 C92 93 92 93 94 91 C100.75915957 90.23715522 108.33070833 89.78391924 114.25634766 93.5871582 C120.18062623 98.38746625 122.78931402 106.82288375 125.5 113.6875 C125.8909082 114.65993652 126.28181641 115.63237305 126.68457031 116.63427734 C128.74718703 121.78224633 130.7663437 126.94615048 132.75 132.125 C133.12640625 133.1046875 133.5028125 134.084375 133.890625 135.09375 C134.68410899 137.17245453 135.46382438 139.25643568 136.234375 141.34375 C136.86085938 142.96796875 136.86085938 142.96796875 137.5 144.625 C137.8609375 145.58664062 138.221875 146.54828125 138.59375 147.5390625 C140.30985884 150.54225298 141.89561624 151.54362243 145 153 C149.62373012 153.57796627 152.31959072 152.86254055 156 150 C158.14557941 146.48988722 158.24456045 143.80057005 157.67675781 139.70703125 C155.94055454 132.76221818 152.27312672 126.34317045 149.12890625 119.94921875 C146.01272874 113.32269332 143.7485872 108.2192041 146 101 C147.55597223 96.73575535 149.27401107 94.38988295 153.375 92.1875 C154.57125 91.795625 155.7675 91.40375 157 91 C158.010625 90.5875 159.02125 90.175 160.0625 89.75 C165.1973143 88.43898358 168.80181643 89.62294581 173.375 92.0625 C180.1563285 96.94325716 182.74390626 104.59676189 186 112 C187.79370888 116.03728554 189.59687737 120.07031521 191.40356445 124.10180664 C192.67172594 126.93211343 193.92348814 129.76890666 195.16479492 132.61108398 C195.75154895 133.93614208 196.33853453 135.26109768 196.92578125 136.5859375 C197.44567627 137.7723584 197.96557129 138.9587793 198.5012207 140.18115234 C199.83938899 143.23543829 199.83938899 143.23543829 203 145 C208.81948337 145.58070527 208.81948337 145.58070527 213.9375 143.125 C216.03883584 141.17402388 216.03883584 141.17402388 217 139 C216.73730155 130.19960206 213.30863865 123.66346604 209.41796875 115.90820312 C205.99905137 108.82056209 205.99905137 108.82056209 206.00390625 104.62109375 C207.93978087 99.52708643 211.06492211 94.55082393 215.99609375 91.9453125 C221.6675838 90.33120422 226.79552156 90.8752661 232.0625 93.5625 C243.76546045 103.27346718 247.73287831 119.75099219 252.42749023 133.69628906 C254.29124883 139.18791384 256.43111247 144.51811987 258.68798828 149.85961914 C260.92875173 155.22302448 263.01627674 160.64614227 265.125 166.0625 C268.04962607 173.55433656 270.99484274 181.03485612 274.0546875 188.47265625 C274.5482373 189.6733374 275.04178711 190.87401855 275.55029297 192.11108398 C276.49036408 194.38970363 277.43445717 196.66666973 278.38330078 198.94165039 C278.81368652 199.98442139 279.24407227 201.02719238 279.6875 202.1015625 C280.25017578 203.45241943 280.25017578 203.45241943 280.82421875 204.83056641 C283.80219102 212.85798251 285.45167943 219.80733342 285.36328125 228.3984375 C285.36377975 229.35464996 285.36427826 230.31086243 285.36479187 231.29605103 C285.36246755 233.304485 285.35283717 235.3129228 285.33618164 237.32128906 C285.31261402 240.36029735 285.31563116 243.3984235 285.32226562 246.4375 C285.29930189 269.52670399 285.29930189 269.52670399 283 275 C279.87890625 277.0859375 279.87890625 277.0859375 276 278 C274.75089844 278.42539062 273.50179688 278.85078125 272.21484375 279.2890625 C270.79040853 279.738662 269.36452223 280.18368045 267.9375 280.625 C267.13803955 280.87515869 266.3385791 281.12531738 265.51489258 281.38305664 C257.10230494 283.99941914 248.65666788 286.50696669 240.21463013 289.02624512 C231.38317635 291.66287453 222.58168739 294.37539548 213.80908203 297.20166016 C205.08854921 299.99899101 196.32534937 302.65162065 187.5625 305.3125 C174.47029898 309.28815749 161.4249848 313.38658474 148.42407227 317.65161133 C144.95461573 318.78513456 141.48021814 319.89997618 138 321 C137.37685913 321.19829407 136.75371826 321.39658813 136.11169434 321.60089111 C134.22181693 322.19639842 132.32577432 322.77222569 130.4296875 323.34765625 C129.31577637 323.68933838 128.20186523 324.03102051 127.05419922 324.38305664 C121.76089896 325.45229483 118.61541451 324.02775441 114.17578125 321.18359375 C113.24217773 320.59199463 112.30857422 320.00039551 111.34667969 319.39086914 C110.34540039 318.74625732 109.34412109 318.10164551 108.3125 317.4375 C106.15821856 316.06926258 104.00324565 314.70211338 101.84765625 313.3359375 C101.29093231 312.98187332 100.73420837 312.62780914 100.16061401 312.26301575 C96.14854055 309.7145045 92.11228351 307.20828587 88.05859375 304.7265625 C87.48736282 304.37672806 86.9161319 304.02689362 86.32759094 303.66645813 C83.58111258 301.98580575 80.83277807 300.30822975 78.08325195 298.63256836 C68.49140311 292.75837203 58.97913681 286.78330944 50.1875 279.75 C49.31859131 279.05922363 49.31859131 279.05922363 48.43212891 278.35449219 C45.43667792 275.96938947 42.45845094 273.563101 39.48046875 271.15625 C30.79747631 264.15031689 21.94217291 257.40991388 13 250.73828125 C6.28209254 245.72443468 -0.38193457 240.64145756 -7.02148438 235.52441406 C-8.33923676 234.50910731 -9.65824681 233.49543075 -10.97851562 232.48339844 C-33.14064609 215.47758275 -33.14064609 215.47758275 -34.4140625 205.87890625 C-34.83233453 196.18159945 -34.83233453 196.18159945 -31.6875 192.3125 C-26.23288651 187.61899537 -22.04169654 187.25814177 -15.03515625 187.5078125 C-8.46556768 188.06989973 -3.35888849 191.39013999 2 195 C2.8979126 195.59482178 2.8979126 195.59482178 3.81396484 196.20166016 C7.84304874 198.88458548 11.80885955 201.65139895 15.765625 204.43945312 C18.17365683 206.12128654 20.59968235 207.77426551 23.03125 209.421875 C23.87864746 209.99663574 24.72604492 210.57139648 25.59912109 211.16357422 C27.24147002 212.27635848 28.88496417 213.38745503 30.52978516 214.49658203 C35.95549612 218.1873609 41.11475693 221.82471954 45.4375 226.8125 C47.89227597 229.30316853 47.89227597 229.30316853 51.5 229.5 C55.24863178 228.96448117 57.10147418 228.41543818 60 226 C62.57153726 222.22841201 63.30793979 219.69547244 62.55712891 215.20361328 C61.30104588 210.2354251 59.20261616 205.53884692 57.25 200.8125 C56.81945312 199.75224609 56.38890625 198.69199219 55.9453125 197.59960938 C53.84187417 192.43233048 51.70015741 187.2817451 49.54296875 182.13671875 C46.61879731 175.12957995 43.83748809 168.06711552 41.0625 161 C40.49765046 159.56371658 39.93279017 158.12743739 39.36791992 156.69116211 C33.12868593 140.81581057 26.94323672 124.91949675 20.78057861 109.01428223 C20.04538136 107.11710654 19.3095759 105.22016657 18.57373047 103.32324219 C13.4799891 90.1833003 8.49264799 77.00884352 3.62158203 63.78466797 C1.33902844 57.59252833 -0.97456555 51.41442955 -3.34179688 45.25415039 C-4.63231531 41.89215471 -5.90594394 38.52390183 -7.17773438 35.15478516 C-7.91808217 33.21466948 -8.6840436 31.28437453 -9.453125 29.35546875 C-12.39997451 21.54631754 -12.10621783 16.73899011 -8.75 9.1875 C-6.5484093 6.43551162 -3.93654852 4.91514034 -1 3 C-0.67 2.01 -0.34 1.02 0 0 Z " fill="#FEC14F" transform="translate(373,449)"/>
<path d="M0 0 C1.07121094 0.26683594 2.14242187 0.53367187 3.24609375 0.80859375 C22.0147856 5.97745013 38.16626687 16.56264891 52 30 C52.94101562 30.89460938 53.88203125 31.78921875 54.8515625 32.7109375 C57 35 57 35 57 37 C57.66 37 58.32 37 59 37 C76.67275688 58.08264566 83.52542495 85.93051712 82 113 C81.59957616 117.0793179 80.88929691 121.00070475 80 125 C79.74347656 126.23105469 79.48695313 127.46210938 79.22265625 128.73046875 C73.46768872 154.86547195 58.69975599 179.32953615 36.125 194.23828125 C20.48215406 203.92044598 1.62027373 212.33000514 -17 213 C-18.30324219 213.0515625 -19.60648438 213.103125 -20.94921875 213.15625 C-52.27180258 213.987671 -77.30723082 202.08520893 -100 181 C-100.60714844 180.45859375 -101.21429687 179.9171875 -101.83984375 179.359375 C-117.59560741 164.67871051 -127.20705835 143.38601119 -130.25 122.375 C-130.50040039 120.66485718 -130.50040039 120.66485718 -130.75585938 118.92016602 C-133.58768094 98.47181368 -131.30609347 80.95055929 -123 62 C-122.57074219 61.01773438 -122.14148438 60.03546875 -121.69921875 59.0234375 C-108.81777924 31.51884271 -85.13658969 11.96426837 -56.89648438 1.66357422 C-38.66910534 -4.71413127 -18.60417787 -4.93405865 0 0 Z " fill="#FCAA10" transform="translate(732,273)"/>
<path d="M0 0 C0.84691406 0.29003906 1.69382812 0.58007812 2.56640625 0.87890625 C8.67446934 3.10764988 13.77877048 6.15560155 19 10 C19.8146875 10.57492187 20.629375 11.14984375 21.46875 11.7421875 C34.70064889 21.58443328 43.27648336 36.17883666 46.52734375 52.296875 C49.1958339 73.20372342 45.63182135 92.85022795 33 110 C32.28263672 110.98613281 32.28263672 110.98613281 31.55078125 111.9921875 C21.77435074 124.25582073 5.51104439 133.54575911 -9.96875 135.75390625 C-29.14056877 137.31038123 -48.09261593 134.88986225 -63.43359375 122.3125 C-66.44418293 119.68409835 -69.2262742 116.87598297 -72 114 C-72.66386719 113.36707031 -73.32773437 112.73414063 -74.01171875 112.08203125 C-85.08717302 100.80746769 -90.85631445 82.966778 -91.4375 67.4375 C-90.43596958 46.11459437 -82.16303718 28.19145784 -66.7578125 13.3515625 C-48.87194461 -1.89955998 -22.47869165 -8.48871176 0 0 Z " fill="#FEC457" transform="translate(728,311)"/>
<path d="M0 0 C1.13816162 0.00829834 2.27632324 0.01659668 3.44897461 0.02514648 C12.65022 0.20876625 20.56454592 1.35439117 29.25 4.4375 C30.29873291 4.8075415 30.29873291 4.8075415 31.36865234 5.18505859 C41.0129363 8.66314993 50.31999111 12.79096075 58.25 19.4375 C58.25 20.0975 58.25 20.7575 58.25 21.4375 C58.82234375 21.68886719 59.3946875 21.94023437 59.984375 22.19921875 C73.49672936 29.58441932 82.29707015 48.24506632 86.47265625 62.4140625 C87.48707601 66.06825917 88.40006057 69.74135317 89.25 73.4375 C89.44335938 74.20707031 89.63671875 74.97664063 89.8359375 75.76953125 C93.59021732 99.95984368 86.62650685 125.13400398 72.453125 144.82373047 C58.96130094 162.92051558 35.87086119 176.51325128 13.39453125 180.04296875 C-12.97982906 182.87173451 -36.03429756 175.9890663 -56.75 159.4375 C-57.36875 158.98246094 -57.9875 158.52742187 -58.625 158.05859375 C-74.15387253 146.01652825 -82.1232576 126.93070659 -86.30444336 108.39770508 C-86.60284768 107.08488959 -86.92859849 105.77800884 -87.28051758 104.47851562 C-90.1889222 91.83459328 -89.25166373 77.7954549 -85.75 65.4375 C-85.481875 64.41785156 -85.21375 63.39820313 -84.9375 62.34765625 C-81.43020018 50.4322314 -74.70628258 39.87776338 -66.75 30.4375 C-65.98429688 29.468125 -65.21859375 28.49875 -64.4296875 27.5 C-61.81665807 24.37163538 -58.81963694 21.87074714 -55.5625 19.4375 C-54.99007568 19.00671143 -54.41765137 18.57592285 -53.82788086 18.13208008 C-44.72770629 11.37075322 -35.67829407 6.6657344 -24.75 3.4375 C-23.86892578 3.17493408 -22.98785156 2.91236816 -22.08007812 2.6418457 C-14.63855425 0.58932703 -7.7035371 -0.07319138 0 0 Z M-51.3984375 43.68359375 C-63.06831835 57.35014857 -69.52034559 75.33830376 -69.0546875 93.34375 C-67.16365288 112.54502463 -59.54909026 128.12904406 -45.75 141.4375 C-45.11707031 142.10136719 -44.48414063 142.76523437 -43.83203125 143.44921875 C-32.13453898 154.94013279 -15.14774393 159.60806382 0.8125 159.8125 C17.76204618 159.65116613 32.05196625 153.87516068 45.25 143.4375 C46.28125 142.695 47.3125 141.9525 48.375 141.1875 C61.85189421 128.29655771 69.12871901 111.13744771 69.54272461 92.56103516 C69.68058765 74.70691988 65.09604428 57.65802632 53.4453125 43.65625 C40.45891656 30.53120927 23.43486163 20.42820196 4.61401367 20.24658203 C-17.98992788 20.27762226 -35.46407339 27.1169136 -51.3984375 43.68359375 Z " fill="#DC6103" transform="translate(705.75,287.5625)"/>
<path d="M0 0 C1.23926409 2.58349265 2.28787322 5.08521552 3.28515625 7.76171875 C3.58691269 8.54513138 3.88866913 9.32854401 4.1995697 10.13569641 C5.16455253 12.64903002 6.1134906 15.16809742 7.0625 17.6875 C7.70537016 19.36692345 8.34923866 21.0459651 8.99414062 22.72460938 C13.92255849 35.60092432 13.92255849 35.60092432 16 42 C-12.43656084 51.2955161 -12.43656084 51.2955161 -24.22802734 54.41479492 C-28.34844057 55.50842083 -32.37730677 56.76179125 -36.41186523 58.12939453 C-41.25146601 59.7573557 -46.11742284 61.30498747 -50.97790527 62.8692627 C-54.42703464 63.97943845 -57.87557842 65.09143124 -61.32421875 66.203125 C-62.40100388 66.55017487 -62.40100388 66.55017487 -63.49954224 66.90423584 C-71.08427185 69.3489788 -78.66760416 71.79802898 -86.25 74.25 C-87.27123962 74.58014603 -87.27123962 74.58014603 -88.31311035 74.91696167 C-97.36783084 77.8447394 -106.4179455 80.78642011 -115.46484375 83.73828125 C-116.43876068 84.05592438 -117.41267761 84.3735675 -118.41610718 84.70083618 C-123.21901864 86.26735686 -128.02150563 87.83515506 -132.82324219 89.40527344 C-134.5839673 89.97987004 -136.34470871 90.5544167 -138.10546875 91.12890625 C-138.90194321 91.38988602 -139.69841766 91.65086578 -140.51902771 91.91975403 C-144.98917969 93.37659688 -149.47094262 94.73769286 -154 96 C-158.39246701 86.92417412 -162.46111384 77.72927731 -166.375 68.4375 C-167.03604736 66.88579102 -167.03604736 66.88579102 -167.71044922 65.30273438 C-168.12311035 64.31466797 -168.53577148 63.32660156 -168.9609375 62.30859375 C-169.33009277 61.43001709 -169.69924805 60.55144043 -170.07958984 59.64624023 C-171.07771133 56.77657478 -171.58048964 54.00447491 -172 51 C-171.16267334 50.74943848 -170.32534668 50.49887695 -169.46264648 50.24072266 C-150.01740051 44.41151086 -130.65784711 38.36632086 -111.35351562 32.08691406 C-106.70052478 30.57882472 -102.03987055 29.09587901 -97.375 27.625 C-96.69646973 27.41069336 -96.01793945 27.19638672 -95.31884766 26.97558594 C-83.48895268 23.25270838 -71.61851311 19.65987708 -59.75 16.0625 C-59.02355286 15.84212067 -58.29710571 15.62174133 -57.54864502 15.39468384 C-49.50177438 12.95400715 -41.45188555 10.52737658 -33.375 8.1875 C-28.18502958 6.67710613 -23.05593928 5.04539052 -17.9375 3.3125 C-4.07366543 -1.35788848 -4.07366543 -1.35788848 0 0 Z " fill="#FC9B0F" transform="translate(676,742)"/>
<path d="M0 0 C6.27 0 12.54 0 19 0 C23.02974369 6.92833125 26.96704738 13.80354686 30.5 21 C34.03855121 28.18969268 37.9573601 35.08419817 42 42 C44.31 45.96 46.62 49.92 49 54 C49.33 36.18 49.66 18.36 50 0 C55.94 0 61.88 0 68 0 C68 29.37 68 58.74 68 89 C62.06 89 56.12 89 50 89 C46.13975179 85.04111989 44.69682487 83.05368289 42.5625 78.25 C42.01013672 77.16702637 41.45777344 76.08405273 40.88867188 74.96826172 C39.75766869 72.74562571 38.65412539 70.50880078 37.57861328 68.25878906 C35.24369533 63.43873263 32.61766026 58.79529283 30 54.125 C29.16544743 52.58659829 28.33206726 51.04755985 27.5 49.5078125 C24.78166312 44.60631131 21.88365895 39.80609825 19 35 C19 52.82 19 70.64 19 89 C12.73 89 6.46 89 0 89 C0 59.63 0 30.26 0 0 Z " fill="#DC630C" transform="translate(165,875)"/>
<path d="M0 0 C44.69465649 0 44.69465649 0 55 9 C60.49777836 14.64245674 61.12825625 20.22924204 61.375 27.8125 C61.18064103 39.25538444 56.85961303 46.14038697 49 54 C49.42410156 54.98919434 49.84820313 55.97838867 50.28515625 56.99755859 C51.85421355 60.65991377 53.41854762 64.32427032 54.98144531 67.98925781 C55.65918895 69.57672445 56.33822092 71.16364168 57.01855469 72.75 C57.99491297 75.02722049 58.96665631 77.30636152 59.9375 79.5859375 C60.24373291 80.29744965 60.54996582 81.00896179 60.86547852 81.74203491 C63 86.77225659 63 86.77225659 63 89 C56.4 89 49.8 89 43 89 C41.28606081 84.92684391 39.57544877 80.8526056 37.87304688 76.7746582 C37.29292721 75.38778934 36.71090747 74.00171368 36.12695312 72.61645508 C35.28795694 70.625266 34.45583338 68.63132516 33.625 66.63671875 C33.12226562 65.43748779 32.61953125 64.23825684 32.1015625 63.00268555 C31 60 31 60 31 57 C27.04 57 23.08 57 19 57 C19 67.56 19 78.12 19 89 C12.73 89 6.46 89 0 89 C0 59.63 0 30.26 0 0 Z M19 16 C19 24.58 19 33.16 19 42 C30.35019003 42.84520877 30.35019003 42.84520877 40 38 C42.9741633 33.68266618 43.6486549 30.18923924 43 25 C40.97333762 21.29609979 39.51955484 19.34636989 36 17 C29.88867523 15.60776773 29.88867523 15.60776773 19 16 Z " fill="#DD630C" transform="translate(522,875)"/>
<path d="M0 0 C46.18635171 0 46.18635171 0 57 10 C65.93668517 18.93668517 66.21952337 31.76497286 66.25 43.625 C66.22654428 57.1620073 65.53280334 68.49679153 56 79 C40.03783945 93.80184632 22.22423401 89 0 89 C0 59.63 0 30.26 0 0 Z M19 16 C19 35.14 19 54.28 19 74 C31.36185614 74.87424492 31.36185614 74.87424492 40.828125 69.3515625 C48.69950548 59.79345763 48.78672787 49.00197079 48 37 C47.00443027 29.51635297 45.20970188 22.778895 39 18 C32.57633574 15.07152331 32.57633574 15.07152331 19 16 Z " fill="#DD640F" transform="translate(674,875)"/>
<path d="M0 0 C0 0.66 0 1.32 0 2 C0.5775 2.226875 1.155 2.45375 1.75 2.6875 C6.75207981 5.60537989 9.10326723 10.46303857 11.14453125 15.69140625 C12.81750174 22.16175332 12.58787306 28.7939011 12.52148438 35.44042969 C12.50004108 37.99510619 12.52135853 40.54697146 12.546875 43.1015625 C12.56978402 55.63149895 11.08586786 64.64749777 2.140625 74.0234375 C-12.93339389 87.94214837 -31.56835532 83 -52 83 C-52 53.63 -52 24.26 -52 -6 C-14.14091471 -7.45611867 -14.14091471 -7.45611867 0 0 Z M-34 10 C-34 29.14 -34 48.28 -34 68 C-20.11803399 69.11803399 -20.11803399 69.11803399 -13 65 C-5.91161828 57.86617993 -5.0244718 48.54401317 -4.75 38.9375 C-4.99593277 29.36149283 -6.35738727 19.41614382 -13.5625 12.5625 C-20.46048971 8.14071173 -24.0912034 10 -34 10 Z " fill="#DC6008" transform="translate(299,881)"/>
<path d="M0 0 C1.64453125 1.3125 1.64453125 1.3125 3.76953125 3.625 C3.76953125 4.285 3.76953125 4.945 3.76953125 5.625 C4.42953125 5.625 5.08953125 5.625 5.76953125 5.625 C6.55429403 7.05494324 7.32132038 8.49461773 8.08203125 9.9375 C8.51128906 10.73800781 8.94054687 11.53851562 9.3828125 12.36328125 C13.36169774 21.72206766 14.22387369 30.36476384 13.84326172 40.4675293 C13.76975225 42.55622059 13.73889551 44.64268313 13.7109375 46.73242188 C13.39606412 59.49658489 10.01406781 69.26315096 1.046875 78.55859375 C-5.9153542 84.87595095 -12.43016418 85.81922 -21.48046875 85.875 C-22.30160156 85.895625 -23.12273438 85.91625 -23.96875 85.9375 C-33.23872205 85.99626369 -40.48684715 83.01884869 -47.23046875 76.625 C-55.5957017 66.73706336 -57.89563039 55.91606803 -57.69702148 43.2097168 C-57.66804786 41.1930067 -57.6764603 39.1789395 -57.68945312 37.16210938 C-57.61918782 26.17369637 -56.47125417 15.89162078 -50.23046875 6.625 C-49.65296875 5.75875 -49.07546875 4.8925 -48.48046875 4 C-35.84072772 -9.34194887 -14.96236079 -9.22373204 0 0 Z M-33.23046875 14.625 C-40.90236036 25.68767827 -40.13363735 39.714857 -39.23046875 52.625 C-38.19281841 58.25795898 -36.58898069 62.78001627 -32.29296875 66.6875 C-28.10396528 69.33768587 -25.81952689 70.7116759 -20.79296875 70.4375 C-17.21265441 69.62093708 -14.42265558 68.41573895 -11.23046875 66.625 C-11.23046875 65.965 -11.23046875 65.305 -11.23046875 64.625 C-10.57046875 64.625 -9.91046875 64.625 -9.23046875 64.625 C-3.00029451 51.99078619 -2.7178288 36.59868959 -6.34375 23.15625 C-7.14919339 20.85701072 -8.07408498 18.76607738 -9.23046875 16.625 C-9.89046875 16.625 -10.55046875 16.625 -11.23046875 16.625 C-11.45734375 16.00625 -11.68421875 15.3875 -11.91796875 14.75 C-13.68545588 11.88835417 -15.00061187 11.48629517 -18.23046875 10.625 C-24.0222067 9.96933155 -28.71051564 10.91048927 -33.23046875 14.625 Z " fill="#DD620A" transform="translate(649.23046875,879.375)"/>
<path d="M0 0 C5.94 0 11.88 0 18 0 C18.01458252 1.91256592 18.02916504 3.82513184 18.04418945 5.7956543 C18.09588224 12.12214093 18.1611793 18.44837333 18.23571491 24.77463055 C18.28039984 28.60941647 18.31965984 32.44409663 18.34643555 36.27905273 C18.37248767 39.98157695 18.41290288 43.68369372 18.46318626 47.38596535 C18.47984221 48.79686214 18.49136444 50.20782939 18.49761391 51.61881065 C18.50726789 53.59844548 18.53703951 55.577951 18.56762695 57.55737305 C18.57873001 58.68322311 18.58983307 59.80907318 18.60127258 60.96903992 C19.044404 64.33754076 20.14267529 66.19778374 22 69 C22 69.66 22 70.32 22 71 C27.92273752 73.10930491 32.7475597 74.80358855 39 73 C42.9674925 70.82910788 45.4025957 69.24605021 47 65 C47.32714795 61.96874863 47.32714795 61.96874863 47.31884766 58.57910156 C47.33871735 57.27805481 47.35858704 55.97700806 47.37905884 54.63653564 C47.39093441 53.22123382 47.40259732 51.8059302 47.4140625 50.390625 C47.43277797 48.93901472 47.45235167 47.48741527 47.4727478 46.03582764 C47.52403522 42.22188713 47.56367892 38.40791138 47.60089111 34.59381104 C47.64095212 30.69917096 47.69203487 26.80467713 47.7421875 22.91015625 C47.83890669 15.2735303 47.92230503 7.63684754 48 0 C54.27 0 60.54 0 67 0 C67.09087676 8.00694154 67.16404424 16.01347269 67.20724869 24.02079391 C67.22799934 27.74013394 67.25608273 31.45909859 67.30175781 35.17822266 C67.34566943 38.77685408 67.36923088 42.3751277 67.37950897 45.97400665 C67.39034408 47.99448972 67.42149526 50.01483164 67.45318604 52.03509521 C67.4556831 62.45233354 65.86276755 72.76467893 59 81 C58.34 81 57.68 81 57 81 C56.505 82.485 56.505 82.485 56 84 C53.8203125 85.3515625 53.8203125 85.3515625 51.125 86.625 C50.24070312 87.05039062 49.35640625 87.47578125 48.4453125 87.9140625 C40.32769292 91.51901177 28.39985129 91.75843946 19.84082031 89.40673828 C16.30827377 88.01537721 13.11050321 86.16382832 10 84 C10 83.34 10 82.68 10 82 C9.01 81.67 8.02 81.34 7 81 C5.68359375 79.21484375 5.68359375 79.21484375 4.4375 76.9375 C3.81681641 75.83728516 3.81681641 75.83728516 3.18359375 74.71484375 C-0.46688497 66.34163349 -0.26502296 58.21065791 -0.1953125 49.21875 C-0.19157606 47.79529012 -0.18873207 46.37182764 -0.18673706 44.94836426 C-0.17915025 41.22640716 -0.15954519 37.50460953 -0.1373291 33.78271484 C-0.11676314 29.97495683 -0.1077125 26.16717271 -0.09765625 22.359375 C-0.07629387 14.90616936 -0.04115301 7.45312746 0 0 Z " fill="#DC6208" transform="translate(751,875)"/>
<path d="M0 0 C7.26 0 14.52 0 22 0 C23.07314453 3.78210938 23.07314453 3.78210938 24.16796875 7.640625 C25.17335297 11.17740423 26.1803314 14.71372853 27.1875 18.25 C27.45067017 19.17450958 27.71384033 20.09901917 27.98498535 21.05154419 C31.16454518 32.2113098 34.38525562 43.35749452 37.69140625 54.48046875 C37.99060471 55.48769989 38.28980316 56.49493103 38.59806824 57.53268433 C40.05408096 62.42963351 41.51607114 67.32471597 42.98510742 72.21777344 C43.51620213 73.99802037 44.04721248 75.77829247 44.578125 77.55859375 C44.94756981 78.77919746 44.94756981 78.77919746 45.32447815 80.02445984 C46.24210354 83.1110861 47 85.76120185 47 89 C40.73 89 34.46 89 28 89 C25 80 25 80 24 72 C15.09 72 6.18 72 -3 72 C-4.32 77.61 -5.64 83.22 -7 89 C-13.27 89 -19.54 89 -26 89 C-24.8887689 78.99892009 -24.8887689 78.99892009 -22.9375 73.6875 C-20.40121452 66.50009784 -18.31041972 59.21132763 -16.25 51.875 C-13.35760945 41.62427326 -10.34332538 31.42222264 -7.1875 21.25 C-6.62820801 19.43991455 -6.62820801 19.43991455 -6.05761719 17.59326172 C-4.19893837 11.63554735 -2.19646537 5.85724098 0 0 Z M10 24 C8.86922307 27.64406649 7.74645252 31.29055419 6.625 34.9375 C6.30789063 35.95908203 5.99078125 36.98066406 5.6640625 38.03320312 C5.2 39.54624023 5.2 39.54624023 4.7265625 41.08984375 C4.44377441 42.00628662 4.16098633 42.92272949 3.86962891 43.86694336 C2.75810822 47.87147592 1.90154793 51.94303431 1 56 C7.27 56 13.54 56 20 56 C18.87523119 51.97910187 17.75019312 47.9582794 16.625 43.9375 C16.14933594 42.2369043 16.14933594 42.2369043 15.6640625 40.50195312 C14.12337702 34.99721229 12.57880905 29.49393655 11 24 C10.67 24 10.34 24 10 24 Z " fill="#DC630C" transform="translate(370,875)"/>
<path d="M0 0 C37.81578947 0 37.81578947 0 46.9375 7.375 C52.85740081 14.90941922 53.44969955 23.77261558 52.9375 33.125 C51.34452869 39.7092814 47.84407981 45.2917434 43 50 C43.51949219 51.07636719 44.03898437 52.15273438 44.57421875 53.26171875 C56 77.1138595 56 77.1138595 56 84 C50.06 84 44.12 84 38 84 C36.84371094 81.03773438 36.84371094 81.03773438 35.6640625 78.015625 C34.9132116 76.09585166 34.16171506 74.17633224 33.41015625 72.25683594 C32.88962393 70.92637087 32.36975944 69.59564432 31.85058594 68.26464844 C31.10268275 66.34760923 30.35235458 64.43153434 29.6015625 62.515625 C28.92601318 60.78747559 28.92601318 60.78747559 28.23681641 59.02441406 C27.82866699 58.02635742 27.42051758 57.02830078 27 56 C26.76071777 55.22624023 26.52143555 54.45248047 26.27490234 53.65527344 C24.62559888 51.11557013 24.62559888 51.11557013 18 51 C18 61.89 18 72.78 18 84 C12.06 84 6.12 84 0 84 C0 56.28 0 28.56 0 0 Z M18 15 C18 22.59 18 30.18 18 38 C27.29003836 38.81515042 27.29003836 38.81515042 34 35 C36.61525329 30.94184834 37.70124748 27.80855413 37 23 C34.67081717 18.67437475 33.46607258 17.23303629 29 15 C25.37 15 21.74 15 18 15 Z " fill="#DC6009" transform="translate(376,335)"/>
<path d="M0 0 C43.10810811 0 43.10810811 0 52 7 C59.28802915 14.30337237 61.35994845 19.58496908 61.375 29.8125 C61.39949219 30.67681641 61.42398438 31.54113281 61.44921875 32.43164062 C61.4851105 40.35773455 58.95216857 46.17780844 53.875 52.25 C53.37742187 52.87390625 52.87984375 53.4978125 52.3671875 54.140625 C45.10874791 59.84197359 37.30698575 60.55757714 28.375 60.25 C23.239375 60.12625 23.239375 60.12625 18 60 C18 69.57 18 79.14 18 89 C12.06 89 6.12 89 0 89 C0 59.63 0 30.26 0 0 Z M18 16 C18 25.24 18 34.48 18 44 C30.92020596 44.48606849 30.92020596 44.48606849 41.5 38.6875 C43.56075958 34.99530576 44.55517287 32.19102574 43.48828125 27.98046875 C42.16515017 24.20709492 40.72329825 20.98356685 38 18 C35.86257084 17.08766981 35.86257084 17.08766981 33.4375 16.75 C32.65246094 16.60046875 31.86742187 16.4509375 31.05859375 16.296875 C26.72497044 15.87624234 22.3539893 16 18 16 Z " fill="#DC6106" transform="translate(452,875)"/>
<path d="M0 0 C5.61 0 11.22 0 17 0 C17 10.89 17 21.78 17 33 C23.6 33 30.2 33 37 33 C37 22.11 37 11.22 37 0 C42.94 0 48.88 0 55 0 C55 27.72 55 55.44 55 84 C49.06 84 43.12 84 37 84 C36.505 66.675 36.505 66.675 36 49 C29.73 48.67 23.46 48.34 17 48 C17 59.88 17 71.76 17 84 C11.39 84 5.78 84 0 84 C0 56.28 0 28.56 0 0 Z " fill="#DB5E06" transform="translate(501,335)"/>
<path d="M0 0 C5.16601054 4.16836797 8.64855687 11.23414283 10.04296875 17.6484375 C10.04296875 20.2884375 10.04296875 22.9284375 10.04296875 25.6484375 C4.43296875 25.6484375 -1.17703125 25.6484375 -6.95703125 25.6484375 C-10.95703125 16.8984375 -10.95703125 16.8984375 -10.95703125 14.6484375 C-15.36481611 12.51563838 -20.06500454 11.54342083 -24.95703125 11.6484375 C-26.30562674 12.28366379 -27.64080409 12.94860302 -28.95703125 13.6484375 C-29.94703125 13.6484375 -30.93703125 13.6484375 -31.95703125 13.6484375 C-38.85257489 25.96190828 -38.65658121 44.16047796 -35.6015625 57.5234375 C-34.72312413 60.41962218 -33.41213648 63.00279163 -31.95703125 65.6484375 C-31.95703125 66.3084375 -31.95703125 66.9684375 -31.95703125 67.6484375 C-23.48571814 70.64429666 -23.48571814 70.64429666 -14.89453125 69.2109375 C-11.01019407 67.07560567 -9.35415932 64.92714221 -7.95703125 60.6484375 C-7.60931505 58.98471206 -7.27350242 57.31838806 -6.95703125 55.6484375 C-4.87340035 55.78995578 -2.79013187 55.93681686 -0.70703125 56.0859375 C0.453125 56.16714844 1.61328125 56.24835937 2.80859375 56.33203125 C5.35274251 56.58091537 7.60250123 56.92958692 10.04296875 57.6484375 C10.80239009 64.86294026 7.72608731 71.02475269 3.91796875 76.9609375 C-5.06283606 85.35603765 -15.38978824 86.27837261 -27.09375 86.0546875 C-35.13733057 85.61846775 -41.82286306 82.25659235 -47.39453125 76.4609375 C-55.13409599 66.17968138 -56.16362884 55.66631352 -56.19726562 43.25854492 C-56.20689335 41.11661766 -56.23791581 38.97568375 -56.26953125 36.83398438 C-56.3741179 23.35628338 -54.38753729 12.54877349 -45.76953125 1.9609375 C-32.15568495 -9.23266946 -14.81596512 -8.65357255 0 0 Z " fill="#DD630C" transform="translate(882.95703125,879.3515625)"/>
<path d="M0 0 C7.59 0 15.18 0 23 0 C27.97445857 17.7032202 32.73056396 35.45757243 37.375 53.25 C37.6392981 54.26040344 37.90359619 55.27080688 38.17590332 56.31182861 C38.93958145 59.23341041 39.70073592 62.15563688 40.4609375 65.078125 C40.687742 65.94595612 40.91454651 66.81378723 41.14822388 67.70791626 C42.55019904 73.11621168 43.81600035 78.53972073 45 84 C39.06 84 33.12 84 27 84 C25.54954607 80.37386518 24.58812861 77.55359534 23.875 73.8125 C23.62363281 72.52279297 23.62363281 72.52279297 23.3671875 71.20703125 C23 69 23 69 23 67 C15.41 67 7.82 67 0 67 C-0.33 69.64 -0.66 72.28 -1 75 C-1.588463 78.02392665 -2.29672869 80.99937574 -3 84 C-8.94 84 -14.88 84 -21 84 C-19.87738153 75.01905227 -19.87738153 75.01905227 -18.57421875 70.52734375 C-18.27773438 69.48473389 -17.98125 68.44212402 -17.67578125 67.36791992 C-17.34964844 66.23588135 -17.02351563 65.10384277 -16.6875 63.9375 C-12.72625366 49.91277486 -9.08890582 35.81167115 -5.5 21.6875 C-5.22707123 20.61402313 -4.95414246 19.54054626 -4.67294312 18.43453979 C-3.11150898 12.29064228 -1.55516491 6.14549333 0 0 Z M11 19 C9.9729743 23.19644909 8.95811673 27.39559991 7.9543457 31.59765625 C7.6113093 33.0261914 7.2649829 34.45394074 6.9152832 35.88085938 C6.41266997 37.93420961 5.92202713 39.99011197 5.43359375 42.046875 C5.13509521 43.28276367 4.83659668 44.51865234 4.52905273 45.79199219 C3.75675487 49.15231536 3.75675487 49.15231536 5 53 C9.62 53 14.24 53 19 53 C20.561377 49.87724601 19.19210884 47.03733804 18.34765625 43.8046875 C18.16867294 43.09724396 17.98968964 42.38980042 17.80528259 41.66091919 C17.23094482 39.39720844 16.64684891 37.13614493 16.0625 34.875 C15.67188178 33.342612 15.28189962 31.81006171 14.89257812 30.27734375 C13.93576156 26.51630485 12.97018489 22.75761164 12 19 C11.67 19 11.34 19 11 19 Z " fill="#DC620B" transform="translate(327,335)"/>
<path d="M0 0 C5.69235891 6.54621275 7.04678506 13.39983163 6.5 21.875 C1.55 21.875 -3.4 21.875 -8.5 21.875 C-8.87125 20.26625 -9.2425 18.6575 -9.625 17 C-10.82067411 12.78685665 -10.82067411 12.78685665 -14.25 10.1875 C-19.33644746 9.69841851 -24.1330195 10.0196666 -28.5 12.875 C-29.94430855 15.76361709 -29.87688506 17.67147701 -29.5 20.875 C-25.90522959 25.28891771 -22.72643182 26.78089027 -17.3125 28.3125 C-8.26894985 31.06973379 0.23496847 34.64838823 5.5 42.875 C8.46350592 50.91880177 9.09027041 60.71763239 6 68.8125 C2.8282331 74.87780863 -2.44526774 78.2714666 -8.6875 80.75 C-17.37838548 83.26735993 -28.41069438 83.25095543 -36.5 78.875 C-43.59680477 72.80759524 -47.28582562 66.22711895 -48.1875 56.9375 C-48.290625 55.266875 -48.39375 53.59625 -48.5 51.875 C-42.89 51.875 -37.28 51.875 -31.5 51.875 C-30 57.875 -30 57.875 -28.5 63.875 C-22.22352497 65.76375406 -17.65194443 66.46529239 -11.5 63.875 C-9.53148833 60.88577857 -9.30039736 59.06263571 -9.890625 55.55078125 C-10.57731898 53.07149659 -11.13792644 51.06482887 -12.5 48.875 C-14.72497824 47.68137058 -14.72497824 47.68137058 -17.5 46.875 C-40.69319381 38.164434 -40.69319381 38.164434 -45.62109375 29.1328125 C-48.61321032 21.44639749 -47.80844205 14.73112189 -44.65234375 7.25 C-41.29831787 0.33729581 -36.47657689 -2.33006935 -29.5 -5.125 C-19.41418832 -7.56957936 -8.62328926 -6.13454249 0 0 Z " fill="#DC630E" transform="translate(237.5,339.125)"/>
<path d="M0 0 C0 5.28 0 10.56 0 16 C-10.89 16 -21.78 16 -33 16 C-33 21.61 -33 27.22 -33 33 C-22.77 33 -12.54 33 -2 33 C-2 37.62 -2 42.24 -2 47 C-11.9 47.33 -21.8 47.66 -32 48 C-32.33 54.93 -32.66 61.86 -33 69 C-21.78 69 -10.56 69 1 69 C1 73.95 1 78.9 1 84 C-15.5 84 -32 84 -49 84 C-49.88267362 79.5866319 -50.13573971 75.6336439 -50.11352539 71.18041992 C-50.11367142 70.40915771 -50.11381744 69.63789551 -50.1139679 68.84326172 C-50.11327378 66.305635 -50.10550492 63.76808258 -50.09765625 61.23046875 C-50.09579029 59.46641581 -50.09436723 57.70236236 -50.09336853 55.93830872 C-50.08955738 51.3039506 -50.07973909 46.66962401 -50.06866455 42.03527832 C-50.05842026 37.30282009 -50.05386445 32.57035675 -50.04882812 27.83789062 C-50.03811555 18.55857993 -50.02105599 9.27929259 -50 0 C-43.20084381 -0.16799724 -36.4015327 -0.32792978 -29.60205078 -0.48217773 C-27.28755365 -0.53564421 -24.97309887 -0.59097706 -22.65869141 -0.64819336 C-19.33765802 -0.7299747 -16.01653164 -0.80510733 -12.6953125 -0.87890625 C-11.65569366 -0.90594131 -10.61607483 -0.93297638 -9.54495239 -0.96083069 C-8.58410736 -0.98092697 -7.62326233 -1.00102325 -6.63330078 -1.02172852 C-5.36089035 -1.05170677 -5.36089035 -1.05170677 -4.06277466 -1.08229065 C-2 -1 -2 -1 0 0 Z " fill="#DB600B" transform="translate(303,335)"/>
<path d="M0 0 C0.36125977 1.11407227 0.72251953 2.22814453 1.09472656 3.37597656 C2.81135044 8.66790302 4.53034208 13.95905879 6.25 19.25 C6.72069412 20.69859406 6.72069412 20.69859406 7.20089722 22.17645264 C10.57444462 32.55377429 13.9600502 42.92648352 17.42578125 53.2734375 C17.69363434 54.07346191 17.96148743 54.87348633 18.23745728 55.69775391 C19.48759378 59.42814626 20.74217535 63.15697239 22.00292969 66.88378906 C23.3621795 70.91394897 24.69163295 74.95304874 26 79 C26.24272644 79.74616577 26.48545288 80.49233154 26.73553467 81.2611084 C27.47337063 83.55230539 28.19064094 85.84900369 28.90234375 88.1484375 C29.12829727 88.84587067 29.35425079 89.54330383 29.58705139 90.26187134 C30.88312991 94.54461932 31.14981483 97.66704328 30 102 C28.3689242 104.8922794 26.33759849 107.54123688 23.109375 108.6484375 C20.90669629 109.01555062 18.79506307 109.23898406 16.5625 109.3125 C15.45068359 109.36857422 15.45068359 109.36857422 14.31640625 109.42578125 C10.72614337 108.76585097 9.48936515 107.73673109 7 105 C5.25523202 101.15107266 4.04903315 97.16129551 2.8125 93.125 C2.02531526 90.66127432 1.23753367 88.19773929 0.44921875 85.734375 C0.04188124 84.44344571 -0.3651809 83.1524295 -0.77197266 81.86132812 C-2.72967749 75.67394689 -4.81119377 69.52759461 -6.875 63.375 C-7.70475733 60.88162029 -8.53417827 58.38812862 -9.36328125 55.89453125 C-10.98446782 51.02416211 -12.62046888 46.15902187 -14.26849365 41.29766846 C-15.28902201 38.28546507 -16.30500251 35.2717365 -17.32061768 32.25787354 C-17.81006848 30.80949377 -18.30168136 29.36184259 -18.79559326 27.91497803 C-19.48517031 25.89436926 -20.16713998 23.87133146 -20.84765625 21.84765625 C-21.23961182 20.69273682 -21.63156738 19.53781738 -22.03540039 18.34790039 C-23.02840671 14.90140695 -23.57673006 11.55778598 -24 8 C-22.74703125 7.59007812 -21.4940625 7.18015625 -20.203125 6.7578125 C-18.55203054 6.21370183 -16.90099178 5.66942214 -15.25 5.125 C-14.425 4.85558594 -13.6 4.58617187 -12.75 4.30859375 C-11.95078125 4.04433594 -11.1515625 3.78007812 -10.328125 3.5078125 C-9.5949707 3.26691895 -8.86181641 3.02602539 -8.10644531 2.77783203 C-5.9568353 2.03098562 -5.9568353 2.03098562 -3.85449219 0.90576172 C-2 0 -2 0 0 0 Z " fill="#FCAA10" transform="translate(766,493)"/>
<path d="M0 0 C6.52397135 7.0831689 8.32209928 15.08764979 8.1875 24.375 C2.9075 24.375 -2.3725 24.375 -7.8125 24.375 C-8.245625 22.9725 -8.67875 21.57 -9.125 20.125 C-10.64144372 15.22732526 -10.64144372 15.22732526 -13.8125 11.375 C-18.61825841 10.1144732 -20.61383303 9.80959105 -25.125 11.9375 C-29.08517442 15.5292861 -30.63979299 18.73276273 -31.20068359 24.06616211 C-31.22026672 25.42808616 -31.22291102 26.79033154 -31.2109375 28.15234375 C-31.21380768 28.88191788 -31.21667786 29.611492 -31.21963501 30.36317444 C-31.22166669 31.89861838 -31.2161998 33.43408873 -31.20361328 34.96948242 C-31.18756865 37.30251789 -31.20347904 39.63381522 -31.22265625 41.96679688 C-31.2206732 43.46614961 -31.21682826 44.96550128 -31.2109375 46.46484375 C-31.21701019 47.15360092 -31.22308289 47.84235809 -31.2293396 48.55198669 C-31.14382074 54.52797016 -29.65828245 59.0370089 -25.9375 63.75 C-23.36946828 65.71378896 -22.05501662 66.29959264 -18.8125 66.375 C-14.98630299 65.18755955 -12.53688334 64.27423449 -10 61.125 C-8.46863545 57.74109862 -8.46863545 57.74109862 -6.8125 51.375 C-1.8625 52.035 3.0875 52.695 8.1875 53.375 C8.1875 62.20045656 6.6124511 68.67070689 1.06640625 75.6484375 C-4.76229002 81.00453677 -13.68174795 82.71218446 -21.3828125 82.5859375 C-28.93629545 81.93016888 -35.47107844 78.72766666 -40.8125 73.375 C-49.02192614 62.6718014 -49.20870735 51.45093759 -49.23803711 38.54711914 C-49.24992572 36.0779265 -49.29920835 33.61124513 -49.34960938 31.14257812 C-49.45457419 21.01006348 -49.12470584 10.85252469 -41.6315918 3.1262207 C-29.0147145 -7.60917976 -13.92604836 -8.04616127 0 0 Z " fill="#DC620B" transform="translate(484.8125,338.625)"/>
<path d="M0 0 C17.49 0 34.98 0 53 0 C53 5.28 53 10.56 53 16 C41.45 16 29.9 16 18 16 C18 23.26 18 30.52 18 38 C27.9 38 37.8 38 48 38 C48 43.28 48 48.56 48 54 C38.1 54 28.2 54 18 54 C18 65.55 18 77.1 18 89 C12.06 89 6.12 89 0 89 C0 59.63 0 30.26 0 0 Z " fill="#DC6008" transform="translate(72,875)"/>
<path d="M0 0 C20.79 0 41.58 0 63 0 C63 5.28 63 10.56 63 16 C55.74 16 48.48 16 41 16 C41 40.09 41 64.18 41 89 C35.06 89 29.12 89 23 89 C23 64.91 23 40.82 23 16 C15.41 16 7.82 16 0 16 C0 10.72 0 5.44 0 0 Z " fill="#DC5F07" transform="translate(895,875)"/>
<path d="M0 0 C5.94 0 11.88 0 18 0 C18 29.37 18 58.74 18 89 C11.73 89 5.46 89 -1 89 C-0.67 59.63 -0.34 30.26 0 0 Z " fill="#DB5E08" transform="translate(134,875)"/>
<path d="M0 0 C3.39890142 2.06889652 5.88937011 4.11279537 7 8 C6.80743088 13.29565084 5.69046589 16.19770181 2 20 C-1.47263273 21.73631636 -5.21193013 21.60190402 -9 21 C-11.75569447 18.81840855 -13.43588747 17.12822506 -15 14 C-15.3751455 9.02932218 -15.15878799 5.94848498 -12 2 C-8.5392985 -0.69165672 -4.20123088 -0.68489251 0 0 Z " fill="#DD6103" transform="translate(273,126)"/>
<path d="M0 0 C4.82581133 0.13113618 7.54461932 1.72627038 11 5.0625 C12.71618326 8.31421564 12.56912088 10.68710162 12.1875 14.3125 C10.48134059 18.15135867 9.02556914 19.73577971 5.1875 21.3125 C2.11430117 21.83477887 -0.74148721 21.86539179 -3.8125 21.3125 C-6.56819447 19.13090855 -8.24838747 17.44072506 -9.8125 14.3125 C-10.41371564 9.0218024 -9.02523363 6.47015529 -5.8125 2.3125 C-3.8125 0.3125 -3.8125 0.3125 0 0 Z " fill="#DD6103" transform="translate(147.8125,125.6875)"/>
<path d="M0 0 C2.9375 2.4375 2.9375 2.4375 5 5 C5.33 5.33 5.66 5.66 6 6 C6.58169863 10.61544489 6.6241677 14.00133167 4.125 18 C0.59185943 21.32530877 -2.04661263 21.33074386 -6.73828125 21.29296875 C-10.0542278 20.86344199 -11.74987627 19.39075646 -14 17 C-15.73631636 13.52736727 -15.60190402 9.78806987 -15 6 C-10.79829204 0.69257942 -6.77617381 -1.20724936 0 0 Z " fill="#DC6103" transform="translate(214,126)"/>
<path d="M0 0 C8.25 0.33 16.5 0.66 25 1 C25 1.33 25 1.66 25 2 C17.41 2 9.82 2 2 2 C2 30.38 2 58.76 2 88 C6.62 88 11.24 88 16 88 C16 78.76 16 69.52 16 60 C16.33 60 16.66 60 17 60 C17 69.57 17 79.14 17 89 C11.39 89 5.78 89 0 89 C0 59.63 0 30.26 0 0 Z " fill="#D85403" transform="translate(452,875)"/>
<path d="M0 0 C65.34 0 130.68 0 198 0 C195.50170584 2.49829416 194.04522336 2.22950262 190.63808 2.2319895 C189.88517077 2.22227287 189.13226153 2.21255624 188.35653687 2.20254517 C187.55853531 2.20017046 186.76053375 2.19779576 185.93835032 2.1953491 C183.24961332 2.18488642 180.56119932 2.16000288 177.87255859 2.13525391 C175.95111024 2.12483362 174.02965692 2.11529731 172.10820007 2.10658264 C166.87906242 2.08034518 161.65008051 2.0416805 156.4210391 2.00085878 C150.96112355 1.96032355 145.50114798 1.93111417 140.04116821 1.90072632 C129.69616907 1.84141785 119.35126502 1.77185789 109.00635588 1.69865549 C97.23148931 1.61583056 85.45656246 1.54437208 73.68161654 1.47388959 C49.45432236 1.32861405 25.22713951 1.16899534 1 1 C1.3609375 1.90363281 1.721875 2.80726563 2.09375 3.73828125 C2.78984375 5.50751953 2.78984375 5.50751953 3.5 7.3125 C3.9640625 8.48425781 4.428125 9.65601563 4.90625 10.86328125 C6 14 6 14 6 17 C5.34 17 4.68 17 4 17 C3.3210322 15.29651829 2.65738043 13.58692821 2 11.875 C1.62875 10.92367188 1.2575 9.97234375 0.875 8.9921875 C0 6 0 6 0 0 Z " fill="#DF6C0E" transform="translate(423,471)"/>
<path d="M0 0 C5.94 0 11.88 0 18 0 C18 21.78 18 43.56 18 66 C16 64 16 64 15.75949097 61.4057312 C15.76393219 60.30874908 15.76837341 59.21176697 15.77294922 58.08154297 C15.77310028 56.84040741 15.77325134 55.59927185 15.77340698 54.32052612 C15.783621 52.9610783 15.794053 51.6016321 15.8046875 50.2421875 C15.80841716 48.85499271 15.81126435 47.46779529 15.81326294 46.08059692 C15.82090316 42.42759949 15.84055484 38.77476083 15.8626709 35.12182617 C15.88312104 31.39504138 15.89226287 27.66823096 15.90234375 23.94140625 C15.92380052 16.62752337 15.95898566 9.31380415 16 2 C11.05 2 6.1 2 1 2 C1 19.49 1 36.98 1 55 C0.67 55 0.34 55 0 55 C0 36.85 0 18.7 0 0 Z " fill="#D74A00" transform="translate(751,875)"/>
<path d="M0 0 C5.28 0 10.56 0 16 0 C16 0.66 16 1.32 16 2 C11.38 2 6.76 2 2 2 C2 17.18 2 32.36 2 48 C1.01 48.495 1.01 48.495 0 49 C0 32.83 0 16.66 0 0 Z " fill="#D95101" transform="translate(215,875)"/>
<path d="M0 0 C0.33 0 0.66 0 1 0 C1.02545887 6.54702927 1.0429125 13.09404565 1.05493164 19.64111328 C1.05994495 21.86605303 1.06675728 24.09098951 1.07543945 26.31591797 C1.08763687 29.52312021 1.09325847 32.7302787 1.09765625 35.9375 C1.10281754 36.92427734 1.10797882 37.91105469 1.11329651 38.92773438 C1.11373464 44.38249806 0.80556782 49.60353183 0 55 C-0.33 55 -0.66 55 -1 55 C-2.05129446 37.99155747 -2.11165965 21.03239192 -2 4 C-1.34 4 -0.68 4 0 4 C0 2.68 0 1.36 0 0 Z " fill="#D64910" transform="translate(255,356)"/>
<path d="M0 0 C-1.71896484 0.02126953 -1.71896484 0.02126953 -3.47265625 0.04296875 C-14.76856967 0.10710216 -14.76856967 0.10710216 -24 6 C-22.49048817 1.77336686 -19.8148346 0.16921968 -16 -2 C-10.6193775 -3.84073928 -4.69936196 -3.13290797 0 0 Z " fill="#CE5B07" transform="translate(364,637)"/>
<path d="M0 0 C0 0.66 0 1.32 0 2 C-0.70125 1.83757813 -1.4025 1.67515625 -2.125 1.5078125 C-5.14302565 0.97473732 -7.93713337 0.86718656 -11 0.875 C-12.5159375 0.87113281 -12.5159375 0.87113281 -14.0625 0.8671875 C-16.81714744 0.99173273 -19.31838803 1.37889135 -22 2 C-22.33 1.34 -22.66 0.68 -23 0 C-15.28754845 -2.68259184 -7.66686582 -3.22815403 0 0 Z " fill="#CD5D24" transform="translate(606,521)"/>
<path d="M0 0 C3.44514968 2.73128984 4.65483751 6.52643058 6.1875 10.5 C6.46013672 11.17675781 6.73277344 11.85351562 7.01367188 12.55078125 C8.17796141 15.50965239 9 17.79271544 9 21 C8.34 21 7.68 21 7 21 C5.65605607 17.67083939 4.3243571 14.33700016 3 11 C2.53787109 9.84177734 2.53787109 9.84177734 2.06640625 8.66015625 C0.88871097 5.63421191 0 3.27669121 0 0 Z " fill="#D56934" transform="translate(431,495)"/>
<path d="M0 0 C8.25185125 2.06296281 13.96692521 7.39408934 19 14 C18.01 14 17.02 14 16 14 C16 13.34 16 12.68 16 12 C14.68 11.67 13.36 11.34 12 11 C12 10.01 12 9.02 12 8 C11.2575 7.731875 10.515 7.46375 9.75 7.1875 C7.12063827 6.0520938 5.25638662 4.72989641 3 3 C2.01 2.67 1.02 2.34 0 2 C0 1.34 0 0.68 0 0 Z " fill="#CF6536" transform="translate(609,522)"/>
<path d="M0 0 C2.64 0 5.28 0 8 0 C7 2 7 2 4.1640625 3.0703125 C2.99617187 3.41835938 1.82828125 3.76640625 0.625 4.125 C-0.53773438 4.47820313 -1.70046875 4.83140625 -2.8984375 5.1953125 C-6 6 -6 6 -9 6 C-9 5.34 -9 4.68 -9 4 C-6.03 3.34 -3.06 2.68 0 2 C0 1.34 0 0.68 0 0 Z " fill="#D56329" transform="translate(684,804)"/>
<path d="M0 0 C0.66 0.33 1.32 0.66 2 1 C2.33 2.98 2.66 4.96 3 7 C-3.27 7 -9.54 7 -16 7 C-15.67 6.01 -15.34 5.02 -15 4 C-15 4.66 -15 5.32 -15 6 C-10.05 6 -5.1 6 0 6 C0 4.02 0 2.04 0 0 Z " fill="#D74C12" transform="translate(414,957)"/>
<path d="M0 0 C0 0.99 0 1.98 0 3 C-2.7777867 5.54630448 -5.55862568 7.4705003 -9 9 C-9.33 8.34 -9.66 7.68 -10 7 C-9.34 7 -8.68 7 -8 7 C-7.731875 6.401875 -7.46375 5.80375 -7.1875 5.1875 C-5.24288471 1.60531394 -4.204264 0 0 0 Z " fill="#D0611E" transform="translate(456,525)"/>
<path d="M0 0 C2.0839403 0.11443603 4.16716493 0.24195547 6.25 0.375 C7.41015625 0.44460938 8.5703125 0.51421875 9.765625 0.5859375 C12.70694334 0.96248308 14.49949011 1.4774123 17 3 C15.25008666 3.02715383 13.50005055 3.04646551 11.75 3.0625 C10.28820312 3.07990234 10.28820312 3.07990234 8.796875 3.09765625 C6.34241322 3.01195577 4.33831086 2.70706066 2 2 C1.67 3.65 1.34 5.3 1 7 C0.67 7 0.34 7 0 7 C0 4.69 0 2.38 0 0 Z " fill="#E07446" transform="translate(876,935)"/>
<path d="M0 0 C0.99 0.33 1.98 0.66 3 1 C2.34 1 1.68 1 1 1 C1.3609375 1.90363281 1.721875 2.80726563 2.09375 3.73828125 C2.78984375 5.50751953 2.78984375 5.50751953 3.5 7.3125 C3.9640625 8.48425781 4.428125 9.65601563 4.90625 10.86328125 C6 14 6 14 6 17 C5.34 17 4.68 17 4 17 C-0.59225513 5.47835991 -0.59225513 5.47835991 0 0 Z " fill="#D66829" transform="translate(423,471)"/>
<path d="M0 0 C0.33 0 0.66 0 1 0 C1.19672365 1.72814161 1.38196799 3.45759197 1.5625 5.1875 C1.66691406 6.15042969 1.77132812 7.11335937 1.87890625 8.10546875 C1.99758751 10.94233377 1.67765639 13.25423671 1 16 C0.34 16 -0.32 16 -1 16 C-1.02712153 14.083412 -1.04645097 12.1667127 -1.0625 10.25 C-1.07410156 9.18265625 -1.08570313 8.1153125 -1.09765625 7.015625 C-1.01510087 4.46631499 -0.74617558 2.42066409 0 0 Z " fill="#D26128" transform="translate(817,582)"/>
<path d="M0 0 C0.88300781 0.19464844 1.76601563 0.38929688 2.67578125 0.58984375 C3.67158203 0.82380859 3.67158203 0.82380859 4.6875 1.0625 C4.6875 1.3925 4.6875 1.7225 4.6875 2.0625 C0.0675 2.0625 -4.5525 2.0625 -9.3125 2.0625 C-9.6425 1.4025 -9.9725 0.7425 -10.3125 0.0625 C-6.51681539 -0.91548721 -3.8119001 -0.86403069 0 0 Z " fill="#DC611E" transform="translate(278.3125,874.9375)"/>
<path d="M0 0 C5.2584002 0.67415387 10.02638346 2.24265549 15 4 C15 4.33 15 4.66 15 5 C9.33557626 4.63495936 4.99296295 3.9445679 0 1 C0 0.67 0 0.34 0 0 Z " fill="#E06D37" transform="translate(842,960)"/>
<path d="M0 0 C0.66 0.33 1.32 0.66 2 1 C1.75 4.375 1.75 4.375 1 8 C-1.0625 9.4375 -1.0625 9.4375 -3 10 C-2.25 3.375 -2.25 3.375 0 0 Z " fill="#C95112" transform="translate(322,631)"/>
<path d="M0 0 C-0.33 1.32 -0.66 2.64 -1 4 C-2.32 4.33 -3.64 4.66 -5 5 C-5 5.66 -5 6.32 -5 7 C-6.32 6.67 -7.64 6.34 -9 6 C-7.8803014 4.99406757 -6.7540588 3.9954151 -5.625 3 C-4.68527344 2.1646875 -4.68527344 2.1646875 -3.7265625 1.3125 C-2 0 -2 0 0 0 Z " fill="#D1642D" transform="translate(517,522)"/>
<path d="M0 0 C0.33 0 0.66 0 1 0 C1.33 4.62 1.66 9.24 2 14 C1.34 14 0.68 14 0 14 C-0.33 14.66 -0.66 15.32 -1 16 C-2.03038433 12.0585998 -1.87693282 9.16384848 -1.0625 5.1875 C-0.86785156 4.21167969 -0.67320312 3.23585938 -0.47265625 2.23046875 C-0.31667969 1.49441406 -0.16070312 0.75835937 0 0 Z " fill="#DD6828" transform="translate(255,403)"/>
<path d="M0 0 C2.64 0.33 5.28 0.66 8 1 C8.125 4.375 8.125 4.375 8 8 C7.34 8.66 6.68 9.32 6 10 C6 7.69 6 5.38 6 3 C3.03 2.505 3.03 2.505 0 2 C0 1.34 0 0.68 0 0 Z " fill="#DE662E" transform="translate(485,391)"/>
<path d="M0 0 C3.3 0.99 6.6 1.98 10 3 C9.01 3.495 9.01 3.495 8 4 C7.67 4.66 7.34 5.32 7 6 C4.69 5.01 2.38 4.02 0 3 C0 2.01 0 1.02 0 0 Z " fill="#DD631B" transform="translate(750,257)"/>
<path d="M0 0 C0.66 0 1.32 0 2 0 C2.99 4.29 3.98 8.58 5 13 C4.34 13 3.68 13 3 13 C3 11.68 3 10.36 3 9 C2.34 9 1.68 9 1 9 C0.67 6.03 0.34 3.06 0 0 Z " fill="#DD6227" transform="translate(410,944)"/>
<path d="M0 0 C1.12894876 0.93274109 2.25300876 1.87140122 3.375 2.8125 C4.00148438 3.33457031 4.62796875 3.85664062 5.2734375 4.39453125 C7 6 7 6 9 9 C6 9 6 9 4.39453125 7.79296875 C3.87246094 7.26316406 3.35039062 6.73335937 2.8125 6.1875 C2.01779297 5.40439453 2.01779297 5.40439453 1.20703125 4.60546875 C0 3 0 3 0 0 Z " fill="#E1723B" transform="translate(327,677)"/>
<path d="M0 0 C4.75481646 0.57634139 7.97048212 2.55068521 12 5 C8.98968256 5.93423645 8.13349732 6.04449911 5 5 C5 4.34 5 3.68 5 3 C3.35 2.67 1.7 2.34 0 2 C0 1.34 0 0.68 0 0 Z " fill="#D06733" transform="translate(388,430)"/>
<path d="M0 0 C0.33 0 0.66 0 1 0 C1.2935903 3.05333909 1.42891945 5.95571805 1 9 C-1.3125 11.625 -1.3125 11.625 -4 13 C-4.99 12.67 -5.98 12.34 -7 12 C-6.21625 11.505 -5.4325 11.01 -4.625 10.5 C-1.09968551 7.14255763 -0.86663179 4.72708251 0 0 Z " fill="#FED561" transform="translate(475,600)"/>
<path d="M0 0 C2.50037734 2.17424117 3.43628586 3.73045798 4 7 C2.35 7 0.7 7 -1 7 C-0.67 4.69 -0.34 2.38 0 0 Z " fill="#DC611B" transform="translate(581,957)"/>
<path d="M0 0 C1.90318884 2.85478326 2.4619099 4.41941308 3.125 7.6875 C3.29257812 8.49574219 3.46015625 9.30398438 3.6328125 10.13671875 C3.75398438 10.75160156 3.87515625 11.36648438 4 12 C3.34 12 2.68 12 2 12 C1.47026689 10.37787941 0.95146893 8.75218416 0.4375 7.125 C0.14746094 6.22007812 -0.14257812 5.31515625 -0.44140625 4.3828125 C-1 2 -1 2 0 0 Z " fill="#E06E2E" transform="translate(402,914)"/>
<path d="M0 0 C1.32 0.33 2.64 0.66 4 1 C4 1.66 4 2.32 4 3 C5.32 3.66 6.64 4.32 8 5 C8 5.66 8 6.32 8 7 C8.66 7.33 9.32 7.66 10 8 C9.34 8 8.68 8 8 8 C7.67 8.66 7.34 9.32 7 10 C6.9175 9.21625 6.835 8.4325 6.75 7.625 C6.29090262 4.86943709 6.29090262 4.86943709 4.0625 3.875 C3.381875 3.58625 2.70125 3.2975 2 3 C1.34 2.01 0.68 1.02 0 0 Z " fill="#D06638" transform="translate(559,526)"/>
<path d="M0 0 C8.35010941 2.3107221 8.35010941 2.3107221 11.0625 5.1875 C11.371875 5.785625 11.68125 6.38375 12 7 C11.01 7 10.02 7 9 7 C8.67 6.01 8.34 5.02 8 4 C6.15274948 3.30840599 6.15274948 3.30840599 4 3 C2.66666667 2.66666667 1.33333333 2.33333333 0 2 C0 1.34 0 0.68 0 0 Z " fill="#DE642E" transform="translate(227,335)"/>
<path d="M0 0 C2.56687367 3.8503105 1.83288724 5.58569763 1 10 C0.01 9.67 -0.98 9.34 -2 9 C-1.34 6.03 -0.68 3.06 0 0 Z " fill="#DE7538" transform="translate(346,953)"/>
<path d="M0 0 C1.22589844 0.15275391 1.22589844 0.15275391 2.4765625 0.30859375 C3.41628906 0.43427734 3.41628906 0.43427734 4.375 0.5625 C4.375 1.2225 4.375 1.8825 4.375 2.5625 C-3.05357143 2.84821429 -3.05357143 2.84821429 -6.625 0.5625 C-4.10446405 -0.69776798 -2.7707902 -0.35624445 0 0 Z " fill="#D16A26" transform="translate(530.625,517.4375)"/>
<path d="M0 0 C1.04005702 3.38018531 1.08004482 6.4780279 1 10 C-0.32 10 -1.64 10 -3 10 C-2.39009109 6.44219804 -1.4216319 3.3171411 0 0 Z " fill="#DF6E2D" transform="translate(589,325)"/>
<path d="M0 0 C0 3 0 3 -1 6 C-1.99 6.66 -2.98 7.32 -4 8 C-4.33 8.99 -4.66 9.98 -5 11 C-5.66 11 -6.32 11 -7 11 C-5.5140084 6.40693504 -3.14985318 3.56430755 0 0 Z " fill="#E07138" transform="translate(148,289)"/>
<path d="M0 0 C0.33 0.66 0.66 1.32 1 2 C2.32407669 2.68486725 3.65909241 3.34870203 5 4 C6.35113205 4.97581759 7.68946944 5.97029741 9 7 C7.3125 7.8125 7.3125 7.8125 5 8 C2.25 5.75 2.25 5.75 0 3 C0 2.01 0 1.02 0 0 Z " fill="#E06F34" transform="translate(600,951)"/>
<path d="M0 0 C0.33 0 0.66 0 1 0 C1.28571429 8.57142857 1.28571429 8.57142857 -1 12 C-1.92470553 7.28400182 -2.22923777 4.32734391 0 0 Z " fill="#E37E3C" transform="translate(216,923)"/>
<path d="M0 0 C2.45484649 2.13464912 3.68134222 3.70720291 4 7 C3.34 7.66 2.68 8.32 2 9 C-0.29013653 5.5647952 -0.17842973 4.014669 0 0 Z " fill="#E2752F" transform="translate(304,887)"/>
<path d="M0 0 C4.82142857 5.78571429 4.82142857 5.78571429 6 9 C5.67 9.99 5.34 10.98 5 12 C4.15885829 10.56705502 3.32734313 9.12845595 2.5 7.6875 C1.80390625 6.48673828 1.80390625 6.48673828 1.09375 5.26171875 C0 3 0 3 0 0 Z " fill="#E06A32" transform="translate(194,924)"/>
<path d="M0 0 C0.33 3.63 0.66 7.26 1 11 C-1.92509086 7.09987886 -2.47535095 5.61691161 -3 1 C-1 0 -1 0 0 0 Z " fill="#E07336" transform="translate(589,418)"/>
<path d="M0 0 C3.91402949 1.26941497 5.79072873 2.51167694 8 6 C4.06830895 6 2.83572772 4.60580385 0 2 C0 1.34 0 0.68 0 0 Z " fill="#DC6A37" transform="translate(685,724)"/>
<path d="M0 0 C0.66 0.33 1.32 0.66 2 1 C-0.96283313 3.38672669 -3.94270509 5.7353371 -7 8 C-6.875 6.25 -6.875 6.25 -6 4 C-2.9375 1.75 -2.9375 1.75 0 0 Z " fill="#FECF60" transform="translate(372,452)"/>
<path d="M0 0 C0.99 0.33 1.98 0.66 3 1 C2.01 1.495 2.01 1.495 1 2 C1 2.66 1 3.32 1 4 C-0.375 5.625 -0.375 5.625 -2 7 C-2.66 7 -3.32 7 -4 7 C-2.92598892 4.08482708 -2.22189824 2.22189824 0 0 Z " fill="#E07137" transform="translate(444,341)"/>
<path d="M0 0 C1.9451 2.91765 2.45276317 4.62537285 3 8 C2.01 8.33 1.02 8.66 0 9 C-1.125 2.25 -1.125 2.25 0 0 Z " fill="#D66C31" transform="translate(805,545)"/>
<path d="M0 0 C2.64 0.33 5.28 0.66 8 1 C4.5647952 3.29013653 3.014669 3.17842973 -1 3 C-0.67 2.01 -0.34 1.02 0 0 Z " fill="#CB5C1D" transform="translate(539,517)"/>
<path d="M0 0 C2.70272533 2.87164566 3.94791837 4.30991841 4.25 8.3125 C4.1675 9.199375 4.085 10.08625 4 11 C0.85041169 7.57653445 0.43820891 4.55737263 0 0 Z " fill="#FED564" transform="translate(364,475)"/>
<path d="M0 0 C0.66 0 1.32 0 2 0 C5 6.625 5 6.625 5 10 C2.66063182 7.87330165 1.19346152 5.93775144 0 3 C0 2.01 0 1.02 0 0 Z " fill="#DC703B" transform="translate(140,449)"/>
<path d="M0 0 C1.875 0.3125 1.875 0.3125 4 1 C6.1519437 4.22791555 6.20086443 5.28400809 6 9 C3.75972706 6.11964908 1.83827868 3.15133488 0 0 Z " fill="#E5824F" transform="translate(714,894)"/>
<path d="M0 0 C4.75 0.75 4.75 0.75 7 3 C6.625 5.125 6.625 5.125 6 7 C5.38125 6.21625 4.7625 5.4325 4.125 4.625 C2.10141339 2.03162353 2.10141339 2.03162353 0 0 Z " fill="#E16C2C" transform="translate(283,892)"/>
<path d="M0 0 C3.36720387 1.39332574 4.9859524 2.9789286 7 6 C6.01 6 5.02 6 4 6 C4 5.34 4 4.68 4 4 C2.68 3.67 1.36 3.34 0 3 C0 2.01 0 1.02 0 0 Z " fill="#CD5E26" transform="translate(621,530)"/>
<path d="" fill="#FFFCED" transform="translate(0,0)"/>
<path d="" fill="#FFFBED" transform="translate(0,0)"/>
<path d="" fill="#FEFBED" transform="translate(0,0)"/>
<path d="" fill="#FDF9ED" transform="translate(0,0)"/>
<path d="" fill="#FFF8EA" transform="translate(0,0)"/>
<path d="" fill="#FFFBE8" transform="translate(0,0)"/>
<path d="" fill="#FFFEEE" transform="translate(0,0)"/>
<path d="" fill="#FEF9EB" transform="translate(0,0)"/>
<path d="" fill="#FFF9EE" transform="translate(0,0)"/>
<path d="" fill="#FFFDED" transform="translate(0,0)"/>
<path d="" fill="#FDF6EA" transform="translate(0,0)"/>
<path d="" fill="#FDF7EE" transform="translate(0,0)"/>
</svg>
