<?xml version="1.0" encoding="UTF-8"?>
<svg version="1.1" xmlns="http://www.w3.org/2000/svg" width="1024" height="1024">
<path d="M0 0 C5.56328376 5.21970804 8.86803947 11.08680365 9.12866211 18.81538391 C9.02998935 20.15745802 8.91190485 21.49820617 8.77734375 22.8371582 C8.71749298 23.58166166 8.65764221 24.32616512 8.59597778 25.09322929 C8.39352905 27.56001585 8.1655179 30.02373748 7.9375 32.48828125 C7.78729729 34.25753303 7.63882051 36.02693206 7.49194336 37.79646301 C7.17571261 41.57257544 6.84904282 45.34758487 6.51464844 49.12213135 C5.9964556 54.99389932 5.51411752 60.86825712 5.0390625 66.74365234 C4.22039449 76.8392872 3.37556042 86.93253393 2.52050781 97.02514648 C2.08153662 102.20947661 1.65008903 107.39440609 1.22016907 112.57949352 C0.8793523 116.6733533 0.53302002 120.76673385 0.18527222 124.86001015 C0.02382412 126.77112265 -0.13567635 128.682401 -0.29293823 130.59386253 C-1.11690577 140.58566661 -2.10373459 150.54042012 -3.44140625 160.4777832 C-3.60854881 161.78769242 -3.60854881 161.78769242 -3.77906799 163.12406445 C-4.90833095 171.0939714 -7.70392421 175.868728 -13.5 181.375 C-14.325 181.91125 -15.15 182.4475 -16 183 C-16.825 183.5775 -17.65 184.155 -18.5 184.75 C-25.74162675 187.33629527 -33.42428898 187.15233047 -40.4375 183.9375 C-47.19059854 180.02377244 -51.39720173 175.05473786 -53.48181152 167.48361206 C-55.23032871 159.10318956 -53.67745895 149.9825242 -52.90625 141.5546875 C-52.79526978 140.30366241 -52.68428955 139.05263733 -52.56994629 137.76370239 C-52.27717431 134.47228157 -51.98063403 131.18123022 -51.68218994 127.89031982 C-51.37735213 124.51831318 -51.07757484 121.14585687 -50.77734375 117.7734375 C-50.18950755 111.18187218 -49.59669278 104.59076918 -49 98 C-49.68715088 98.75861328 -50.37430176 99.51722656 -51.08227539 100.29882812 C-59.27998047 109.29358074 -67.80529842 117.9239411 -76.4375 126.5 C-77.78604568 127.84351076 -79.13435402 129.18725979 -80.48242188 130.53125 C-82.94312585 132.98388858 -85.40515109 135.43518236 -87.86889648 137.88476562 C-88.665522 138.67802246 -88.665522 138.67802246 -89.47824097 139.48730469 C-90.91442234 140.91493204 -92.35561562 142.33751235 -93.79711914 143.75976562 C-96.04008781 145.95039982 -96.04008781 145.95039982 -97.875 148.4375 C-99.63226429 150.556554 -101.21269503 152.08214847 -103.3125 153.8125 C-105.85837791 155.9256247 -108.0405469 158.10829538 -110.171875 160.63671875 C-114.21111288 165.31471983 -118.54467446 169.6561091 -122.9375 174 C-123.71673828 174.77472656 -124.49597656 175.54945313 -125.29882812 176.34765625 C-127.1969242 178.23410757 -129.09733149 180.11816245 -131 182 C-129.82208724 185.18905816 -128.60768791 187.79748941 -126.49609375 190.4609375 C-125.76277832 191.40356445 -125.76277832 191.40356445 -125.01464844 192.36523438 C-124.49418945 193.02845703 -123.97373047 193.69167969 -123.4375 194.375 C-117.65544419 201.92947964 -112.59037234 209.67141231 -108 218 C-107.6601709 218.61246582 -107.3203418 219.22493164 -106.97021484 219.85595703 C-92.39406785 246.50569877 -85.60635853 275.02194234 -85.68432617 305.25317383 C-85.6874846 307.80007904 -85.66391647 310.34581519 -85.63867188 312.89257812 C-85.57267585 329.35502004 -87.88160503 344.93842082 -92.75 360.6875 C-93.277146 362.41891235 -93.277146 362.41891235 -93.81494141 364.18530273 C-96.59848513 373.12237225 -99.74361558 381.66343062 -104 390 C-104.35787598 390.70882324 -104.71575195 391.41764648 -105.08447266 392.14794922 C-110.96845608 403.64450084 -117.91535094 413.9464948 -126 424 C-126.44956055 424.56525391 -126.89912109 425.13050781 -127.36230469 425.71289062 C-146.76378301 449.96114299 -169.94241292 467.86232765 -198 481 C-199.11503906 481.53367187 -200.23007812 482.06734375 -201.37890625 482.6171875 C-224.55986043 493.18135316 -249.80404585 497.35562062 -275.125 497.375 C-276.14926086 497.37799103 -276.14926086 497.37799103 -277.19421387 497.38104248 C-290.46857929 497.37663825 -303.42187281 495.93080411 -316.3125 492.75 C-317.64595459 492.42249756 -317.64595459 492.42249756 -319.00634766 492.08837891 C-330.04200426 489.30930516 -340.78649971 486.34433235 -350.84765625 480.92578125 C-354.81524236 478.79539465 -358.78326413 476.71178347 -362.87109375 474.8203125 C-363.72630615 474.41828613 -364.58151855 474.01625977 -365.46264648 473.60205078 C-368.80661656 472.80860999 -370.46287106 473.55111618 -373.5 475.0625 C-374.77951954 476.23727557 -376.05713963 477.41435487 -377.31591797 478.61132812 C-380.98496265 481.63677407 -385.35297759 483.64538069 -389.5625 485.8125 C-391.04363281 486.58134521 -391.04363281 486.58134521 -392.5546875 487.36572266 C-399.8917274 491.09833682 -407.34501821 494.41264549 -415 497.4375 C-415.95720947 497.82591064 -416.91441895 498.21432129 -417.90063477 498.61450195 C-428.82395665 502.77025972 -439.23483565 504.44235558 -451 507 C-451 533.07 -451 559.14 -451 586 C-426.34874788 586.17039155 -426.34874788 586.17039155 -401.69726562 586.29785156 C-396.90917969 586.34326172 -396.90917969 586.34326172 -394.66149902 586.36956787 C-393.10523452 586.38409862 -391.54888594 586.3909502 -389.99255371 586.39154053 C-372.44872381 586.40957073 -372.44872381 586.40957073 -364.79296875 592.859375 C-358.54761946 600.21399558 -356.36191693 606.24740096 -356.65625 615.97265625 C-357.52111761 623.58938808 -360.47275448 629.44308491 -366.13671875 634.59765625 C-372.42417475 639.32972481 -379.41647239 640.1099739 -387.08520508 640.20532227 C-387.77843872 640.21522186 -388.47167236 640.22512146 -389.18591309 640.23532104 C-391.46375177 640.26675875 -393.74161127 640.29162284 -396.01953125 640.31640625 C-397.60422794 640.33699112 -399.18891933 640.35798799 -400.77360535 640.37937927 C-404.93443495 640.43444171 -409.09531279 640.48392045 -413.25622559 640.53222656 C-417.50614694 640.58255752 -421.75599866 640.63818293 -426.00585938 640.69335938 C-434.33718062 640.80074721 -442.66856031 640.90223479 -451 641 C-451.00364563 641.92770706 -451.00729126 642.85541412 -451.01104736 643.81123352 C-451.04905924 652.59355576 -451.10606079 661.37551162 -451.18390274 670.15757465 C-451.22325687 674.67155126 -451.25550408 679.18533632 -451.27099609 683.69946289 C-451.28624273 688.06340219 -451.32082827 692.42681443 -451.36830902 696.79051781 C-451.38304082 698.4476581 -451.39103626 700.10487368 -451.39188385 701.76207924 C-451.40459086 714.15951205 -452.21765947 725.02149675 -461.203125 734.41015625 C-466.88519943 739.43755688 -473.35861083 740.34021984 -480.671875 740.20703125 C-488.29474837 739.52915828 -493.9731609 735.62872227 -499 730 C-502.81477974 724.00848716 -504.14875874 718.56124553 -504.20532227 711.49926758 C-504.21522186 710.73805099 -504.22512146 709.97683441 -504.23532104 709.19255066 C-504.26690729 706.67657582 -504.29168209 704.16058211 -504.31640625 701.64453125 C-504.33697826 699.90003468 -504.3579748 698.15554307 -504.37937927 696.41105652 C-504.43457442 691.81946833 -504.48399499 687.22783535 -504.53222656 682.63616943 C-504.58246024 677.95076511 -504.63813657 673.26542583 -504.69335938 668.58007812 C-504.80090968 659.38677432 -504.90236162 650.19341404 -505 641 C-505.83778992 640.99413376 -506.67557983 640.98826752 -507.53875732 640.98222351 C-515.48191896 640.92402261 -523.42480756 640.85179207 -531.36770248 640.76428509 C-535.45002979 640.7197919 -539.53226213 640.68049119 -543.61474609 640.65356445 C-547.5636693 640.62731911 -551.51222277 640.58677186 -555.46091461 640.53681374 C-556.95813606 640.52028706 -558.45542124 640.50868528 -559.95272064 640.50238609 C-583.28922782 640.39439348 -583.28922782 640.39439348 -592.3125 632.875 C-597.43107387 627.18769571 -599.5651874 620.34812596 -600.3125 612.875 C-599.62833847 604.39139699 -596.49184666 596.62170515 -590 591 C-582.05964497 585.48020076 -572.48779771 586.48972054 -563.27734375 586.609375 C-561.75753364 586.61526672 -560.23771538 586.6193409 -558.71789551 586.62158203 C-553.1243054 586.64243103 -547.53088981 586.69827611 -541.9375 586.75 C-529.418125 586.8325 -516.89875 586.915 -504 587 C-504 560.6 -504 534.2 -504 507 C-511.92 505.515 -511.92 505.515 -520 504 C-523.92654248 502.91681587 -527.72043326 501.81036819 -531.5625 500.5 C-532.57207764 500.15743164 -533.58165527 499.81486328 -534.62182617 499.46191406 C-559.78354048 490.63763032 -581.80992009 477.26734878 -602 460 C-602.83273437 459.3090625 -603.66546875 458.618125 -604.5234375 457.90625 C-609.17755921 453.98323553 -613.08906545 449.65252893 -617 445 C-617.80050781 444.08734375 -618.60101562 443.1746875 -619.42578125 442.234375 C-651.79467711 405.14837386 -669.33594921 359.75835514 -666.60791016 310.17138672 C-665.15688756 288.85626016 -660.80596075 268.87190625 -653 249 C-652.6812793 248.1759668 -652.36255859 247.35193359 -652.03417969 246.50292969 C-647.94609416 236.02389889 -643.37671814 226.31415979 -637 217 C-636.5457666 216.32694824 -636.0915332 215.65389648 -635.62353516 214.96044922 C-629.60959345 206.08348212 -623.37454647 197.8066488 -616 190 C-614.89140313 188.6912398 -613.78709026 187.37883641 -612.6875 186.0625 C-598.06854171 169.4500474 -579.27513577 157.49428903 -560 147 C-559.3714209 146.65211426 -558.7428418 146.30422852 -558.09521484 145.94580078 C-537.28680141 134.511787 -511.84093026 128.02772593 -488.1171875 127.76171875 C-487.02513 127.74695999 -487.02513 127.74695999 -485.91101074 127.73190308 C-469.51366604 127.55603979 -453.97989298 127.93099304 -438 132 C-436.42702148 132.38599365 -436.42702148 132.38599365 -434.82226562 132.77978516 C-418.01002836 136.93898646 -401.66247152 141.52049423 -386.453125 149.99609375 C-383.59609219 151.16529348 -382.85207267 150.94967988 -380 150 C-378.22533896 149.10889151 -378.22533896 149.10889151 -376.48828125 147.99609375 C-375.8223999 147.5892334 -375.15651855 147.18237305 -374.47045898 146.76318359 C-373.75833252 146.32570801 -373.04620605 145.88823242 -372.3125 145.4375 C-350.59201295 132.46415642 -327.06916071 123.79672877 -302 120 C-301.35506592 119.8983252 -300.71013184 119.79665039 -300.0456543 119.69189453 C-291.98513318 118.60423311 -283.80632847 118.7561149 -275.6875 118.75 C-274.8835379 118.74932526 -274.07957581 118.74865051 -273.25125122 118.74795532 C-260.93486954 118.76436919 -249.05508144 119.26973635 -237 122 C-236.2359082 122.16628906 -235.47181641 122.33257812 -234.68457031 122.50390625 C-215.77979934 126.72058379 -198.100269 134.01900766 -181 143 C-179.002439 144.00486321 -177.00279326 145.00560614 -175 146 C-173.66666667 146.66666667 -172.33333333 147.33333333 -171 148 C-170.7588295 147.43285782 -170.517659 146.86571564 -170.2691803 146.28138733 C-168.74446011 143.54065985 -166.92662491 141.70153515 -164.69311523 139.49780273 C-163.80136093 138.61265488 -162.90960663 137.72750702 -161.99082947 136.8155365 C-161.51357862 136.34652357 -161.03632778 135.87751064 -160.54461479 135.3942852 C-159.03755 133.91290869 -157.53696174 132.42523506 -156.03785706 130.93580627 C-152.30741564 127.23202125 -148.56638985 123.5389879 -144.82525635 119.8460083 C-141.67088723 116.73151773 -138.52092849 113.61268506 -135.37639046 110.4882679 C-133.91566523 109.04027668 -132.4489364 107.59857559 -130.98179626 106.15708923 C-125.58793869 100.80222648 -120.60909212 95.289682 -115.87915039 89.3381958 C-113.58245962 86.48046139 -111.16252202 83.89588188 -108.5625 81.3125 C-107.32693359 80.06919922 -107.32693359 80.06919922 -106.06640625 78.80078125 C-104 77 -104 77 -102 77 C-102 76.34 -102 75.68 -102 75 C-101.34 75 -100.68 75 -100 75 C-99.67 74.01 -99.34 73.02 -99 72 C-98.34 72 -97.68 72 -97 72 C-96.67 71.01 -96.34 70.02 -96 69 C-95.34 69 -94.68 69 -94 69 C-93.75507812 68.42765625 -93.51015625 67.8553125 -93.2578125 67.265625 C-91.78889901 64.61975598 -90.04651756 62.85146861 -87.875 60.75 C-87.15054688 60.04359375 -86.42609375 59.3371875 -85.6796875 58.609375 C-84.84824219 57.81273437 -84.84824219 57.81273437 -84 57 C-88.60491486 57.55644098 -93.20894099 58.11996409 -97.8125 58.6875 C-98.51674103 58.77414917 -99.22098206 58.86079834 -99.94656372 58.95007324 C-108.5111221 60.00811408 -117.06261195 61.12995045 -125.6015625 62.37890625 C-126.38542831 62.49324509 -127.16929413 62.60758392 -127.97691345 62.72538757 C-131.78081483 63.2820651 -135.58315341 63.84762386 -139.3840332 64.42456055 C-162.68722546 67.90823512 -162.68722546 67.90823512 -172.3046875 61.453125 C-178.10029993 56.655292 -180.85220287 52.25754183 -181.875 44.75 C-182.34710749 37.52085403 -180.75081591 31.81191646 -176.9375 25.6875 C-168.35772252 17.83791635 -158.59329964 16.83313847 -147.48838806 15.45178223 C-133.33809404 13.61917323 -119.23810183 11.44790053 -105.15666771 9.15119743 C-102.38271091 8.69890435 -99.60831985 8.24935807 -96.83381653 7.8004303 C-88.96324492 6.52643656 -81.09347149 5.247543 -73.22387695 3.9675293 C-68.36303003 3.17708653 -63.50172769 2.38949326 -58.64016151 1.60348701 C-56.81387774 1.30761394 -54.98776897 1.0106582 -53.1618557 0.71250725 C-8.3070594 -6.61174115 -8.3070594 -6.61174115 0 0 Z M-284.21142578 172.12158203 C-300.18876375 173.15669047 -324.54443412 177.75084557 -336.9296875 188.70703125 C-337.28289062 189.13371094 -337.63609375 189.56039062 -338 190 C-336.50053929 193.4029212 -334.50832719 195.8386146 -332.0625 198.625 C-299.39816238 238.0637742 -288.10345129 291.29021023 -292.4609375 341.34375 C-294.38277772 358.62057743 -298.99766234 376.09068883 -306 392 C-306.31308105 392.71220703 -306.62616211 393.42441406 -306.94873047 394.15820312 C-312.99358096 407.76404842 -320.15845971 420.02113897 -329 432 C-325.33511963 435.249076 -321.26156501 436.51346494 -316.6875 438 C-315.49459351 438.39191528 -315.49459351 438.39191528 -314.27758789 438.79174805 C-281.94973645 449.11874534 -247.18515954 447.21986204 -216.77246094 432.05615234 C-208.49932502 427.78553569 -200.87351104 423.34675599 -194 417 C-193.25878906 416.36320313 -192.51757812 415.72640625 -191.75390625 415.0703125 C-180.57491545 405.34146993 -168.55811298 394.85444651 -161 382 C-160.65952637 381.4337793 -160.31905273 380.86755859 -159.96826172 380.28417969 C-140.38928381 347.565005 -133.61421664 314.7373656 -142.625 277.3125 C-149.08566446 251.68707496 -160.44757993 231.68997467 -178.57373047 212.50976562 C-179.94312591 211.06020359 -181.3018856 209.60061636 -182.66015625 208.140625 C-193.83257329 196.49103551 -206.38568215 188.62464329 -221 182 C-221.99773437 181.52820313 -222.99546875 181.05640625 -224.0234375 180.5703125 C-243.04201616 172.36122091 -263.80693882 170.99976325 -284.21142578 172.12158203 Z M-566 218 C-567.22760356 218.98112565 -568.45647174 219.96067479 -569.6875 220.9375 C-570.450625 221.618125 -571.21375 222.29875 -572 223 C-572 223.66 -572 224.32 -572 225 C-572.66 225 -573.32 225 -574 225 C-594.74318814 243.97530279 -608.85119133 276.27498906 -611 304 C-612.4806106 340.32566548 -605.974261 374.43492306 -582 403 C-581.29359375 403.845625 -580.5871875 404.69125 -579.859375 405.5625 C-556.91311416 431.97546212 -525.09358016 449.19399932 -490 452 C-461.64306843 453.43296274 -436.97238296 448.37664888 -412 435 C-412.78375 433.948125 -413.5675 432.89625 -414.375 431.8125 C-415.19979858 430.70406738 -415.19979858 430.70406738 -416.04125977 429.57324219 C-417.41720735 427.76562814 -418.82437722 425.98156237 -420.25366211 424.21582031 C-426.63842066 416.23819719 -431.60307684 408.05258247 -436.1875 398.9375 C-436.53173004 398.2619104 -436.87596008 397.5863208 -437.23062134 396.89025879 C-442.82502447 385.88582108 -447.58914785 374.8882356 -451 363 C-451.23219238 362.22333984 -451.46438477 361.44667969 -451.70361328 360.64648438 C-453.33796504 355.13915943 -454.74053715 349.60431403 -456 344 C-456.16516113 343.29697754 -456.33032227 342.59395508 -456.50048828 341.86962891 C-462.37974871 315.71999177 -461.34237791 284.63289556 -454 259 C-453.77006348 258.17999512 -453.54012695 257.35999023 -453.30322266 256.51513672 C-446.91260475 234.34019009 -436.12667372 213.88524176 -423 195 C-426.45306069 191.97084445 -430.23857132 190.73016341 -434.5625 189.4375 C-435.27559326 189.22061523 -435.98868652 189.00373047 -436.72338867 188.78027344 C-442.42641275 187.0867766 -448.09598413 185.77875056 -454 185 C-454.81984375 184.88914062 -455.6396875 184.77828125 -456.484375 184.6640625 C-496.86575692 180.13645301 -535.27266908 191.42217189 -566 218 Z M-380.59375 228.5546875 C-398.94798589 250.89570414 -408.20936693 279.2240324 -408.1875 307.9375 C-408.18669434 309.03473389 -408.18588867 310.13196777 -408.18505859 311.26245117 C-408.42490156 327.11942241 -408.42490156 327.11942241 -404 342 C-403.66258021 343.66584416 -403.32940392 345.33255227 -403 347 C-401.53380575 350.75672946 -399.73599461 354.36142544 -398 358 C-397.48953125 359.13179687 -396.9790625 360.26359375 -396.453125 361.4296875 C-392.29880607 370.39877995 -387.1942161 378.63062147 -381.75 386.875 C-380.70332153 388.47251099 -380.70332153 388.47251099 -379.63549805 390.10229492 C-378.96687744 391.09720947 -378.29825684 392.09212402 -377.609375 393.1171875 C-377.01092773 394.01034668 -376.41248047 394.90350586 -375.79589844 395.82373047 C-373.97404539 398.03145179 -372.63735378 398.96726625 -370 400 C-367.63596951 396.68748311 -365.30916209 393.35099109 -363 390 C-362.401875 389.13503906 -361.80375 388.27007813 -361.1875 387.37890625 C-352.12886734 373.7707371 -346.66087379 358.08403176 -344 342 C-343.7215625 340.39705078 -343.7215625 340.39705078 -343.4375 338.76171875 C-338.49538217 307.90780258 -344.53562752 271.83808396 -362.08984375 245.62890625 C-362.72019531 244.76136719 -363.35054688 243.89382813 -364 243 C-364.93005859 241.71416016 -364.93005859 241.71416016 -365.87890625 240.40234375 C-368.98620116 236.27494339 -372.29827663 232.59284915 -376 229 C-376.33 228.34 -376.66 227.68 -377 227 C-379.13246723 226.76724 -379.13246723 226.76724 -380.59375 228.5546875 Z " fill="#187FC4" transform="translate(840,138)"/>
<path d="M0 0 C0.72803833 -0.00983917 1.45607666 -0.01967834 2.20617676 -0.02981567 C18.60352146 -0.20567896 34.13729452 0.16927429 50.1171875 4.23828125 C51.16583984 4.49561035 52.21449219 4.75293945 53.29492188 5.01806641 C71.8719119 9.6138522 89.1713539 15.28876288 106.1171875 24.23828125 C105.38113281 24.80933594 104.64507812 25.38039063 103.88671875 25.96875 C101.34929808 28.04807498 99.08830537 30.20036652 96.8046875 32.55078125 C94.00114433 35.39603002 91.17173104 38.10289228 88.1171875 40.67578125 C78.92222025 48.65082216 72.39585389 57.93711227 66.1171875 68.23828125 C64.37424538 67.36681019 62.67784655 66.4034635 60.9921875 65.42578125 C33.62329683 51.86461921 -4.7792852 55.15549846 -32.8828125 64.23828125 C-50.09236826 70.40727772 -67.30859113 80.24565544 -80.0546875 93.49609375 C-81.8828125 95.23828125 -81.8828125 95.23828125 -83.8828125 95.23828125 C-83.8828125 95.89828125 -83.8828125 96.55828125 -83.8828125 97.23828125 C-84.5428125 97.23828125 -85.2028125 97.23828125 -85.8828125 97.23828125 C-86.13933594 97.81835938 -86.39585937 98.3984375 -86.66015625 98.99609375 C-87.99580893 101.44550153 -89.51205558 103.10581851 -91.4453125 105.11328125 C-116.50909181 132.855979 -123.62421081 169.06832007 -121.8828125 205.23828125 C-120.0743209 230.51183804 -109.10147354 255.91941597 -92.8828125 275.23828125 C-92.16480469 276.09550781 -91.44679688 276.95273437 -90.70703125 277.8359375 C-68.10592198 303.80914833 -36.32461681 320.48439504 -1.8828125 323.23828125 C24.12516065 324.55254391 48.77922837 321.14074344 71.69921875 308.2421875 C74.1171875 307.23828125 74.1171875 307.23828125 76.26953125 307.3828125 C78.47013162 308.40169512 79.40131411 309.44040027 80.8671875 311.36328125 C83.65447594 314.80187076 86.69702455 317.58024868 90.0703125 320.43359375 C92.08854197 322.21302508 93.9004421 324.09097525 95.7421875 326.05078125 C102.4707758 332.89976179 110.84890101 338.4267925 119.1171875 343.23828125 C117.66919892 346.90954386 115.98759676 348.23718837 112.5859375 350.16015625 C111.68617188 350.67384766 110.78640625 351.18753906 109.859375 351.71679688 C108.95445312 352.21888672 108.04953125 352.72097656 107.1171875 353.23828125 C106.33601563 353.68365234 105.55484375 354.12902344 104.75 354.58789062 C94.56423762 360.33259108 84.1173662 365.31493398 73.2421875 369.61328125 C71.79489258 370.20157715 71.79489258 370.20157715 70.31835938 370.80175781 C59.34880056 374.98929245 48.95293286 376.66529313 37.1171875 379.23828125 C37.1171875 405.30828125 37.1171875 431.37828125 37.1171875 458.23828125 C61.76843962 458.4086728 61.76843962 458.4086728 86.41992188 458.53613281 C91.20800781 458.58154297 91.20800781 458.58154297 93.45568848 458.60784912 C95.01195298 458.62237987 96.56830156 458.62923145 98.12463379 458.62982178 C115.66846369 458.64785198 115.66846369 458.64785198 123.32421875 465.09765625 C129.56956804 472.45227683 131.75527057 478.48568221 131.4609375 488.2109375 C130.59606989 495.82766933 127.64443302 501.68136616 121.98046875 506.8359375 C115.69301275 511.56800606 108.70071511 512.34825515 101.03198242 512.44360352 C100.33874878 512.45350311 99.64551514 512.46340271 98.93127441 512.47360229 C96.65343573 512.50504 94.37557623 512.52990409 92.09765625 512.5546875 C90.51295956 512.57527237 88.92826817 512.59626924 87.34358215 512.61766052 C83.18275255 512.67272296 79.02187471 512.7222017 74.86096191 512.77050781 C70.61104056 512.82083877 66.36118884 512.87646418 62.11132812 512.93164062 C53.78000688 513.03902846 45.44862719 513.14051604 37.1171875 513.23828125 C37.11354187 514.16598831 37.10989624 515.09369537 37.10614014 516.04951477 C37.06812826 524.83183701 37.01112671 533.61379287 36.93328476 542.3958559 C36.89393063 546.90983251 36.86168342 551.42361757 36.84619141 555.93774414 C36.83094477 560.30168344 36.79635923 564.66509568 36.74887848 569.02879906 C36.73414668 570.68593935 36.72615124 572.34315493 36.72530365 574.00036049 C36.71259664 586.3977933 35.89952803 597.259778 26.9140625 606.6484375 C21.23198807 611.67583813 14.75857667 612.57850109 7.4453125 612.4453125 C-0.17756087 611.76743953 -5.8559734 607.86700352 -10.8828125 602.23828125 C-14.69759224 596.24676841 -16.03157124 590.79952678 -16.08813477 583.73754883 C-16.09803436 582.97633224 -16.10793396 582.21511566 -16.11813354 581.43083191 C-16.14971979 578.91485707 -16.17449459 576.39886336 -16.19921875 573.8828125 C-16.21979076 572.13831593 -16.2407873 570.39382432 -16.26219177 568.64933777 C-16.31738692 564.05774958 -16.36680749 559.4661166 -16.41503906 554.87445068 C-16.46527274 550.18904636 -16.52094907 545.50370708 -16.57617188 540.81835938 C-16.68372218 531.62505557 -16.78517412 522.43169529 -16.8828125 513.23828125 C-17.72060242 513.23241501 -18.55839233 513.22654877 -19.42156982 513.22050476 C-27.36473146 513.16230386 -35.30762006 513.09007332 -43.25051498 513.00256634 C-47.33284229 512.95807315 -51.41507463 512.91877244 -55.49755859 512.8918457 C-59.4464818 512.86560036 -63.39503527 512.82505311 -67.34372711 512.77509499 C-68.84094856 512.75856831 -70.33823374 512.74696653 -71.83553314 512.74066734 C-95.17204032 512.63267473 -95.17204032 512.63267473 -104.1953125 505.11328125 C-109.31388637 499.42597696 -111.4479999 492.58640721 -112.1953125 485.11328125 C-111.51115097 476.62967824 -108.37465916 468.8599864 -101.8828125 463.23828125 C-93.94245747 457.71848201 -84.37061021 458.72800179 -75.16015625 458.84765625 C-73.64034614 458.85354797 -72.12052788 458.85762215 -70.60070801 458.85986328 C-65.0071179 458.88071228 -59.41370231 458.93655736 -53.8203125 458.98828125 C-41.3009375 459.07078125 -28.7815625 459.15328125 -15.8828125 459.23828125 C-15.8828125 432.83828125 -15.8828125 406.43828125 -15.8828125 379.23828125 C-23.8028125 377.75328125 -23.8028125 377.75328125 -31.8828125 376.23828125 C-35.80935498 375.15509712 -39.60324576 374.04864944 -43.4453125 372.73828125 C-44.45489014 372.39571289 -45.46446777 372.05314453 -46.50463867 371.70019531 C-71.66635298 362.87591157 -93.69273259 349.50563003 -113.8828125 332.23828125 C-114.71554688 331.54734375 -115.54828125 330.85640625 -116.40625 330.14453125 C-121.06037171 326.22151678 -124.97187795 321.89081018 -128.8828125 317.23828125 C-129.68332031 316.325625 -130.48382813 315.41296875 -131.30859375 314.47265625 C-163.67748961 277.38665511 -181.21876171 231.99663639 -178.49072266 182.40966797 C-177.03970006 161.09454141 -172.68877325 141.1101875 -164.8828125 121.23828125 C-164.5640918 120.41424805 -164.24537109 119.59021484 -163.91699219 118.74121094 C-159.82890666 108.26218014 -155.25953064 98.55244104 -148.8828125 89.23828125 C-148.4285791 88.56522949 -147.9743457 87.89217773 -147.50634766 87.19873047 C-141.49240595 78.32176337 -135.25735897 70.04493005 -127.8828125 62.23828125 C-126.77421563 60.92952105 -125.66990276 59.61711766 -124.5703125 58.30078125 C-109.95135421 41.68832865 -91.15794827 29.73257028 -71.8828125 19.23828125 C-71.2542334 18.89039551 -70.6256543 18.54250977 -69.97802734 18.18408203 C-49.16961391 6.75006825 -23.72374276 0.26600718 0 0 Z " fill="#E73D89" transform="translate(351.8828125,265.76171875)"/>
<path d="M0 0 C8.84551769 4.05099071 16.68170517 9.51267813 24.5078125 15.234375 C25.30783691 15.81541992 26.10786133 16.39646484 26.93212891 16.99511719 C31.95097405 20.71719223 36.3988222 24.70247081 40.6953125 29.234375 C41.6853125 30.224375 41.6853125 30.224375 42.6953125 31.234375 C42.0146875 31.853125 41.3340625 32.471875 40.6328125 33.109375 C20.40723904 53.6182198 12.49181611 84.84793059 12.3828125 112.796875 C12.03597554 130.03715007 12.03597554 130.03715007 16.6953125 146.234375 C17.03273229 147.90021916 17.36590858 149.56692727 17.6953125 151.234375 C19.16150675 154.99110446 20.95931789 158.59580044 22.6953125 162.234375 C23.20578125 163.36617187 23.71625 164.49796875 24.2421875 165.6640625 C30.48225572 179.13060148 38.76401432 195.0867123 49.6953125 205.234375 C49.11265625 205.75644531 48.53 206.27851562 47.9296875 206.81640625 C47.10984375 207.55246094 46.29 208.28851562 45.4453125 209.046875 C44.5275 209.87058594 43.6096875 210.69429687 42.6640625 211.54296875 C40.70711831 213.30822019 38.7766831 215.09369729 36.8515625 216.89453125 C31.50157692 221.89216563 26.05776807 226.68371653 20.3203125 231.234375 C19.46421387 231.91959229 19.46421387 231.91959229 18.59082031 232.61865234 C15.13646235 235.31604304 11.67580714 237.40647414 7.6953125 239.234375 C-2.95586189 228.07959898 -10.93162861 215.88690035 -17.9296875 202.171875 C-18.25273865 201.54363831 -18.57578979 200.91540161 -18.90863037 200.26812744 C-24.39427527 189.55709188 -28.95084507 178.80390737 -32.3046875 167.234375 C-32.53833008 166.45481445 -32.77197266 165.67525391 -33.01269531 164.87207031 C-34.64565708 159.36788246 -36.0459744 153.8353528 -37.3046875 148.234375 C-37.46984863 147.53135254 -37.63500977 146.82833008 -37.80517578 146.10400391 C-43.68443621 119.95436677 -42.64706541 88.86727056 -35.3046875 63.234375 C-35.07475098 62.41437012 -34.84481445 61.59436523 -34.60791016 60.74951172 C-28.4868297 39.50983905 -18.60532791 17.27854355 -4.3046875 0.234375 C-2.3046875 -0.765625 -2.3046875 -0.765625 0 0 Z " fill="#177FC4" transform="translate(420.3046875,333.765625)"/>
<path d="M0 0 C14.25905522 5.94127301 26.51922638 35.68398549 32.20776367 49.14086914 C51.03579342 95.54939357 53.61455593 149.6734811 34.43359375 196.4921875 C33.95019531 197.59046875 33.46679688 198.68875 32.96875 199.8203125 C32.65566895 200.53251953 32.34258789 201.24472656 32.02001953 201.97851562 C26.30590606 214.8399328 19.94193707 226.89117229 10.96875 237.8203125 C3.67036614 235.84777632 -3.70282485 232.21016042 -9.03125 226.8203125 C-10.02125 226.4903125 -11.01125 226.1603125 -12.03125 225.8203125 C-13.72247554 224.17857204 -15.38472572 222.50688101 -17.03125 220.8203125 C-19.22086484 218.85632699 -21.46701151 216.96248686 -23.71875 215.0703125 C-24.29947266 214.57660156 -24.88019531 214.08289063 -25.47851562 213.57421875 C-28.56917354 210.9263141 -28.56917354 210.9263141 -32.03125 208.8203125 C-30.51096161 204.36023992 -28.03873405 200.81692403 -25.34375 197.0078125 C-15.67599619 182.89953525 -9.81865613 166.66918705 -7.03125 149.8203125 C-6.7528125 148.21736328 -6.7528125 148.21736328 -6.46875 146.58203125 C-1.5085681 115.6153401 -7.64716343 79.66200073 -25.16796875 53.328125 C-27.63684831 50.0052305 -30.28186651 46.91336893 -33.03125 43.8203125 C-33.03125 43.1603125 -33.03125 42.5003125 -33.03125 41.8203125 C-34.02125 41.4903125 -35.01125 41.1603125 -36.03125 40.8203125 C-38.37735397 38.47420853 -38.99114664 37.14113936 -39.40625 33.8203125 C-38.99527572 30.53251829 -38.35559503 29.14465753 -36.03125 26.8203125 C-35.37125 26.8203125 -34.71125 26.8203125 -34.03125 26.8203125 C-33.70640625 25.99466797 -33.70640625 25.99466797 -33.375 25.15234375 C-31.58972738 22.0540654 -29.1645051 19.87084274 -26.53125 17.5078125 C-25.99661133 17.0236084 -25.46197266 16.5394043 -24.91113281 16.04052734 C-20.22768855 11.86711989 -15.29140414 8.23852714 -10.03125 4.8203125 C-9.28617187 4.30210937 -8.54109375 3.78390625 -7.7734375 3.25 C-7.07476562 2.77820313 -6.37609375 2.30640625 -5.65625 1.8203125 C-4.74746094 1.2015625 -4.74746094 1.2015625 -3.8203125 0.5703125 C-2.03125 -0.1796875 -2.03125 -0.1796875 0 0 Z " fill="#E53A86" transform="translate(502.03125,330.1796875)"/>
<path d="M0 0 C3.98162679 1.46900476 7.18182091 3.73497088 10.6171875 6.19921875 C11.72852051 6.98921265 11.72852051 6.98921265 12.86230469 7.79516602 C22.67929111 14.94058642 31.17774958 23.44728083 39.7421875 32.01171875 C40.5053125 32.71296875 41.2684375 33.41421875 42.0546875 34.13671875 C43.7421875 36.01171875 43.7421875 36.01171875 43.7421875 39.01171875 C41.31247815 40.68176711 38.91544964 42.16954611 36.3671875 43.63671875 C29.42056211 47.79351322 23.58808947 52.39315741 17.7421875 58.01171875 C16.47906975 59.08337968 15.20892609 60.14685367 13.9296875 61.19921875 C9.98099597 64.55980729 6.4113995 68.00408276 4.7421875 73.01171875 C1.38709906 71.54905098 -0.82286472 69.67097802 -3.4453125 67.13671875 C-14.46416346 57.05909511 -27.14853823 49.07535306 -40.2578125 42.01171875 C-31.76565042 26.80653005 -19.34681747 14.35033672 -6.2578125 3.01171875 C-5.25041016 2.08552734 -5.25041016 2.08552734 -4.22265625 1.140625 C-2.2578125 0.01171875 -2.2578125 0.01171875 0 0 Z " fill="#3A2F7E" transform="translate(458.2578125,290.98828125)"/>
<path d="M0 0 C2.22147837 0.86890091 3.58854508 1.86338468 5.36938477 3.44311523 C5.97459961 3.97227539 6.57981445 4.50143555 7.20336914 5.04663086 C7.82405273 5.60157227 8.44473633 6.15651367 9.08422852 6.72827148 C10.32389874 7.82209816 11.56474177 8.91459743 12.80688477 10.00561523 C13.35223877 10.49151123 13.89759277 10.97740723 14.45947266 11.47802734 C16.19881807 12.98870829 16.19881807 12.98870829 19.02172852 14.79077148 C19.02172852 15.45077148 19.02172852 16.11077148 19.02172852 16.79077148 C19.59536133 16.89905273 20.16899414 17.00733398 20.76000977 17.11889648 C23.33106836 17.88266518 25.02208354 18.99502968 27.20922852 20.54077148 C31.66085865 23.60219154 36.25938491 26.2463515 41.02172852 28.79077148 C40.60487978 33.76516636 38.03166931 36.64517667 34.83422852 40.22827148 C34.30394043 40.83227783 33.77365234 41.43628418 33.22729492 42.05859375 C14.67287079 62.93704453 14.67287079 62.93704453 4.02172852 68.79077148 C3.36172852 68.79077148 2.70172852 68.79077148 2.02172852 68.79077148 C2.02172852 69.45077148 2.02172852 70.11077148 2.02172852 70.79077148 C-14.42036591 64.65009399 -31.66145678 48.74881491 -41.97827148 34.79077148 C-40.71966782 31.01496051 -39.62501291 30.78234573 -36.22827148 28.85327148 C-29.5824996 24.76951774 -24.23265155 19.73659403 -18.63208008 14.36791992 C-15.90398076 11.76627811 -13.12961948 9.21569638 -10.35327148 6.66577148 C-9.39163086 5.77631836 -8.42999023 4.88686523 -7.43920898 3.97045898 C-2.64106293 -0.27932752 -2.64106293 -0.27932752 0 0 Z " fill="#3A307E" transform="translate(470.978271484375,539.209228515625)"/>
<path d="M0 0 C0.33 0 0.66 0 1 0 C0.98952637 1.19375244 0.97905273 2.38750488 0.96826172 3.61743164 C0.93159682 8.11837674 0.9089334 12.61930913 0.89013672 17.12036133 C0.88018362 19.05495435 0.86661629 20.98953275 0.84912109 22.92407227 C0.75706198 33.37819646 0.86517088 43.52791135 2.5546875 53.86132812 C3.22395542 58.57849278 3.17783466 63.24786261 3 68 C2.67 68 2.34 68 2 68 C1.51707679 65.66738977 1.03860141 63.33400412 0.5625 61 C0.42779297 60.35160156 0.29308594 59.70320313 0.15429688 59.03515625 C-2.75945069 44.67961949 -3.44452215 29.7977211 -2.6875 15.1875 C-2.65285645 14.46578613 -2.61821289 13.74407227 -2.58251953 13.00048828 C-2.28704871 8.38443308 -1.40077082 4.37383541 0 0 Z " fill="#E34488" transform="translate(176,433)"/>
<path d="M0 0 C4.43946459 0.45622956 8.84004873 0.93625516 13.234375 1.71875 C28.11687109 4.32864131 42.91880223 4.71577501 58 5 C58 5.33 58 5.66 58 6 C53.57496513 6.05031527 49.15009206 6.08614055 44.72485352 6.10986328 C43.22677706 6.1197769 41.72871915 6.13331185 40.23071289 6.15087891 C26.4941272 6.30765766 13.44836142 4.97446111 0 2 C0 1.34 0 0.68 0 0 Z " fill="#5692CA" transform="translate(524,629)"/>
<path d="M0 0 C4.48338041 6.72507062 1.72739032 17.39893527 1 25.125 C0.90460937 26.176875 0.80921875 27.22875 0.7109375 28.3125 C0.47794718 30.87539348 0.24090324 33.43784031 0 36 C-0.33 36 -0.66 36 -1 36 C-2.5379551 23.82105829 -1.34724337 12.14003141 0 0 Z " fill="#3689C8" transform="translate(840,228)"/>
<path d="M0 0 C4.38769803 0.50388758 6.45152766 1.92215601 9.625 4.9375 C12.04544329 7.21337757 14.22640465 9.15093643 17 11 C17 11.66 17 12.32 17 13 C17.99 13.33 18.98 13.66 20 14 C16.34772932 14.51212652 15.10121051 14.06887573 11.9921875 11.953125 C10.94238132 11.06462405 9.90349876 10.16308119 8.875 9.25 C8.35035156 8.8065625 7.82570313 8.363125 7.28515625 7.90625 C4.47891923 5.49075484 2.07844 3.06749075 0 0 Z " fill="#3F3683" transform="translate(473,543)"/>
<path d="M0 0 C0.33 1.32 0.66 2.64 1 4 C-2.22190292 8.44077096 -6.96106333 12.7769397 -12 15 C-12.66 14.67 -13.32 14.34 -14 14 C-9.38 9.38 -4.76 4.76 0 0 Z " fill="#3789CA" transform="translate(711,242)"/>
<path d="M0 0 C0.33 0 0.66 0 1 0 C2.3213258 8.7419859 3.33165588 17.137418 3 26 C2.67 26 2.34 26 2 26 C1.49133331 23.64741656 0.9929375 21.29338596 0.5 18.9375 C0.35691406 18.28072266 0.21382812 17.62394531 0.06640625 16.94726562 C-1.10692511 11.27616405 -1.80016971 5.62553034 0 0 Z " fill="#E25390" transform="translate(176,475)"/>
<path d="M0 0 C0.99 0.33 1.98 0.66 3 1 C-0.65461928 5.49699606 -4.25880554 9.62848394 -9 13 C-9.99 12.67 -10.98 12.34 -12 12 C-8.04 8.04 -4.08 4.08 0 0 Z " fill="#207FC5" transform="translate(683,270)"/>
<path d="M0 0 C0.66 0 1.32 0 2 0 C2.93910678 1.4421997 3.8758019 2.88606046 4.796875 4.33984375 C7.62067978 8.23632762 11.57796863 11.12914057 16 13 C14.25 13.66015625 14.25 13.66015625 12 14 C6.66945905 11.32431831 2.82072292 7.17132535 0 2 C0 1.34 0 0.68 0 0 Z " fill="#3385C7" transform="translate(660,188)"/>
<path d="M0 0 C0.33 0 0.66 0 1 0 C1.19818283 6.70518586 1.30844801 12.65176798 -1 19 C-1.33 19 -1.66 19 -2 19 C-1.8595017 16.2079699 -1.71284617 13.41650204 -1.5625 10.625 C-1.52318359 9.8309375 -1.48386719 9.036875 -1.44335938 8.21875 C-1.11328125 2.2265625 -1.11328125 2.2265625 0 0 Z " fill="#3A8ACA" transform="translate(792,236)"/>
<path d="M0 0 C0 3.86239516 -1.48857616 6.47334438 -3 10 C-3 10.99 -3 11.98 -3 13 C-2.34 13.33 -1.68 13.66 -1 14 C-5.75 13.25 -5.75 13.25 -8 11 C-5.36 7.37 -2.72 3.74 0 0 Z " fill="#2A2A78" transform="translate(426,321)"/>
<path d="M0 0 C0 0.66 0 1.32 0 2 C-6.68650564 3.48725585 -12.23893038 4.27567351 -19 3 C-19 2.67 -19 2.34 -19 2 C-16.95928485 1.66089006 -14.91737379 1.32897296 -12.875 1 C-11.73804688 0.814375 -10.60109375 0.62875 -9.4296875 0.4375 C-6.23862398 0.03043951 -3.21182209 -0.07809902 0 0 Z " fill="#3F8ECC" transform="translate(798,138)"/>
<path d="M0 0 C-3.48216283 2.05137315 -6.77275657 2.56818592 -10.75 3.125 C-11.92046875 3.29257812 -13.0909375 3.46015625 -14.296875 3.6328125 C-15.18890625 3.75398437 -16.0809375 3.87515625 -17 4 C-17.33 3.34 -17.66 2.68 -18 2 C-15.94077867 1.46635113 -13.87743893 0.94857811 -11.8125 0.4375 C-10.08966797 0.00244141 -10.08966797 0.00244141 -8.33203125 -0.44140625 C-5.11519907 -0.98068761 -3.10327217 -0.88247476 0 0 Z " fill="#428CCA" transform="translate(611,629)"/>
<path d="M0 0 C0.99 0.33 1.98 0.66 3 1 C-0.63 4.63 -4.26 8.26 -8 12 C-8.66 11.34 -9.32 10.68 -10 10 C-6.7 6.7 -3.4 3.4 0 0 Z " fill="#4D92CD" transform="translate(718,307)"/>
<path d="M0 0 C0.66 0 1.32 0 2 0 C1.41632611 6.30367803 -0.04071619 11.98660063 -2 18 C-2.33 18 -2.66 18 -3 18 C-3.42765417 11.58518742 -1.85743168 6.11404596 0 0 Z " fill="#408BCA" transform="translate(748,485)"/>
<path d="M0 0 C0.99 0.33 1.98 0.66 3 1 C-2.0940919 7.70459519 -2.0940919 7.70459519 -5.875 8.9375 C-6.57625 8.958125 -7.2775 8.97875 -8 9 C-6.625 7 -6.625 7 -5 5 C-4.34 5 -3.68 5 -3 5 C-3 4.34 -3 3.68 -3 3 C-2.34 3 -1.68 3 -1 3 C-0.67 2.01 -0.34 1.02 0 0 Z " fill="#368ACA" transform="translate(741,210)"/>
<path d="M0 0 C0.66 0.33 1.32 0.66 2 1 C-1.63 4.3 -5.26 7.6 -9 11 C-9 7.35521088 -8.14197494 5.90696599 -6 3 C-3.9375 2.3125 -3.9375 2.3125 -2 2 C-1.34 1.34 -0.68 0.68 0 0 Z " fill="#E6539A" transform="translate(448,296)"/>
<path d="M0 0 C3.21043882 1.38188453 5.04936365 2.92421903 7.25 5.625 C8.03117187 6.57246094 8.03117187 6.57246094 8.828125 7.5390625 C9.40820312 8.26222656 9.40820312 8.26222656 10 9 C7 9 7 9 5.17578125 7.5390625 C4.56089844 6.90742187 3.94601562 6.27578125 3.3125 5.625 C2.68988281 4.99851562 2.06726563 4.37203125 1.42578125 3.7265625 C0 2 0 2 0 0 Z " fill="#E44B8C" transform="translate(262,547)"/>
<path d="M0 0 C0.66 0.33 1.32 0.66 2 1 C-0.97 4.96 -0.97 4.96 -4 9 C-5.32 8.67 -6.64 8.34 -8 8 C-5.36 5.36 -2.72 2.72 0 0 Z " fill="#E4699C" transform="translate(235,316)"/>
<path d="M0 0 C4.92127034 -0.16682272 8.50343896 -0.24828052 13 2 C13 2.66 13 3.32 13 4 C11.58194169 3.71517632 10.16559621 3.42181856 8.75 3.125 C7.96109375 2.96257813 7.1721875 2.80015625 6.359375 2.6328125 C4.03168856 2.00849925 2.10968048 1.15161458 0 0 Z " fill="#3F8BCA" transform="translate(506,625)"/>
<path d="M0 0 C2.03833424 1.2739589 4.03852126 2.61061923 6 4 C6 4.66 6 5.32 6 6 C6.99 6.33 7.98 6.66 9 7 C6.8125 7.3125 6.8125 7.3125 4 7 C1.1875 4.5 1.1875 4.5 -1 2 C-0.67 1.34 -0.34 0.68 0 0 Z " fill="#4B3B8B" transform="translate(484,550)"/>
<path d="M0 0 C1.57554035 2.88628401 2.46276373 5.53342384 3.125 8.75 C3.29257813 9.54921875 3.46015625 10.3484375 3.6328125 11.171875 C3.81457031 12.07679688 3.81457031 12.07679688 4 13 C3.34 13 2.68 13 2 13 C0.24252386 8.49646738 -0.19294408 4.82360189 0 0 Z " fill="#E3528F" transform="translate(232,489)"/>
<path d="M0 0 C5.27293578 6.95068807 5.27293578 6.95068807 5 12 C2.13546142 8.58983503 0.65296434 5.09305456 -1 1 C-0.67 0.67 -0.34 0.34 0 0 Z " fill="#3484C6" transform="translate(401,529)"/>
<path d="M0 0 C0 4.38968456 -2.12805101 5.76905739 -5 9 C-5.99 8.67 -6.98 8.34 -8 8 C-5.36 5.36 -2.72 2.72 0 0 Z " fill="#4A8FCC" transform="translate(679,274)"/>
<path d="M0 0 C0.99 0.33 1.98 0.66 3 1 C2.01 1.33 1.02 1.66 0 2 C0 2.66 0 3.32 0 4 C-0.66 4 -1.32 4 -2 4 C-2.66 5.32 -3.32 6.64 -4 8 C-4.66 7.34 -5.32 6.68 -6 6 C-4.02 4.02 -2.04 2.04 0 0 Z " fill="#E55D96" transform="translate(268,359)"/>
<path d="M0 0 C-4.455 2.97 -4.455 2.97 -9 6 C-8 2 -8 2 -6.1875 0.1875 C-4 -1 -4 -1 0 0 Z " fill="#433988" transform="translate(492,336)"/>
<path d="M0 0 C0 0.66 0 1.32 0 2 C-4.3164922 2.76173392 -7.74433453 3.16063604 -12 2 C-12 1.67 -12 1.34 -12 1 C-7.93631321 0.22596442 -4.13574827 -0.0984702 0 0 Z " fill="#4992CE" transform="translate(766,143)"/>
<path d="M0 0 C3.93673644 1.31224548 6.22719294 2.91910327 9 6 C5.21213403 5.4739075 2.82847776 4.61896089 0 2 C0 1.34 0 0.68 0 0 Z " fill="#E3498B" transform="translate(277,561)"/>
<path d="M0 0 C2.29633824 3.44450737 2.54016485 5.93812283 3 10 C2.34 10 1.68 10 1 10 C-1.125 3.375 -1.125 3.375 0 0 Z " fill="#428DCB" transform="translate(745,388)"/>
<path d="M0 0 C0.33 0.66 0.66 1.32 1 2 C0.0625 4.125 0.0625 4.125 -1 6 C-3 5 -3 5 -6 3 C-6 2.34 -6 1.68 -6 1 C-4.7934375 1.0309375 -4.7934375 1.0309375 -3.5625 1.0625 C-1.06645115 1.29633621 -1.06645115 1.29633621 0 0 Z " fill="#DB6CA4" transform="translate(419,328)"/>
<path d="M0 0 C2.475 0.99 2.475 0.99 5 2 C2.38485683 4.12038635 -0.19637616 6.13091744 -3 8 C-2.5359375 7.13375 -2.5359375 7.13375 -2.0625 6.25 C-1.07416636 4.15705816 -0.4831387 2.25464725 0 0 Z " fill="#EB71A7" transform="translate(453,288)"/>
<path d="M0 0 C0.33 0.99 0.66 1.98 1 3 C-0.40445835 5.2636564 -2.1967913 7.0208685 -4 9 C-4.99 8.67 -5.98 8.34 -7 8 C-4.69 5.36 -2.38 2.72 0 0 Z " fill="#3787C9" transform="translate(719,233)"/>
<path d="M0 0 C1.98 0.66 3.96 1.32 6 2 C6 3.32 6 4.64 6 6 C5.01 6 4.02 6 3 6 C3 5.01 3 4.02 3 3 C1.56249809 1.31201173 1.56249809 1.31201173 0 0 Z " fill="#E25296" transform="translate(464,606)"/>
<path d="M0 0 C0.99 0.33 1.98 0.66 3 1 C3 1.66 3 2.32 3 3 C3.66 3 4.32 3 5 3 C5.33 3.99 5.66 4.98 6 6 C5.01 6 4.02 6 3 6 C0 2.66666667 0 2.66666667 0 0 Z " fill="#3A89C7" transform="translate(789,310)"/>
<path d="M0 0 C-6.75 4 -6.75 4 -9 4 C-8 1 -8 1 -6.1875 -0.25 C-3.66056586 -1.11637742 -2.47778006 -0.88492145 0 0 Z " fill="#E45190" transform="translate(461,618)"/>
<path d="M0 0 C-3.8503105 2.56687367 -5.58569763 1.83288724 -10 1 C-10 0.67 -10 0.34 -10 0 C-6.30458414 -0.95024979 -3.69541586 -0.95024979 0 0 Z " fill="#E55D96" transform="translate(393,588)"/>
<path d="M0 0 C0.66 0.33 1.32 0.66 2 1 C0.1875 4 0.1875 4 -2 7 C-2.99 7 -3.98 7 -5 7 C-3.70700306 4.11562221 -2.34058637 2.12780579 0 0 Z " fill="#E2528E" transform="translate(243,309)"/>
<path d="M0 0 C0.66 0 1.32 0 2 0 C0.60667426 3.36720387 -0.9789286 4.9859524 -4 7 C-4 6.01 -4 5.02 -4 4 C-3.34 4 -2.68 4 -2 4 C-1.34 2.68 -0.68 1.36 0 0 Z " fill="#428BCA" transform="translate(776,248)"/>
<path d="M0 0 C0.66 0 1.32 0 2 0 C4.125 4.625 4.125 4.625 3 8 C1.5 6.8125 1.5 6.8125 0 5 C-0.1875 2.3125 -0.1875 2.3125 0 0 Z " fill="#5399CF" transform="translate(845,148)"/>
<path d="M0 0 C1.9375 0.6875 1.9375 0.6875 4 2 C4.75 4.625 4.75 4.625 5 7 C4.34 7 3.68 7 3 7 C0 2.61538462 0 2.61538462 0 0 Z " fill="#3888C9" transform="translate(841,141)"/>
</svg>
