<?xml version="1.0" encoding="UTF-8"?>
<svg version="1.1" xmlns="http://www.w3.org/2000/svg" width="1024" height="1024">
<path d="M0 0 C9.5240617 7.40760354 16.0089971 15.21634276 19 27 C19.24291992 30.30029297 19.24291992 30.30029297 19.23046875 33.7421875 C19.22926025 35.04075684 19.22805176 36.33932617 19.22680664 37.67724609 C19.21430261 39.07650287 19.20118578 40.47575428 19.1875 41.875 C19.17992831 43.32503087 19.17269101 44.77506353 19.16577148 46.22509766 C19.09736619 56.94427316 18.86652792 67.66014253 18.5625 78.375 C18.53329971 79.4529483 18.53329971 79.4529483 18.50350952 80.55267334 C18.44662618 82.58475566 18.38170346 84.61660814 18.31640625 86.6484375 C18.27974854 87.80520996 18.24309082 88.96198242 18.20532227 90.15380859 C18 93 18 93 17 96 C17.54785156 96.25910156 18.09570312 96.51820313 18.66015625 96.78515625 C38.51699592 107.09480089 54.74336753 123.87509514 66 143 C66.37243925 144.32294289 66.71591618 145.6553122 67 147 C67.94875 146.938125 68.8975 146.87625 69.875 146.8125 C77.63709417 146.82821274 84.54791451 149.93238089 91 154 C91 154.66 91 155.32 91 156 C91.8971875 156.38478516 91.8971875 156.38478516 92.8125 156.77734375 C99.19800172 160.3463831 102.58056518 168.39928553 105 175 C106.15930071 179.11600392 106.26276728 183.17775832 106.38671875 187.4296875 C106.41224319 188.25647003 106.43776764 189.08325256 106.46406555 189.93508911 C106.51603435 191.68842531 106.56546599 193.44183829 106.61254883 195.1953125 C106.68627621 197.8312465 106.77735337 200.46620443 106.86914062 203.1015625 C107.29114751 216.97769337 107.28785686 229.70967692 100 242 C99.67 242.66 99.34 243.32 99 244 C98.34 244 97.68 244 97 244 C96.79375 244.556875 96.5875 245.11375 96.375 245.6875 C93.20011826 251.02707383 87.45034819 254.32263598 82 257 C79.63194448 257.55501301 77.43503618 257.80122154 75 258 C75.0309375 259.8871875 75.0309375 259.8871875 75.0625 261.8125 C75.10886083 264.64051087 74.91692961 266.24921116 74 269 C74 270.19625 74 271.3925 74 272.625 C74 273.73875 74 274.8525 74 276 C73.67 276.33 73.34 276.66 73 277 C72.97808137 278.56248515 73.01125697 280.12570154 73.0625 281.6875 C73.12303252 287.96018201 72.63925588 294.13067697 72.0625 300.375 C71.97556885 301.32592529 71.8886377 302.27685059 71.79907227 303.2565918 C71.45958499 306.81571234 71.11826229 310.33095372 70.49560547 313.85351562 C69.94473146 317.35088717 69.72299891 320.78490166 69.53515625 324.3203125 C69.04792207 332.86105089 68.26750332 341.36179111 67.4375 349.875 C67.22939176 352.02939052 67.02204304 354.18385017 66.81568909 356.33840942 C66.63180306 358.25553621 66.44572985 360.17245285 66.25952148 362.08935547 C65.97039648 364.84498427 65.97039648 364.84498427 66 367 C65.8418945 368.85491629 65.67399158 370.70900634 65.5 372.5625 C65.15003649 375.7752368 65.15003649 375.7752368 65 379 C64.86219348 380.93808745 64.71474358 382.87549316 64.5625 384.8125 C64.48128906 385.87082031 64.40007813 386.92914063 64.31640625 388.01953125 C64 391 64 391 63.40234375 393.32421875 C63.26957031 393.87722656 63.13679687 394.43023437 63 395 C63.33 395.33 63.66 395.66 64 396 C64.54527344 394.91203125 65.09054687 393.8240625 65.65234375 392.703125 C70.38408335 383.42082079 75.35752495 375.07018372 82 367 C82.67675781 366.17113281 83.35351562 365.34226562 84.05078125 364.48828125 C87.43296126 360.47588136 87.43296126 360.47588136 89 359 C89.66 359 90.32 359 91 359 C91 358.34 91 357.68 91 357 C111.69251243 340.87697589 133.22421012 335.35577141 159.27734375 338.453125 C176.98617341 341.05463198 190.44023006 349.32282488 201.78125 363.17578125 C203 365 203 365 203 367 C203.969375 366.93039062 204.93875 366.86078125 205.9375 366.7890625 C223.32677964 365.93514421 238.18557189 372.62983523 251.125 384.1875 C256.52466138 389.17511825 261.20711546 394.67480726 265 401 C265 401.66 265 402.32 265 403 C265.67804687 403.08636719 266.35609375 403.17273438 267.0546875 403.26171875 C279.59299439 405.15462104 287.64926955 410.15959203 295.58203125 419.953125 C301.74990037 428.48073296 306.810672 439.48942939 308.609375 449.890625 C309.06440033 452.34776179 309.77812284 454.67039724 310.5 457.0625 C315.65125635 475.9764564 319.30479225 505.08562324 313 524 C312.95574662 526.04118701 312.96064988 528.08371258 313 530.125 C313.03756303 532.08297305 313.04675284 534.04222483 313 536 C312.67 536.33 312.34 536.66 312 537 C311.86193297 538.49726023 311.76664681 539.99847195 311.6875 541.5 C310.59589756 554.95135904 306.7443997 568.8403218 301 581 C300.66742187 581.70640625 300.33484375 582.4128125 299.9921875 583.140625 C297.95918932 587.33468424 295.8004746 591.26603387 293 595 C292.34 595 291.68 595 291 595 C290.75507812 595.5775 290.51015625 596.155 290.2578125 596.75 C286.63995782 603.22169035 279.04196835 608.75065984 272 611 C270.22950807 611.12974597 268.45863923 611.2544118 266.6875 611.375 C261.88252534 612.09640804 259.85950662 613.85016435 256.91821289 617.68481445 C256.0101607 618.94248228 255.10572725 620.20277038 254.20483398 621.46557617 C248.31315907 629.62674564 240.55070442 635.62916315 231 639 C229.97003906 639.49371094 228.94007813 639.98742187 227.87890625 640.49609375 C223.59632022 642.3452768 219.36251807 642.77539798 214.75 643.1875 C213.94820312 643.26935547 213.14640625 643.35121094 212.3203125 643.43554688 C207.5222555 643.91294552 202.81460152 644 198 644 C197.78214844 644.55816406 197.56429687 645.11632812 197.33984375 645.69140625 C191.28002656 656.13266561 177.98878656 661.77193938 166.9375 664.75 C159.96814801 666.34299474 153.03974223 667.81670767 146 666 C145.67 666.33 145.34 666.66 145 667 C127.21984168 668.50428524 110.13548029 663.28768109 95 654 C95 653.34 95 652.68 95 652 C94.25492188 651.74347656 93.50984375 651.48695313 92.7421875 651.22265625 C85.15532787 647.83991114 79.77409157 639.55445351 75 633 C74.50886719 632.33742188 74.01773438 631.67484375 73.51171875 630.9921875 C66.59201056 621.18149611 61.70064999 609.96326696 57.0625 598.9375 C56.62079468 597.90302734 56.62079468 597.90302734 56.17016602 596.84765625 C54.41355159 592.55961913 53.57214794 588.62766717 53 584 C52.0355414 581.65175298 51.03485877 579.31808364 50 577 C49.25569784 574.68086338 48.62491059 572.35543223 48 570 C46.38217663 573.54778867 45.78950801 576.17194508 45.93359375 580.05859375 C46.04634952 586.11185178 45.61236108 592.03742649 45.0625 598.0625 C44.93198242 599.6084082 44.93198242 599.6084082 44.79882812 601.18554688 C44.1290216 608.7419568 44.1290216 608.7419568 43 611 C42.94706804 612.50901046 42.94980017 614.02022048 42.98339844 615.52978516 C43.03197089 620.5710411 42.73123835 625.50636296 42.265625 630.5234375 C42.18632751 631.39086578 42.10703003 632.25829407 42.02532959 633.15200806 C41.85645273 634.97235494 41.6848936 636.79245484 41.51074219 638.61230469 C41.25138961 641.36027634 41.01225336 644.10955284 40.7734375 646.859375 C39.04894905 665.60743404 34.2880562 680.98973744 20 694 C17.69140625 694.8125 17.69140625 694.8125 16 695 C16 695.66 16 696.32 16 697 C0.55961585 709.12533069 -17.17425139 710.30747869 -36.04272461 710.2746582 C-37.7164889 710.27901574 -39.39025121 710.28420233 -41.06401062 710.29014587 C-45.57232434 710.30343359 -50.08055371 710.30412616 -54.58888316 710.30158257 C-58.36840685 710.3005061 -62.14791393 710.3054133 -65.92743403 710.310188 C-74.85096823 710.32124733 -83.77446032 710.32174047 -92.69799805 710.31567383 C-101.87014777 710.30963362 -111.0421441 710.3219545 -120.21426767 710.3432439 C-128.12212402 710.36091642 -136.02993179 710.36685246 -143.93780714 710.36360615 C-148.64639025 710.3618025 -153.35486386 710.36433721 -158.06342888 710.37832069 C-162.49345224 710.39098727 -166.923238 710.38887238 -171.35325813 710.37590981 C-172.96800953 710.37356375 -174.58277813 710.37620692 -176.19750977 710.38453293 C-197.2862604 710.48533467 -216.21571467 705.57010954 -232 691 C-232 690.34 -232 689.68 -232 689 C-232.66 689 -233.32 689 -234 689 C-243.69501434 678.82165649 -247.99588138 664.94969497 -249.1328125 651.2578125 C-249.21498016 650.36818817 -249.29714783 649.47856384 -249.38180542 648.5619812 C-249.63918283 645.75042651 -249.88232022 642.93785723 -250.125 640.125 C-250.29463705 638.24861307 -250.46520326 636.37230991 -250.63671875 634.49609375 C-251.03695814 630.09095818 -251.4238938 625.68482167 -251.8031311 621.27783203 C-251.97749083 619.26043782 -252.15671977 617.24346574 -252.33666992 615.2265625 C-252.76064502 610.38883077 -253.12646385 605.6112528 -253.0625 600.75 C-253.05347656 599.83734375 -253.04445313 598.9246875 -253.03515625 597.984375 C-253.01775391 597.00210937 -253.01775391 597.00210937 -253 596 C-253.33 596 -253.66 596 -254 596 C-254.4297203 591.65860591 -254.85689555 587.31697112 -255.28173828 582.97509766 C-255.42655033 581.49879226 -255.57205146 580.02255429 -255.71826172 578.54638672 C-255.92858185 576.42172415 -256.1364037 574.29682959 -256.34375 572.171875 C-256.46943359 570.8940918 -256.59511719 569.61630859 -256.72460938 568.29980469 C-257 565 -257 565 -257 561 C-257.66 561 -258.32 561 -259 561 C-258.80978271 561.87309814 -258.61956543 562.74619629 -258.42358398 563.64575195 C-257.98161724 567.14556817 -258.29473318 569.29309954 -259.22265625 572.66796875 C-259.65022217 574.23683838 -259.65022217 574.23683838 -260.08642578 575.83740234 C-260.38790527 576.88105957 -260.68938477 577.9247168 -261 579 C-261.40001221 580.40886475 -261.40001221 580.40886475 -261.80810547 581.84619141 C-269.81755177 609.1071717 -283.19100062 638.10673477 -308 654 C-308.66 654.44214844 -309.32 654.88429688 -310 655.33984375 C-313.91537595 657.89818599 -317.48026645 659.68174438 -322 661 C-323.175625 661.474375 -324.35125 661.94875 -325.5625 662.4375 C-341.23036681 668.20987198 -359.03027342 669.53337018 -375 664 C-377.5059564 662.82364277 -379.66305631 661.50927614 -382 660 C-382.804375 659.71125 -383.60875 659.4225 -384.4375 659.125 C-389.07509242 657.08898381 -393.33755177 653.87695768 -396.6953125 650.0859375 C-400.68902698 645.73404235 -403.81105695 644.60603466 -409.57641602 644.2121582 C-411.87364168 644.1273573 -414.16619553 644.0874685 -416.46484375 644.0703125 C-420 644 -420 644 -421 643 C-422.485 642.8453125 -422.485 642.8453125 -424 642.6875 C-439.90824676 640.52113306 -452.37031727 627.900531 -461.75 615.8828125 C-463 614 -463 614 -463 612 C-463.66 612 -464.32 612 -465 612 C-465.67289063 611.27103516 -465.67289063 611.27103516 -466.359375 610.52734375 C-468.4220474 608.60709397 -469.47578924 608.64495032 -472.25 608.5625 C-480.26079479 607.85186498 -485.25220733 603.43285962 -490.6640625 597.80859375 C-498.25420716 588.68265059 -503.20975961 578.18951447 -507 567 C-507.27199219 566.28199219 -507.54398438 565.56398438 -507.82421875 564.82421875 C-514.09948869 547.72493824 -515.88042983 529.1751045 -516.6875 511.125 C-516.73608154 510.07884521 -516.78466309 509.03269043 -516.8347168 507.95483398 C-517.07406157 501.53335148 -516.83963917 495.36908327 -516 489 C-515.85921021 487.89277588 -515.85921021 487.89277588 -515.71557617 486.76318359 C-512.1705479 460.29481789 -505.75245585 427.2238224 -483.97265625 409.47265625 C-476.50082947 403.89467863 -476.50082947 403.89467863 -471.4375 404.25 C-468.07552269 404.36508774 -468.07552269 404.36508774 -466.47265625 402.5859375 C-464.86868253 400.45014225 -463.42837937 398.25705747 -462 396 C-460.82132706 394.26480442 -459.63365702 392.53568948 -458.4375 390.8125 C-457.89996094 390.01457031 -457.36242187 389.21664063 -456.80859375 388.39453125 C-448.01765558 376.75555696 -433.40588215 368.19601862 -419 366 C-415.45830733 365.85242947 -411.91894275 365.74825308 -408.375 365.671875 C-404.09730261 364.82029635 -402.82880071 363.25335155 -400 360 C-390.91401455 351.47058333 -379.65258699 342.931527 -367 341 C-366.41025391 340.83129395 -365.82050781 340.66258789 -365.21289062 340.48876953 C-360.44237369 339.43508739 -355.42635705 339.81525885 -350.5625 339.8125 C-349.43005859 339.80025391 -348.29761719 339.78800781 -347.13085938 339.77539062 C-346.03708984 339.77345703 -344.94332031 339.77152344 -343.81640625 339.76953125 C-342.82068604 339.76542236 -341.82496582 339.76131348 -340.79907227 339.75708008 C-337.83436816 340.0143745 -335.72112177 340.84064387 -333 342 C-331.824375 342.103125 -330.64875 342.20625 -329.4375 342.3125 C-313.03502469 344.186191 -297.15631961 357.49891232 -286.80078125 369.6875 C-282.12356304 375.69381926 -277.69325531 381.85019219 -275 389 C-274.02763513 390.6829392 -273.03435556 392.35443434 -272 394 C-271.61781233 392.34385343 -271.28604898 390.67542976 -271 389 C-271.33 388.67 -271.66 388.34 -272 388 C-272.07258946 385.81360547 -272.08373783 383.62499611 -272.0625 381.4375 C-272.05347656 380.23996094 -272.04445313 379.04242188 -272.03515625 377.80859375 C-272.01775391 376.41833984 -272.01775391 376.41833984 -272 375 C-272.33 375 -272.66 375 -273 375 C-272.98259766 373.82630859 -272.98259766 373.82630859 -272.96484375 372.62890625 C-272.95582031 371.61699219 -272.94679688 370.60507812 -272.9375 369.5625 C-272.92009766 368.04849609 -272.92009766 368.04849609 -272.90234375 366.50390625 C-272.71387324 364.05978933 -272.71387324 364.05978933 -274 363 C-274.2723297 360.8949579 -274.48071194 358.78162187 -274.66430664 356.66699219 C-274.72297409 356.00497803 -274.78164154 355.34296387 -274.84208679 354.66088867 C-275.03609639 352.45659583 -275.22335405 350.25178954 -275.41015625 348.046875 C-275.54301168 346.51000962 -275.67610739 344.973165 -275.80943298 343.43634033 C-276.08895109 340.20162651 -276.36506119 336.96664334 -276.63891602 333.73144531 C-276.98734666 329.61917801 -277.34474073 325.5077501 -277.7049036 321.39649582 C-277.98256346 318.2137385 -278.25493242 315.03054407 -278.52584648 311.84720612 C-278.65532315 310.33387064 -278.78645824 308.82067599 -278.91938972 307.30764008 C-279.71726941 298.19046397 -280.18186639 289.16092475 -280 280 C-280.33 280 -280.66 280 -281 280 C-281 276.04 -281 272.08 -281 268 C-281.33 268 -281.66 268 -282 268 C-282 264.7 -282 261.4 -282 258 C-282.99 257.938125 -283.98 257.87625 -285 257.8125 C-289.73820324 257.15762638 -293.1479834 254.68803767 -297 252 C-297.99 251.34 -298.98 250.68 -300 250 C-300 249.34 -300 248.68 -300 248 C-300.90298828 247.6596875 -300.90298828 247.6596875 -301.82421875 247.3125 C-304.63387665 245.61762558 -305.40005265 243.93584222 -306.8125 241 C-307.47185547 239.6696875 -307.47185547 239.6696875 -308.14453125 238.3125 C-308.42683594 237.549375 -308.70914063 236.78625 -309 236 C-308.67 235.34 -308.34 234.68 -308 234 C-308.66 234 -309.32 234 -310 234 C-311.05590487 227.91008061 -311.19370925 221.93861971 -311.23828125 215.765625 C-311.246353 214.6918158 -311.25442474 213.61800659 -311.26274109 212.51165771 C-311.27652705 210.2457437 -311.28727355 207.9798094 -311.29516602 205.71386719 C-311.30668648 203.41172134 -311.32713915 201.10960221 -311.35668945 198.80761719 C-311.39960014 195.46010409 -311.41556648 192.11337982 -311.42578125 188.765625 C-311.44328934 187.75066956 -311.46079742 186.73571411 -311.47883606 185.69000244 C-311.45060179 176.25518786 -309.29824952 167.4850294 -302.5625 160.5625 C-301.82128906 159.78003906 -301.08007812 158.99757813 -300.31640625 158.19140625 C-295.3629686 153.50527046 -289.94409925 149.05213625 -283 148 C-281.88625 148.165 -280.7725 148.33 -279.625 148.5 C-276.04386579 148.39443252 -276.04386579 148.39443252 -274.4609375 146.3515625 C-272.88328283 143.94711554 -271.43672491 141.49106567 -270 139 C-260.57440398 124.32470493 -247.51802033 110.73082828 -233 101 C-232.34 101 -231.68 101 -231 101 C-231 97.7 -231 94.4 -231 91 C-230.67 91 -230.34 91 -230 91 C-229.67 84.07 -229.34 77.14 -229 70 C-229.66 70 -230.32 70 -231 70 C-231 60.1 -231 50.2 -231 40 C-233.31 40 -235.62 40 -238 40 C-241.44416945 38.82057585 -244.24823432 36.97103067 -246.5 34.0625 C-247.13592971 31.43928996 -246.71565293 29.57635055 -246 27 C-246.66 27 -247.32 27 -248 27 C-248.4514599 19.47566838 -248.59545848 13.26367286 -244 7 C-239.79464776 2.92606502 -235.54053605 2.87409231 -229.88623047 2.96240234 C-228.0344368 2.98770523 -228.0344368 2.98770523 -226.14523315 3.01351929 C-224.80254667 3.03740162 -223.45986485 3.06154729 -222.1171875 3.0859375 C-220.73764548 3.10771674 -219.35809821 3.12916585 -217.97854614 3.15029907 C-215.09191125 3.19572642 -212.20537267 3.24494425 -209.31884766 3.296875 C-205.61545468 3.36322542 -201.91198742 3.42045279 -198.20840263 3.47490501 C-195.36196653 3.51769833 -192.51562252 3.56513302 -189.66928482 3.61400223 C-188.30332839 3.6369237 -186.93734746 3.65843028 -185.57134628 3.67850876 C-183.66581441 3.70724632 -181.76038993 3.74285924 -179.85498047 3.77880859 C-178.77006317 3.79736908 -177.68514587 3.81592957 -176.56735229 3.83505249 C-174 4 -174 4 -172 5 C-170.04425012 5.07380885 -168.08593621 5.08345415 -166.12890625 5.0625 C-164.92258545 5.05412109 -163.71626465 5.04574219 -162.47338867 5.03710938 C-161.18279541 5.02486328 -159.89220215 5.01261719 -158.5625 5 C-147.00067426 4.93714458 -135.53258868 5.19573479 -124 6 C-124 6.66 -124 7.32 -124 8 C-123.34 7.67 -122.68 7.34 -122 7 C-119.28239892 6.92818179 -116.59140612 6.90700494 -113.875 6.9375 C-113.12089844 6.94201172 -112.36679687 6.94652344 -111.58984375 6.95117188 C-109.72652873 6.96296501 -107.86325445 6.98090058 -106 7 C-106 7.66 -106 8.32 -106 9 C-105.34 8.67 -104.68 8.34 -104 8 C-96.98038868 7.39021558 -89.91872876 8.21448872 -82.9375 8.9375 C-82.09195557 9.02427002 -81.24641113 9.11104004 -80.37524414 9.20043945 C-74.25682415 9.87158792 -74.25682415 9.87158792 -72 11 C-69.08369887 11.05749557 -69.08369887 11.05749557 -66 10 C-64.80941257 8.61098134 -63.62725885 7.211868 -62.52734375 5.75 C-47.02315453 -12.01439071 -18.7642252 -11.91941349 0 0 Z M-129 49 C-129 54.28 -129 59.56 -129 65 C-126.18711295 64.85980308 -123.37483115 64.71312045 -120.5625 64.5625 C-119.76005859 64.52318359 -118.95761719 64.48386719 -118.13085938 64.44335938 C-114.24760439 64.5945704 -114.24760439 64.5945704 -111 63 C-109.02156826 62.89987885 -107.03955624 62.86918804 -105.05859375 62.8671875 C-103.83462891 62.86589844 -102.61066406 62.86460937 -101.34960938 62.86328125 C-100.05861328 62.86714844 -98.76761719 62.87101562 -97.4375 62.875 C-96.17357422 62.87113281 -94.90964844 62.86726563 -93.60742188 62.86328125 C-87.31231896 62.86986264 -81.22077823 63.01157874 -75 64 C-75 60.7 -75 57.4 -75 54 C-78.31144048 53.49194338 -81.62386727 52.99337791 -84.9375 52.5 C-85.86369141 52.35691406 -86.78988281 52.21382812 -87.74414062 52.06640625 C-93.56683571 51.20832487 -99.11474367 50.85513215 -105 51 C-105.33 50.34 -105.66 49.68 -106 49 C-113.59 49 -121.18 49 -129 49 Z " fill="#063765" transform="translate(605,107)"/>
<path d="M0 0 C99.66 0 199.32 0 302 0 C300.85933246 22.81335083 300.85933246 22.81335083 299.74438477 32.72436523 C297.74106667 50.77235083 296.11091718 68.84549148 294.5625 86.9375 C292.83079818 107.1220512 290.89441885 127.27325289 288.7434082 147.41723633 C287.33092369 160.66287117 286.04172917 173.91379589 284.89990234 187.18554688 C284.79371582 188.40564453 284.6875293 189.62574219 284.578125 190.8828125 C284.44519043 192.45119873 284.44519043 192.45119873 284.30957031 194.05126953 C283.99480602 197.04947385 283.49561062 200.0263363 283 203 C194.89 203 106.78 203 16 203 C13 167 13 167 11.640625 150.65234375 C11.35599109 147.2310564 11.07131524 143.80977254 10.78659248 140.38849258 C10.48285416 136.73814937 10.17939591 133.08778317 9.87640381 129.43737793 C8.3749151 111.34908172 6.85581085 93.26246867 5.30175781 75.17860603 C4.81301572 69.48583746 4.32680687 63.79285175 3.84044647 58.09987926 C3.36932375 52.58983444 2.89366276 47.08020481 2.41472435 41.57083416 C2.11624887 38.12508074 1.82201957 34.6789738 1.52887344 31.23276329 C1.39231428 29.63782007 1.25400205 28.04302574 1.1137352 26.44840431 C0.92019223 24.24560392 0.7330926 22.04233832 0.54736328 19.83886719 C0.44110626 18.60819519 0.33484924 17.37752319 0.22537231 16.10955811 C-0.06870276 10.74723757 0 5.37037817 0 0 Z " fill="#F7F5EA" transform="translate(352,367)"/>
<path d="M0 0 C83.16 0 166.32 0 252 0 C252 6.6450077 251.87112487 13.07222487 251.32910156 19.66552734 C251.25749817 20.5743013 251.18589478 21.48307526 251.11212158 22.41938782 C250.87632517 25.39197007 250.63415075 28.36397902 250.390625 31.3359375 C250.3073571 32.35988239 250.2240892 33.38382729 250.13829803 34.43880081 C249.6975457 39.85413279 249.25171198 45.2690189 248.80175781 50.68359375 C248.3405707 56.24577446 247.8971329 61.80922103 247.45773697 67.37315941 C247.11423409 71.68081671 246.75736045 75.98729386 246.39696503 80.29356766 C246.22775756 82.34306099 246.06349581 84.39296941 245.90448761 86.44327927 C244.58495816 103.36316988 242.58501511 118.11154059 229.6875 130.3125 C222.28289923 136.59140133 214.6945405 139.11749231 205.0944519 139.14044189 C204.39980241 139.14341302 203.70515291 139.14638414 202.98945343 139.1494453 C200.66206481 139.15811588 198.33472772 139.15963917 196.00732422 139.16113281 C194.33825064 139.16576225 192.66917811 139.17078709 191.00010681 139.17617798 C186.46469331 139.18929434 181.92929461 139.19574579 177.39386511 139.20018864 C174.55815908 139.20312141 171.72245708 139.20722667 168.88675308 139.21169281 C160.00845893 139.22536753 151.13017399 139.23503355 142.25187004 139.2388947 C132.01496019 139.24337148 121.77818413 139.2609018 111.54131496 139.2898953 C103.62182019 139.31154381 95.70236297 139.32160072 87.78283894 139.32293582 C83.0563544 139.32398184 78.32999562 139.32984611 73.60354233 139.34775543 C69.15314503 139.36429032 64.70296728 139.36636543 60.25255013 139.35761642 C58.62483315 139.35684887 56.9971041 139.36115145 55.36941719 139.37107468 C41.35345173 139.45146731 30.51460209 137.7461362 19.8359375 128.03125 C12.13723714 120.07304288 8.31491232 110.11804718 7.45922852 99.18774414 C7.31886925 97.42793968 7.31886925 97.42793968 7.17567444 95.63258362 C7.07774094 94.36293259 6.97980743 93.09328156 6.87890625 91.78515625 C6.77336802 90.45109896 6.66748089 89.11706923 6.56126404 87.7830658 C6.2813455 84.25845084 6.00518224 80.73355268 5.73010254 77.20855713 C5.24233131 70.96291831 4.74923475 64.71769982 4.25390625 58.47265625 C4.20071228 57.80075193 4.14751831 57.12884762 4.0927124 56.43658257 C3.23365359 45.61145431 2.27250627 34.80004395 1.19689941 23.99440002 C0.91129551 21.10150957 0.64256064 18.20710702 0.375 15.3125 C0.30023438 14.50425781 0.22546875 13.69601562 0.1484375 12.86328125 C-0.07356417 8.58098597 0 4.28804589 0 0 Z " fill="#F7F5EA" transform="translate(375,649)"/>
<path d="M0 0 C1.80290307 -0.01451001 1.80290307 -0.01451001 3.64222842 -0.02931315 C4.97764353 -0.02489963 6.3130577 -0.02019647 7.64847088 -0.01523495 C9.06587113 -0.02083849 10.48326674 -0.02774029 11.90065497 -0.03583091 C15.80029771 -0.05421451 19.6997478 -0.05378075 23.599424 -0.05024779 C27.80337457 -0.0496365 32.00726284 -0.06618501 36.2111845 -0.08042049 C44.4493855 -0.10535826 52.68752211 -0.11358584 60.92575768 -0.11525763 C67.62135981 -0.11668231 74.31694065 -0.12284252 81.01253605 -0.1323595 C99.98956438 -0.15878468 118.96654179 -0.17261684 137.94358865 -0.17036808 C138.96701445 -0.17024821 139.99044025 -0.17012835 141.04487896 -0.17000484 C142.58188891 -0.16982088 142.58188891 -0.16982088 144.14994957 -0.1696332 C160.75756047 -0.16841376 177.36496732 -0.1971222 193.9725192 -0.23941994 C211.01893127 -0.28249333 228.06524379 -0.30323148 245.11171168 -0.30063862 C254.68447526 -0.29964205 264.25702496 -0.30791153 273.82973957 -0.34017277 C281.98023393 -0.36746453 290.13041749 -0.37403322 298.28093771 -0.3536445 C302.43992258 -0.34383635 306.5983109 -0.34372146 310.75723934 -0.36970425 C314.56536549 -0.39325078 318.37242054 -0.38905881 322.18052002 -0.36285185 C324.20921652 -0.35605028 326.2379458 -0.37877348 328.26651412 -0.40257078 C334.81904204 -0.32784413 339.16822336 -0.06267186 343.916197 4.70885426 C346.39403695 8.06330604 347.40443726 10.7136868 347.44551373 14.87564945 C347.45827343 15.75691502 347.47103313 16.63818058 347.4841795 17.54615116 C347.48751797 18.96343006 347.48751797 18.96343006 347.49092388 20.40934086 C347.49758068 21.38827305 347.50423748 22.36720524 347.511096 23.37580204 C347.52121369 25.44523078 347.52591329 27.51469209 347.52559185 29.58414555 C347.52996102 32.74257304 347.56627939 35.89959839 347.60420513 39.05777836 C347.61007433 41.07079443 347.61404303 43.08381711 347.61592388 45.09684086 C347.63029491 46.037645 347.64466595 46.97844913 347.65947247 47.94776249 C347.62070098 53.54031093 347.17277581 57.14169077 343.15498638 61.38590336 C336.54702051 65.25366767 329.94097601 64.80548413 322.44586468 64.76685429 C321.04166363 64.77031322 319.63746529 64.77507937 318.23327261 64.78103602 C314.38406241 64.79354325 310.53507575 64.78737697 306.68586481 64.77807736 C302.5310814 64.77128613 298.37633627 64.78176843 294.22156048 64.79001713 C286.08635935 64.8033555 277.95124126 64.80047636 269.81603687 64.79177921 C263.20488248 64.78500395 256.59375136 64.78408525 249.98259449 64.78735065 C249.04165244 64.78781035 248.10071038 64.78827005 247.13125493 64.78874368 C245.21976005 64.78970286 243.30826517 64.7906755 241.39677031 64.79166146 C223.47394684 64.80021554 205.5511694 64.79038069 187.62835348 64.77426036 C172.24780377 64.76085498 156.86732198 64.76318705 141.48677349 64.77701664 C123.6265142 64.79306837 105.76629525 64.79939386 87.90602976 64.79017985 C86.00187402 64.7892242 84.09771826 64.78828109 82.19356251 64.78735065 C81.2566742 64.78688783 80.3197859 64.786425 79.35450704 64.78594815 C72.75033607 64.7833572 66.14619067 64.78773147 59.54202366 64.79478931 C51.49520757 64.80319988 43.44847927 64.80093342 35.40167325 64.78494708 C31.29561685 64.77705873 27.18970689 64.77398238 23.08365154 64.78389454 C19.32530533 64.79283017 15.56724139 64.78792744 11.80892081 64.77196188 C9.80451311 64.76702042 7.80008584 64.77682067 5.79569858 64.78713357 C4.60371469 64.77931033 3.41173079 64.77148709 2.18362617 64.76342678 C1.15685971 64.76293972 0.13009324 64.76245267 -0.92778736 64.76195085 C-5.71026942 64.145461 -8.93582255 62.37016525 -12.18681049 58.85074711 C-14.4482435 54.12544422 -14.4200819 50.12419208 -14.37626362 44.94840336 C-14.38009052 43.95010502 -14.38391743 42.95180668 -14.3878603 41.92325687 C-14.39057472 39.81867301 -14.38324654 37.71405514 -14.36649799 35.60953617 C-14.34508226 32.39620275 -14.36631627 29.1851051 -14.39188862 25.97184086 C-14.38924526 23.92235678 -14.38412012 21.87287408 -14.37626362 19.82340336 C-14.38436054 18.86699955 -14.39245747 17.91059574 -14.40079975 16.92521 C-14.32141574 11.25166296 -13.72669543 7.82504255 -9.84501362 3.38590336 C-6.58367479 0.38004457 -4.39275836 0.00892884 0 0 Z " fill="#005CA7" transform="translate(335.84501361846924,278.6140966415405)"/>
<path d="M0 0 C22.05283811 15.68201821 30.97300856 56.31615942 35.23193359 81.47802734 C36.18781035 87.3064136 37.04396449 93.14416193 37.8125 99 C37.90966309 99.64638428 38.00682617 100.29276855 38.10693359 100.95874023 C39.23304807 109.26509812 39.05651042 117.69567185 39.0625 126.0625 C39.06317474 126.90869904 39.06384949 127.75489807 39.06454468 128.6267395 C39.04687824 142.60914944 38.32989472 156.21695692 35.8125 170 C35.64089355 170.95326172 35.46928711 171.90652344 35.29248047 172.88867188 C30.630391 197.96979666 22.47151449 234.42834601 0.69921875 250.56640625 C-4.59611765 253.96432778 -8.74744078 255.71556214 -15.1875 255 C-31.63853039 247.98017921 -40.57508187 229.98783067 -47.0625 214.25 C-54.03830709 196.68594988 -57.86486893 179.8659792 -57.1875 161 C-51.74038677 160.5939564 -51.74038677 160.5939564 -49.24609375 162.42578125 C-48.44365234 163.35970703 -48.44365234 163.35970703 -47.625 164.3125 C-42.79006027 169.58407526 -38.70293587 171.76792036 -31.578125 172.23828125 C-22.55961869 172.48287671 -15.96820691 172.34690202 -9.078125 166.08203125 C-4.07162908 160.92022433 -1.29021523 155.82620596 0.8125 149 C1.11027344 148.154375 1.40804687 147.30875 1.71484375 146.4375 C7.06043008 129.09513699 4.44265234 109.63709559 -3 93.375 C-6.97179679 86.02019036 -12.0862689 81.43036933 -20.1875 79 C-29.70511434 77.64249558 -38.26886426 80.39024492 -45.9765625 86.046875 C-48.24691841 87.80696379 -48.24691841 87.80696379 -49.1875 90 C-51.4975 90 -53.8075 90 -56.1875 90 C-57.26021233 67.83061187 -49.96718145 45.13201421 -39.1875 26 C-38.85991699 25.40574219 -38.53233398 24.81148438 -38.19482422 24.19921875 C-30.24613648 9.90979903 -18.13952936 -5.69083274 0 0 Z " fill="#A7B4BA" transform="translate(733.1875,483)"/>
<path d="M0 0 C1.7901915 0.00056958 1.7901915 0.00056958 3.61654848 0.00115067 C4.61357553 -0.0005801 4.61357553 -0.0005801 5.63074455 -0.00234583 C7.88583019 -0.00501894 10.14084621 -0.00048468 12.39592832 0.00394398 C14.01783809 0.00350842 15.63974779 0.00263379 17.26165712 0.00135481 C21.74022517 -0.00089313 26.21876955 0.0031352 30.69733459 0.00813287 C35.51876629 0.01243292 40.34019654 0.01099127 45.16162962 0.0102306 C53.52229024 0.00970508 61.88294308 0.01285479 70.24360174 0.01846844 C82.33185851 0.02657967 94.4201115 0.02919827 106.50837069 0.03045643 C126.11859203 0.03264755 145.72880922 0.03930924 165.3390283 0.04875904 C184.39371559 0.05793163 203.44840175 0.06501321 222.5030908 0.06926686 C223.67671734 0.06952958 224.85034388 0.0697923 226.05953486 0.07006299 C231.94700422 0.07136798 237.83447359 0.0726317 243.72194296 0.07387489 C292.59992284 0.08424936 341.47789822 0.10186928 390.355874 0.1241985 C390.38053022 4.37834472 390.39871299 8.63245348 390.41080564 12.88664967 C390.41584501 14.33489922 390.42267653 15.78314366 390.43131346 17.23137623 C390.44339647 19.30894438 390.44910611 21.38644547 390.45353025 23.46404225 C390.46138548 25.34144093 390.46138548 25.34144093 390.46939939 27.25676686 C390.355874 30.1241985 390.355874 30.1241985 389.355874 31.1241985 C387.28421607 31.22664565 385.20899968 31.25713602 383.1348142 31.26121289 C382.47440504 31.26386471 381.81399587 31.26651654 381.13357431 31.26924872 C378.89301383 31.27698413 376.65250777 31.2775025 374.41193479 31.27809864 C372.80041179 31.28211047 371.1888898 31.28654822 369.57736903 31.2913782 C365.12740559 31.30338061 360.67745301 31.3090006 356.22747654 31.31355935 C351.43665532 31.31950152 346.64584719 31.33111471 341.85503477 31.34184986 C330.27506823 31.36640446 318.69509735 31.38100484 307.11511278 31.39390993 C303.84703717 31.39761942 300.57896198 31.40159284 297.3108868 31.4056626 C277.03691906 31.43089497 256.76295068 31.45295828 236.4889707 31.46539074 C231.78998271 31.46832066 227.09099475 31.4712823 222.39200681 31.47429615 C221.22402887 31.4750422 220.05605093 31.47578825 218.85267971 31.47655691 C199.91750141 31.48921988 180.98241681 31.52245387 162.04728235 31.56409799 C142.62797246 31.60645857 123.20871062 31.63007891 103.78935462 31.63531131 C92.87754073 31.63873195 81.9658733 31.65056389 71.05410475 31.68341404 C61.76418277 31.71133501 52.47443726 31.722449 43.18447657 31.71121858 C38.44078276 31.70601158 33.69745896 31.70905019 28.95381826 31.73368412 C24.61610025 31.75602303 20.27902128 31.75555783 15.94129322 31.73648025 C14.36724725 31.73365849 12.79315934 31.73939818 11.21918131 31.75429319 C9.08820136 31.7732355 6.95953899 31.76172721 4.82861608 31.74223095 C3.04949014 31.74426575 3.04949014 31.74426575 1.23442227 31.74634165 C-1.644126 31.1241985 -1.644126 31.1241985 -3.47445363 28.78869647 C-7.46277168 19.70336143 -7.72055017 12.11946575 -4.39803225 2.8741985 C-3.22227433 0.14497804 -3.11577288 0.14635245 0 0 Z " fill="#9CB3C0" transform="translate(303.6441259980202,592.8758015036583)"/>
<path d="M0 0 C2.12201397 0.72302176 4.25695382 1.3881257 6.39990234 2.04638672 C33.90746681 10.60736939 61.23309553 26.54801913 78.98193359 49.67529297 C78.98193359 50.33529297 78.98193359 50.99529297 78.98193359 51.67529297 C-12.09806641 51.67529297 -103.17806641 51.67529297 -197.01806641 51.67529297 C-174.18444508 17.42486097 -136.39562312 2.16746509 -97.35253906 -5.75537109 C-65.86534807 -11.89117557 -30.28988595 -10.56768387 0 0 Z " fill="#005CA7" transform="translate(560.01806640625,204.32470703125)"/>
<path d="M0 0 C12.38007951 5.25508583 17.93961978 17.33535273 23 29 C23.34450195 29.78810059 23.68900391 30.57620117 24.04394531 31.38818359 C30.78260444 47.10861046 36.65490525 64.70640811 36 82 C30.69859651 82.66267544 28.21298484 81.05460668 23.98828125 78.24609375 C17.68506662 74.29574902 10.19985177 74.25121542 3 75 C-3.58879582 76.76445719 -8.48598261 81.26300324 -12 87 C-14.11277953 91.8477519 -15.58204236 96.91410235 -17 102 C-17.20367187 102.64839844 -17.40734375 103.29679688 -17.6171875 103.96484375 C-20.47541017 119.16008875 -17.08693441 137.51381215 -10 151 C-6.52718268 155.31052267 -2.46566312 157.94891094 3 159 C10.76868777 159.78670256 17.08847144 158.70598596 24 155 C24.66 154.34 25.32 153.68 26 153 C28.3828125 152.8046875 28.3828125 152.8046875 31.125 152.875 C32.03507812 152.89304687 32.94515625 152.91109375 33.8828125 152.9296875 C34.58148438 152.95289063 35.28015625 152.97609375 36 153 C33.83208099 172.63515218 30.01128153 193.23624659 21 211 C20.48397217 212.0216626 20.48397217 212.0216626 19.95751953 213.06396484 C8.21801938 236.01001825 8.21801938 236.01001825 -0.55078125 240.2265625 C-5.36689186 241.74743954 -8.86926684 241.48459993 -13.5 239.5 C-25.7728738 231.59264507 -30.51639617 216.71278571 -34.5625 203.4375 C-34.84956314 202.50034149 -34.84956314 202.50034149 -35.14242554 201.54425049 C-47.39103171 161.26155408 -51.34682731 118.42777766 -44 77 C-43.80744629 75.89591797 -43.61489258 74.79183594 -43.41650391 73.65429688 C-39.10422558 49.34414301 -32.74235011 19.30764724 -13.125 2.4375 C-8.92106167 -0.49548023 -4.99376826 -1.10686616 0 0 Z " fill="#A7B5BA" transform="translate(289,491)"/>
<path d="M0 0 C-0.81791016 0.51433594 -0.81791016 0.51433594 -1.65234375 1.0390625 C-23.27390123 16.04479299 -33.15238106 51.54748328 -38 76 C-44.41377361 111.65477499 -45.28018831 147.26323305 -39 183 C-38.82339844 184.06637695 -38.64679688 185.13275391 -38.46484375 186.23144531 C-33.88785203 213.58320877 -26.96939723 244.71087372 -8 266 C-7.01 266.66 -6.02 267.32 -5 268 C-5 268.66 -5 269.32 -5 270 C-13.27171287 270.46024987 -19.80432516 270.34152448 -27 266 C-27.96421875 265.4225 -28.9284375 264.845 -29.921875 264.25 C-33.29972964 261.78090828 -35.78779831 259.04095536 -38.3125 255.75 C-39.02079956 254.83299316 -39.02079956 254.83299316 -39.7434082 253.89746094 C-44.9292953 247.00852398 -49.11857538 239.68586526 -53 232 C-53.35191406 231.3095459 -53.70382813 230.6190918 -54.06640625 229.90771484 C-68.21283208 201.6474887 -72.23184481 168.53055814 -72.1875 137.25 C-72.18722809 136.52689636 -72.18695618 135.80379272 -72.18667603 135.05877686 C-72.16471335 122.29196213 -71.57821329 109.67928763 -70 97 C-69.89816406 96.1740332 -69.79632813 95.34806641 -69.69140625 94.49707031 C-65.93767882 65.33616926 -56.60933382 37.10012791 -38 14 C-37.34 13.15050781 -36.68 12.30101562 -36 11.42578125 C-28.16659603 1.87092359 -12.10383391 -6.74815519 0 0 Z " fill="#A7B5BA" transform="translate(261,476)"/>
<path d="M0 0 C14.99320553 1.56020667 24.55256451 10.21778992 33.91796875 21.26171875 C48.28577729 40.10097342 54.78396091 65.3081942 60 88 C60.38651159 89.63546564 60.77322837 91.2708828 61.16015625 92.90625 C61.52481874 94.47884702 61.88815628 96.05175201 62.25 97.625 C62.41330811 98.32254395 62.57661621 99.02008789 62.74487305 99.73876953 C65.20862283 110.76198245 65.23878662 121.88278828 65.25 133.125 C65.25133942 133.91968689 65.25267883 134.71437378 65.25405884 135.53314209 C65.24939464 148.34617378 64.47421723 160.8175879 62.40576172 173.48193359 C62.02495669 175.84512436 61.69392413 178.20931041 61.37890625 180.58203125 C58.82423087 198.87358836 53.60683547 217.17036919 46 234 C45.50242187 235.16273438 45.00484375 236.32546875 44.4921875 237.5234375 C40.13185936 247.06560488 34.15901616 254.41628591 27 262 C25.71802734 263.36898437 25.71802734 263.36898437 24.41015625 264.765625 C22.133146 266.87656481 20.40829322 268.02584822 17.5625 269.1875 C16.78003906 269.5071875 15.99757813 269.826875 15.19140625 270.15625 C14.10666016 270.57390625 14.10666016 270.57390625 13 271 C12.01 271.391875 11.02 271.78375 10 272.1875 C6.03405591 273.26160986 2.08636344 273.65492931 -2 274 C-1.61328125 273.55269531 -1.2265625 273.10539062 -0.828125 272.64453125 C-0.30734375 272.03996094 0.2134375 271.43539063 0.75 270.8125 C1.26046875 270.22082031 1.7709375 269.62914062 2.296875 269.01953125 C20.25163567 247.72913843 28.31133804 218.37849086 33.51464844 191.45605469 C33.84258567 189.79657353 34.1901388 188.14086667 34.55566406 186.48925781 C38.09323374 170.32178622 38.40158111 154.29257336 38.4375 137.8125 C38.44358276 136.75925537 38.44966553 135.70601074 38.45593262 134.62084961 C38.52808235 115.4974516 36.79734504 96.7146019 32.75 78 C32.54020508 77.0205542 32.33041016 76.0411084 32.11425781 75.03198242 C26.28933223 48.76728369 17.30328668 21.10476633 0 0 Z " fill="#A8B5BA" transform="translate(757,472)"/>
<path d="M0 0 C0 3.12609005 -0.57980453 5.01462569 -1.609375 7.9453125 C-1.95000977 8.93063965 -2.29064453 9.9159668 -2.64160156 10.93115234 C-3.00737305 11.98512207 -3.37314453 13.0390918 -3.75 14.125 C-12.22327969 39.17047281 -17.1832362 65.57934343 -17.1328125 92.078125 C-17.13376923 93.20716248 -17.13472595 94.33619995 -17.13571167 95.49945068 C-17.13638861 97.8760992 -17.1345684 100.25274962 -17.13037109 102.62939453 C-17.12503615 106.22562926 -17.13032239 109.82173796 -17.13671875 113.41796875 C-17.14249595 128.37663747 -17.04425278 143.01466265 -14.1875 157.75 C-14.00936768 158.68900146 -13.83123535 159.62800293 -13.64770508 160.59545898 C-13.10934937 163.39922692 -12.55629524 166.19974378 -12 169 C-11.84660156 169.79486816 -11.69320312 170.58973633 -11.53515625 171.40869141 C-8.40410928 187.48994261 -3.20301641 202.85497291 3 218 C-2.43039584 215.92551065 -5.78027123 212.92871299 -10 209 C-10.59039062 208.49726562 -11.18078125 207.99453125 -11.7890625 207.4765625 C-29.50680332 191.53868605 -34.6252833 162.68368941 -37.125 140.25 C-37.21371368 139.45443695 -37.30242737 138.6588739 -37.39382935 137.83920288 C-41.79454788 97.55764018 -40.73215325 46.9289073 -14.8359375 13.1796875 C-10.38907158 8.06044323 -5.63161655 3.77487104 0 0 Z " fill="#A8B5BA" transform="translate(182,503)"/>
<path d="M0 0 C12.70740615 4.70973794 19.25356705 15.14576962 24.91015625 26.84375 C45.37261862 71.83571363 44.12804828 129.62079427 27.14404297 175.30224609 C22.33606989 187.83782055 15.64972454 202.5176566 4 210 C2.35008418 210.70710678 0.68596005 211.38375253 -1 212 C-0.56429687 211.10023438 -0.12859375 210.20046875 0.3203125 209.2734375 C27.18857193 152.05779428 26.94310247 73.34218014 6.16503906 14.64111328 C4.31200635 9.67862742 2.37051437 4.74102875 0 0 Z " fill="#A9B6BB" transform="translate(827,506)"/>
<path d="M0 0 C0.92743515 -0.00525696 1.8548703 -0.01051392 2.81040955 -0.01593018 C5.87125572 -0.02911639 8.93158031 -0.02039611 11.99243164 -0.01025391 C14.12325643 -0.01227521 16.25408054 -0.01518711 18.38490295 -0.01895142 C22.84944244 -0.02337305 27.31380178 -0.01694939 31.77832031 -0.00292969 C37.49596744 0.01415157 43.21319175 0.00432652 48.93082333 -0.01364708 C53.3309293 -0.02449801 57.73093538 -0.02103235 62.13104439 -0.0132637 C64.23893852 -0.01126479 66.34684178 -0.01371012 68.45472527 -0.02070236 C71.40365419 -0.02833708 74.35190287 -0.01668353 77.30078125 0 C78.16902527 -0.00607269 79.03726929 -0.01214539 79.93182373 -0.0184021 C84.93444835 0.03392303 88.38549786 0.60831712 92.71508789 3.38818359 C96.14543609 7.2698934 97.37752507 10.35408906 97.10571289 15.43115234 C96.26570264 19.63960368 93.79377226 22.44024885 90.65258789 25.20068359 C86.26111221 27.8922332 81.82980408 27.54958541 76.85668945 27.56518555 C75.95065979 27.57175674 75.04463013 27.57832794 74.11114502 27.58509827 C71.10933347 27.60482699 68.10757196 27.61649315 65.10571289 27.62646484 C63.56735401 27.63257813 63.56735401 27.63257813 61.99791718 27.63881493 C56.5693329 27.65967418 51.14077389 27.67397635 45.7121582 27.68334961 C40.10886131 27.69441169 34.50596179 27.7288099 28.90280533 27.76852131 C24.59103666 27.79468349 20.27936272 27.80304112 15.96752167 27.80663109 C13.90229357 27.81149831 11.83706974 27.82311615 9.77191925 27.84166908 C6.87798193 27.86605092 3.98507333 27.86509708 1.09106445 27.8581543 C0.2419751 27.87096436 -0.60711426 27.88377441 -1.48193359 27.89697266 C-7.22307348 27.84690415 -10.57179417 26.71521721 -15.28491211 23.38818359 C-18.02697294 19.49622629 -18.83314744 16.02066441 -18.63647461 11.34521484 C-17.87604142 7.11213678 -15.50135527 4.35681696 -12.22068787 1.74447632 C-8.10364733 -0.15754638 -4.48398342 -0.03128904 0 0 Z " fill="#043364" transform="translate(423.284912109375,399.61181640625)"/>
<path d="M0 0 C18.81 0 37.62 0 57 0 C57 10.23 57 20.46 57 31 C53.82697266 31.80050781 53.82697266 31.80050781 50.58984375 32.6171875 C33.92494067 36.90050313 18.25182729 41.70903825 2.70117188 49.22485352 C1 50 1 50 0 50 C0 33.5 0 17 0 0 Z " fill="#005DA8" transform="translate(397,145)"/>
<path d="M0 0 C129.69 0 259.38 0 393 0 C393 9.9 393 19.8 393 30 C392 31 392 31 389.38152212 31.1241985 C388.20021217 31.12381878 387.01890222 31.12343906 385.80179501 31.12304783 C385.1438638 31.12420167 384.48593259 31.12535552 383.80806407 31.12654433 C381.57595179 31.12921738 379.34390986 31.12468323 377.11180115 31.12025452 C375.50639058 31.12069008 373.90098008 31.12156471 372.29556996 31.12284368 C367.8626081 31.1250916 363.42967017 31.12106332 358.99671137 31.11606562 C354.22435989 31.11176554 349.45200986 31.11320723 344.67965698 31.1139679 C336.40412003 31.11449341 328.12859093 31.11134372 319.85305595 31.10573006 C307.88787554 31.0976188 295.92269895 31.09500022 283.95751608 31.09374207 C264.54695192 31.09155095 245.13639196 31.08488927 225.72583008 31.07543945 C206.86515321 31.06626686 188.00447748 31.05918528 169.14379883 31.05493164 C167.98212027 31.05466892 166.82044172 31.05440619 165.62356078 31.05413551 C159.7960277 31.05283051 153.96849462 31.0515668 148.14096153 31.05032361 C99.76063812 31.03994915 51.38031926 31.02232924 3 31 C3 30.67 3 30.34 3 30 C131.04 30 259.08 30 391 30 C391 20.76 391 11.52 391 2 C261.64 2.33 132.28 2.66 -1 3 C-0.67 2.01 -0.34 1.02 0 0 Z " fill="#B5C7CD" transform="translate(301,593)"/>
<path d="M0 0 C0.33 0 0.66 0 1 0 C1.17187498 1.35351547 1.33717258 2.70786633 1.5 4.0625 C1.5928125 4.81660156 1.685625 5.57070313 1.78125 6.34765625 C2.04577654 9.55504049 2 12.78172594 2 16 C89.12 16 176.24 16 266 16 C266 14.02 266 12.04 266 10 C266.33 10 266.66 10 267 10 C267 12.64 267 15.28 267 18 C178.89 18 90.78 18 0 18 C0 12.06 0 6.12 0 0 Z " fill="#E5E8D9" transform="translate(368,552)"/>
<path d="M0 0 C-0.33 0.66 -0.66 1.32 -1 2 C-2.8190918 2.40722656 -2.8190918 2.40722656 -5.19921875 2.640625 C-6.07199463 2.73811035 -6.94477051 2.8355957 -7.84399414 2.93603516 C-9.25152954 3.09144775 -9.25152954 3.09144775 -10.6875 3.25 C-25.65269491 5.17765151 -36.26722652 10.36047996 -48 20 C-48.64324219 20.47953125 -49.28648437 20.9590625 -49.94921875 21.453125 C-64.2221979 32.49888042 -73.21021648 51.77599097 -80 68 C-80.33 68 -80.66 68 -81 68 C-81 64.37 -81 60.74 -81 57 C-80.01 57.33 -79.02 57.66 -78 58 C-77.45472656 56.91203125 -76.90945313 55.8240625 -76.34765625 54.703125 C-71.61591665 45.42082079 -66.64247505 37.07018372 -60 29 C-59.32324219 28.17113281 -58.64648438 27.34226562 -57.94921875 26.48828125 C-54.56703874 22.47588136 -54.56703874 22.47588136 -53 21 C-52.34 21 -51.68 21 -51 21 C-51 20.34 -51 19.68 -51 19 C-35.58194028 6.98668119 -19.83356675 -0.49324315 0 0 Z " fill="#EAEDEB" transform="translate(747,445)"/>
<path d="M0 0 C0 3.96 0 7.92 0 12 C-5.35716279 11.90648818 -10.71387239 11.80039956 -16.07055664 11.68261719 C-17.89307824 11.64432005 -19.71567563 11.60946845 -21.53833008 11.578125 C-24.15733941 11.53249021 -26.77582674 11.47449378 -29.39453125 11.4140625 C-30.21025101 11.40251129 -31.02597076 11.39096008 -31.8664093 11.37905884 C-35.73364504 11.27802726 -37.71159785 11.1922681 -41 9 C-36.58920774 8.95019084 -32.17856888 8.91408867 -27.76757812 8.89013672 C-26.27015324 8.88014099 -24.77274756 8.86653986 -23.27539062 8.84912109 C-21.11062857 8.82458712 -18.94612677 8.81345256 -16.78125 8.8046875 C-15.48251953 8.79421387 -14.18378906 8.78374023 -12.84570312 8.77294922 C-8.61709702 9.02260664 -5.06767713 9.85646042 -1 11 C-1 7.7 -1 4.4 -1 1 C-8.67449784 0.3199812 -16.34053603 -0.22537248 -24.03491211 -0.60717773 C-28.08767699 -0.82433256 -32.01115671 -1.24974734 -36 -2 C-27.21527582 -7.74556456 -9.71490641 -2.05408261 0 0 Z " fill="#E5EDEB" transform="translate(531,160)"/>
<path d="M0 0 C4.57209318 4.57209318 4.2564324 11.9749022 4.2734375 18.08398438 C4.26570312 19.02564453 4.25796875 19.96730469 4.25 20.9375 C4.25773438 21.87529297 4.26546875 22.81308594 4.2734375 23.77929688 C4.2296478 39.53264093 4.2296478 39.53264093 -1 45 C-0.9278125 44.18144531 -0.855625 43.36289062 -0.78125 42.51953125 C0.2929806 28.3605752 0.0935086 14.19028987 0 0 Z " fill="#C1CECC" transform="translate(713,588)"/>
<path d="M0 0 C16.04244032 -1.06949602 16.04244032 -1.06949602 20.40234375 1.3125 C22 3.0625 22 3.0625 23.421875 4.98828125 C25.96113558 8.22520995 29.36787656 10.16374405 32.765625 12.421875 C34.74365974 13.81894849 36.35809226 15.23015139 38 17 C32.89867702 15.66393922 29.9785896 13.3860337 26 10 C24.34183216 9.31246699 22.67540664 8.64438717 21 8 C20.29617187 7.33613281 19.59234375 6.67226563 18.8671875 5.98828125 C15.08441431 3.3650775 12.18529136 3.33842843 7.6875 3.25 C6.94693359 3.22035156 6.20636719 3.19070313 5.44335938 3.16015625 C3.62947954 3.08994155 1.81473722 3.04264952 0 3 C0 2.01 0 1.02 0 0 Z " fill="#5C6480" transform="translate(185,748)"/>
<path d="M0 0 C0.66 0.33 1.32 0.66 2 1 C1.24074219 1.48210938 0.48148438 1.96421875 -0.30078125 2.4609375 C-1.79158203 3.40839844 -1.79158203 3.40839844 -3.3125 4.375 C-4.29863281 5.00148438 -5.28476562 5.62796875 -6.30078125 6.2734375 C-8.21287929 7.49651613 -10.1114034 8.7409356 -12 10 C-21.48286318 12.98534582 -31.46956418 14.17681194 -41 11 C-41 10.67 -41 10.34 -41 10 C-40.43192627 9.96036133 -39.86385254 9.92072266 -39.27856445 9.87988281 C-25.00327863 8.83517373 -12.48829296 7.49297578 0 0 Z " fill="#5C627F" transform="translate(844,738)"/>
<path d="M0 0 C0.33 0 0.66 0 1 0 C1.41277905 31.11401495 1.41277905 31.11401495 -1 46 C-1.33 46 -1.66 46 -2 46 C-2.25045417 30.52000561 -1.8113386 15.38020543 0 0 Z " fill="#032453" transform="translate(674,382)"/>
<path d="M0 0 C0.33 0 0.66 0 1 0 C1 11.88 1 23.76 1 36 C0.67 36 0.34 36 0 36 C-0.33 38.97 -0.66 41.94 -1 45 C-1.33 45 -1.66 45 -2 45 C-2 33.12 -2 21.24 -2 9 C-1.67 9 -1.34 9 -1 9 C-0.67 6.03 -0.34 3.06 0 0 Z " fill="#97AAB2" transform="translate(798,591)"/>
<path d="M0 0 C1.5778125 0.495 1.5778125 0.495 3.1875 1 C7.0846555 2.02220472 10.05026657 2.56605164 13.9375 1.4375 C16.78720799 0.83301649 19.17430556 1.42201705 22 2 C22 2.33 22 2.66 22 3 C20.35 3.33 18.7 3.66 17 4 C22.61 4.33 28.22 4.66 34 5 C34 5.66 34 6.32 34 7 C21.86630164 7.62760509 11.51028713 5.83676238 0 2 C0 1.34 0 0.68 0 0 Z " fill="#C0CCD2" transform="translate(716,767)"/>
<path d="M0 0 C0.66 0 1.32 0 2 0 C2.8368335 3.62420124 3.66887234 7.24948637 4.5 10.875 C4.73847656 11.90753906 4.97695313 12.94007813 5.22265625 14.00390625 C5.44824219 14.99003906 5.67382812 15.97617187 5.90625 16.9921875 C6.11572266 17.90339355 6.32519531 18.81459961 6.54101562 19.75341797 C7 22 7 22 7 24 C6.34 24 5.68 24 5 24 C4.01 20.7 3.02 17.4 2 14 C1.34 15.32 0.68 16.64 0 18 C-0.33 18 -0.66 18 -1 18 C-0.505 9.09 -0.505 9.09 0 0 Z " fill="#E1E7E5" transform="translate(651,663)"/>
<path d="M0 0 C8.74126256 3.49650502 14.05267071 8.44302362 19.125 16.25 C19.52750977 16.86456055 19.93001953 17.47912109 20.34472656 18.11230469 C21.4453125 19.890625 21.4453125 19.890625 23 23 C22.67 23.99 22.34 24.98 22 26 C21.55269531 25.20335937 21.10539063 24.40671875 20.64453125 23.5859375 C15.98735573 15.42346783 12.14289624 8.92361168 4 4 C4.515625 5.093125 5.03125 6.18625 5.5625 7.3125 C7 11 7 11 6 14 C4.02 9.38 2.04 4.76 0 0 Z " fill="#C1CDCB" transform="translate(827,506)"/>
<path d="M0 0 C-0.680625 0.309375 -1.36125 0.61875 -2.0625 0.9375 C-5.67724336 3.47551129 -7.79909335 6.47022554 -10.3515625 10.0390625 C-12 12 -12 12 -15 13 C-16.21869929 15.50447516 -16.21869929 15.50447516 -17 18 C-17.99 18 -18.98 18 -20 18 C-18.01817864 13.67659989 -15.82070416 10.32995594 -12.625 6.8125 C-11.87476563 5.97332031 -11.12453125 5.13414062 -10.3515625 4.26953125 C-4.40597015 -1.46865672 -4.40597015 -1.46865672 0 0 Z " fill="#B1BEBF" transform="translate(239,479)"/>
<path d="M0 0 C0.33 0.99 0.66 1.98 1 3 C-2.45900478 2.8904307 -5.91689109 2.75973152 -9.375 2.625 C-10.35984375 2.5940625 -11.3446875 2.563125 -12.359375 2.53125 C-13.77089844 2.47324219 -13.77089844 2.47324219 -15.2109375 2.4140625 C-16.08024902 2.3826416 -16.94956055 2.3512207 -17.84521484 2.31884766 C-20 2 -20 2 -22 0 C-15.21932297 -1.20545369 -6.55885492 -2.57616424 0 0 Z " fill="#566382" transform="translate(271,448)"/>
<path d="M0 0 C0.66 0.33 1.32 0.66 2 1 C1.835 2.134375 1.67 3.26875 1.5 4.4375 C0.92423916 8.97060294 0.90494734 13.43747238 1 18 C1.33 18 1.66 18 2 18 C2 26.25 2 34.5 2 43 C1.67 43 1.34 43 1 43 C1 36.73 1 30.46 1 24 C0.34 24 -0.32 24 -1 24 C-2.2386744 15.64731722 -1.59105604 8.27086157 0 0 Z " fill="#6B879F" transform="translate(91,583)"/>
<path d="M0 0 C3.85550018 3.63635985 6.86741138 7.41691848 9.8125 11.8125 C10.21919922 12.40998047 10.62589844 13.00746094 11.04492188 13.62304688 C12.03479703 15.07874564 13.01809735 16.53891174 14 18 C13.67 18.66 13.34 19.32 13 20 C6.82579555 14.18898405 1.76174993 8.45639965 0 0 Z " fill="#959AAA" transform="translate(314,473)"/>
<path d="M0 0 C5.72957609 2.46094127 9.77926395 7.45237694 12.4375 13 C12.623125 13.66 12.80875 14.32 13 15 C12.34 15.66 11.68 16.32 11 17 C10.55269531 16.34773438 10.10539063 15.69546875 9.64453125 15.0234375 C6.28054693 10.16036422 2.87762546 5.46514447 -1 1 C-0.67 0.67 -0.34 0.34 0 0 Z " fill="#7B7F96" transform="translate(607,110)"/>
<path d="M0 0 C0 0.66 0 1.32 0 2 C-1.6029053 2.81498562 -3.20737278 3.62689927 -4.8125 4.4375 C-5.70582031 4.88996094 -6.59914063 5.34242188 -7.51953125 5.80859375 C-11.28048007 7.61503374 -14.85482621 8.56821106 -19 9 C-19.99 8.34 -20.98 7.68 -22 7 C-18.71010914 5.82828244 -15.41780898 4.66348912 -12.125 3.5 C-11.18785156 3.16613281 -10.25070312 2.83226562 -9.28515625 2.48828125 C-8.38925781 2.17246094 -7.49335938 1.85664062 -6.5703125 1.53125 C-5.74289551 1.23798828 -4.91547852 0.94472656 -4.06298828 0.64257812 C-2 0 -2 0 0 0 Z " fill="#82869A" transform="translate(295,761)"/>
<path d="M0 0 C0 3.38023517 -0.87455622 5.83468937 -2 9 C-3.546875 9.0928125 -3.546875 9.0928125 -5.125 9.1875 C-9.88462827 10.18548657 -11.53592963 11.70490867 -15 15 C-11.98711066 8.26530618 -6.17473811 3.76508421 0 0 Z " fill="#B9C6C5" transform="translate(182,503)"/>
<path d="M0 0 C0.75 1.75 0.75 1.75 1 4 C0.43925781 4.53496094 -0.12148438 5.06992187 -0.69921875 5.62109375 C-3.78977246 8.81658987 -5.54649448 12.37907946 -7.5625 16.3125 C-7.94857422 17.04662109 -8.33464844 17.78074219 -8.73242188 18.53710938 C-11.03102606 22.95027277 -13.09881513 27.40192669 -15 32 C-16.44881885 27.65354345 -14.40590651 24.90250992 -12.5 21 C-12.13704834 20.24267578 -11.77409668 19.48535156 -11.40014648 18.70507812 C-4.42580963 4.42580963 -4.42580963 4.42580963 0 0 Z " fill="#081442" transform="translate(683,482)"/>
<path d="M0 0 C0.33 0 0.66 0 1 0 C1.66 8.25 2.32 16.5 3 25 C2.34 25 1.68 25 1 25 C0.67 21.04 0.34 17.08 0 13 C-0.66 13 -1.32 13 -2 13 C-1.34 8.71 -0.68 4.42 0 0 Z " fill="#E3E8E7" transform="translate(348,655)"/>
<path d="M0 0 C2.48044315 3.72066472 2.44381173 6.86540474 2.625 11.1875 C2.66367187 11.93708984 2.70234375 12.68667969 2.7421875 13.45898438 C2.83628216 15.30559199 2.91922319 17.1527619 3 19 C-0.14439888 17.42780056 -0.49954025 14.2854916 -1.5625 11.125 C-1.78357422 10.48691406 -2.00464844 9.84882813 -2.23242188 9.19140625 C-3.17368402 6.46714906 -4.08854821 3.73435537 -5 1 C-4.34 1 -3.68 1 -3 1 C-2.34 2.32 -1.68 3.64 -1 5 C-0.67 3.35 -0.34 1.7 0 0 Z " fill="#E7EBE8" transform="translate(334,496)"/>
<path d="M0 0 C1.7074998 1.28062485 3.37373596 2.61767557 5 4 C5 4.66 5 5.32 5 6 C2.2915983 6.02714434 -0.41652721 6.04690846 -3.125 6.0625 C-4.26582031 6.07506836 -4.26582031 6.07506836 -5.4296875 6.08789062 C-9.7389644 6.10646509 -13.75516474 5.86117265 -18 5 C-18 4.67 -18 4.34 -18 4 C-11.73 3.67 -5.46 3.34 1 3 C0.67 2.01 0.34 1.02 0 0 Z " fill="#0065B5" transform="translate(634,250)"/>
<path d="M0 0 C4.46573511 -0.02479481 8.9314333 -0.04290486 13.3972168 -0.05493164 C14.91512755 -0.05994766 16.4330335 -0.06676203 17.95092773 -0.07543945 C20.13787016 -0.08762497 22.32474846 -0.09325572 24.51171875 -0.09765625 C25.82615967 -0.10289307 27.14060059 -0.10812988 28.49487305 -0.11352539 C31.48205125 -0.01677552 34.10592611 0.29656236 37 1 C36.67 1.66 36.34 2.32 36 3 C31.35486839 2.90643557 26.7102562 2.80033591 22.06567383 2.68261719 C20.48567549 2.64433779 18.90559031 2.60948303 17.32543945 2.578125 C15.05388355 2.53245124 12.78292491 2.47446216 10.51171875 2.4140625 C9.80536789 2.40251129 9.09901703 2.39096008 8.3712616 2.37905884 C4.72258607 2.26928952 3.11786454 2.07857636 0 0 Z " fill="#C4D6D9" transform="translate(490,169)"/>
<path d="M0 0 C2.56914858 2.37152176 4.65982084 4.85778619 6.6875 7.6875 C10.29791574 12.6158567 14.60267937 16.77857219 19 21 C16 21 16 21 13.75 18.9375 C13.32332031 18.47988281 12.89664063 18.02226563 12.45703125 17.55078125 C11.42562602 16.45301214 10.3559207 15.39065756 9.26171875 14.35546875 C5.24247541 10.54278181 2.44380518 6.98536257 0 2 C0 1.34 0 0.68 0 0 Z " fill="#102053" transform="translate(159,696)"/>
<path d="M0 0 C0.33 0 0.66 0 1 0 C1 13.86 1 27.72 1 42 C0.67 42 0.34 42 0 42 C0 28.14 0 14.28 0 0 Z " fill="#FEFEF8" transform="translate(293,290)"/>
<path d="M0 0 C0.11039334 8.40215965 -0.04541351 16.64736824 -1 25 C-1.33 25 -1.66 25 -2 25 C-3.03387512 16.9874678 -3.10466648 9.07094823 -3 1 C-1 0 -1 0 0 0 Z " fill="#95A8B0" transform="translate(822,588)"/>
<path d="M0 0 C3.67899027 1.83949514 4.33997674 6.66998616 5.6875 10.375 C6.02072266 11.2515625 6.35394531 12.128125 6.69726562 13.03125 C7.16229492 14.29582031 7.16229492 14.29582031 7.63671875 15.5859375 C7.92248779 16.3598584 8.20825684 17.1337793 8.50268555 17.93115234 C9 20 9 20 8 23 C5.49755555 19.13258585 3.85646152 15.27264722 2.3125 10.9375 C1.87550781 9.72964844 1.43851563 8.52179687 0.98828125 7.27734375 C0 4 0 4 0 0 Z " fill="#0B1C53" transform="translate(254,695)"/>
<path d="M0 0 C2.04315802 3.06473703 2.74260315 5.26954295 3.625 8.8125 C3.88539063 9.82957031 4.14578125 10.84664062 4.4140625 11.89453125 C5.001462 15.00774858 5.10390886 17.84022615 5 21 C4.67 20.01 4.34 19.02 4 18 C3.34 18 2.68 18 2 18 C0.84277343 12.04854907 0.45906011 6.03615203 0 0 Z " fill="#062056" transform="translate(193,664)"/>
<path d="M0 0 C0.66 0.33 1.32 0.66 2 1 C-1.95523655 3.75668002 -5.22423661 4.5317879 -10 5 C-10 7.64 -10 10.28 -10 13 C-10.66 12.67 -11.32 12.34 -12 12 C-12 9.36 -12 6.72 -12 4 C-8 2.66666667 -4 1.33333333 0 0 Z " fill="#DAE1E1" transform="translate(690,360)"/>
<path d="M0 0 C5.96564796 0.50771472 10.63809899 2.38592128 16 5 C12.06329512 6.31223496 9.87511856 5.24296256 6 4 C6.66 5.65 7.32 7.3 8 9 C5.06799526 6.14723863 2.35684596 3.34920216 0 0 Z " fill="#C1CDCB" transform="translate(757,472)"/>
<path d="M0 0 C3.58782455 3.28862607 5.21557686 7.14778765 7.25 11.5 C7.81460938 12.65822266 7.81460938 12.65822266 8.390625 13.83984375 C8.74125 14.58363281 9.091875 15.32742188 9.453125 16.09375 C9.77442383 16.77115234 10.09572266 17.44855469 10.42675781 18.14648438 C11 20 11 20 10 23 C8.70064536 20.48287811 7.41045628 17.96170913 6.125 15.4375 C5.76019531 14.73302734 5.39539063 14.02855469 5.01953125 13.30273438 C2.80057803 8.92534485 1.18933044 4.76358139 0 0 Z " fill="#091950" transform="translate(202,696)"/>
<path d="M0 0 C0.33 0 0.66 0 1 0 C1.02712153 1.916588 1.04645097 3.8332873 1.0625 5.75 C1.07410156 6.81734375 1.08570313 7.8846875 1.09765625 8.984375 C1.01510087 11.53368501 0.74617558 13.57933591 0 16 C-0.99 16 -1.98 16 -3 16 C-2.69262339 13.52009745 -2.37935917 11.04119265 -2.0625 8.5625 C-1.97548828 7.85544922 -1.88847656 7.14839844 -1.79882812 6.41992188 C-1.11328125 1.11328125 -1.11328125 1.11328125 0 0 Z " fill="#0F2B5E" transform="translate(770,646)"/>
<path d="M0 0 C0.78821819 2.29543427 1.13558044 3.58008982 0.37915039 5.92285156 C0.03875732 6.5722168 -0.30163574 7.22158203 -0.65234375 7.890625 C-1.01650391 8.59960938 -1.38066406 9.30859375 -1.75585938 10.0390625 C-2.14580078 10.76867187 -2.53574219 11.49828125 -2.9375 12.25 C-3.32357422 12.99507812 -3.70964844 13.74015625 -4.10742188 14.5078125 C-5.06090166 16.34414394 -6.02905677 18.17284207 -7 20 C-7.66 19.67 -8.32 19.34 -9 19 C-8.06372583 16.9577709 -7.1259235 14.91624236 -6.1875 12.875 C-5.66542969 11.73804688 -5.14335938 10.60109375 -4.60546875 9.4296875 C-3.12104777 6.25858866 -1.58093729 3.1238941 0 0 Z " fill="#091A50" transform="translate(757,696)"/>
<path d="M0 0 C0.66 0.33 1.32 0.66 2 1 C3.38491045 7.17883125 2.90779748 10.41702884 0 16 C-1.16306443 12.45049966 -0.92365049 9.44176052 -0.5625 5.75 C-0.46066406 4.67234375 -0.35882812 3.5946875 -0.25390625 2.484375 C-0.17011719 1.66453125 -0.08632813 0.8446875 0 0 Z " fill="#B8C9C8" transform="translate(713,617)"/>
<path d="M0 0 C0.33 0 0.66 0 1 0 C2.03590199 5.05002222 2.10251672 9.87416389 2 15 C1.67 15 1.34 15 1 15 C0.67 16.65 0.34 18.3 0 20 C-0.33 20 -0.66 20 -1 20 C-1.12910853 13.25766581 -0.797837 6.69613196 0 0 Z " fill="#032C5B" transform="translate(641,747)"/>
<path d="M0 0 C0.66 0.33 1.32 0.66 2 1 C-4.4150557 3.87940913 -9.97047248 5.5464821 -17 6 C-15.17257107 3.4249865 -13.74856458 2.14211701 -10.61328125 1.546875 C-8.85784298 1.39311398 -7.0995676 1.26839829 -5.33984375 1.17578125 C-2.84543904 1.0841849 -2.84543904 1.0841849 0 0 Z " fill="#C4CDC9" transform="translate(772,740)"/>
<path d="M0 0 C2.06348639 1.03174319 4.1105607 2.06178392 6.125 3.1875 C6.74375 3.455625 7.3625 3.72375 8 4 C8.66 3.67 9.32 3.34 10 3 C12.625 3.9375 12.625 3.9375 15 5 C14.67 5.66 14.34 6.32 14 7 C10.76634182 7.48504873 8.65491345 7.39083545 5.8203125 5.69921875 C3.80533846 4.19695163 1.85332587 2.69809807 0 1 C0 0.67 0 0.34 0 0 Z " fill="#082052" transform="translate(686,648)"/>
<path d="M0 0 C0.33 0 0.66 0 1 0 C1.13277344 0.95261719 1.26554687 1.90523437 1.40234375 2.88671875 C1.66724609 4.76810547 1.66724609 4.76810547 1.9375 6.6875 C2.11152344 7.92886719 2.28554688 9.17023437 2.46484375 10.44921875 C2.89822897 13.32474548 3.39649282 16.15644813 4 19 C3.34 19.33 2.68 19.66 2 20 C0.19320413 15.37630977 -0.21839082 11.57471347 -0.125 6.625 C-0.10695313 5.37976563 -0.08890625 4.13453125 -0.0703125 2.8515625 C-0.04710937 1.91054688 -0.02390625 0.96953125 0 0 Z " fill="#07194F" transform="translate(296,602)"/>
<path d="M0 0 C3.0171926 2.55573961 4.2432533 5.38380793 5.75 9 C6.19859375 10.051875 6.6471875 11.10375 7.109375 12.1875 C8 15 8 15 7 18 C3.30242951 12.26239061 1.57964808 6.61776809 0 0 Z " fill="#0A1950" transform="translate(684,693)"/>
<path d="M0 0 C0.33 0 0.66 0 1 0 C1.22331199 1.58129029 1.42804644 3.16521089 1.625 4.75 C1.74101563 5.63171875 1.85703125 6.5134375 1.9765625 7.421875 C2.00207817 10.22859878 1.44843844 11.63384866 0 14 C-1 13 -1 13 -1.1328125 10.8203125 C-1.13023437 9.93085937 -1.12765625 9.04140625 -1.125 8.125 C-1.12757813 7.24070312 -1.13015625 6.35640625 -1.1328125 5.4453125 C-1 3 -1 3 0 0 Z " fill="#B0BDBE" transform="translate(795,638)"/>
<path d="M0 0 C0.99 0.33 1.98 0.66 3 1 C3.94921875 4.16015625 3.94921875 4.16015625 4.6875 8.0625 C4.93886719 9.35285156 5.19023438 10.64320313 5.44921875 11.97265625 C5.63097656 12.97167969 5.81273437 13.97070312 6 15 C5.34 15 4.68 15 4 15 C3.01 11.7 2.02 8.4 1 5 C0.67 5 0.34 5 0 5 C0 3.35 0 1.7 0 0 Z " fill="#EBECE7" transform="translate(652,672)"/>
<path d="M0 0 C0.66 0.33 1.32 0.66 2 1 C0.21427748 2.83947337 -1.57802449 4.67157741 -3.375 6.5 C-3.88289063 7.02464844 -4.39078125 7.54929688 -4.9140625 8.08984375 C-6.23832604 9.43153181 -7.61605865 10.71995815 -9 12 C-9.66 12 -10.32 12 -11 12 C-9.49650623 8.33213607 -7.36271208 6.31089607 -4.375 3.75 C-3.14910156 2.69039062 -3.14910156 2.69039062 -1.8984375 1.609375 C-1.27195312 1.07828125 -0.64546875 0.5471875 0 0 Z " fill="#0063B4" transform="translate(383,233)"/>
<path d="M0 0 C0.33 0 0.66 0 1 0 C1 3.96 1 7.92 1 12 C0.01 12 -0.98 12 -2 12 C-1.85831863 10.56208484 -1.71148957 9.1246763 -1.5625 7.6875 C-1.48128906 6.88699219 -1.40007813 6.08648438 -1.31640625 5.26171875 C-1 3 -1 3 0 0 Z " fill="#B4BFC0" transform="translate(790,669)"/>
<path d="M0 0 C0.99 0 1.98 0 3 0 C3 1.65 3 3.3 3 5 C2.34 5 1.68 5 1 5 C1.33 7.97 1.66 10.94 2 14 C-1 11 -1 11 -1.07421875 8.30078125 C-0.94660156 7.31464844 -0.81898438 6.32851563 -0.6875 5.3125 C-0.56761719 4.31863281 -0.44773438 3.32476563 -0.32421875 2.30078125 C-0.21722656 1.54152344 -0.11023438 0.78226563 0 0 Z " fill="#9DADB4" transform="translate(146,571)"/>
<path d="M0 0 C6.27 0.33 12.54 0.66 19 1 C19 1.33 19 1.66 19 2 C13.06 2.33 7.12 2.66 1 3 C0.67 2.01 0.34 1.02 0 0 Z " fill="#4B6081" transform="translate(439,112)"/>
<path d="M0 0 C0.33 0 0.66 0 1 0 C1.05423638 1.91635217 1.09289963 3.83314925 1.125 5.75 C1.14820313 6.81734375 1.17140625 7.8846875 1.1953125 8.984375 C1.00487687 11.92470106 0.52670104 13.52361878 -1 16 C-1.85330338 10.16524985 -2.48351814 5.55139349 0 0 Z " fill="#031544" transform="translate(915,633)"/>
<path d="M0 0 C2 1 2 1 3.1875 3.3125 C5.62453531 6.92603511 8.14083051 8.034008 12 10 C9 11 9 11 5.4375 9.3125 C2.61470162 7.58547145 0.95451048 6.28775833 0 3 C0 2.01 0 1.02 0 0 Z " fill="#EAEEEB" transform="translate(358,136)"/>
<path d="M0 0 C0 0.99 0 1.98 0 3 C1.32 3.33 2.64 3.66 4 4 C4 4.66 4 5.32 4 6 C1.36 6.33 -1.28 6.66 -4 7 C-3.43628586 3.73045798 -2.50037734 2.17424117 0 0 Z " fill="#ADBCBF" transform="translate(764,736)"/>
<path d="M0 0 C2.49361571 1.20381448 4.68143083 2.45428722 7 4 C7.33 3.34 7.66 2.68 8 2 C8.99 3.98 9.98 5.96 11 8 C6.40378078 6.5129879 3.53027653 4.20187872 0 1 C0 0.67 0 0.34 0 0 Z " fill="#C7D1CD" transform="translate(174,713)"/>
<path d="M0 0 C0.33 0.66 0.66 1.32 1 2 C0.22265625 3.9453125 0.22265625 3.9453125 -0.9375 6.125 C-1.31777344 6.84945312 -1.69804688 7.57390625 -2.08984375 8.3203125 C-2.54037109 9.15175781 -2.54037109 9.15175781 -3 10 C-3.66 10 -4.32 10 -5 10 C-5.66 11.32 -6.32 12.64 -7 14 C-7 10.11708254 -5.62139506 8.53247465 -3.5 5.3125 C-2.8503125 4.31863281 -2.200625 3.32476563 -1.53125 2.30078125 C-0.77328125 1.16189453 -0.77328125 1.16189453 0 0 Z " fill="#0A1A4F" transform="translate(848,694)"/>
<path d="M0 0 C0.99 0.33 1.98 0.66 3 1 C2.236875 1.4125 1.47375 1.825 0.6875 2.25 C-2.06185486 3.81875618 -2.06185486 3.81875618 -3.625 6.1875 C-4.305625 7.0846875 -4.305625 7.0846875 -5 8 C-5.99 8 -6.98 8 -8 8 C-6.49860488 3.79609368 -3.82724957 2.10889262 0 0 Z " fill="#BDC8C5" transform="translate(236,478)"/>
<path d="M0 0 C3.20767125 1.60383562 3.7227936 3.69087432 5 7 C5.24465611 10.35029075 5.17888535 13.64755603 5 17 C4.67 17 4.34 17 4 17 C3.89042969 16.33613281 3.78085937 15.67226563 3.66796875 14.98828125 C2.77191818 9.99808095 1.81561294 6.29045782 -1 2 C-0.67 1.34 -0.34 0.68 0 0 Z " fill="#FAFBF8" transform="translate(516,400)"/>
<path d="M0 0 C0.99 0 1.98 0 3 0 C4.26026798 2.52053595 3.91874445 3.8542098 3.5625 6.625 C3.40974609 7.85089844 3.40974609 7.85089844 3.25390625 9.1015625 C3.17011719 9.72804688 3.08632813 10.35453125 3 11 C2.34 10.67 1.68 10.34 1 10 C0.5859375 7.71484375 0.5859375 7.71484375 0.375 4.9375 C0.30023437 4.01839844 0.22546875 3.09929687 0.1484375 2.15234375 C0.09945312 1.44207031 0.05046875 0.73179687 0 0 Z " fill="#A1AAB8" transform="translate(667,474)"/>
<path d="M0 0 C1 3 1 3 1 6 C-1 8.1875 -1 8.1875 -3 10 C-3.66 9.67 -4.32 9.34 -5 9 C-3.35 6.03 -1.7 3.06 0 0 Z " fill="#C2CFCB" transform="translate(831,708)"/>
<path d="M0 0 C-3 2 -3 2 -5.625 3 C-8.15139938 3.76047262 -8.15139938 3.76047262 -9 6 C-10.32 5.67 -11.64 5.34 -13 5 C-4.738041 -0.74031891 -4.738041 -0.74031891 0 0 Z " fill="#06194D" transform="translate(701,563)"/>
<path d="M0 0 C2.04119788 1.61594832 4.04072937 3.2856382 6 5 C6 5.66 6 6.32 6 7 C3.13275314 6.42655063 2.1385485 6.1385485 0 4 C0 2.68 0 1.36 0 0 Z " fill="#777C91" transform="translate(373,794)"/>
<path d="M0 0 C0 3.64478912 -0.85802506 5.09303401 -3 8 C-5.109375 8.6484375 -5.109375 8.6484375 -7 9 C-6.02180976 7.68677212 -5.0424189 6.37443848 -4.0625 5.0625 C-3.51722656 4.33160156 -2.97195313 3.60070312 -2.41015625 2.84765625 C-1 1 -1 1 0 0 Z " fill="#041D51" transform="translate(743,723)"/>
<path d="M0 0 C0.99 0 1.98 0 3 0 C2.67 4.29 2.34 8.58 2 13 C1.67 13 1.34 13 1 13 C0.67 8.71 0.34 4.42 0 0 Z " fill="#9DACB4" transform="translate(192,566)"/>
<path d="M0 0 C0.99 0 1.98 0 3 0 C3 2.31 3 4.62 3 7 C3.99 7.33 4.98 7.66 6 8 C4.35 8 2.7 8 1 8 C-0.35439668 5.29120665 -0.06501451 2.99066732 0 0 Z " fill="#97AAB3" transform="translate(677,563)"/>
<path d="M0 0 C1.06546953 3.1964086 1.07427838 5.65747276 1 9 C0.34 9 -0.32 9 -1 9 C-1.33 9.66 -1.66 10.32 -2 11 C-1.85957123 9.35369672 -1.71250671 7.70795821 -1.5625 6.0625 C-1.48128906 5.14597656 -1.40007812 4.22945312 -1.31640625 3.28515625 C-1 1 -1 1 0 0 Z " fill="#BAC3C3" transform="translate(150,557)"/>
<path d="M0 0 C3 3 3 3 3.1875 6.1875 C3.0946875 7.5796875 3.0946875 7.5796875 3 9 C2.01 9.33 1.02 9.66 0 10 C0 6.7 0 3.4 0 0 Z " fill="#143E69" transform="translate(645,701)"/>
<path d="M0 0 C0.33 0.66 0.66 1.32 1 2 C0.06421005 4.35981813 -0.93347808 6.69631264 -2 9 C-3.65 9 -5.3 9 -7 9 C-6.38125 8.79375 -5.7625 8.5875 -5.125 8.375 C-2.15232982 6.45150753 -1.92018084 4.32680765 -1 1 C-0.67 0.67 -0.34 0.34 0 0 Z " fill="#0B1E4E" transform="translate(335,249)"/>
<path d="M0 0 C0.99 0.33 1.98 0.66 3 1 C3.125 6.75 3.125 6.75 2 9 C1.34 9 0.68 9 0 9 C0 6.03 0 3.06 0 0 Z " fill="#21426B" transform="translate(914,579)"/>
<path d="M0 0 C0.99 0 1.98 0 3 0 C3.33 3.3 3.66 6.6 4 10 C3.34 9.67 2.68 9.34 2 9 C1.3671875 6.93359375 1.3671875 6.93359375 0.875 4.4375 C0.70742188 3.61121094 0.53984375 2.78492188 0.3671875 1.93359375 C0.24601562 1.29550781 0.12484375 0.65742188 0 0 Z " fill="#DCE3E2" transform="translate(333,505)"/>
<path d="M0 0 C1.65 1.32 3.3 2.64 5 4 C4.67 5.32 4.34 6.64 4 8 C2.68 7.34 1.36 6.68 0 6 C0.33 5.34 0.66 4.68 1 4 C0.60061233 1.90178785 0.60061233 1.90178785 0 0 Z " fill="#9FAFB5" transform="translate(177,709)"/>
<path d="M0 0 C2.52259061 1.97420135 2.9929808 2.96745642 3.6875 6.1875 C3.790625 7.115625 3.89375 8.04375 4 9 C3.34 7.68 2.68 6.36 2 5 C1.34 5 0.68 5 0 5 C-0.5625 3.0625 -0.5625 3.0625 -1 1 C-0.67 0.67 -0.34 0.34 0 0 Z " fill="#BEC7C6" transform="translate(312,524)"/>
<path d="M0 0 C0.66 0.33 1.32 0.66 2 1 C1.625 2.9375 1.625 2.9375 1 5 C0.01 5.495 0.01 5.495 -1 6 C-1.66 5.34 -2.32 4.68 -3 4 C-2.01 2.68 -1.02 1.36 0 0 Z " fill="#09264E" transform="translate(114,526)"/>
<path d="M0 0 C2.31 0 4.62 0 7 0 C7.33 0.66 7.66 1.32 8 2 C4.94736336 2.98120464 3.05263664 2.98120464 0 2 C0 1.34 0 0.68 0 0 Z " fill="#828FA6" transform="translate(322,255)"/>
<path d="M0 0 C0.33 0 0.66 0 1 0 C1 5.28 1 10.56 1 16 C0.67 16 0.34 16 0 16 C0 10.72 0 5.44 0 0 Z " fill="#FEFEF6" transform="translate(374,181)"/>
<path d="M0 0 C1.65 0 3.3 0 5 0 C5 0.33 5 0.66 5 1 C3.35 1 1.7 1 0 1 C0 0.67 0 0.34 0 0 Z " fill="#B4C9CD" transform="translate(508,168)"/>
<path d="M0 0 C0.66 0.66 1.32 1.32 2 2 C1.34 2 0.68 2 0 2 C0 1.34 0 0.68 0 0 Z " fill="#CCD7D9" transform="translate(477,169)"/>
<path d="M0 0 C3 1 3 1 3 1 Z " fill="#B5C9CD" transform="translate(480,157)"/>
<path d="" fill="#FFFFF9" transform="translate(0,0)"/>
<path d="" fill="#B7CDD2" transform="translate(0,0)"/>
<path d="" fill="#B7CECE" transform="translate(0,0)"/>
<path d="" fill="#B3CCCB" transform="translate(0,0)"/>
<path d="" fill="#FFFFF5" transform="translate(0,0)"/>
</svg>
