<?xml version="1.0" encoding="UTF-8"?>
<svg version="1.1" xmlns="http://www.w3.org/2000/svg" width="1024" height="1024">
<path d="M0 0 C0.74628662 0.00054382 1.49257324 0.00108765 2.26147461 0.00164795 C14.37987385 0.04213763 25.74954529 0.96211722 37.4375 4.375 C38.19869141 4.58930664 38.95988281 4.80361328 39.74414062 5.02441406 C76.6332033 15.62809024 107.58711994 40.51047157 126.22460938 73.97436523 C144.36952659 108.20115868 148.3367825 148.83651815 137.12109375 185.92578125 C130.52060314 206.22119861 119.837197 224.35466037 105.00390625 239.66796875 C102.46836567 242.22632238 102.46836567 242.22632238 100.71484375 244.73828125 C100.29332031 245.27839844 99.87179687 245.81851563 99.4375 246.375 C98.7775 246.375 98.1175 246.375 97.4375 246.375 C97.4375 247.035 97.4375 247.695 97.4375 248.375 C85.63064308 259.91610773 69.88214589 268.88753415 54.73046875 275.19140625 C53.91471878 275.53243378 53.09896881 275.8734613 52.25849915 276.224823 C43.59959688 279.79511124 34.79567282 282.92887184 25.95419312 286.01272583 C20.9856346 287.74655215 16.02437557 289.50106503 11.0625 291.25390625 C9.5647126 291.78240425 9.5647126 291.78240425 8.03666687 292.32157898 C-0.79822312 295.44475995 -9.59103262 298.67442216 -18.375 301.9375 C-34.84458888 308.04419372 -51.35695523 314.03172962 -67.88168335 319.98727417 C-70.77336399 321.02953097 -73.66430487 322.07379971 -76.55459595 323.11990356 C-79.99391018 324.36454948 -83.43477286 325.6048196 -86.87680435 326.84193039 C-88.76179014 327.52049544 -90.64531084 328.20312607 -92.52877808 328.88589478 C-116.08384067 337.33017794 -116.08384067 337.33017794 -126.125 332.75 C-133.14108754 328.25374654 -138.78488858 322.38049752 -143.75 315.75 C-144.29825439 315.02417725 -144.84650879 314.29835449 -145.41137695 313.55053711 C-155.65252203 299.73177589 -164.22385946 284.70555594 -172.36962891 269.58007812 C-173.55805253 267.38322135 -174.76810545 265.19934257 -175.98046875 263.015625 C-202.26264252 215.07974962 -234.48787423 140.47811085 -221.5625 84.375 C-219.54813644 77.79217553 -215.86434759 71.00647992 -209.82775879 67.31384277 C-207.87410082 66.44845971 -205.91495704 65.73084534 -203.890625 65.046875 C-203.12163879 64.76737 -202.35265259 64.48786499 -201.56036377 64.19989014 C-199.84258513 63.57900074 -198.12113515 62.96820335 -196.39672852 62.3659668 C-193.36805782 61.30701474 -190.35075614 60.21932408 -187.33398438 59.12695312 C-181.56023103 57.04189062 -175.77772997 54.98234276 -169.99212646 52.93041992 C-163.71899839 50.70490425 -157.44945401 48.46933989 -151.1796875 46.234375 C-149.96374908 45.80108887 -148.74781067 45.36780273 -147.49502563 44.92138672 C-130.9829494 39.03414236 -114.53707996 32.97436258 -98.10995483 26.85440063 C-93.3373933 25.07709401 -88.56374469 23.30271558 -83.7901001 21.52832031 C-80.30657806 20.23181863 -76.82487635 18.93051949 -73.34326172 17.62890625 C-25.86518565 -0.07124801 -25.86518565 -0.07124801 0 0 Z " fill="#F47700" transform="translate(746.5625,263.625)"/>
<path d="M0 0 C2.26213543 0.00314488 4.52293864 -0.02032728 6.78491211 -0.0456543 C21.60530948 -0.11333563 34.99931821 2.5337737 49.03295898 7.37817383 C50.26022705 7.79373535 51.48749512 8.20929688 52.75195312 8.63745117 C67.65389255 13.72416264 82.41118645 19.23715421 97.17138672 24.71826172 C106.89771666 28.32712689 116.63464747 31.88090024 126.44311523 35.26098633 C134.72821918 38.11611434 142.96879692 41.07616655 151.18920898 44.11254883 C152.28991226 44.51855316 153.39061554 44.9245575 154.52467346 45.34286499 C159.02153515 47.00289178 163.51764442 48.66484516 168.01049805 50.33569336 C171.35951759 51.57993047 174.71089817 52.81742609 178.06420898 54.05004883 C179.12349609 54.44003052 180.1827832 54.83001221 181.27416992 55.23181152 C188.21132573 57.74458771 195.09466831 59.78951445 202.32006836 61.27758789 C205.82235349 62.5875559 207.07794433 64.21424414 209.09545898 67.31567383 C225.58478251 116.78364439 179.83020299 212.40691707 158.81936646 256.54701233 C156.7541406 260.8956439 154.74327268 265.26517277 152.75952148 269.65161133 C127.51306677 325.35115075 127.51306677 325.35115075 115.09545898 331.31567383 C106.78213173 332.10752105 100.18088243 329.58522909 92.48999023 326.67114258 C91.16272012 326.18054611 89.8349645 325.69126142 88.50675964 325.20320129 C85.0068905 323.91324284 81.5137061 322.60606744 78.02172852 321.29492188 C74.58061853 320.00599606 71.13379496 318.73257295 67.68725586 317.45825195 C62.19809764 315.42676637 56.712111 313.38693829 51.22802734 311.34179688 C34.00639599 304.92225409 16.73723398 298.63106725 -0.54125977 292.36645508 C-3.80787959 291.18044992 -7.0743873 289.99413675 -10.34082031 288.80761719 C-12.52742687 288.01438325 -14.71461229 287.22274337 -16.90234375 286.43261719 C-45.93572195 275.94174437 -72.14423314 265.836559 -94.90454102 244.31567383 C-95.66508789 243.60797852 -96.42563477 242.9002832 -97.20922852 242.17114258 C-120.5263965 219.78182038 -136.24206443 185.70296657 -137.16850281 153.30403137 C-137.23133768 149.72411024 -137.23509358 146.14601599 -137.21704102 142.56567383 C-137.2152182 141.8152179 -137.21339539 141.06476196 -137.21151733 140.29156494 C-137.16679731 129.36152417 -136.77864587 118.92331385 -133.90454102 108.31567383 C-133.73293457 107.66614746 -133.56132812 107.01662109 -133.38452148 106.34741211 C-123.59182541 70.00329522 -99.71933324 37.20837745 -66.90454102 18.31567383 C-53.86623912 11.17735601 -40.37420325 5.755878 -25.90454102 2.31567383 C-25.10395264 2.12207275 -24.30336426 1.92847168 -23.47851562 1.72900391 C-15.68822252 0.07179209 -7.92679476 -0.02294174 0 0 Z " fill="#FDF7DD" transform="translate(270.904541015625,263.684326171875)"/>
<path d="M0 0 C0.74628662 0.00054382 1.49257324 0.00108765 2.26147461 0.00164795 C14.37987385 0.04213763 25.74954529 0.96211722 37.4375 4.375 C38.19869141 4.58930664 38.95988281 4.80361328 39.74414062 5.02441406 C76.6332033 15.62809024 107.58711994 40.51047157 126.22460938 73.97436523 C144.36952659 108.20115868 148.3367825 148.83651815 137.12109375 185.92578125 C130.52060314 206.22119861 119.837197 224.35466037 105.00390625 239.66796875 C102.46836567 242.22632238 102.46836567 242.22632238 100.71484375 244.73828125 C100.29332031 245.27839844 99.87179687 245.81851563 99.4375 246.375 C98.7775 246.375 98.1175 246.375 97.4375 246.375 C97.4375 247.035 97.4375 247.695 97.4375 248.375 C85.63064308 259.91610773 69.88214589 268.88753415 54.73046875 275.19140625 C53.91471878 275.53243378 53.09896881 275.8734613 52.25849915 276.224823 C43.59959688 279.79511124 34.79567282 282.92887184 25.95419312 286.01272583 C20.9856346 287.74655215 16.02437557 289.50106503 11.0625 291.25390625 C9.5647126 291.78240425 9.5647126 291.78240425 8.03666687 292.32157898 C-0.79822312 295.44475995 -9.59103262 298.67442216 -18.375 301.9375 C-34.84458888 308.04419372 -51.35695523 314.03172962 -67.88168335 319.98727417 C-70.77336399 321.02953097 -73.66430487 322.07379971 -76.55459595 323.11990356 C-79.99391018 324.36454948 -83.43477286 325.6048196 -86.87680435 326.84193039 C-88.76179014 327.52049544 -90.64531084 328.20312607 -92.52877808 328.88589478 C-116.08384067 337.33017794 -116.08384067 337.33017794 -126.125 332.75 C-133.14108754 328.25374654 -138.78488858 322.38049752 -143.75 315.75 C-144.29825439 315.02417725 -144.84650879 314.29835449 -145.41137695 313.55053711 C-155.65252203 299.73177589 -164.22385946 284.70555594 -172.36962891 269.58007812 C-173.55805253 267.38322135 -174.76810545 265.19934257 -175.98046875 263.015625 C-202.26264252 215.07974962 -234.48787423 140.47811085 -221.5625 84.375 C-219.54813644 77.79217553 -215.86434759 71.00647992 -209.82775879 67.31384277 C-207.87410082 66.44845971 -205.91495704 65.73084534 -203.890625 65.046875 C-203.12163879 64.76737 -202.35265259 64.48786499 -201.56036377 64.19989014 C-199.84258513 63.57900074 -198.12113515 62.96820335 -196.39672852 62.3659668 C-193.36805782 61.30701474 -190.35075614 60.21932408 -187.33398438 59.12695312 C-181.56023103 57.04189062 -175.77772997 54.98234276 -169.99212646 52.93041992 C-163.71899839 50.70490425 -157.44945401 48.46933989 -151.1796875 46.234375 C-149.96374908 45.80108887 -148.74781067 45.36780273 -147.49502563 44.92138672 C-130.9829494 39.03414236 -114.53707996 32.97436258 -98.10995483 26.85440063 C-93.3373933 25.07709401 -88.56374469 23.30271558 -83.7901001 21.52832031 C-80.30657806 20.23181863 -76.82487635 18.93051949 -73.34326172 17.62890625 C-25.86518565 -0.07124801 -25.86518565 -0.07124801 0 0 Z M-55.46056747 33.52335358 C-58.81887402 34.7577414 -62.18185172 35.97928261 -65.54418945 37.20263672 C-73.89005791 40.242631 -82.22711699 43.30639287 -90.5625 46.375 C-91.88820264 46.86287789 -93.21390656 47.35075228 -94.53961182 47.83862305 C-105.65329348 51.92923009 -116.7646178 56.02622411 -127.87231445 60.13305664 C-145.70845778 66.72278405 -163.59662329 73.14759456 -181.5625 79.375 C-181.5625 84.32339819 -180.43193115 85.14737788 -177.3125 88.875 C-154.5210189 117.28022726 -139.68705302 153.60147748 -128.39892578 187.87011719 C-127.64899956 190.11595578 -126.8648184 192.34420984 -126.05859375 194.5703125 C-113.09329331 230.86876616 -105.55949213 270.14061478 -101.5625 308.375 C-91.59030328 305.53168771 -81.84458629 302.05357474 -72.0625 298.625 C-71.12709381 298.29786011 -70.19168762 297.97072021 -69.22793579 297.63366699 C-48.30330215 290.3155641 -27.4162961 282.89252735 -6.5625 275.375 C-5.4886908 274.98794891 -5.4886908 274.98794891 -4.39318848 274.59307861 C4.90324964 271.23941795 14.18006458 267.83505984 23.4375 264.375 C24.43901093 264.00151428 24.43901093 264.00151428 25.46075439 263.6204834 C29.69363233 262.04081751 33.92126713 260.44809449 38.14321899 258.83944702 C39.47941441 258.33161417 40.81675591 257.82678397 42.15536499 257.3253479 C53.37582202 253.11460609 62.92347389 247.80398376 72.4375 240.5625 C73.46931396 239.77939453 73.46931396 239.77939453 74.52197266 238.98046875 C100.25342908 219.26047022 115.7732862 192.65548618 121.0546875 160.6328125 C124.87366368 125.56412087 116.51768366 93.00569701 94.71875 65.3125 C86.87353085 55.70068186 78.08742075 46.83241801 67.4375 40.375 C65.92349609 39.41207031 65.92349609 39.41207031 64.37890625 38.4296875 C44.93240585 26.60441674 23.58004224 21.21449621 0.9375 21.125 C-0.97289062 21.0940625 -0.97289062 21.0940625 -2.921875 21.0625 C-21.85641102 20.98584196 -37.9180278 27.06112582 -55.46056747 33.52335358 Z " fill="#091A14" transform="translate(746.5625,263.625)"/>
<path d="M0 0 C2.26213543 0.00314488 4.52293864 -0.02032728 6.78491211 -0.0456543 C21.60530948 -0.11333563 34.99931821 2.5337737 49.03295898 7.37817383 C50.26022705 7.79373535 51.48749512 8.20929688 52.75195312 8.63745117 C67.65389255 13.72416264 82.41118645 19.23715421 97.17138672 24.71826172 C106.89771666 28.32712689 116.63464747 31.88090024 126.44311523 35.26098633 C134.72821918 38.11611434 142.96879692 41.07616655 151.18920898 44.11254883 C152.28991226 44.51855316 153.39061554 44.9245575 154.52467346 45.34286499 C159.02153515 47.00289178 163.51764442 48.66484516 168.01049805 50.33569336 C171.35951759 51.57993047 174.71089817 52.81742609 178.06420898 54.05004883 C179.12349609 54.44003052 180.1827832 54.83001221 181.27416992 55.23181152 C188.21132573 57.74458771 195.09466831 59.78951445 202.32006836 61.27758789 C205.82235349 62.5875559 207.07794433 64.21424414 209.09545898 67.31567383 C225.58478251 116.78364439 179.83020299 212.40691707 158.81936646 256.54701233 C156.7541406 260.8956439 154.74327268 265.26517277 152.75952148 269.65161133 C127.51306677 325.35115075 127.51306677 325.35115075 115.09545898 331.31567383 C106.78213173 332.10752105 100.18088243 329.58522909 92.48999023 326.67114258 C91.16272012 326.18054611 89.8349645 325.69126142 88.50675964 325.20320129 C85.0068905 323.91324284 81.5137061 322.60606744 78.02172852 321.29492188 C74.58061853 320.00599606 71.13379496 318.73257295 67.68725586 317.45825195 C62.19809764 315.42676637 56.712111 313.38693829 51.22802734 311.34179688 C34.00639599 304.92225409 16.73723398 298.63106725 -0.54125977 292.36645508 C-3.80787959 291.18044992 -7.0743873 289.99413675 -10.34082031 288.80761719 C-12.52742687 288.01438325 -14.71461229 287.22274337 -16.90234375 286.43261719 C-45.93572195 275.94174437 -72.14423314 265.836559 -94.90454102 244.31567383 C-95.66508789 243.60797852 -96.42563477 242.9002832 -97.20922852 242.17114258 C-120.5263965 219.78182038 -136.24206443 185.70296657 -137.16850281 153.30403137 C-137.23133768 149.72411024 -137.23509358 146.14601599 -137.21704102 142.56567383 C-137.2152182 141.8152179 -137.21339539 141.06476196 -137.21151733 140.29156494 C-137.16679731 129.36152417 -136.77864587 118.92331385 -133.90454102 108.31567383 C-133.73293457 107.66614746 -133.56132812 107.01662109 -133.38452148 106.34741211 C-123.59182541 70.00329522 -99.71933324 37.20837745 -66.90454102 18.31567383 C-53.86623912 11.17735601 -40.37420325 5.755878 -25.90454102 2.31567383 C-25.10395264 2.12207275 -24.30336426 1.92847168 -23.47851562 1.72900391 C-15.68822252 0.07179209 -7.92679476 -0.02294174 0 0 Z M-45.90454102 31.31567383 C-46.49477051 31.60893555 -47.085 31.90219727 -47.69311523 32.2043457 C-77.94482263 47.44905909 -100.04815591 73.01479087 -110.87719727 104.99145508 C-120.64209392 136.58813587 -117.69136499 170.8587802 -102.47412109 200.17358398 C-97.6039766 209.19881582 -91.92213662 216.8710014 -84.90454102 224.31567383 C-84.40583496 224.860625 -83.90712891 225.40557617 -83.39331055 225.96704102 C-77.59333376 232.28131047 -71.59566717 237.89815554 -64.46704102 242.69067383 C-63.91951172 243.05894287 -63.37198242 243.42721191 -62.80786133 243.80664062 C-60.87357756 245.04384295 -58.90395232 246.18645342 -56.90454102 247.31567383 C-56.05617676 247.80189209 -55.2078125 248.28811035 -54.33374023 248.7890625 C-42.13879944 255.32406278 -28.94908186 259.55546739 -15.93935013 264.15701675 C-12.493516 265.37825546 -9.05150095 266.61015307 -5.609375 267.84179688 C-4.22624803 268.3365798 -2.84311512 268.83134608 -1.4599762 269.32609558 C-0.77873751 269.56978567 -0.09749882 269.81347576 0.60438347 270.0645504 C2.65468816 270.7974832 4.70539714 271.5292733 6.75624084 272.26069641 C17.20483956 275.98801746 27.62924342 279.77735552 38.03295898 283.62817383 C39.47875138 284.16237622 40.92455214 284.69655597 42.37036133 285.23071289 C46.94652624 286.92264865 51.52109984 288.61886307 56.09545898 290.31567383 C63.42116269 293.03293259 70.7473517 295.74887073 78.07449341 298.46224976 C81.15889477 299.60535756 84.24231986 300.75106952 87.32568359 301.89697266 C89.20983894 302.59524307 91.09403295 303.29340916 92.97827148 303.99145508 C93.84300583 304.31364014 94.70774017 304.6358252 95.59867859 304.96777344 C96.39828506 305.26345215 97.19789154 305.55913086 98.02172852 305.86376953 C98.71541534 306.12132523 99.40910217 306.37888092 100.12380981 306.64424133 C102.09657456 307.31605373 104.06728339 307.84011128 106.09545898 308.31567383 C106.21550293 307.69450684 106.33554687 307.07333984 106.45922852 306.43334961 C121.15357645 230.77750176 143.20116397 149.12107902 184.71777344 83.09692383 C185.16417679 82.38600586 185.61058014 81.67508789 186.07051086 80.94262695 C186.40874374 80.40573242 186.74697662 79.86883789 187.09545898 79.31567383 C186.00982666 78.93048584 184.92419434 78.54529785 183.80566406 78.1484375 C162.26383066 70.50367683 140.72942208 62.83844111 119.21209717 55.12493896 C115.89498604 53.93602408 112.57750351 52.74814951 109.26000977 51.56030273 C99.04753398 47.90129483 88.8401981 44.22926374 78.64833069 40.51318359 C74.1120972 38.8594406 69.57392027 37.21106413 65.03573608 35.56268311 C62.90218624 34.78574405 60.76967917 34.00593414 58.63833618 33.22296143 C24.55924947 20.70416885 -11.98340026 14.15184761 -45.90454102 31.31567383 Z " fill="#091B13" transform="translate(270.904541015625,263.684326171875)"/>
<path d="M0 0 C0.82757813 0.61875 1.65515625 1.2375 2.5078125 1.875 C15.41840084 12.88340135 21.67629886 29.71396265 23.31640625 46.17578125 C23.96025004 62.85341242 18.48004168 78.86750339 7.5 91.4375 C6.01835793 92.97622376 4.5200078 94.49916347 3 96 C2.45988281 96.56203125 1.91976562 97.1240625 1.36328125 97.703125 C-10.25860245 108.82734617 -28.26740601 113.4591841 -43.9296875 113.203125 C-62.7201373 111.95999092 -77.96258596 103.4563155 -90.23828125 89.4453125 C-101.65220832 74.95757833 -105.31283955 57.50855771 -103.5390625 39.37890625 C-101.20734787 24.76344862 -95.37574454 13.41091656 -85 3 C-84.38382812 2.360625 -83.76765625 1.72125 -83.1328125 1.0625 C-60.02409057 -21.15361035 -24.11814633 -18.68424854 0 0 Z " fill="#0A1B14" transform="translate(440,632)"/>
<path d="M0 0 C1.21236328 0.92039062 1.21236328 0.92039062 2.44921875 1.859375 C3.22652344 2.43171875 4.00382813 3.0040625 4.8046875 3.59375 C14.92313027 11.74423402 21.32322384 23.37400245 24.44921875 35.859375 C24.64 36.61863281 24.83078125 37.37789062 25.02734375 38.16015625 C27.6259806 54.78661979 23.99272096 69.54817771 15.44921875 83.859375 C6.13477518 96.60083082 -7.91023563 106.07357949 -23.55078125 108.859375 C-35.19976268 109.93357115 -46.72865087 109.60801268 -57.55078125 104.859375 C-58.47761719 104.45847656 -59.40445313 104.05757812 -60.359375 103.64453125 C-74.93390061 96.51231659 -84.87621186 84.56096719 -90.42578125 69.484375 C-95.77501668 53.79092271 -94.74276491 38.19659661 -88.3359375 22.97265625 C-81.068561 8.2061898 -68.53228811 -2.24032938 -53.05078125 -7.578125 C-34.8260926 -13.1606876 -15.75196665 -11.019313 0 0 Z " fill="#091A13" transform="translate(608.55078125,621.140625)"/>
<path d="M0 0 C7.6719651 5.88595858 13.73698714 12.74839376 18.66796875 21.046875 C15.53040028 23.59172878 12.32334148 25.27472356 8.66015625 26.96484375 C7.50902344 27.49658203 6.35789062 28.02832031 5.171875 28.57617188 C3.97433594 29.12337891 2.77679687 29.67058594 1.54296875 30.234375 C0.32535907 30.79847909 -0.89209056 31.36292879 -2.109375 31.92773438 C-11.07190076 36.046875 -11.07190076 36.046875 -13.33203125 36.046875 C-14.32660122 34.84683998 -15.27742664 33.61041007 -16.20703125 32.359375 C-21.23588621 26.48542201 -27.58441824 23.78684779 -35.1640625 22.60546875 C-44.59829137 22.18706947 -53.6468937 25.69754171 -61.3203125 31.0703125 C-68.06874985 37.700816 -70.4319293 46.87597537 -70.62451172 56.00195312 C-70.76332137 74.9477772 -66.92700608 94.0960056 -54.33203125 109.046875 C-46.2854998 116.53393391 -38.15376958 118.7333388 -27.28515625 118.3984375 C-21.9963273 117.9280871 -17.9367725 116.63544012 -13.33203125 114.046875 C-12.68878906 113.70785156 -12.04554688 113.36882812 -11.3828125 113.01953125 C-5.97089544 109.72072714 -2.81985996 104.78742386 -0.33203125 99.046875 C0.41939199 95.6422305 1.02063045 92.29311847 1.44140625 88.83203125 C2.66796875 86.046875 2.66796875 86.046875 6 84.3984375 C7.54896023 83.9243122 9.10610814 83.47660054 10.66796875 83.046875 C11.61027344 82.75643311 12.55257812 82.46599121 13.5234375 82.16674805 C16.6673982 81.20001013 19.82152306 80.27587105 22.98046875 79.359375 C24.06392578 79.03904297 25.14738281 78.71871094 26.26367188 78.38867188 C27.30072266 78.08638672 28.33777344 77.78410156 29.40625 77.47265625 C30.8145105 77.06140503 30.8145105 77.06140503 32.2512207 76.6418457 C34.66796875 76.046875 34.66796875 76.046875 37.66796875 76.046875 C37.19019327 95.34900439 34.34383985 113.15123653 20.60546875 127.859375 C3.67489776 143.77086921 -19.64750113 150.05743455 -42.453125 149.39453125 C-58.33592904 148.52751847 -71.65955817 142.11663688 -82.41015625 130.5078125 C-91.37499994 120.24620476 -97.65836873 107.76944574 -102.33203125 95.046875 C-102.76644531 93.86609375 -103.20085938 92.6853125 -103.6484375 91.46875 C-109.93930916 70.86450137 -108.48240419 46.34409826 -98.64453125 27.171875 C-95.06802715 20.65502724 -90.67288057 15.23092874 -85.33203125 10.046875 C-84.80480469 9.49902344 -84.27757812 8.95117188 -83.734375 8.38671875 C-62.82054186 -11.67130536 -23.74916754 -16.03839886 0 0 Z " fill="#FEFEFD" transform="translate(765.33203125,345.953125)"/>
<path d="M0 0 C12.7964431 8.77310728 20.27492014 20.14240467 23.80859375 35.19140625 C26.0003479 48.20615876 23.39312134 61.7069009 16.25 72.8125 C7.26448618 84.43772703 -3.14294201 92.430792 -17.7578125 95.4296875 C-33.01125622 97.38117247 -46.68294182 93.95181342 -59.26171875 85.03125 C-68.77912506 77.14586073 -75.08323945 65.84689834 -77.75 53.8125 C-79.23513128 37.09913984 -76.42941197 22.44558035 -65.6328125 9.21875 C-48.63882197 -9.27962658 -21.4453069 -12.75447022 0 0 Z " fill="#091A14" transform="translate(519.75,524.1875)"/>
<path d="M0 0 C13.49337673 -0.55858739 24.31049062 4.44939835 34.14453125 13.4375 C43.07474933 22.80283312 44.91689106 34.63821278 44.63671875 47.0234375 C44.11912039 58.45672405 38.88114971 67.1862059 30.64453125 75 C21.80188636 82.23799504 10.94381732 85.79227317 -0.3996582 84.90795898 C-11.65268731 83.7157162 -21.15209344 79.80363156 -28.92578125 71.3203125 C-31.67877203 67.82465444 -33.7543427 64.22632048 -35.60546875 60.1875 C-36.085 59.2284375 -36.085 59.2284375 -36.57421875 58.25 C-40.43415424 49.10052328 -40.08769454 36.37117641 -36.98046875 27.0625 C-31.89116581 15.44754033 -22.76297838 6.89062551 -11.08984375 2.0859375 C-7.30573874 0.71747185 -3.99010574 0.28714404 0 0 Z " fill="#091A13" transform="translate(494.60546875,719.8125)"/>
<path d="M0 0 C11.2438774 -0.50297287 22.04615002 2.84695562 30.64453125 10.19140625 C35.86185004 15.21307558 39.99857298 20.41932494 42.64453125 27.19140625 C42.99902344 28.073125 43.35351562 28.95484375 43.71875 29.86328125 C46.59764393 40.21272271 45.72100256 52.59946397 41.31640625 62.32421875 C35.42145938 72.43377717 26.95707767 79.09078217 16.01953125 83.06640625 C3.519235 86.35388574 -8.60151185 84.64275188 -19.73046875 78.25390625 C-22.52449961 76.05859629 -24.93437692 73.79407997 -27.35546875 71.19140625 C-27.85175781 70.67707031 -28.34804688 70.16273438 -28.859375 69.6328125 C-37.40955217 60.35404881 -38.92121936 50.09912176 -38.6953125 37.88671875 C-38.19711397 27.65401027 -33.59365169 18.37145118 -26.35546875 11.19140625 C-18.62970841 4.88062033 -9.93689456 0.80747568 0 0 Z " fill="#FBC700" transform="translate(396.35546875,638.80859375)"/>
<path d="M0 0 C26.63896786 25.29259403 42.20958347 68.02384113 54 102 C54.36544922 103.04849121 54.73089844 104.09698242 55.10742188 105.17724609 C67.51708484 141.20720777 76.88947599 178.89194352 79 217 C66.37242523 204.86850852 58.25223123 189.24047192 50 174 C49.4932373 173.07687012 48.98647461 172.15374023 48.46435547 171.20263672 C23.86670355 126.29249856 -11.57573151 54.03134523 -0.4921875 1.59765625 C-0.32976563 1.07042969 -0.16734375 0.54320312 0 0 Z " fill="#DA5400" transform="translate(545,354)"/>
<path d="M0 0 C6.37546566 4.70335896 11.4360599 9.90121318 15 17 C15.45826172 17.91265625 15.45826172 17.91265625 15.92578125 18.84375 C17.63335157 22.53404415 18.59651653 25.96516531 19 30 C19.06445312 30.63292969 19.12890625 31.26585937 19.1953125 31.91796875 C19.70764706 41.29369122 16.74760352 51.01855762 10.6953125 58.2265625 C2.61638959 66.677786 -5.2364813 71.96944303 -17.14282227 72.34375 C-29.51147976 72.50772599 -38.86166845 70.0585358 -48.02734375 61.2421875 C-57.02796835 51.01177459 -58.8938531 40.18846207 -58.18652344 27.03271484 C-57.26096746 16.94609297 -51.40918486 8.54601706 -43.796875 2.1484375 C-30.80098562 -7.07591755 -13.78461591 -8.40763807 0 0 Z " fill="#6FB01B" transform="translate(595,637)"/>
<path d="M0 0 C6.98370654 5.73081567 11.62016488 13.21483835 12.71484375 22.27734375 C13.02407482 30.98463956 10.3790502 38.44376119 4.8515625 45.1796875 C-1.55288023 51.85946141 -9.05440759 54.8332194 -18.1484375 55.6171875 C-26.42315106 55.46106083 -33.87666097 51.95728214 -39.80078125 46.30078125 C-46.31144612 38.75667751 -47.90871707 31.19969533 -47.80078125 21.4375 C-47.09337514 13.44680004 -43.45586698 6.65069291 -37.5234375 1.3046875 C-25.87559588 -7.61504458 -12.25439819 -8.23283098 0 0 Z " fill="#F6B300" transform="translate(510.5234375,543.6953125)"/>
<path d="M0 0 C1.24716797 -0.03738281 2.49433594 -0.07476563 3.77929688 -0.11328125 C12.48682498 -0.19564358 19.39601412 0.96127316 26.16943359 6.74780273 C32.14356358 13.211921 33.19207381 20.67306241 32.9765625 29.1171875 C32.16625156 35.49265282 29.47435319 40.97602278 24.6875 45.3125 C16.44530464 50.75234893 9.95463384 50.78333246 0.1875 50.625 C-1.10800781 50.61984375 -2.40351563 50.6146875 -3.73828125 50.609375 C-13.28325066 50.52924934 -13.28325066 50.52924934 -14.4375 49.375 C-14.53581146 47.87629952 -14.56548456 46.37301461 -14.56689453 44.87109375 C-14.57004669 43.91340088 -14.57319885 42.95570801 -14.57644653 41.96899414 C-14.5744223 40.92735107 -14.57239807 39.88570801 -14.5703125 38.8125 C-14.57126923 37.75087646 -14.57222595 36.68925293 -14.57321167 35.59545898 C-14.57389364 33.34586528 -14.57203819 31.09626963 -14.56787109 28.84667969 C-14.5625231 25.38992929 -14.56781554 21.93330883 -14.57421875 18.4765625 C-14.57355797 16.29687471 -14.57227682 14.117187 -14.5703125 11.9375 C-14.57233673 10.89585693 -14.57436096 9.85421387 -14.57644653 8.78100586 C-14.57329437 7.82331299 -14.57014221 6.86562012 -14.56689453 5.87890625 C-14.56609894 5.03142822 -14.56530334 4.1839502 -14.56448364 3.31079102 C-14.20741741 -2.13247388 -4.0382595 0.04466652 0 0 Z " fill="#0A1714" transform="translate(391.4375,655.625)"/>
<path d="M0 0 C5.3532833 4.52453233 8.59755198 10.37796779 9.375 17.375 C8.60526722 24.81575022 6.5115358 30.73342134 1 36 C-4.41468668 40.12853783 -10.05005576 40.74457456 -16.7421875 40.50390625 C-23.01460202 39.53371264 -27.53517824 36.77710687 -31.7265625 32.0546875 C-35.80406666 25.88148288 -36.11799698 19.18063101 -35 12 C-32.79070255 6.02419105 -28.21180418 1.52870483 -23 -2 C-14.9496372 -5.68974962 -7.50196289 -4.20902208 0 0 Z " fill="#125A79" transform="translate(511,744)"/>
<path d="M0 0 C0 3 0 3 -1 5 C-0.34 5.66 0.32 6.32 1 7 C0.01 7.99 -0.98 8.98 -2 10 C-1.01 9.34 -0.02 8.68 1 8 C1.66 8 2.32 8 3 8 C2.98839844 8.69867187 2.97679687 9.39734375 2.96484375 10.1171875 C2.95582031 11.02726563 2.94679688 11.93734375 2.9375 12.875 C2.92589844 13.77992188 2.91429687 14.68484375 2.90234375 15.6171875 C2.83750743 18.0168585 2.83750743 18.0168585 4 20 C3.773125 18.824375 3.54625 17.64875 3.3125 16.4375 C2.75683114 11.88745788 3.68397169 9.01444907 6 5 C9.37438782 1.87251861 11.63861318 0.10472206 16.25 -0.25 C21.41148033 0.09409869 24.49977088 1.69716945 28.375 5.0625 C30 7 30 7 30 9 C27.69 9.33 25.38 9.66 23 10 C22.62875 9.34 22.2575 8.68 21.875 8 C20.10400629 5.70531552 20.10400629 5.70531552 17 5.5 C14.00106978 5.74913573 14.00106978 5.74913573 12.125 7.5 C10.12410687 11.94642919 10.46105512 16.38316536 12 21 C14.78863007 22.39431504 16.92078868 22.25660094 20 22 C20.66 21.01 21.32 20.02 22 19 C23.9453125 18.70703125 23.9453125 18.70703125 26.125 18.8125 C27.40375 18.874375 28.6825 18.93625 30 19 C28.64844718 23.42326378 26.80109562 25.40412982 23 28 C22.01 28.33 21.02 28.66 20 29 C20.33 29.66 20.66 30.32 21 31 C18.525 32.485 18.525 32.485 16 34 C18.64 33.67 21.28 33.34 24 33 C23.34 31.68 22.68 30.36 22 29 C22.9075 28.443125 23.815 27.88625 24.75 27.3125 C27.84453391 25.1106201 29.79281468 23.05610275 32 20 C32 20.66 32 21.32 32 22 C32.99 22.33 33.98 22.66 35 23 C35.66 22.34 36.32 21.68 37 21 C36.57829582 25.77931409 34.46139809 28.83355814 31 32 C25.6077507 36.14298114 19.93252463 36.7439481 13.2578125 36.50390625 C6.98539798 35.53371264 2.46482176 32.77710687 -1.7265625 28.0546875 C-5.78700481 21.90731395 -6.16820209 15.15299124 -5 8 C-3.69125174 4.98536607 -2.1192244 2.50522598 0 0 Z " fill="#136388" transform="translate(481,748)"/>
<path d="M0 0 C13 0 13 0 18 3 C21.86503683 7.41718495 22.37980242 11.20801307 22 17 C20.55922936 23.08073279 19.16088757 24.87128994 14 29 C9.38 29.33 4.76 29.66 0 30 C0 20.1 0 10.2 0 0 Z " fill="#FAC100" transform="translate(391,666)"/>
<path d="M0 0 C8.25 0 16.5 0 25 0 C23.87484587 6.75092478 23.87484587 6.75092478 21.5625 10 C21.03527344 10.75152344 20.50804687 11.50304687 19.96484375 12.27734375 C19.31644531 13.17582031 18.66804687 14.07429687 18 15 C17.12554202 16.22992871 16.25190011 17.46043789 15.37890625 18.69140625 C12.93320469 22.13790396 10.46597535 25.56762891 8 29 C13.28 29.33 18.56 29.66 24 30 C24 31.65 24 33.3 24 35 C15.42 35 6.84 35 -2 35 C0.24950215 26.00199141 0.24950215 26.00199141 3.22265625 22.1328125 C4.15368164 20.89917969 4.15368164 20.89917969 5.10351562 19.640625 C5.74998047 18.81046875 6.39644531 17.9803125 7.0625 17.125 C8.34598921 15.44081792 9.62858706 13.75595606 10.91015625 12.0703125 C11.47871338 11.33570801 12.04727051 10.60110352 12.63305664 9.84423828 C14.05081292 8.04280408 14.05081292 8.04280408 15 6 C10.05 6 5.1 6 0 6 C0 4.02 0 2.04 0 0 Z " fill="#FAFCF7" transform="translate(553,653)"/>
<path d="M0 0 C1.98 0 3.96 0 6 0 C6 0.66 6 1.32 6 2 C6.495 1.67 6.99 1.34 7.5 1 C11.21669939 -0.48667975 13.9941956 -0.31792098 18 0 C20.67431489 1.81163267 20.95920359 2.87761077 22 6 C22.0806622 7.48123547 22.10761193 8.96582204 22.09765625 10.44921875 C22.09443359 11.29677734 22.09121094 12.14433594 22.08789062 13.01757812 C22.07951172 13.89865234 22.07113281 14.77972656 22.0625 15.6875 C22.05798828 16.58017578 22.05347656 17.47285156 22.04882812 18.39257812 C22.03704983 20.59511987 22.02060164 22.79752599 22 25 C20.02 25 18.04 25 16 25 C15.67 19.39 15.34 13.78 15 8 C13.35 7.67 11.7 7.34 10 7 C6.97906785 10.02093215 7.53323166 13.56372072 7.375 17.625 C7.33632813 18.42679688 7.29765625 19.22859375 7.2578125 20.0546875 C7.16346069 22.03607556 7.08063785 24.01800645 7 26 C4.69 26 2.38 26 0 26 C0 17.42 0 8.84 0 0 Z " fill="#F8FBF4" transform="translate(581,663)"/>
<path d="M0 0 C1.12019531 -0.00128906 2.24039063 -0.00257813 3.39453125 -0.00390625 C4.57402344 -0.00003906 5.75351562 0.00382813 6.96875 0.0078125 C8.73798828 0.00201172 8.73798828 0.00201172 10.54296875 -0.00390625 C12.22326172 -0.00197266 12.22326172 -0.00197266 13.9375 0 C14.97326172 0.00112793 16.00902344 0.00225586 17.07617188 0.00341797 C19.46875 0.1328125 19.46875 0.1328125 20.46875 1.1328125 C20.64298601 4.96600479 20.34678368 8.40116936 19.46875 12.1328125 C20.45875 12.1328125 21.44875 12.1328125 22.46875 12.1328125 C22.46875 20.7128125 22.46875 29.2928125 22.46875 38.1328125 C21.13541667 38.1328125 19.80208333 38.1328125 18.46875 38.1328125 C18.46875 36.1528125 18.46875 34.1728125 18.46875 32.1328125 C12.85875 32.1328125 7.24875 32.1328125 1.46875 32.1328125 C5.95160096 24.28782331 5.95160096 24.28782331 8.16015625 21.44921875 C8.63001953 20.83111328 9.09988281 20.21300781 9.58398438 19.57617188 C10.54839869 18.32282372 11.51715652 17.07280576 12.49023438 15.82617188 C12.95880859 15.20677734 13.42738281 14.58738281 13.91015625 13.94921875 C14.32982666 13.40724854 14.74949707 12.86527832 15.18188477 12.30688477 C17.056425 9.13997512 18.17657672 5.57860791 19.46875 2.1328125 C11.21875 2.1328125 2.96875 2.1328125 -5.53125 2.1328125 C-5.53125 4.1128125 -5.53125 6.0928125 -5.53125 8.1328125 C-5.86125 8.1328125 -6.19125 8.1328125 -6.53125 8.1328125 C-6.57366723 5.79986475 -6.57217937 3.46578683 -6.53125 1.1328125 C-4.78579395 -0.61264355 -2.37000783 0.0025809 0 0 Z " fill="#5EA312" transform="translate(558.53125,650.8671875)"/>
<path d="M0 0 C2.72450554 1.69524789 4.75341816 3.29494089 6.8125 5.75 C6.8125 6.41 6.8125 7.07 6.8125 7.75 C4.5025 8.08 2.1925 8.41 -0.1875 8.75 C-0.55875 8.09 -0.93 7.43 -1.3125 6.75 C-3.08349371 4.45531552 -3.08349371 4.45531552 -6.1875 4.25 C-9.18643022 4.49913573 -9.18643022 4.49913573 -11.0625 6.25 C-13.06339313 10.69642919 -12.72644488 15.13316536 -11.1875 19.75 C-8.39886993 21.14431504 -6.26671132 21.00660094 -3.1875 20.75 C-2.5275 19.76 -1.8675 18.77 -1.1875 17.75 C0.7578125 17.45703125 0.7578125 17.45703125 2.9375 17.5625 C4.21625 17.624375 5.495 17.68625 6.8125 17.75 C5.4521147 22.20217009 3.92380825 24.48458525 -0.1875 26.75 C-5.44408809 27.54329607 -9.7853639 27.35091547 -14.6875 25.25 C-18.39014956 21.54735044 -19.99262368 17.90345325 -20.31640625 12.6640625 C-19.97569145 7.2745738 -18.00687004 4.48054748 -14.1875 0.75 C-9.83076464 -2.44493926 -4.83947941 -1.89783506 0 0 Z " fill="#F6F8F9" transform="translate(504.1875,749.25)"/>
<path d="M0 0 C2.9375 0.5 2.9375 0.5 4.8125 1.875 C5.9375 3.5 5.9375 3.5 5.9375 5.5 C8.2806213 5.24438677 10.61593403 4.90729228 12.9375 4.5 C13.2675 3.84 13.5975 3.18 13.9375 2.5 C14.2675 3.49 14.5975 4.48 14.9375 5.5 C12.6275 6.16 10.3175 6.82 7.9375 7.5 C7.6075 8.82 7.2775 10.14 6.9375 11.5 C8.9175 12.16 10.8975 12.82 12.9375 13.5 C12.9375 13.83 12.9375 14.16 12.9375 14.5 C10.2975 14.5 7.6575 14.5 4.9375 14.5 C4.2775 15.82 3.6175 17.14 2.9375 18.5 C-2.6875 18.75 -2.6875 18.75 -6.0625 16.5 C-7.30290113 12.77879661 -7.5964994 9.36585484 -7.0625 5.5 C-5.06757991 1.81707061 -4.16771668 0.68044354 0 0 Z " fill="#114A6A" transform="translate(498.0625,752.5)"/>
<path d="M0 0 C0.5625 1.9375 0.5625 1.9375 1 4 C0.67 4.33 0.34 4.66 0 5 C0.928125 5.433125 1.85625 5.86625 2.8125 6.3125 C5.47184073 7.72038627 7.08105905 8.76123556 9 11 C8.67 11.66 8.34 12.32 8 13 C6.53515625 11.73046875 5.0703125 10.4609375 3.60546875 9.19140625 C-0.00750579 6.5102451 -3.67608845 6.63356682 -8 7 C-11.97956204 8.91325098 -13.67241772 10.45050714 -15.9375 14.25 C-17.51178278 19.80629217 -16.61330672 24.46866266 -15 30 C-17.66129162 27.57012504 -18.8824399 25.74611325 -19.1328125 22.02734375 C-19.11111111 16.22222222 -19.11111111 16.22222222 -18 14 C-19.98 15.32 -21.96 16.64 -24 18 C-23.649375 17.21625 -23.29875 16.4325 -22.9375 15.625 C-22.628125 14.75875 -22.31875 13.8925 -22 13 C-22.33 12.34 -22.66 11.68 -23 11 C-18.14669376 -0.15536062 -11.32679089 -1.68618893 0 0 Z " fill="#114E70" transform="translate(502,742)"/>
<path d="M0 0 C5.7625478 0.20451631 11.4537506 2.22293984 15.8671875 5.953125 C20.16068419 10.69519597 22.77496828 15.67461937 23.3125 22.125 C23 25.375 23 25.375 21 28.375 C20.67 24.415 20.34 20.455 20 16.375 C18.35 16.705 16.7 17.035 15 17.375 C14.46375 16.446875 13.9275 15.51875 13.375 14.5625 C10.39195091 10.55893412 7.76880696 8.88478034 2.8359375 7.9765625 C0.89682047 7.72303837 -1.05160653 7.54296495 -3 7.375 C-3 7.045 -3 6.715 -3 6.375 C-0.03 6.375 2.94 6.375 6 6.375 C5.67 5.055 5.34 3.735 5 2.375 C1.7 2.375 -1.6 2.375 -5 2.375 C-3 0.375 -3 0.375 0 0 Z " fill="#13658A" transform="translate(497,739.625)"/>
<path d="M0 0 C0.33 0.66 0.66 1.32 1 2 C1.99 2.33 2.98 2.66 4 3 C4.66 2.34 5.32 1.68 6 1 C5.57829582 5.77931409 3.46139809 8.83355814 0 12 C-6.39726035 16.91515275 -13.24349228 16.42566201 -21 16 C-21.66 14.35 -22.32 12.7 -23 11 C-22.34 11 -21.68 11 -21 11 C-21 10.34 -21 9.68 -21 9 C-17.7 8.67 -14.4 8.34 -11 8 C-10.67 8.99 -10.34 9.98 -10 11 C-12.475 12.485 -12.475 12.485 -15 14 C-12.36 13.67 -9.72 13.34 -7 13 C-7.66 11.68 -8.32 10.36 -9 9 C-8.071875 8.443125 -7.14375 7.88625 -6.1875 7.3125 C-3.0580593 5.04212145 -1.70245949 3.40491897 0 0 Z " fill="#135F7D" transform="translate(512,768)"/>
<path d="M0 0 C2.375 0.75 2.375 0.75 3.375 1.75 C3.80064759 7.47120437 3.19764831 13.09429288 2.375 18.75 C1.715 17.76 1.055 16.77 0.375 15.75 C-2.61832739 16.7477758 -3.57266315 17.5022025 -5.625 19.75 C-5.70589542 16.97858283 -5.76544062 14.20952181 -5.8125 11.4375 C-5.85020508 10.25897461 -5.85020508 10.25897461 -5.88867188 9.05664062 C-5.89833984 8.29931641 -5.90800781 7.54199219 -5.91796875 6.76171875 C-5.9336792 6.06522217 -5.94938965 5.36872559 -5.96557617 4.65112305 C-5.31669619 1.02902383 -3.59148305 -0.34204601 0 0 Z " fill="#5EA30F" transform="translate(593.625,669.25)"/>
<path d="M0 0 C2.51534642 3.10711061 4.18704593 6.2673326 5.86328125 9.890625 C6.4137915 11.06407471 6.96430176 12.23752441 7.53149414 13.4465332 C7.82154327 14.06694489 8.11159241 14.68735657 8.41043091 15.3265686 C15.53743776 30.5230861 23.35863889 45.29547119 32.54638672 59.36865234 C33.01447754 60.08617676 33.48256836 60.80370117 33.96484375 61.54296875 C34.38241943 62.16582764 34.79999512 62.78868652 35.23022461 63.43041992 C35.48425049 63.94838135 35.73827637 64.46634277 36 65 C35.67 65.66 35.34 66.32 35 67 C33.57010551 64.85515827 32.14086527 62.70992065 30.71484375 60.5625 C29.63584101 58.95014055 28.54615683 57.34482791 27.44140625 55.75 C24.25009965 51.10809949 21.59834717 46.40740657 19.1484375 41.3359375 C18.16567731 39.3369899 17.12664776 37.41980779 16 35.5 C9 23.4795082 9 23.4795082 9 20 C8.34 20 7.68 20 7 20 C6.74605469 19.35933594 6.49210938 18.71867187 6.23046875 18.05859375 C4.62792872 14.03123661 3.02394347 10.0177998 1.25 6.0625 C0 3 0 3 0 0 Z " fill="#0A091B" transform="translate(577,492)"/>
<path d="M0 0 C-0.9178125 0.32613281 -1.835625 0.65226563 -2.78125 0.98828125 C-4.0084375 1.42527344 -5.235625 1.86226562 -6.5 2.3125 C-7.7065625 2.74175781 -8.913125 3.17101562 -10.15625 3.61328125 C-12.74460386 4.53923147 -15.31789025 5.49785452 -17.88671875 6.4765625 C-23.10700819 8.44415156 -28.4176705 10.13343993 -33.72851562 11.83789062 C-34.87803711 12.21397461 -34.87803711 12.21397461 -36.05078125 12.59765625 C-36.73825439 12.81945557 -37.42572754 13.04125488 -38.1340332 13.26977539 C-40.28172906 14.03374551 -40.28172906 14.03374551 -43 16 C-47.87923437 17.94239997 -52.78286849 19.33113699 -58 20 C-57.505 18.515 -57.505 18.515 -57 17 C-55.07492065 16.17767334 -55.07492065 16.17767334 -52.57763672 15.53808594 C-47.19997623 14.06820877 -42.00074107 12.27958544 -36.7578125 10.390625 C-34.84913557 9.71174109 -32.9402761 9.03337019 -31.03125 8.35546875 C-28.06032081 7.29816167 -25.09070167 6.23763899 -22.12402344 5.16845703 C-19.23448237 4.12862054 -16.34044033 3.10228573 -13.4453125 2.078125 C-12.55675568 1.75426819 -11.66819885 1.43041138 -10.75271606 1.09674072 C-9.92440277 0.80603699 -9.09608948 0.51533325 -8.24267578 0.21582031 C-7.15540695 -0.17364777 -7.15540695 -0.17364777 -6.0461731 -0.57098389 C-3.69898466 -1.06311315 -2.25445315 -0.74851001 0 0 Z " fill="#0C0A19" transform="translate(702,554)"/>
<path d="M0 0 C3.63 0 7.26 0 11 0 C11 0.33 11 0.66 11 1 C8.03 1 5.06 1 2 1 C2 9.91 2 18.82 2 28 C5.63 27.67 9.26 27.34 13 27 C13 27.66 13 28.32 13 29 C6.565 29.495 6.565 29.495 0 30 C0 20.1 0 10.2 0 0 Z " fill="#D5C803" transform="translate(391,666)"/>
<path d="M0 0 C3.96 0.33 7.92 0.66 12 1 C12.33 2.32 12.66 3.64 13 5 C12.67 5.33 12.34 5.66 12 6 C13.3921875 6.6496875 13.3921875 6.6496875 14.8125 7.3125 C17.47184073 8.72038627 19.08105905 9.76123556 21 12 C20.67 12.66 20.34 13.32 20 14 C18.53515625 12.73046875 17.0703125 11.4609375 15.60546875 10.19140625 C11.9836712 7.5036976 8.32746103 7.84815926 4 8 C1.68963085 8.42854995 1.68963085 8.42854995 0 9 C0.556875 7.88625 0.556875 7.88625 1.125 6.75 C2.44109315 3.71992804 2.44109315 3.71992804 0 0 Z " fill="#0D3453" transform="translate(490,741)"/>
<path d="M0 0 C3.99492744 1.33164248 4.86562337 3.27832231 7.3125 6.6875 C11.26903759 12.0282249 15.55008786 16.86383568 20.25 21.5625 C21.11685425 22.43684692 21.11685425 22.43684692 22.0012207 23.32885742 C24.66679567 25.95237053 27.26045678 28.26763797 30.421875 30.27734375 C31.27265625 30.84582031 32.1234375 31.41429687 33 32 C33 32.66 33 33.32 33 34 C30.00745382 32.59808647 27.4045389 30.96632511 24.75 29 C24.04359375 28.484375 23.3371875 27.96875 22.609375 27.4375 C22.07828125 26.963125 21.5471875 26.48875 21 26 C21 25.34 21 24.68 21 24 C20.01 23.67 19.02 23.34 18 23 C16.4921875 21.5390625 16.4921875 21.5390625 14.875 19.625 C14.27042969 18.91085937 13.66585937 18.19671875 13.04296875 17.4609375 C12.36878906 16.64882813 11.69460937 15.83671875 11 15 C10.21238281 14.06414062 9.42476562 13.12828125 8.61328125 12.1640625 C1.7089193 3.86993365 1.7089193 3.86993365 0 0 Z " fill="#090C08" transform="translate(172,472)"/>
<path d="M0 0 C0.33 0.99 0.66 1.98 1 3 C-1.475 4.485 -1.475 4.485 -4 6 C1.445 5.505 1.445 5.505 7 5 C2.57129086 8.32153186 1.53391318 8.3460174 -3.75 8.1875 C-4.92046875 8.16042969 -6.0909375 8.13335938 -7.296875 8.10546875 C-8.18890625 8.07066406 -9.0809375 8.03585937 -10 8 C-10.66 6.35 -11.32 4.7 -12 3 C-11.34 3 -10.68 3 -10 3 C-10 2.34 -10 1.68 -10 1 C-6.61981469 -0.04005702 -3.5219721 -0.08004482 0 0 Z " fill="#1B688B" transform="translate(501,776)"/>
<path d="M0 0 C0.33 0 0.66 0 1 0 C1.33695862 2.72876308 1.66968429 5.45793163 2 8.1875 C2.09539063 8.95642578 2.19078125 9.72535156 2.2890625 10.51757812 C2.75192894 14.36928811 3.12467468 18.11170851 3 22 C-1.21814817 18.0299782 -4.61227103 13.69159716 -8 9 C-7.67 8.34 -7.34 7.68 -7 7 C-6.5875 7.639375 -6.175 8.27875 -5.75 8.9375 C-3.99276136 11.41464576 -3.99276136 11.41464576 0 12 C0 8.04 0 4.08 0 0 Z " fill="#EC6B03" transform="translate(621,549)"/>
<path d="M0 0 C0.33 0.99 0.66 1.98 1 3 C-3.11111111 8.55555556 -3.11111111 8.55555556 -6 10 C-5.34 11.32 -4.68 12.64 -4 14 C-7.82989106 15.80230168 -10.78121808 16.19622241 -15 16 C-14.01 14.68 -13.02 13.36 -12 12 C-12.99 11.34 -13.98 10.68 -15 10 C-14.32453125 9.84144531 -13.6490625 9.68289063 -12.953125 9.51953125 C-7.46884607 8.08505945 -4.02558262 7.13033575 -1 2 C-0.67 1.34 -0.34 0.68 0 0 Z " fill="#0E3C59" transform="translate(511,767)"/>
<path d="M0 0 C0 3 0 3 -1.4609375 4.53515625 C-2.09257813 5.03917969 -2.72421875 5.54320312 -3.375 6.0625 C-5.35131693 7.66063282 -7.19993981 9.19993981 -9 11 C-11.125 10.625 -11.125 10.625 -13 10 C-13 10.66 -13 11.32 -13 12 C-18.61 12 -24.22 12 -30 12 C-30.33 11.34 -30.66 10.68 -31 10 C-30.24976563 10.03480469 -29.49953125 10.06960938 -28.7265625 10.10546875 C-17.47212915 10.40313009 -9.56298939 8.46746333 -1 1 C-0.67 0.67 -0.34 0.34 0 0 Z " fill="#0A0A1B" transform="translate(515,588)"/>
<path d="M0 0 C2.9737301 1.33706365 5.05492383 2.80721649 7.34765625 5.1171875 C8.25547852 6.02791016 8.25547852 6.02791016 9.18164062 6.95703125 C9.80232422 7.58996094 10.42300781 8.22289062 11.0625 8.875 C11.68705078 9.50019531 12.31160156 10.12539063 12.95507812 10.76953125 C21 18.89172559 21 18.89172559 21 22 C21.99 22.33 22.98 22.66 24 23 C25.1875 26.0625 25.1875 26.0625 26 29 C22.83383634 26.03172157 20.14613953 22.94222388 17.5 19.5 C13.446199 14.33140373 8.9169651 9.77459201 4.21679688 5.203125 C2.79597172 3.81752691 1.395855 2.4107498 0 1 C0 0.67 0 0.34 0 0 Z " fill="#0A081A" transform="translate(823,310)"/>
<path d="M0 0 C-3.41522737 1.31626691 -6.83242064 2.62735326 -10.25 3.9375 C-11.21808594 4.31068359 -12.18617188 4.68386719 -13.18359375 5.06835938 C-14.11816406 5.42607422 -15.05273438 5.78378906 -16.015625 6.15234375 C-16.87446289 6.48226318 -17.73330078 6.81218262 -18.61816406 7.15209961 C-20.73429522 7.9054128 -22.81180249 8.50167567 -25 9 C-25.33 10.65 -25.66 12.3 -26 14 C-27.32 13.01 -28.64 12.02 -30 11 C-29.67 10.01 -29.34 9.02 -29 8 C-26.54736328 6.81738281 -26.54736328 6.81738281 -23.3203125 5.703125 C-22.16402344 5.30222656 -21.00773438 4.90132813 -19.81640625 4.48828125 C-17.98916016 3.87533203 -17.98916016 3.87533203 -16.125 3.25 C-14.91457031 2.82589844 -13.70414063 2.40179688 -12.45703125 1.96484375 C-3.39216604 -1.13072201 -3.39216604 -1.13072201 0 0 Z " fill="#F29502" transform="translate(594,335)"/>
<path d="M0 0 C3.29485771 2.66726576 5.00875891 5.94737486 6 10 C6.70163937 17.79287465 6.82017279 25.93793745 3 33 C2.01 33.495 2.01 33.495 1 34 C1.51762889 31.1530411 2.16128941 28.50664417 3.0625 25.75 C5.07577066 17.69691734 3.97744293 11.94431224 0.875 4.28515625 C0 2 0 2 0 0 Z " fill="#06041D" transform="translate(518,551)"/>
<path d="M0 0 C0.66 0.66 1.32 1.32 2 2 C-0.64 9.59 -3.28 17.18 -6 25 C-6.66 24.67 -7.32 24.34 -8 24 C-5.96136383 15.72943539 -3.17712327 7.89885589 0 0 Z " fill="#F1F1EA" transform="translate(412,435)"/>
<path d="M0 0 C0.9075 0.103125 1.815 0.20625 2.75 0.3125 C3.41 1.6325 4.07 2.9525 4.75 4.3125 C3.76 3.9825 2.77 3.6525 1.75 3.3125 C-0.27417134 4.26262124 -2.27583732 5.26241347 -4.25 6.3125 C-4.91 6.3125 -5.57 6.3125 -6.25 6.3125 C-6.25 8.6225 -6.25 10.9325 -6.25 13.3125 C-6.58 13.3125 -6.91 13.3125 -7.25 13.3125 C-7.7320394 6.20241889 -7.7320394 6.20241889 -5.625 2.3125 C-3.25 0.3125 -3.25 0.3125 0 0 Z " fill="#0C2D4A" transform="translate(498.25,752.6875)"/>
<path d="M0 0 C0.66 0 1.32 0 2 0 C1.40300869 3.33135891 0.27987719 5.21275667 -1.9375 7.75 C-2.46214844 8.36359375 -2.98679687 8.9771875 -3.52734375 9.609375 C-5 11 -5 11 -7 11 C-7.66 12.32 -8.32 13.64 -9 15 C-8.47903395 10.55175141 -6.87794815 8.12407776 -4.0625 4.6875 C-3.35222656 3.80449219 -2.64195312 2.92148437 -1.91015625 2.01171875 C-1.27980469 1.34785156 -0.64945313 0.68398438 0 0 Z " fill="#80C61B" transform="translate(549,641)"/>
<path d="M0 0 C2.68125418 2.38246339 4.11423459 4.8545504 5.6875 8.0625 C6.12449219 8.94035156 6.56148437 9.81820313 7.01171875 10.72265625 C8 13 8 13 8 15 C8.66 15 9.32 15 10 15 C10.66 17.64 11.32 20.28 12 23 C11.34 23.33 10.68 23.66 10 24 C8.32724698 20.37777789 6.66283749 16.7517834 5 13.125 C4.28457031 11.57619141 4.28457031 11.57619141 3.5546875 9.99609375 C3.10351562 9.00996094 2.65234375 8.02382813 2.1875 7.0078125 C1.76855469 6.09660645 1.34960938 5.18540039 0.91796875 4.24658203 C0 2 0 2 0 0 Z " fill="#0A0A1A" transform="translate(573,395)"/>
<path d="M0 0 C0.66 0 1.32 0 2 0 C0.59998582 4.20004254 -2.44284145 5.7595955 -5.9375 8.1875 C-6.58396484 8.65091797 -7.23042969 9.11433594 -7.89648438 9.59179688 C-12.73020987 13 -12.73020987 13 -15 13 C-15 12.34 -15 11.68 -15 11 C-12.71890987 9.23105139 -10.43814453 7.56974556 -8.0625 5.9375 C-3.84343916 3.19157611 -3.84343916 3.19157611 0 0 Z " fill="#232724" transform="translate(837,514)"/>
<path d="M0 0 C0.82193222 2.34057154 1.16347293 3.5589199 0.28735352 5.92285156 C-0.09493408 6.5722168 -0.47722168 7.22158203 -0.87109375 7.890625 C-1.48500977 8.95410156 -1.48500977 8.95410156 -2.11132812 10.0390625 C-2.54896484 10.76867187 -2.98660156 11.49828125 -3.4375 12.25 C-3.87126953 12.99507813 -4.30503906 13.74015625 -4.75195312 14.5078125 C-5.8236443 16.34499737 -6.91039977 18.17337974 -8 20 C-8.66 19.34 -9.32 18.68 -10 18 C-9.04287109 16.30230469 -9.04287109 16.30230469 -8.06640625 14.5703125 C-7.23174581 13.08855576 -6.39711176 11.60678416 -5.5625 10.125 C-5.14162109 9.37863281 -4.72074219 8.63226563 -4.28710938 7.86328125 C-3.88427734 7.14785156 -3.48144531 6.43242187 -3.06640625 5.6953125 C-2.69459229 5.03547363 -2.32277832 4.37563477 -1.93969727 3.69580078 C-1.26534798 2.47885349 -0.62220698 1.24441397 0 0 Z " fill="#2E312F" transform="translate(876,463)"/>
<path d="M0 0 C2.0625 0.4375 2.0625 0.4375 4 1 C-2.94395046 4.07836721 -9.51747162 6.62820313 -17 8 C-15 6 -15 6 -12 5.625 C-8.87885291 5.34069672 -8.87885291 5.34069672 -7.625 2.9375 C-7.41875 2.298125 -7.2125 1.65875 -7 1 C-5.5459375 1.0309375 -5.5459375 1.0309375 -4.0625 1.0625 C-1.12534105 1.35618499 -1.12534105 1.35618499 0 0 Z " fill="#0A0B19" transform="translate(689,296)"/>
<path d="M0 0 C2.64 1.32 5.28 2.64 8 4 C6.68 4.33 5.36 4.66 4 5 C3.67 6.32 3.34 7.64 3 9 C1.68 8.67 0.36 8.34 -1 8 C-1.33 6.35 -1.66 4.7 -2 3 C-1.01 3.495 -1.01 3.495 0 4 C0 2.68 0 1.36 0 0 Z " fill="#104665" transform="translate(487,772)"/>
<path d="M0 0 C0.99 0.86625 1.98 1.7325 3 2.625 C6.86190708 5.94197541 10.89447006 8.99283262 15 12 C14.67 12.66 14.34 13.32 14 14 C12.2267539 12.73253547 10.45649025 11.46089765 8.6875 10.1875 C7.70136719 9.47980469 6.71523438 8.77210938 5.69921875 8.04296875 C1.49199806 4.8586324 1.49199806 4.8586324 0 3 C0 2.01 0 1.02 0 0 Z " fill="#2F3130" transform="translate(454,600)"/>
<path d="M0 0 C0.66 0 1.32 0 2 0 C3.56834809 2.03260293 5.01461843 4.05662566 6.4375 6.1875 C6.83259766 6.76564453 7.22769531 7.34378906 7.63476562 7.93945312 C8.77284398 9.61532557 9.88685487 11.30746382 11 13 C11.60972656 13.92425781 12.21945312 14.84851563 12.84765625 15.80078125 C13.41806641 16.88939453 13.41806641 16.88939453 14 18 C13.67 18.66 13.34 19.32 13 20 C10.8295946 16.85673081 8.66430763 13.70997025 6.5 10.5625 C5.87996094 9.66466797 5.25992188 8.76683594 4.62109375 7.84179688 C4.03457031 6.98779297 3.44804688 6.13378906 2.84375 5.25390625 C2.02680664 4.06776733 2.02680664 4.06776733 1.19335938 2.85766602 C0 1 0 1 0 0 Z " fill="#09091B" transform="translate(550,359)"/>
<path d="M0 0 C4.66666667 4 9.33333333 8 14 12 C13.34 12.66 12.68 13.32 12 14 C10.1776912 12.42687016 8.36763207 10.84263201 6.5625 9.25 C6.04623047 8.8065625 5.52996094 8.363125 4.99804688 7.90625 C2.25821787 5.47084644 0.34256095 3.75938683 0 0 Z " fill="#2E322F" transform="translate(351,720)"/>
<path d="M0 0 C0.33 0.66 0.66 1.32 1 2 C0.109375 3.83984375 0.109375 3.83984375 -1.25 5.9375 C-1.68828125 6.62714844 -2.1265625 7.31679688 -2.578125 8.02734375 C-4 10 -4 10 -5.609375 11.56640625 C-7.26170086 13.06251048 -7.26170086 13.06251048 -8 16 C-10.5625 17.1875 -10.5625 17.1875 -13 18 C-11.5189857 14.6159207 -9.57121832 12.25808747 -7.0625 9.5625 C-4.25189264 6.54175378 -2.02536572 3.59994472 0 0 Z " fill="#060719" transform="translate(438,699)"/>
<path d="M0 0 C0.33 0.99 0.66 1.98 1 3 C-0.07421875 5.0078125 -0.07421875 5.0078125 -1.6875 7.125 C-2.20699219 7.82882812 -2.72648438 8.53265625 -3.26171875 9.2578125 C-5.18169057 11.18209887 -6.34723083 11.61855607 -9 12 C-8.67 11.34 -8.34 10.68 -8 10 C-7.34 10 -6.68 10 -6 10 C-5.67 7.69 -5.34 5.38 -5 3 C-4.01 3.33 -3.02 3.66 -2 4 C-1.34 2.68 -0.68 1.36 0 0 Z " fill="#146B95" transform="translate(517,769)"/>
<path d="M0 0 C3.38055068 1.12685023 4.1079382 2.05384625 6.3125 4.75 C9.29895915 8.28291763 12.35818708 11.15760943 16 14 C15.34 14.66 14.68 15.32 14 16 C11.65861457 13.71643754 9.32833018 11.42186626 7 9.125 C5.99839844 8.14853516 5.99839844 8.14853516 4.9765625 7.15234375 C4.34492188 6.52714844 3.71328125 5.90195312 3.0625 5.2578125 C2.47597656 4.6817627 1.88945312 4.10571289 1.28515625 3.51220703 C0 2 0 2 0 0 Z " fill="#F9FBF7" transform="translate(183,483)"/>
<path d="M0 0 C4.60428934 1.31551124 8.18320388 3.09196486 12 6 C12 6.66 12 7.32 12 8 C12.99 8.33 13.98 8.66 15 9 C15.6875 11.0625 15.6875 11.0625 16 13 C15.030625 12.13375 14.06125 11.2675 13.0625 10.375 C9.49129621 7.29410493 5.69820665 4.72790773 1.72265625 2.19921875 C1.15417969 1.80347656 0.58570313 1.40773438 0 1 C0 0.67 0 0.34 0 0 Z " fill="#0D0B1A" transform="translate(417,642)"/>
<path d="M0 0 C1.95216435 1.95216435 2.84826645 3.53199953 4 6 C4.66 6 5.32 6 6 6 C6 9.3 6 12.6 6 16 C3.56602817 12.75470423 2.48110973 11.09172408 1.3125 7.4375 C1.06113281 6.67308594 0.80976562 5.90867187 0.55078125 5.12109375 C0 3 0 3 0 0 Z " fill="#EC6502" transform="translate(562,450)"/>
<path d="M0 0 C4.13621084 3.3810038 7.81316569 6.66590534 11 11 C7.46180427 10.42073787 5.74971757 9.15676523 3.25 6.625 C2.63640625 6.01914062 2.0228125 5.41328125 1.390625 4.7890625 C0 3 0 3 0 0 Z " fill="#2D332F" transform="translate(528,706)"/>
<path d="M0 0 C4.08055151 0.50547372 5.66272295 2.50088882 8.25 5.5625 C8.95640625 6.38878906 9.6628125 7.21507812 10.390625 8.06640625 C10.92171875 8.70449219 11.4528125 9.34257813 12 10 C11.01 10.33 10.02 10.66 9 11 C7.87278564 9.73113036 6.74831342 8.45982438 5.625 7.1875 C4.99851562 6.47980469 4.37203125 5.77210938 3.7265625 5.04296875 C2 3 2 3 0 0 Z " fill="#373B39" transform="translate(611,625)"/>
<path d="M0 0 C0.33 0 0.66 0 1 0 C1.2919519 5.54708616 0.19088986 10.61972975 -1 16 C-3 14 -3 14 -3.046875 12.01171875 C-2.49925341 7.72441811 -1.90566194 3.93836801 0 0 Z " fill="#2B302E" transform="translate(459,744)"/>
<path d="M0 0 C3.26008643 3.16952847 6.22237877 6.39937989 9 10 C8.67 10.66 8.34 11.32 8 12 C7.566875 11.525625 7.13375 11.05125 6.6875 10.5625 C4.97690387 8.76313043 4.97690387 8.76313043 2 8 C1.26953125 6.15234375 1.26953125 6.15234375 0.8125 3.9375 C0.65394531 3.20402344 0.49539063 2.47054687 0.33203125 1.71484375 C0.22246094 1.14894531 0.11289062 0.58304688 0 0 Z " fill="#090B1A" transform="translate(614,560)"/>
<path d="M0 0 C4.28133304 1.34577308 6.18609797 3.02013447 8.8125 6.625 C9.71935547 7.85089844 9.71935547 7.85089844 10.64453125 9.1015625 C11.09183594 9.72804688 11.53914063 10.35453125 12 11 C9 11 9 11 6.73828125 8.84765625 C5.93777344 7.92855469 5.13726562 7.00945313 4.3125 6.0625 C3.50425781 5.14597656 2.69601562 4.22945312 1.86328125 3.28515625 C0 1 0 1 0 0 Z " fill="#1B1F1C" transform="translate(440,634)"/>
<path d="M0 0 C1.14897419 4.59589675 0.7140729 5.26171852 -1.4375 9.25 C-1.91058594 10.14203125 -2.38367188 11.0340625 -2.87109375 11.953125 C-3.24363281 12.62859375 -3.61617188 13.3040625 -4 14 C-4.66 13.34 -5.32 12.68 -6 12 C-4.02 8.04 -2.04 4.08 0 0 Z " fill="#333734" transform="translate(437,499)"/>
<path d="M0 0 C-3.3 3.3 -6.6 6.6 -10 10 C-10 9.01 -10 8.02 -10 7 C-9 6 -8 5 -7 4 C-6.28552357 1.89667109 -6.28552357 1.89667109 -6 0 C-2.25 -1.125 -2.25 -1.125 0 0 Z " fill="#F35204" transform="translate(684,353)"/>
<path d="M0 0 C5.15464734 0.48324819 8.81550319 3.18610761 13 6 C12.01 6.66 11.02 7.32 10 8 C9.34 7.01 8.68 6.02 8 5 C6.0533929 3.78581167 6.0533929 3.78581167 3.875 2.8125 C3.15054688 2.46832031 2.42609375 2.12414062 1.6796875 1.76953125 C1.12539063 1.51558594 0.57109375 1.26164063 0 1 C0 0.67 0 0.34 0 0 Z " fill="#1F2321" transform="translate(511,723)"/>
<path d="M0 0 C2.99220268 1.36370299 5.29026529 2.94908083 7.75 5.125 C8.67039063 5.93324219 8.67039063 5.93324219 9.609375 6.7578125 C10.06828125 7.16773438 10.5271875 7.57765625 11 8 C10.01 8.33 9.02 8.66 8 9 C5.95703125 7.63671875 5.95703125 7.63671875 3.8125 5.6875 C2.73935547 4.73423828 2.73935547 4.73423828 1.64453125 3.76171875 C0 2 0 2 0 0 Z " fill="#262A28" transform="translate(180,510)"/>
<path d="M0 0 C0 3.54404336 -0.60989485 4.10267905 -2.875 6.6875 C-3.40867187 7.31011719 -3.94234375 7.93273437 -4.4921875 8.57421875 C-6 10 -6 10 -8 10 C-8 10.66 -8 11.32 -8 12 C-8.66 12 -9.32 12 -10 12 C-8.52278578 8.54798361 -6.56205999 6.35038064 -3.875 3.75 C-3.15054688 3.04359375 -2.42609375 2.3371875 -1.6796875 1.609375 C-1.12539063 1.07828125 -0.57109375 0.5471875 0 0 Z " fill="#1D1F1E" transform="translate(852,500)"/>
<path d="M0 0 C4.12543646 2.94674033 7.75610863 6.39468009 10 11 C9.67 11.99 9.34 12.98 9 14 C7 11.33333333 5 8.66666667 3 6 C2.43925781 5.29359375 1.87851562 4.5871875 1.30078125 3.859375 C0 2 0 2 0 0 Z " fill="#0A091B" transform="translate(563,345)"/>
<path d="M0 0 C2.97 0 5.94 0 9 0 C9.33 1.32 9.66 2.64 10 4 C7.03 4 4.06 4 1 4 C2.32 3.34 3.64 2.68 5 2 C3.35 1.67 1.7 1.34 0 1 C0 0.67 0 0.34 0 0 Z " fill="#125675" transform="translate(493,742)"/>
<path d="M0 0 C-1.22053859 3.66161578 -2.36782304 4.16270474 -5.5625 6.1875 C-6.38878906 6.71730469 -7.21507812 7.24710938 -8.06640625 7.79296875 C-8.70449219 8.19128906 -9.34257813 8.58960938 -10 9 C-10 8.01 -10 7.02 -10 6 C-8.3203125 4.39453125 -8.3203125 4.39453125 -6.125 2.8125 C-5.04605469 2.01779297 -5.04605469 2.01779297 -3.9453125 1.20703125 C-2 0 -2 0 0 0 Z " fill="#242624" transform="translate(614,714)"/>
<path d="M0 0 C1.15006091 3.37299744 0.85199953 5.34853215 -0.3125 8.6875 C-0.57675781 9.47511719 -0.84101562 10.26273438 -1.11328125 11.07421875 C-2 13 -2 13 -4 14 C-3.21824485 9.15311808 -1.60155722 4.6233633 0 0 Z " fill="#0E0C1B" transform="translate(523,571)"/>
<path d="M0 0 C0.33 0.66 0.66 1.32 1 2 C-1.4453385 4.96527758 -3.44602347 5.55582214 -7.1875 6.1875 C-8.08855469 6.34605469 -8.98960937 6.50460937 -9.91796875 6.66796875 C-10.94857422 6.83232422 -10.94857422 6.83232422 -12 7 C-9.35971892 4.92464393 -6.77217731 3.27321903 -3.75 1.8125 C-2.69039062 1.29623047 -2.69039062 1.29623047 -1.609375 0.76953125 C-1.07828125 0.51558594 -0.5471875 0.26164062 0 0 Z " fill="#F35105" transform="translate(774,482)"/>
<path d="M0 0 C0.66 0.33 1.32 0.66 2 1 C2 2.32 2 3.64 2 5 C0.68 5.33 -0.64 5.66 -2 6 C-2 6.66 -2 7.32 -2 8 C-2.66 7.67 -3.32 7.34 -4 7 C-2.68 4.69 -1.36 2.38 0 0 Z " fill="#232C26" transform="translate(525,636)"/>
<path d="M0 0 C-0.33 0.99 -0.66 1.98 -1 3 C-2.77734375 3.80078125 -2.77734375 3.80078125 -4.9375 4.3125 C-5.64777344 4.49425781 -6.35804688 4.67601562 -7.08984375 4.86328125 C-8.03537109 4.93095703 -8.03537109 4.93095703 -9 5 C-9.66 4.34 -10.32 3.68 -11 3 C-9.73160474 2.49384702 -8.46016898 1.99530901 -7.1875 1.5 C-6.12595703 1.08234375 -6.12595703 1.08234375 -5.04296875 0.65625 C-3 0 -3 0 0 0 Z " fill="#232927" transform="translate(560,613)"/>
<path d="M0 0 C2.52349243 3.12432397 4.27256146 6.38060496 6 10 C5.01 10.99 4.02 11.98 3 13 C2.49487756 11.39743892 1.99608373 9.79288208 1.5 8.1875 C1.2215625 7.29417969 0.943125 6.40085937 0.65625 5.48046875 C0 3 0 3 0 0 Z " fill="#0E0F18" transform="translate(463,577)"/>
<path d="M0 0 C0.66 0.33 1.32 0.66 2 1 C-1.625 7.875 -1.625 7.875 -5 9 C-3.7508258 5.54074837 -2.32472205 2.85306797 0 0 Z " fill="#292F2B" transform="translate(349,641)"/>
<path d="M0 0 C0.66 0.33 1.32 0.66 2 1 C0.35 4.3 -1.3 7.6 -3 11 C-3.33 11 -3.66 11 -4 11 C-4.56638908 6.18569279 -2.82561627 3.79692186 0 0 Z " fill="#3D413E" transform="translate(414,549)"/>
<path d="M0 0 C1.32176485 0.90325616 2.63215066 1.82317903 3.9375 2.75 C4.66839844 3.26046875 5.39929688 3.7709375 6.15234375 4.296875 C8.20805399 6.19177915 8.62669176 7.27425729 9 10 C7.86800647 9.0919838 6.74467637 8.17316174 5.625 7.25 C4.99851562 6.73953125 4.37203125 6.2290625 3.7265625 5.703125 C1.91687682 3.91800519 0.99882545 2.32050356 0 0 Z " fill="#060C11" transform="translate(598,638)"/>
<path d="M0 0 C0.99 0 1.98 0 3 0 C3 0.99 3 1.98 3 3 C2.34 3 1.68 3 1 3 C1 3.66 1 4.32 1 5 C-0.65 5.66 -2.3 6.32 -4 7 C-2.68 4.69 -1.36 2.38 0 0 Z " fill="#021015" transform="translate(517,586)"/>
<path d="M0 0 C1.32 0.33 2.64 0.66 4 1 C4 1.66 4 2.32 4 3 C3.236875 3.28875 2.47375 3.5775 1.6875 3.875 C-1.15029308 4.96269013 -1.15029308 4.96269013 -4 7 C-3.34 5.35 -2.68 3.7 -2 2 C-1.34 2 -0.68 2 0 2 C0 1.34 0 0.68 0 0 Z " fill="#0F506F" transform="translate(482,753)"/>
<path d="M0 0 C0.66 0.33 1.32 0.66 2 1 C1.67 2.98 1.34 4.96 1 7 C0.01 7 -0.98 7 -2 7 C-1.125 1.125 -1.125 1.125 0 0 Z " fill="#1C2520" transform="translate(141,360)"/>
<path d="M0 0 C-0.33 0.99 -0.66 1.98 -1 3 C-4.5625 4.1875 -4.5625 4.1875 -8 5 C-8.66 4.34 -9.32 3.68 -10 3 C-8.70990357 2.49596232 -7.41786211 1.99690074 -6.125 1.5 C-5.04605469 1.08234375 -5.04605469 1.08234375 -3.9453125 0.65625 C-2 0 -2 0 0 0 Z " fill="#323633" transform="translate(689,276)"/>
<path d="M0 0 C0.66 0.66 1.32 1.32 2 2 C0.02 4.31 -1.96 6.62 -4 9 C-4.33 8.01 -4.66 7.02 -5 6 C-4.34 6 -3.68 6 -3 6 C-2.690625 5.38125 -2.38125 4.7625 -2.0625 4.125 C-1.375 2.75 -0.6875 1.375 0 0 Z " fill="#2B302D" transform="translate(531,784)"/>
<path d="M0 0 C3.25543229 0.34879632 4.01873107 1.02133261 6.25 3.5625 C6.8275 4.366875 7.405 5.17125 8 6 C4.74456771 5.65120368 3.98126893 4.97866739 1.75 2.4375 C1.1725 1.633125 0.595 0.82875 0 0 Z " fill="#414543" transform="translate(609,586)"/>
<path d="M0 0 C-1.4638611 4.39158329 -3.97831338 4.87947433 -8 7 C-6.47663111 3.31852519 -4.31953005 0 0 0 Z " fill="#292E2B" transform="translate(839,514)"/>
<path d="M0 0 C1 2 1 2 0.375 4 C-1.39265071 6.57112831 -3.07589059 7.07659703 -6 8 C-5.34 6.35 -4.68 4.7 -4 3 C-3.34 3 -2.68 3 -2 3 C-1.34 2.01 -0.68 1.02 0 0 Z " fill="#16231B" transform="translate(446,366)"/>
<path d="M0 0 C-0.928125 0.45375 -1.85625 0.9075 -2.8125 1.375 C-6.03921389 2.9421633 -6.03921389 2.9421633 -9 5 C-9.33 4.01 -9.66 3.02 -10 2 C-3.375 -1.125 -3.375 -1.125 0 0 Z " fill="#F38D02" transform="translate(627,323)"/>
<path d="M0 0 C-1.32 0.33 -2.64 0.66 -4 1 C-4 1.66 -4 2.32 -4 3 C-5.65 2.67 -7.3 2.34 -9 2 C-4 -1.33333333 -4 -1.33333333 0 0 Z M-9 3 C-7 4 -7 4 -7 4 Z " fill="#232B27" transform="translate(237,270)"/>
<path d="M0 0 C0 0.99 0 1.98 0 3 C-3.07322544 3.91058531 -5.80097361 4.08886184 -9 4 C-6.01353231 2.00902154 -3.40312738 1.05875074 0 0 Z " fill="#181118" transform="translate(661,566)"/>
<path d="M0 0 C0.66 0.33 1.32 0.66 2 1 C1.21625 1.45375 0.4325 1.9075 -0.375 2.375 C-3.03698031 3.88428742 -3.03698031 3.88428742 -5 6 C-5.66 5.01 -6.32 4.02 -7 3 C-4.69631264 1.93347808 -2.35981813 0.93578995 0 0 Z " fill="#F78F01" transform="translate(605,329)"/>
<path d="M0 0 C0.66 0 1.32 0 2 0 C2.33 1.32 2.66 2.64 3 4 C1.02 4.66 -0.96 5.32 -3 6 C-3 4 -3 4 -1 2 C-0.67 1.34 -0.34 0.68 0 0 Z " fill="#111216" transform="translate(593,329)"/>
</svg>
